G04 #@! TF.GenerationSoftware,KiCad,Pcbnew,(5.1.10-1-10_14)*
G04 #@! TF.CreationDate,2021-11-10T19:43:01-05:00*
G04 #@! TF.ProjectId,tool_circuit,746f6f6c-5f63-4697-9263-7569742e6b69,1.0*
G04 #@! TF.SameCoordinates,Original*
G04 #@! TF.FileFunction,Copper,L2,Bot*
G04 #@! TF.FilePolarity,Positive*
%FSLAX46Y46*%
G04 Gerber Fmt 4.6, Leading zero omitted, Abs format (unit mm)*
G04 Created by KiCad (PCBNEW (5.1.10-1-10_14)) date 2021-11-10 19:43:01*
%MOMM*%
%LPD*%
G01*
G04 APERTURE LIST*
G04 #@! TA.AperFunction,ComponentPad*
%ADD10C,1.371600*%
G04 #@! TD*
G04 #@! TA.AperFunction,ComponentPad*
%ADD11C,1.270000*%
G04 #@! TD*
G04 #@! TA.AperFunction,ComponentPad*
%ADD12C,1.200000*%
G04 #@! TD*
G04 #@! TA.AperFunction,ComponentPad*
%ADD13R,1.200000X1.200000*%
G04 #@! TD*
G04 #@! TA.AperFunction,ComponentPad*
%ADD14R,1.508000X1.508000*%
G04 #@! TD*
G04 #@! TA.AperFunction,ComponentPad*
%ADD15C,1.508000*%
G04 #@! TD*
G04 #@! TA.AperFunction,ComponentPad*
%ADD16C,1.905000*%
G04 #@! TD*
G04 #@! TA.AperFunction,ComponentPad*
%ADD17C,1.397000*%
G04 #@! TD*
G04 #@! TA.AperFunction,ComponentPad*
%ADD18R,1.700000X1.700000*%
G04 #@! TD*
G04 #@! TA.AperFunction,ComponentPad*
%ADD19O,1.700000X1.700000*%
G04 #@! TD*
G04 #@! TA.AperFunction,ComponentPad*
%ADD20O,1.900000X3.800000*%
G04 #@! TD*
G04 #@! TA.AperFunction,ComponentPad*
%ADD21O,3.800000X1.900000*%
G04 #@! TD*
G04 #@! TA.AperFunction,ViaPad*
%ADD22C,0.685800*%
G04 #@! TD*
G04 #@! TA.AperFunction,Conductor*
%ADD23C,0.254000*%
G04 #@! TD*
G04 #@! TA.AperFunction,Conductor*
%ADD24C,0.508000*%
G04 #@! TD*
G04 #@! TA.AperFunction,Conductor*
%ADD25C,0.153300*%
G04 #@! TD*
G04 APERTURE END LIST*
D10*
X110665000Y-96600000D03*
X105665000Y-96600000D03*
D11*
X152655000Y-58017400D03*
X155195000Y-58017400D03*
D12*
X119344800Y-97590600D03*
D13*
X124344800Y-97590600D03*
D14*
X152934400Y-68710800D03*
D15*
X155474400Y-68710800D03*
D14*
X110872000Y-79658200D03*
D15*
X108332000Y-79658200D03*
D16*
X146076400Y-99876600D03*
X131090400Y-93679000D03*
D17*
X142571200Y-95685600D03*
X138583400Y-95685600D03*
X134595600Y-95685600D03*
D14*
X150013400Y-80064600D03*
D15*
X152553400Y-80064600D03*
D14*
X143155400Y-78820000D03*
D15*
X140615400Y-78820000D03*
X133605000Y-79048600D03*
X131065000Y-79048600D03*
D18*
X141377400Y-57687200D03*
D19*
X141377400Y-60227200D03*
X141377400Y-62767200D03*
D18*
X160757600Y-56671200D03*
D19*
X160757600Y-59211200D03*
X160757600Y-61751200D03*
X160757600Y-64291200D03*
X160757600Y-66831200D03*
X160757600Y-69371200D03*
X160757600Y-71911200D03*
X160757600Y-74451200D03*
D20*
X161496000Y-92105400D03*
D21*
X156846000Y-95355400D03*
X156846000Y-89425400D03*
D14*
X118669800Y-79759800D03*
D15*
X121209800Y-79759800D03*
D18*
X108255800Y-53013600D03*
D19*
X108255800Y-50473600D03*
X110795800Y-53013600D03*
X110795800Y-50473600D03*
X113335800Y-53013600D03*
X113335800Y-50473600D03*
X115875800Y-53013600D03*
X115875800Y-50473600D03*
X118415800Y-53013600D03*
X118415800Y-50473600D03*
X120955800Y-53013600D03*
X120955800Y-50473600D03*
X123495800Y-53013600D03*
X123495800Y-50473600D03*
X126035800Y-53013600D03*
X126035800Y-50473600D03*
X128575800Y-53013600D03*
X128575800Y-50473600D03*
X131115800Y-53013600D03*
X131115800Y-50473600D03*
X133655800Y-53013600D03*
X133655800Y-50473600D03*
X136195800Y-53013600D03*
X136195800Y-50473600D03*
X138735800Y-53013600D03*
X138735800Y-50473600D03*
X141275800Y-53013600D03*
X141275800Y-50473600D03*
X143815800Y-53013600D03*
X143815800Y-50473600D03*
X146355800Y-53013600D03*
X146355800Y-50473600D03*
X148895800Y-53013600D03*
X148895800Y-50473600D03*
X151435800Y-53013600D03*
X151435800Y-50473600D03*
X153975800Y-53013600D03*
X153975800Y-50473600D03*
X156515800Y-53013600D03*
X156515800Y-50473600D03*
D22*
X110211600Y-67136000D03*
X108611400Y-67161400D03*
X107341400Y-67186800D03*
X105842800Y-67186800D03*
X104141000Y-67161400D03*
X122911600Y-67212200D03*
X126340600Y-57484000D03*
X119000000Y-74146400D03*
X129845800Y-67263000D03*
X143079200Y-74019400D03*
X108179600Y-72800200D03*
X138075400Y-65180200D03*
X139269200Y-67136000D03*
X133706600Y-57534800D03*
X131573000Y-57001400D03*
X111735600Y-74222600D03*
X115342400Y-68787000D03*
X145797000Y-76330800D03*
X112675400Y-71149200D03*
D23*
X122186801Y-51782599D02*
X119646801Y-51782599D01*
X119646801Y-51782599D02*
X118415800Y-53013600D01*
X123495800Y-50473600D02*
X122186801Y-51782599D01*
D24*
X112726200Y-57484000D02*
X108255800Y-53013600D01*
X126340600Y-57484000D02*
X112726200Y-57484000D01*
X126340600Y-57484000D02*
X126340600Y-58220600D01*
X126340600Y-58220600D02*
X125629400Y-58931800D01*
X125629400Y-64494400D02*
X122911600Y-67212200D01*
X125629400Y-58931800D02*
X125629400Y-64494400D01*
X119000000Y-74146400D02*
X125553200Y-67593200D01*
X129515600Y-67593200D02*
X129845800Y-67263000D01*
X125553200Y-67593200D02*
X129515600Y-67593200D01*
X135837867Y-67263000D02*
X129845800Y-67263000D01*
X142594267Y-74019400D02*
X135837867Y-67263000D01*
X143079200Y-74019400D02*
X142594267Y-74019400D01*
X110795800Y-50473600D02*
X108255800Y-50473600D01*
X100864400Y-73587600D02*
X101880400Y-74603600D01*
X106376200Y-74603600D02*
X108179600Y-72800200D01*
X101880400Y-74603600D02*
X106376200Y-74603600D01*
X100864400Y-57865000D02*
X100864400Y-73587600D01*
X108255800Y-50473600D02*
X100864400Y-57865000D01*
X108332000Y-81577800D02*
X124344800Y-97590600D01*
X108332000Y-79658200D02*
X108332000Y-81577800D01*
D23*
X132982699Y-60087499D02*
X138075400Y-65180200D01*
X132982699Y-55383927D02*
X132982699Y-60087499D01*
X134079473Y-54982099D02*
X133384527Y-54982099D01*
X133384527Y-54982099D02*
X132982699Y-55383927D01*
X133655800Y-50473600D02*
X134886801Y-51704601D01*
X134886801Y-54174771D02*
X134079473Y-54982099D01*
X134886801Y-51704601D02*
X134886801Y-54174771D01*
X124804799Y-51704601D02*
X126035800Y-50473600D01*
X124804799Y-53742973D02*
X124804799Y-51704601D01*
X150173799Y-77684999D02*
X148746825Y-77684999D01*
X148746825Y-77684999D02*
X124804799Y-53742973D01*
X152553400Y-80064600D02*
X150173799Y-77684999D01*
X139269200Y-67136000D02*
X139269200Y-63021200D01*
X133782800Y-57534800D02*
X133706600Y-57534800D01*
X139269200Y-63021200D02*
X133782800Y-57534800D01*
X129884799Y-51782599D02*
X129884799Y-55313199D01*
X129884799Y-55313199D02*
X131573000Y-57001400D01*
X128575800Y-50473600D02*
X129884799Y-51782599D01*
X111735600Y-74222600D02*
X112497600Y-74222600D01*
X112497600Y-74222600D02*
X114580400Y-72139800D01*
X114580400Y-69549000D02*
X115342400Y-68787000D01*
X114580400Y-72139800D02*
X114580400Y-69549000D01*
X112675400Y-71149200D02*
X110745000Y-73079600D01*
X112772426Y-76330800D02*
X145797000Y-76330800D01*
X110745000Y-74303374D02*
X112772426Y-76330800D01*
X110745000Y-73079600D02*
X110745000Y-74303374D01*
X128557318Y-48670200D02*
X160630600Y-48670200D01*
X160630600Y-48670200D02*
X161976800Y-50016400D01*
X161976800Y-51235600D02*
X155195000Y-58017400D01*
X127344799Y-49882719D02*
X128557318Y-48670200D01*
X126035800Y-53013600D02*
X127344799Y-51704601D01*
X127344799Y-51704601D02*
X127344799Y-49882719D01*
X161976800Y-50016400D02*
X161976800Y-51235600D01*
X138583400Y-95685600D02*
X139662901Y-96765101D01*
X143089361Y-96765101D02*
X157746801Y-82107661D01*
X139662901Y-96765101D02*
X143089361Y-96765101D01*
X157746801Y-82107661D02*
X157746801Y-60569201D01*
X157746801Y-60569201D02*
X155195000Y-58017400D01*
X155195000Y-58017400D02*
X155284799Y-57927601D01*
X162171734Y-43073453D02*
X162598955Y-43202438D01*
X162992984Y-43411946D01*
X163338814Y-43693999D01*
X163623273Y-44037851D01*
X163835529Y-44430410D01*
X163967492Y-44856713D01*
X164017644Y-45333887D01*
X164169907Y-101921726D01*
X164123048Y-102399633D01*
X163994063Y-102826853D01*
X163784554Y-103220884D01*
X163502501Y-103566714D01*
X163158651Y-103851172D01*
X162766093Y-104063427D01*
X162339788Y-104195391D01*
X161863036Y-104245500D01*
X102914721Y-104245500D01*
X102435867Y-104198548D01*
X102008647Y-104069563D01*
X101614616Y-103860054D01*
X101268786Y-103578001D01*
X100984328Y-103234151D01*
X100772073Y-102841593D01*
X100640109Y-102415288D01*
X100589956Y-101938113D01*
X100583989Y-99720245D01*
X144488900Y-99720245D01*
X144488900Y-100032955D01*
X144549907Y-100339657D01*
X144669576Y-100628563D01*
X144843308Y-100888572D01*
X145064428Y-101109692D01*
X145324437Y-101283424D01*
X145613343Y-101403093D01*
X145920045Y-101464100D01*
X146232755Y-101464100D01*
X146539457Y-101403093D01*
X146828363Y-101283424D01*
X147088372Y-101109692D01*
X147309492Y-100888572D01*
X147483224Y-100628563D01*
X147602893Y-100339657D01*
X147663900Y-100032955D01*
X147663900Y-99720245D01*
X147602893Y-99413543D01*
X147483224Y-99124637D01*
X147309492Y-98864628D01*
X147088372Y-98643508D01*
X146828363Y-98469776D01*
X146539457Y-98350107D01*
X146232755Y-98289100D01*
X145920045Y-98289100D01*
X145613343Y-98350107D01*
X145324437Y-98469776D01*
X145064428Y-98643508D01*
X144843308Y-98864628D01*
X144669576Y-99124637D01*
X144549907Y-99413543D01*
X144488900Y-99720245D01*
X100583989Y-99720245D01*
X100580545Y-98440364D01*
X118674641Y-98440364D01*
X118721948Y-98663948D01*
X118943316Y-98764837D01*
X119180113Y-98820600D01*
X119423238Y-98829095D01*
X119663349Y-98789995D01*
X119891218Y-98704802D01*
X119967652Y-98663948D01*
X120014959Y-98440364D01*
X119344800Y-97770205D01*
X118674641Y-98440364D01*
X100580545Y-98440364D01*
X100575243Y-96469913D01*
X104344200Y-96469913D01*
X104344200Y-96730087D01*
X104394957Y-96985263D01*
X104494522Y-97225634D01*
X104639067Y-97441961D01*
X104823039Y-97625933D01*
X105039366Y-97770478D01*
X105279737Y-97870043D01*
X105534913Y-97920800D01*
X105795087Y-97920800D01*
X106050263Y-97870043D01*
X106290634Y-97770478D01*
X106506961Y-97625933D01*
X106621773Y-97511121D01*
X109933485Y-97511121D01*
X109991221Y-97743442D01*
X110227242Y-97852919D01*
X110480086Y-97914247D01*
X110740036Y-97925069D01*
X110997103Y-97884970D01*
X111241407Y-97795490D01*
X111338779Y-97743442D01*
X111357269Y-97669038D01*
X118106305Y-97669038D01*
X118145405Y-97909149D01*
X118230598Y-98137018D01*
X118271452Y-98213452D01*
X118495036Y-98260759D01*
X119165195Y-97590600D01*
X119524405Y-97590600D01*
X120194564Y-98260759D01*
X120418148Y-98213452D01*
X120519037Y-97992084D01*
X120574800Y-97755287D01*
X120583295Y-97512162D01*
X120544195Y-97272051D01*
X120459002Y-97044182D01*
X120418148Y-96967748D01*
X120194564Y-96920441D01*
X119524405Y-97590600D01*
X119165195Y-97590600D01*
X118495036Y-96920441D01*
X118271452Y-96967748D01*
X118170563Y-97189116D01*
X118114800Y-97425913D01*
X118106305Y-97669038D01*
X111357269Y-97669038D01*
X111396515Y-97511121D01*
X110665000Y-96779605D01*
X109933485Y-97511121D01*
X106621773Y-97511121D01*
X106690933Y-97441961D01*
X106835478Y-97225634D01*
X106935043Y-96985263D01*
X106985800Y-96730087D01*
X106985800Y-96675036D01*
X109339931Y-96675036D01*
X109380030Y-96932103D01*
X109469510Y-97176407D01*
X109521558Y-97273779D01*
X109753879Y-97331515D01*
X110485395Y-96600000D01*
X110844605Y-96600000D01*
X111576121Y-97331515D01*
X111808442Y-97273779D01*
X111917919Y-97037758D01*
X111979247Y-96784914D01*
X111981082Y-96740836D01*
X118674641Y-96740836D01*
X119344800Y-97410995D01*
X120014959Y-96740836D01*
X119967652Y-96517252D01*
X119746284Y-96416363D01*
X119509487Y-96360600D01*
X119266362Y-96352105D01*
X119026251Y-96391205D01*
X118798382Y-96476398D01*
X118721948Y-96517252D01*
X118674641Y-96740836D01*
X111981082Y-96740836D01*
X111990069Y-96524964D01*
X111949970Y-96267897D01*
X111860490Y-96023593D01*
X111808442Y-95926221D01*
X111576121Y-95868485D01*
X110844605Y-96600000D01*
X110485395Y-96600000D01*
X109753879Y-95868485D01*
X109521558Y-95926221D01*
X109412081Y-96162242D01*
X109350753Y-96415086D01*
X109339931Y-96675036D01*
X106985800Y-96675036D01*
X106985800Y-96469913D01*
X106935043Y-96214737D01*
X106835478Y-95974366D01*
X106690933Y-95758039D01*
X106621773Y-95688879D01*
X109933485Y-95688879D01*
X110665000Y-96420395D01*
X111396515Y-95688879D01*
X111338779Y-95456558D01*
X111102758Y-95347081D01*
X110849914Y-95285753D01*
X110589964Y-95274931D01*
X110332897Y-95315030D01*
X110088593Y-95404510D01*
X109991221Y-95456558D01*
X109933485Y-95688879D01*
X106621773Y-95688879D01*
X106506961Y-95574067D01*
X106290634Y-95429522D01*
X106050263Y-95329957D01*
X105795087Y-95279200D01*
X105534913Y-95279200D01*
X105279737Y-95329957D01*
X105039366Y-95429522D01*
X104823039Y-95574067D01*
X104639067Y-95758039D01*
X104494522Y-95974366D01*
X104394957Y-96214737D01*
X104344200Y-96469913D01*
X100575243Y-96469913D01*
X100529639Y-79521395D01*
X106943000Y-79521395D01*
X106943000Y-79795005D01*
X106996378Y-80063356D01*
X107101084Y-80316138D01*
X107253093Y-80543636D01*
X107443001Y-80733544D01*
X107443001Y-81534130D01*
X107438700Y-81577800D01*
X107455864Y-81752074D01*
X107506698Y-81919652D01*
X107527347Y-81958283D01*
X107589248Y-82074091D01*
X107700342Y-82209459D01*
X107734259Y-82237294D01*
X123106728Y-97609764D01*
X123106728Y-98190600D01*
X123118988Y-98315082D01*
X123155298Y-98434780D01*
X123214263Y-98545094D01*
X123293615Y-98641785D01*
X123390306Y-98721137D01*
X123500620Y-98780102D01*
X123620318Y-98816412D01*
X123744800Y-98828672D01*
X124944800Y-98828672D01*
X125069282Y-98816412D01*
X125188980Y-98780102D01*
X125299294Y-98721137D01*
X125395985Y-98641785D01*
X125475337Y-98545094D01*
X125534302Y-98434780D01*
X125570612Y-98315082D01*
X125582872Y-98190600D01*
X125582872Y-96990600D01*
X125570612Y-96866118D01*
X125534302Y-96746420D01*
X125475337Y-96636106D01*
X125395985Y-96539415D01*
X125299294Y-96460063D01*
X125188980Y-96401098D01*
X125069282Y-96364788D01*
X124944800Y-96352528D01*
X124363964Y-96352528D01*
X123565698Y-95554262D01*
X133262100Y-95554262D01*
X133262100Y-95816938D01*
X133313346Y-96074568D01*
X133413868Y-96317249D01*
X133559803Y-96535657D01*
X133745543Y-96721397D01*
X133963951Y-96867332D01*
X134206632Y-96967854D01*
X134464262Y-97019100D01*
X134726938Y-97019100D01*
X134984568Y-96967854D01*
X135227249Y-96867332D01*
X135445657Y-96721397D01*
X135631397Y-96535657D01*
X135777332Y-96317249D01*
X135877854Y-96074568D01*
X135929100Y-95816938D01*
X135929100Y-95554262D01*
X135877854Y-95296632D01*
X135777332Y-95053951D01*
X135631397Y-94835543D01*
X135445657Y-94649803D01*
X135227249Y-94503868D01*
X134984568Y-94403346D01*
X134726938Y-94352100D01*
X134464262Y-94352100D01*
X134206632Y-94403346D01*
X133963951Y-94503868D01*
X133745543Y-94649803D01*
X133559803Y-94835543D01*
X133413868Y-95053951D01*
X133313346Y-95296632D01*
X133262100Y-95554262D01*
X123565698Y-95554262D01*
X121534081Y-93522645D01*
X129502900Y-93522645D01*
X129502900Y-93835355D01*
X129563907Y-94142057D01*
X129683576Y-94430963D01*
X129857308Y-94690972D01*
X130078428Y-94912092D01*
X130338437Y-95085824D01*
X130627343Y-95205493D01*
X130934045Y-95266500D01*
X131246755Y-95266500D01*
X131553457Y-95205493D01*
X131842363Y-95085824D01*
X132102372Y-94912092D01*
X132323492Y-94690972D01*
X132497224Y-94430963D01*
X132616893Y-94142057D01*
X132677900Y-93835355D01*
X132677900Y-93522645D01*
X132616893Y-93215943D01*
X132497224Y-92927037D01*
X132323492Y-92667028D01*
X132102372Y-92445908D01*
X131842363Y-92272176D01*
X131553457Y-92152507D01*
X131246755Y-92091500D01*
X130934045Y-92091500D01*
X130627343Y-92152507D01*
X130338437Y-92272176D01*
X130078428Y-92445908D01*
X129857308Y-92667028D01*
X129683576Y-92927037D01*
X129563907Y-93215943D01*
X129502900Y-93522645D01*
X121534081Y-93522645D01*
X109221000Y-81209565D01*
X109221000Y-80733543D01*
X109410907Y-80543636D01*
X109482343Y-80436724D01*
X109492188Y-80536682D01*
X109528498Y-80656380D01*
X109587463Y-80766694D01*
X109666815Y-80863385D01*
X109763506Y-80942737D01*
X109873820Y-81001702D01*
X109993518Y-81038012D01*
X110118000Y-81050272D01*
X111626000Y-81050272D01*
X111750482Y-81038012D01*
X111870180Y-81001702D01*
X111980494Y-80942737D01*
X112077185Y-80863385D01*
X112156537Y-80766694D01*
X112215502Y-80656380D01*
X112251812Y-80536682D01*
X112264072Y-80412200D01*
X112264072Y-79005800D01*
X117277728Y-79005800D01*
X117277728Y-80513800D01*
X117289988Y-80638282D01*
X117326298Y-80757980D01*
X117385263Y-80868294D01*
X117464615Y-80964985D01*
X117561306Y-81044337D01*
X117671620Y-81103302D01*
X117791318Y-81139612D01*
X117915800Y-81151872D01*
X119423800Y-81151872D01*
X119548282Y-81139612D01*
X119667980Y-81103302D01*
X119778294Y-81044337D01*
X119874985Y-80964985D01*
X119954337Y-80868294D01*
X120013302Y-80757980D01*
X120049612Y-80638282D01*
X120059457Y-80538324D01*
X120130893Y-80645236D01*
X120324364Y-80838707D01*
X120551862Y-80990716D01*
X120804644Y-81095422D01*
X121072995Y-81148800D01*
X121346605Y-81148800D01*
X121614956Y-81095422D01*
X121867738Y-80990716D01*
X122095236Y-80838707D01*
X122288707Y-80645236D01*
X122440716Y-80417738D01*
X122545422Y-80164956D01*
X122598800Y-79896605D01*
X122598800Y-79622995D01*
X122545422Y-79354644D01*
X122440716Y-79101862D01*
X122313718Y-78911795D01*
X129676000Y-78911795D01*
X129676000Y-79185405D01*
X129729378Y-79453756D01*
X129834084Y-79706538D01*
X129986093Y-79934036D01*
X130179564Y-80127507D01*
X130407062Y-80279516D01*
X130659844Y-80384222D01*
X130928195Y-80437600D01*
X131201805Y-80437600D01*
X131470156Y-80384222D01*
X131722938Y-80279516D01*
X131950436Y-80127507D01*
X132143907Y-79934036D01*
X132295916Y-79706538D01*
X132335000Y-79612181D01*
X132374084Y-79706538D01*
X132526093Y-79934036D01*
X132719564Y-80127507D01*
X132947062Y-80279516D01*
X133199844Y-80384222D01*
X133468195Y-80437600D01*
X133741805Y-80437600D01*
X134010156Y-80384222D01*
X134262938Y-80279516D01*
X134490436Y-80127507D01*
X134683907Y-79934036D01*
X134835916Y-79706538D01*
X134940622Y-79453756D01*
X134994000Y-79185405D01*
X134994000Y-78911795D01*
X134948529Y-78683195D01*
X139226400Y-78683195D01*
X139226400Y-78956805D01*
X139279778Y-79225156D01*
X139384484Y-79477938D01*
X139536493Y-79705436D01*
X139729964Y-79898907D01*
X139957462Y-80050916D01*
X140210244Y-80155622D01*
X140478595Y-80209000D01*
X140752205Y-80209000D01*
X141020556Y-80155622D01*
X141273338Y-80050916D01*
X141500836Y-79898907D01*
X141694307Y-79705436D01*
X141765743Y-79598524D01*
X141775588Y-79698482D01*
X141811898Y-79818180D01*
X141870863Y-79928494D01*
X141950215Y-80025185D01*
X142046906Y-80104537D01*
X142157220Y-80163502D01*
X142276918Y-80199812D01*
X142401400Y-80212072D01*
X143909400Y-80212072D01*
X144033882Y-80199812D01*
X144153580Y-80163502D01*
X144263894Y-80104537D01*
X144360585Y-80025185D01*
X144439937Y-79928494D01*
X144498902Y-79818180D01*
X144535212Y-79698482D01*
X144547472Y-79574000D01*
X144547472Y-78066000D01*
X144535212Y-77941518D01*
X144498902Y-77821820D01*
X144439937Y-77711506D01*
X144360585Y-77614815D01*
X144263894Y-77535463D01*
X144153580Y-77476498D01*
X144033882Y-77440188D01*
X143909400Y-77427928D01*
X142401400Y-77427928D01*
X142276918Y-77440188D01*
X142157220Y-77476498D01*
X142046906Y-77535463D01*
X141950215Y-77614815D01*
X141870863Y-77711506D01*
X141811898Y-77821820D01*
X141775588Y-77941518D01*
X141765743Y-78041476D01*
X141694307Y-77934564D01*
X141500836Y-77741093D01*
X141273338Y-77589084D01*
X141020556Y-77484378D01*
X140752205Y-77431000D01*
X140478595Y-77431000D01*
X140210244Y-77484378D01*
X139957462Y-77589084D01*
X139729964Y-77741093D01*
X139536493Y-77934564D01*
X139384484Y-78162062D01*
X139279778Y-78414844D01*
X139226400Y-78683195D01*
X134948529Y-78683195D01*
X134940622Y-78643444D01*
X134835916Y-78390662D01*
X134683907Y-78163164D01*
X134490436Y-77969693D01*
X134262938Y-77817684D01*
X134010156Y-77712978D01*
X133741805Y-77659600D01*
X133468195Y-77659600D01*
X133199844Y-77712978D01*
X132947062Y-77817684D01*
X132719564Y-77969693D01*
X132526093Y-78163164D01*
X132374084Y-78390662D01*
X132335000Y-78485019D01*
X132295916Y-78390662D01*
X132143907Y-78163164D01*
X131950436Y-77969693D01*
X131722938Y-77817684D01*
X131470156Y-77712978D01*
X131201805Y-77659600D01*
X130928195Y-77659600D01*
X130659844Y-77712978D01*
X130407062Y-77817684D01*
X130179564Y-77969693D01*
X129986093Y-78163164D01*
X129834084Y-78390662D01*
X129729378Y-78643444D01*
X129676000Y-78911795D01*
X122313718Y-78911795D01*
X122288707Y-78874364D01*
X122095236Y-78680893D01*
X121867738Y-78528884D01*
X121614956Y-78424178D01*
X121346605Y-78370800D01*
X121072995Y-78370800D01*
X120804644Y-78424178D01*
X120551862Y-78528884D01*
X120324364Y-78680893D01*
X120130893Y-78874364D01*
X120059457Y-78981276D01*
X120049612Y-78881318D01*
X120013302Y-78761620D01*
X119954337Y-78651306D01*
X119874985Y-78554615D01*
X119778294Y-78475263D01*
X119667980Y-78416298D01*
X119548282Y-78379988D01*
X119423800Y-78367728D01*
X117915800Y-78367728D01*
X117791318Y-78379988D01*
X117671620Y-78416298D01*
X117561306Y-78475263D01*
X117464615Y-78554615D01*
X117385263Y-78651306D01*
X117326298Y-78761620D01*
X117289988Y-78881318D01*
X117277728Y-79005800D01*
X112264072Y-79005800D01*
X112264072Y-78904200D01*
X112251812Y-78779718D01*
X112215502Y-78660020D01*
X112156537Y-78549706D01*
X112077185Y-78453015D01*
X111980494Y-78373663D01*
X111870180Y-78314698D01*
X111750482Y-78278388D01*
X111626000Y-78266128D01*
X110118000Y-78266128D01*
X109993518Y-78278388D01*
X109873820Y-78314698D01*
X109763506Y-78373663D01*
X109666815Y-78453015D01*
X109587463Y-78549706D01*
X109528498Y-78660020D01*
X109492188Y-78779718D01*
X109482343Y-78879676D01*
X109410907Y-78772764D01*
X109217436Y-78579293D01*
X108989938Y-78427284D01*
X108737156Y-78322578D01*
X108468805Y-78269200D01*
X108195195Y-78269200D01*
X107926844Y-78322578D01*
X107674062Y-78427284D01*
X107446564Y-78579293D01*
X107253093Y-78772764D01*
X107101084Y-79000262D01*
X106996378Y-79253044D01*
X106943000Y-79521395D01*
X100529639Y-79521395D01*
X100516118Y-74496553D01*
X101220905Y-75201341D01*
X101248741Y-75235259D01*
X101384109Y-75346353D01*
X101538549Y-75428903D01*
X101633158Y-75457602D01*
X101706125Y-75479736D01*
X101722725Y-75481371D01*
X101836733Y-75492600D01*
X101836740Y-75492600D01*
X101880400Y-75496900D01*
X101924060Y-75492600D01*
X106332540Y-75492600D01*
X106376200Y-75496900D01*
X106419860Y-75492600D01*
X106419867Y-75492600D01*
X106550474Y-75479736D01*
X106718051Y-75428903D01*
X106872491Y-75346353D01*
X107007859Y-75235259D01*
X107035699Y-75201336D01*
X108518912Y-73718124D01*
X108642810Y-73666804D01*
X108802975Y-73559785D01*
X108939185Y-73423575D01*
X109046204Y-73263410D01*
X109119920Y-73085443D01*
X109157500Y-72896515D01*
X109157500Y-72703885D01*
X109119920Y-72514957D01*
X109046204Y-72336990D01*
X108939185Y-72176825D01*
X108802975Y-72040615D01*
X108642810Y-71933596D01*
X108464843Y-71859880D01*
X108275915Y-71822300D01*
X108083285Y-71822300D01*
X107894357Y-71859880D01*
X107716390Y-71933596D01*
X107556225Y-72040615D01*
X107420015Y-72176825D01*
X107312996Y-72336990D01*
X107261676Y-72460888D01*
X106007965Y-73714600D01*
X102248636Y-73714600D01*
X101753400Y-73219365D01*
X101753400Y-58233235D01*
X106767728Y-53218908D01*
X106767728Y-53863600D01*
X106779988Y-53988082D01*
X106816298Y-54107780D01*
X106875263Y-54218094D01*
X106954615Y-54314785D01*
X107051306Y-54394137D01*
X107161620Y-54453102D01*
X107281318Y-54489412D01*
X107405800Y-54501672D01*
X108486637Y-54501672D01*
X112066701Y-58081736D01*
X112094541Y-58115659D01*
X112229909Y-58226753D01*
X112384349Y-58309303D01*
X112450258Y-58329296D01*
X112551924Y-58360136D01*
X112585124Y-58363406D01*
X112682533Y-58373000D01*
X112682539Y-58373000D01*
X112726199Y-58377300D01*
X112769859Y-58373000D01*
X124937947Y-58373000D01*
X124886647Y-58435510D01*
X124820736Y-58558821D01*
X124804098Y-58589948D01*
X124765591Y-58716891D01*
X124753264Y-58757527D01*
X124740400Y-58888134D01*
X124740400Y-58888140D01*
X124736100Y-58931800D01*
X124740400Y-58975460D01*
X124740401Y-64126163D01*
X122572289Y-66294275D01*
X122448390Y-66345596D01*
X122288225Y-66452615D01*
X122152015Y-66588825D01*
X122044996Y-66748990D01*
X121971280Y-66926957D01*
X121933700Y-67115885D01*
X121933700Y-67308515D01*
X121971280Y-67497443D01*
X122044996Y-67675410D01*
X122152015Y-67835575D01*
X122288225Y-67971785D01*
X122448390Y-68078804D01*
X122626357Y-68152520D01*
X122815285Y-68190100D01*
X123007915Y-68190100D01*
X123196843Y-68152520D01*
X123374810Y-68078804D01*
X123534975Y-67971785D01*
X123671185Y-67835575D01*
X123778204Y-67675410D01*
X123829525Y-67551511D01*
X126227142Y-65153894D01*
X126261059Y-65126059D01*
X126295671Y-65083885D01*
X126372152Y-64990692D01*
X126372153Y-64990691D01*
X126454703Y-64836251D01*
X126505536Y-64668674D01*
X126518400Y-64538067D01*
X126518400Y-64538060D01*
X126522700Y-64494400D01*
X126518400Y-64450740D01*
X126518400Y-59300035D01*
X126938341Y-58880095D01*
X126972259Y-58852259D01*
X127083353Y-58716891D01*
X127165903Y-58562451D01*
X127201316Y-58445708D01*
X127216736Y-58394875D01*
X127222726Y-58334060D01*
X127229600Y-58264267D01*
X127229600Y-58264260D01*
X127233900Y-58220600D01*
X127229600Y-58176940D01*
X127229600Y-57893141D01*
X127280920Y-57769243D01*
X127318500Y-57580315D01*
X127318500Y-57387685D01*
X127305245Y-57321050D01*
X143025695Y-73041500D01*
X142982885Y-73041500D01*
X142891734Y-73059631D01*
X136497366Y-66665264D01*
X136469526Y-66631341D01*
X136334158Y-66520247D01*
X136179718Y-66437697D01*
X136012141Y-66386864D01*
X135881534Y-66374000D01*
X135881527Y-66374000D01*
X135837867Y-66369700D01*
X135794207Y-66374000D01*
X130254941Y-66374000D01*
X130131043Y-66322680D01*
X129942115Y-66285100D01*
X129749485Y-66285100D01*
X129560557Y-66322680D01*
X129382590Y-66396396D01*
X129222425Y-66503415D01*
X129086215Y-66639625D01*
X129043067Y-66704200D01*
X125596859Y-66704200D01*
X125553199Y-66699900D01*
X125509539Y-66704200D01*
X125509533Y-66704200D01*
X125412124Y-66713794D01*
X125378924Y-66717064D01*
X125277258Y-66747904D01*
X125211349Y-66767897D01*
X125056909Y-66850447D01*
X124921541Y-66961541D01*
X124893701Y-66995464D01*
X118660690Y-73228475D01*
X118536790Y-73279796D01*
X118376625Y-73386815D01*
X118240415Y-73523025D01*
X118133396Y-73683190D01*
X118059680Y-73861157D01*
X118022100Y-74050085D01*
X118022100Y-74242715D01*
X118059680Y-74431643D01*
X118133396Y-74609610D01*
X118240415Y-74769775D01*
X118376625Y-74905985D01*
X118536790Y-75013004D01*
X118714757Y-75086720D01*
X118903685Y-75124300D01*
X119096315Y-75124300D01*
X119285243Y-75086720D01*
X119463210Y-75013004D01*
X119623375Y-74905985D01*
X119759585Y-74769775D01*
X119866604Y-74609610D01*
X119917925Y-74485710D01*
X125921435Y-68482200D01*
X129471940Y-68482200D01*
X129515600Y-68486500D01*
X129559260Y-68482200D01*
X129559267Y-68482200D01*
X129689874Y-68469336D01*
X129857451Y-68418503D01*
X130011891Y-68335953D01*
X130147259Y-68224859D01*
X130175100Y-68190935D01*
X130185110Y-68180925D01*
X130254941Y-68152000D01*
X135469632Y-68152000D01*
X141934773Y-74617142D01*
X141962608Y-74651059D01*
X142097976Y-74762153D01*
X142252416Y-74844703D01*
X142369159Y-74880116D01*
X142419992Y-74895536D01*
X142594267Y-74912701D01*
X142637935Y-74908400D01*
X142670059Y-74908400D01*
X142793957Y-74959720D01*
X142982885Y-74997300D01*
X143175515Y-74997300D01*
X143364443Y-74959720D01*
X143542410Y-74886004D01*
X143702575Y-74778985D01*
X143838785Y-74642775D01*
X143945804Y-74482610D01*
X144019520Y-74304643D01*
X144057100Y-74115715D01*
X144057100Y-74072905D01*
X145414825Y-75430630D01*
X145333790Y-75464196D01*
X145177239Y-75568800D01*
X113088057Y-75568800D01*
X112506651Y-74987395D01*
X112535023Y-74984600D01*
X112535026Y-74984600D01*
X112646978Y-74973574D01*
X112790615Y-74930002D01*
X112922992Y-74859245D01*
X113039022Y-74764022D01*
X113062884Y-74734946D01*
X115092753Y-72705078D01*
X115121822Y-72681222D01*
X115217045Y-72565192D01*
X115287802Y-72432815D01*
X115331374Y-72289178D01*
X115342400Y-72177226D01*
X115342400Y-72177224D01*
X115346086Y-72139801D01*
X115342400Y-72102378D01*
X115342400Y-69864630D01*
X115442978Y-69764052D01*
X115627643Y-69727320D01*
X115805610Y-69653604D01*
X115965775Y-69546585D01*
X116101985Y-69410375D01*
X116209004Y-69250210D01*
X116282720Y-69072243D01*
X116320300Y-68883315D01*
X116320300Y-68690685D01*
X116282720Y-68501757D01*
X116209004Y-68323790D01*
X116101985Y-68163625D01*
X115965775Y-68027415D01*
X115805610Y-67920396D01*
X115627643Y-67846680D01*
X115438715Y-67809100D01*
X115246085Y-67809100D01*
X115057157Y-67846680D01*
X114879190Y-67920396D01*
X114719025Y-68027415D01*
X114582815Y-68163625D01*
X114475796Y-68323790D01*
X114402080Y-68501757D01*
X114365348Y-68686422D01*
X114068049Y-68983721D01*
X114038979Y-69007578D01*
X114015122Y-69036648D01*
X114015121Y-69036649D01*
X113943755Y-69123608D01*
X113872999Y-69255985D01*
X113829427Y-69399622D01*
X113814714Y-69549000D01*
X113818401Y-69586433D01*
X113818400Y-71824169D01*
X112251421Y-73391149D01*
X112198810Y-73355996D01*
X112020843Y-73282280D01*
X111831915Y-73244700D01*
X111657530Y-73244700D01*
X112775979Y-72126252D01*
X112960643Y-72089520D01*
X113138610Y-72015804D01*
X113298775Y-71908785D01*
X113434985Y-71772575D01*
X113542004Y-71612410D01*
X113615720Y-71434443D01*
X113653300Y-71245515D01*
X113653300Y-71052885D01*
X113615720Y-70863957D01*
X113542004Y-70685990D01*
X113434985Y-70525825D01*
X113298775Y-70389615D01*
X113138610Y-70282596D01*
X112960643Y-70208880D01*
X112771715Y-70171300D01*
X112579085Y-70171300D01*
X112390157Y-70208880D01*
X112212190Y-70282596D01*
X112052025Y-70389615D01*
X111915815Y-70525825D01*
X111808796Y-70685990D01*
X111735080Y-70863957D01*
X111698348Y-71048621D01*
X110232654Y-72514316D01*
X110203578Y-72538178D01*
X110147983Y-72605922D01*
X110108355Y-72654208D01*
X110070535Y-72724965D01*
X110037598Y-72786586D01*
X109994026Y-72930223D01*
X109983000Y-73042174D01*
X109979314Y-73079600D01*
X109983000Y-73117024D01*
X109983001Y-74265941D01*
X109979314Y-74303374D01*
X109994027Y-74452752D01*
X110037599Y-74596389D01*
X110108355Y-74728766D01*
X110171654Y-74805895D01*
X110203579Y-74844796D01*
X110232649Y-74868653D01*
X112207147Y-76843152D01*
X112231004Y-76872222D01*
X112347034Y-76967445D01*
X112479411Y-77038202D01*
X112623048Y-77081774D01*
X112735000Y-77092800D01*
X112735002Y-77092800D01*
X112772425Y-77096486D01*
X112809848Y-77092800D01*
X145177239Y-77092800D01*
X145333790Y-77197404D01*
X145511757Y-77271120D01*
X145700685Y-77308700D01*
X145893315Y-77308700D01*
X146082243Y-77271120D01*
X146260210Y-77197404D01*
X146420375Y-77090385D01*
X146556585Y-76954175D01*
X146663604Y-76794010D01*
X146697170Y-76712975D01*
X148181545Y-78197350D01*
X148205403Y-78226421D01*
X148234473Y-78250278D01*
X148321432Y-78321644D01*
X148392189Y-78359464D01*
X148453810Y-78392401D01*
X148597447Y-78435973D01*
X148709399Y-78446999D01*
X148709402Y-78446999D01*
X148746825Y-78450685D01*
X148784248Y-78446999D01*
X149858169Y-78446999D01*
X150083698Y-78672528D01*
X149259400Y-78672528D01*
X149134918Y-78684788D01*
X149015220Y-78721098D01*
X148904906Y-78780063D01*
X148808215Y-78859415D01*
X148728863Y-78956106D01*
X148669898Y-79066420D01*
X148633588Y-79186118D01*
X148621328Y-79310600D01*
X148621328Y-80818600D01*
X148633588Y-80943082D01*
X148669898Y-81062780D01*
X148728863Y-81173094D01*
X148808215Y-81269785D01*
X148904906Y-81349137D01*
X149015220Y-81408102D01*
X149134918Y-81444412D01*
X149259400Y-81456672D01*
X150767400Y-81456672D01*
X150891882Y-81444412D01*
X151011580Y-81408102D01*
X151121894Y-81349137D01*
X151218585Y-81269785D01*
X151297937Y-81173094D01*
X151356902Y-81062780D01*
X151393212Y-80943082D01*
X151403057Y-80843124D01*
X151474493Y-80950036D01*
X151667964Y-81143507D01*
X151895462Y-81295516D01*
X152148244Y-81400222D01*
X152416595Y-81453600D01*
X152690205Y-81453600D01*
X152958556Y-81400222D01*
X153211338Y-81295516D01*
X153438836Y-81143507D01*
X153632307Y-80950036D01*
X153784316Y-80722538D01*
X153889022Y-80469756D01*
X153942400Y-80201405D01*
X153942400Y-79927795D01*
X153889022Y-79659444D01*
X153784316Y-79406662D01*
X153632307Y-79179164D01*
X153438836Y-78985693D01*
X153211338Y-78833684D01*
X152958556Y-78728978D01*
X152690205Y-78675600D01*
X152416595Y-78675600D01*
X152270993Y-78704562D01*
X150739083Y-77172653D01*
X150715221Y-77143577D01*
X150599191Y-77048354D01*
X150466814Y-76977597D01*
X150323177Y-76934025D01*
X150211225Y-76922999D01*
X150211222Y-76922999D01*
X150173799Y-76919313D01*
X150136376Y-76922999D01*
X149062456Y-76922999D01*
X141604257Y-69464800D01*
X151542328Y-69464800D01*
X151554588Y-69589282D01*
X151590898Y-69708980D01*
X151649863Y-69819294D01*
X151729215Y-69915985D01*
X151825906Y-69995337D01*
X151936220Y-70054302D01*
X152055918Y-70090612D01*
X152180400Y-70102872D01*
X152648650Y-70099800D01*
X152807400Y-69941050D01*
X152807400Y-68837800D01*
X151704150Y-68837800D01*
X151545400Y-68996550D01*
X151542328Y-69464800D01*
X141604257Y-69464800D01*
X140096257Y-67956800D01*
X151542328Y-67956800D01*
X151545400Y-68425050D01*
X151704150Y-68583800D01*
X152807400Y-68583800D01*
X152807400Y-67480550D01*
X153061400Y-67480550D01*
X153061400Y-68583800D01*
X153081400Y-68583800D01*
X153081400Y-68837800D01*
X153061400Y-68837800D01*
X153061400Y-69941050D01*
X153220150Y-70099800D01*
X153688400Y-70102872D01*
X153812882Y-70090612D01*
X153932580Y-70054302D01*
X154042894Y-69995337D01*
X154139585Y-69915985D01*
X154218937Y-69819294D01*
X154277902Y-69708980D01*
X154314212Y-69589282D01*
X154324057Y-69489324D01*
X154395493Y-69596236D01*
X154588964Y-69789707D01*
X154816462Y-69941716D01*
X155069244Y-70046422D01*
X155337595Y-70099800D01*
X155611205Y-70099800D01*
X155879556Y-70046422D01*
X156132338Y-69941716D01*
X156359836Y-69789707D01*
X156553307Y-69596236D01*
X156705316Y-69368738D01*
X156810022Y-69115956D01*
X156863400Y-68847605D01*
X156863400Y-68573995D01*
X156810022Y-68305644D01*
X156705316Y-68052862D01*
X156553307Y-67825364D01*
X156359836Y-67631893D01*
X156132338Y-67479884D01*
X155879556Y-67375178D01*
X155611205Y-67321800D01*
X155337595Y-67321800D01*
X155069244Y-67375178D01*
X154816462Y-67479884D01*
X154588964Y-67631893D01*
X154395493Y-67825364D01*
X154324057Y-67932276D01*
X154314212Y-67832318D01*
X154277902Y-67712620D01*
X154218937Y-67602306D01*
X154139585Y-67505615D01*
X154042894Y-67426263D01*
X153932580Y-67367298D01*
X153812882Y-67330988D01*
X153688400Y-67318728D01*
X153220150Y-67321800D01*
X153061400Y-67480550D01*
X152807400Y-67480550D01*
X152648650Y-67321800D01*
X152180400Y-67318728D01*
X152055918Y-67330988D01*
X151936220Y-67367298D01*
X151825906Y-67426263D01*
X151729215Y-67505615D01*
X151649863Y-67602306D01*
X151590898Y-67712620D01*
X151554588Y-67832318D01*
X151542328Y-67956800D01*
X140096257Y-67956800D01*
X139963808Y-67824352D01*
X140028785Y-67759375D01*
X140135804Y-67599210D01*
X140209520Y-67421243D01*
X140247100Y-67232315D01*
X140247100Y-67039685D01*
X140209520Y-66850757D01*
X140135804Y-66672790D01*
X140031200Y-66516239D01*
X140031200Y-63377585D01*
X140105759Y-63534120D01*
X140279812Y-63767469D01*
X140496045Y-63962378D01*
X140746148Y-64111357D01*
X141020509Y-64208681D01*
X141250400Y-64088014D01*
X141250400Y-62894200D01*
X141504400Y-62894200D01*
X141504400Y-64088014D01*
X141734291Y-64208681D01*
X142008652Y-64111357D01*
X142258755Y-63962378D01*
X142474988Y-63767469D01*
X142649041Y-63534120D01*
X142774225Y-63271299D01*
X142818876Y-63124090D01*
X142697555Y-62894200D01*
X141504400Y-62894200D01*
X141250400Y-62894200D01*
X141230400Y-62894200D01*
X141230400Y-62640200D01*
X141250400Y-62640200D01*
X141250400Y-62620200D01*
X141504400Y-62620200D01*
X141504400Y-62640200D01*
X142697555Y-62640200D01*
X142818876Y-62410310D01*
X142774225Y-62263101D01*
X142649041Y-62000280D01*
X142474988Y-61766931D01*
X142258755Y-61572022D01*
X142141866Y-61502395D01*
X142324032Y-61380675D01*
X142530875Y-61173832D01*
X142693390Y-60930611D01*
X142805332Y-60660358D01*
X142862400Y-60373460D01*
X142862400Y-60080940D01*
X142805332Y-59794042D01*
X142693390Y-59523789D01*
X142530875Y-59280568D01*
X142399020Y-59148713D01*
X142471580Y-59126702D01*
X142581894Y-59067737D01*
X142678585Y-58988385D01*
X142757937Y-58891694D01*
X142816902Y-58781380D01*
X142853212Y-58661682D01*
X142865472Y-58537200D01*
X142865472Y-56837200D01*
X142853212Y-56712718D01*
X142816902Y-56593020D01*
X142757937Y-56482706D01*
X142678585Y-56386015D01*
X142581894Y-56306663D01*
X142471580Y-56247698D01*
X142351882Y-56211388D01*
X142227400Y-56199128D01*
X140527400Y-56199128D01*
X140402918Y-56211388D01*
X140283220Y-56247698D01*
X140172906Y-56306663D01*
X140076215Y-56386015D01*
X139996863Y-56482706D01*
X139937898Y-56593020D01*
X139901588Y-56712718D01*
X139889328Y-56837200D01*
X139889328Y-58537200D01*
X139901588Y-58661682D01*
X139937898Y-58781380D01*
X139996863Y-58891694D01*
X140076215Y-58988385D01*
X140172906Y-59067737D01*
X140283220Y-59126702D01*
X140355780Y-59148713D01*
X140223925Y-59280568D01*
X140061410Y-59523789D01*
X139949468Y-59794042D01*
X139892400Y-60080940D01*
X139892400Y-60373460D01*
X139949468Y-60660358D01*
X140061410Y-60930611D01*
X140223925Y-61173832D01*
X140430768Y-61380675D01*
X140612934Y-61502395D01*
X140496045Y-61572022D01*
X140279812Y-61766931D01*
X140105759Y-62000280D01*
X139980575Y-62263101D01*
X139935924Y-62410310D01*
X140057244Y-62640198D01*
X139929572Y-62640198D01*
X139905845Y-62595808D01*
X139810622Y-62479778D01*
X139781552Y-62455921D01*
X134664731Y-57339101D01*
X134646920Y-57249557D01*
X134573204Y-57071590D01*
X134466185Y-56911425D01*
X134329975Y-56775215D01*
X134169810Y-56668196D01*
X133991843Y-56594480D01*
X133802915Y-56556900D01*
X133744699Y-56556900D01*
X133744699Y-55744099D01*
X134042050Y-55744099D01*
X134079473Y-55747785D01*
X134116896Y-55744099D01*
X134116899Y-55744099D01*
X134228851Y-55733073D01*
X134372488Y-55689501D01*
X134504865Y-55618744D01*
X134620895Y-55523521D01*
X134644757Y-55494446D01*
X135399152Y-54740051D01*
X135428223Y-54716193D01*
X135523446Y-54600163D01*
X135594203Y-54467786D01*
X135620080Y-54382481D01*
X135762642Y-54441532D01*
X136049540Y-54498600D01*
X136342060Y-54498600D01*
X136628958Y-54441532D01*
X136899211Y-54329590D01*
X137142432Y-54167075D01*
X137349275Y-53960232D01*
X137470995Y-53778066D01*
X137540622Y-53894955D01*
X137735531Y-54111188D01*
X137968880Y-54285241D01*
X138231701Y-54410425D01*
X138378910Y-54455076D01*
X138608800Y-54333755D01*
X138608800Y-53140600D01*
X138588800Y-53140600D01*
X138588800Y-52886600D01*
X138608800Y-52886600D01*
X138608800Y-52866600D01*
X138862800Y-52866600D01*
X138862800Y-52886600D01*
X138882800Y-52886600D01*
X138882800Y-53140600D01*
X138862800Y-53140600D01*
X138862800Y-54333755D01*
X139092690Y-54455076D01*
X139239899Y-54410425D01*
X139502720Y-54285241D01*
X139736069Y-54111188D01*
X139930978Y-53894955D01*
X140000605Y-53778066D01*
X140122325Y-53960232D01*
X140329168Y-54167075D01*
X140572389Y-54329590D01*
X140842642Y-54441532D01*
X141129540Y-54498600D01*
X141422060Y-54498600D01*
X141708958Y-54441532D01*
X141979211Y-54329590D01*
X142222432Y-54167075D01*
X142429275Y-53960232D01*
X142545800Y-53785840D01*
X142662325Y-53960232D01*
X142869168Y-54167075D01*
X143112389Y-54329590D01*
X143382642Y-54441532D01*
X143669540Y-54498600D01*
X143962060Y-54498600D01*
X144248958Y-54441532D01*
X144519211Y-54329590D01*
X144762432Y-54167075D01*
X144969275Y-53960232D01*
X145085800Y-53785840D01*
X145202325Y-53960232D01*
X145409168Y-54167075D01*
X145652389Y-54329590D01*
X145922642Y-54441532D01*
X146209540Y-54498600D01*
X146502060Y-54498600D01*
X146788958Y-54441532D01*
X147059211Y-54329590D01*
X147302432Y-54167075D01*
X147509275Y-53960232D01*
X147625800Y-53785840D01*
X147742325Y-53960232D01*
X147949168Y-54167075D01*
X148192389Y-54329590D01*
X148462642Y-54441532D01*
X148749540Y-54498600D01*
X149042060Y-54498600D01*
X149328958Y-54441532D01*
X149599211Y-54329590D01*
X149842432Y-54167075D01*
X150049275Y-53960232D01*
X150165800Y-53785840D01*
X150282325Y-53960232D01*
X150489168Y-54167075D01*
X150732389Y-54329590D01*
X151002642Y-54441532D01*
X151289540Y-54498600D01*
X151582060Y-54498600D01*
X151868958Y-54441532D01*
X152139211Y-54329590D01*
X152382432Y-54167075D01*
X152589275Y-53960232D01*
X152705800Y-53785840D01*
X152822325Y-53960232D01*
X153029168Y-54167075D01*
X153272389Y-54329590D01*
X153542642Y-54441532D01*
X153829540Y-54498600D01*
X154122060Y-54498600D01*
X154408958Y-54441532D01*
X154679211Y-54329590D01*
X154922432Y-54167075D01*
X155129275Y-53960232D01*
X155250995Y-53778066D01*
X155320622Y-53894955D01*
X155515531Y-54111188D01*
X155748880Y-54285241D01*
X156011701Y-54410425D01*
X156158910Y-54455076D01*
X156388800Y-54333755D01*
X156388800Y-53140600D01*
X156642800Y-53140600D01*
X156642800Y-54333755D01*
X156872690Y-54455076D01*
X157019899Y-54410425D01*
X157282720Y-54285241D01*
X157516069Y-54111188D01*
X157710978Y-53894955D01*
X157859957Y-53644852D01*
X157957281Y-53370491D01*
X157836614Y-53140600D01*
X156642800Y-53140600D01*
X156388800Y-53140600D01*
X156368800Y-53140600D01*
X156368800Y-52886600D01*
X156388800Y-52886600D01*
X156388800Y-52866600D01*
X156642800Y-52866600D01*
X156642800Y-52886600D01*
X157836614Y-52886600D01*
X157957281Y-52656709D01*
X157859957Y-52382348D01*
X157710978Y-52132245D01*
X157516069Y-51916012D01*
X157286394Y-51744700D01*
X157462432Y-51627075D01*
X157669275Y-51420232D01*
X157831790Y-51177011D01*
X157943732Y-50906758D01*
X158000800Y-50619860D01*
X158000800Y-50327340D01*
X157943732Y-50040442D01*
X157831790Y-49770189D01*
X157669275Y-49526968D01*
X157574507Y-49432200D01*
X160314970Y-49432200D01*
X161214800Y-50332031D01*
X161214801Y-50919969D01*
X155376207Y-56758563D01*
X155320084Y-56747400D01*
X155069916Y-56747400D01*
X154824555Y-56796205D01*
X154593429Y-56891941D01*
X154385422Y-57030927D01*
X154208527Y-57207822D01*
X154069541Y-57415829D01*
X153973805Y-57646955D01*
X153925000Y-57892316D01*
X153876195Y-57646955D01*
X153780459Y-57415829D01*
X153641473Y-57207822D01*
X153464578Y-57030927D01*
X153256571Y-56891941D01*
X153025445Y-56796205D01*
X152780084Y-56747400D01*
X152529916Y-56747400D01*
X152284555Y-56796205D01*
X152053429Y-56891941D01*
X151845422Y-57030927D01*
X151668527Y-57207822D01*
X151529541Y-57415829D01*
X151433805Y-57646955D01*
X151385000Y-57892316D01*
X151385000Y-58142484D01*
X151433805Y-58387845D01*
X151529541Y-58618971D01*
X151668527Y-58826978D01*
X151845422Y-59003873D01*
X152053429Y-59142859D01*
X152284555Y-59238595D01*
X152529916Y-59287400D01*
X152780084Y-59287400D01*
X153025445Y-59238595D01*
X153256571Y-59142859D01*
X153464578Y-59003873D01*
X153641473Y-58826978D01*
X153780459Y-58618971D01*
X153876195Y-58387845D01*
X153925000Y-58142484D01*
X153973805Y-58387845D01*
X154069541Y-58618971D01*
X154208527Y-58826978D01*
X154385422Y-59003873D01*
X154593429Y-59142859D01*
X154824555Y-59238595D01*
X155069916Y-59287400D01*
X155320084Y-59287400D01*
X155376207Y-59276237D01*
X156984802Y-60884832D01*
X156984801Y-81792030D01*
X143740895Y-95035937D01*
X143606997Y-94835543D01*
X143421257Y-94649803D01*
X143202849Y-94503868D01*
X142960168Y-94403346D01*
X142702538Y-94352100D01*
X142439862Y-94352100D01*
X142182232Y-94403346D01*
X141939551Y-94503868D01*
X141721143Y-94649803D01*
X141535403Y-94835543D01*
X141389468Y-95053951D01*
X141288946Y-95296632D01*
X141237700Y-95554262D01*
X141237700Y-95816938D01*
X141274730Y-96003101D01*
X139978532Y-96003101D01*
X139896239Y-95920808D01*
X139916900Y-95816938D01*
X139916900Y-95554262D01*
X139865654Y-95296632D01*
X139765132Y-95053951D01*
X139619197Y-94835543D01*
X139433457Y-94649803D01*
X139215049Y-94503868D01*
X138972368Y-94403346D01*
X138714738Y-94352100D01*
X138452062Y-94352100D01*
X138194432Y-94403346D01*
X137951751Y-94503868D01*
X137733343Y-94649803D01*
X137547603Y-94835543D01*
X137401668Y-95053951D01*
X137301146Y-95296632D01*
X137249900Y-95554262D01*
X137249900Y-95816938D01*
X137301146Y-96074568D01*
X137401668Y-96317249D01*
X137547603Y-96535657D01*
X137733343Y-96721397D01*
X137951751Y-96867332D01*
X138194432Y-96967854D01*
X138452062Y-97019100D01*
X138714738Y-97019100D01*
X138818608Y-96998439D01*
X139097622Y-97277453D01*
X139121479Y-97306523D01*
X139150549Y-97330380D01*
X139237508Y-97401746D01*
X139264784Y-97416325D01*
X139369886Y-97472503D01*
X139513523Y-97516075D01*
X139625475Y-97527101D01*
X139625478Y-97527101D01*
X139662901Y-97530787D01*
X139700324Y-97527101D01*
X143051938Y-97527101D01*
X143089361Y-97530787D01*
X143126784Y-97527101D01*
X143126787Y-97527101D01*
X143238739Y-97516075D01*
X143382376Y-97472503D01*
X143514753Y-97401746D01*
X143630783Y-97306523D01*
X143654645Y-97277447D01*
X145204104Y-95727988D01*
X154355414Y-95727988D01*
X154383051Y-95844621D01*
X154507564Y-96130383D01*
X154685434Y-96386362D01*
X154909825Y-96602722D01*
X155172114Y-96771148D01*
X155462222Y-96885168D01*
X155769000Y-96940400D01*
X156719000Y-96940400D01*
X156719000Y-95482400D01*
X156973000Y-95482400D01*
X156973000Y-96940400D01*
X157923000Y-96940400D01*
X158229778Y-96885168D01*
X158519886Y-96771148D01*
X158782175Y-96602722D01*
X159006566Y-96386362D01*
X159184436Y-96130383D01*
X159308949Y-95844621D01*
X159336586Y-95727988D01*
X159216584Y-95482400D01*
X156973000Y-95482400D01*
X156719000Y-95482400D01*
X154475416Y-95482400D01*
X154355414Y-95727988D01*
X145204104Y-95727988D01*
X145949280Y-94982812D01*
X154355414Y-94982812D01*
X154475416Y-95228400D01*
X156719000Y-95228400D01*
X156719000Y-93770400D01*
X156973000Y-93770400D01*
X156973000Y-95228400D01*
X159216584Y-95228400D01*
X159336586Y-94982812D01*
X159308949Y-94866179D01*
X159184436Y-94580417D01*
X159006566Y-94324438D01*
X158782175Y-94108078D01*
X158519886Y-93939652D01*
X158229778Y-93825632D01*
X157923000Y-93770400D01*
X156973000Y-93770400D01*
X156719000Y-93770400D01*
X155769000Y-93770400D01*
X155462222Y-93825632D01*
X155172114Y-93939652D01*
X154909825Y-94108078D01*
X154685434Y-94324438D01*
X154507564Y-94580417D01*
X154383051Y-94866179D01*
X154355414Y-94982812D01*
X145949280Y-94982812D01*
X148699692Y-92232400D01*
X159911000Y-92232400D01*
X159911000Y-93182400D01*
X159966232Y-93489178D01*
X160080252Y-93779286D01*
X160248678Y-94041575D01*
X160465038Y-94265966D01*
X160721017Y-94443836D01*
X161006779Y-94568349D01*
X161123412Y-94595986D01*
X161369000Y-94475984D01*
X161369000Y-92232400D01*
X161623000Y-92232400D01*
X161623000Y-94475984D01*
X161868588Y-94595986D01*
X161985221Y-94568349D01*
X162270983Y-94443836D01*
X162526962Y-94265966D01*
X162743322Y-94041575D01*
X162911748Y-93779286D01*
X163025768Y-93489178D01*
X163081000Y-93182400D01*
X163081000Y-92232400D01*
X161623000Y-92232400D01*
X161369000Y-92232400D01*
X159911000Y-92232400D01*
X148699692Y-92232400D01*
X149903692Y-91028400D01*
X159911000Y-91028400D01*
X159911000Y-91978400D01*
X161369000Y-91978400D01*
X161369000Y-89734816D01*
X161623000Y-89734816D01*
X161623000Y-91978400D01*
X163081000Y-91978400D01*
X163081000Y-91028400D01*
X163025768Y-90721622D01*
X162911748Y-90431514D01*
X162743322Y-90169225D01*
X162526962Y-89944834D01*
X162270983Y-89766964D01*
X161985221Y-89642451D01*
X161868588Y-89614814D01*
X161623000Y-89734816D01*
X161369000Y-89734816D01*
X161123412Y-89614814D01*
X161006779Y-89642451D01*
X160721017Y-89766964D01*
X160465038Y-89944834D01*
X160248678Y-90169225D01*
X160080252Y-90431514D01*
X159966232Y-90721622D01*
X159911000Y-91028400D01*
X149903692Y-91028400D01*
X151506692Y-89425400D01*
X154303331Y-89425400D01*
X154333934Y-89736114D01*
X154424566Y-90034888D01*
X154571744Y-90310239D01*
X154769813Y-90551587D01*
X155011161Y-90749656D01*
X155286512Y-90896834D01*
X155585286Y-90987466D01*
X155818136Y-91010400D01*
X157873864Y-91010400D01*
X158106714Y-90987466D01*
X158405488Y-90896834D01*
X158680839Y-90749656D01*
X158922187Y-90551587D01*
X159120256Y-90310239D01*
X159267434Y-90034888D01*
X159358066Y-89736114D01*
X159388669Y-89425400D01*
X159358066Y-89114686D01*
X159267434Y-88815912D01*
X159120256Y-88540561D01*
X158922187Y-88299213D01*
X158680839Y-88101144D01*
X158405488Y-87953966D01*
X158106714Y-87863334D01*
X157873864Y-87840400D01*
X155818136Y-87840400D01*
X155585286Y-87863334D01*
X155286512Y-87953966D01*
X155011161Y-88101144D01*
X154769813Y-88299213D01*
X154571744Y-88540561D01*
X154424566Y-88815912D01*
X154333934Y-89114686D01*
X154303331Y-89425400D01*
X151506692Y-89425400D01*
X158259154Y-82672939D01*
X158288223Y-82649083D01*
X158383446Y-82533053D01*
X158454203Y-82400676D01*
X158497775Y-82257039D01*
X158508801Y-82145087D01*
X158508801Y-82145085D01*
X158512487Y-82107662D01*
X158508801Y-82070239D01*
X158508801Y-60606624D01*
X158512487Y-60569201D01*
X158499290Y-60435210D01*
X158497775Y-60419823D01*
X158454203Y-60276186D01*
X158421266Y-60214565D01*
X158383446Y-60143808D01*
X158348658Y-60101420D01*
X158288223Y-60027779D01*
X158259147Y-60003917D01*
X156453837Y-58198607D01*
X156465000Y-58142484D01*
X156465000Y-57892316D01*
X156453837Y-57836193D01*
X156768830Y-57521200D01*
X159269528Y-57521200D01*
X159281788Y-57645682D01*
X159318098Y-57765380D01*
X159377063Y-57875694D01*
X159456415Y-57972385D01*
X159553106Y-58051737D01*
X159663420Y-58110702D01*
X159735980Y-58132713D01*
X159604125Y-58264568D01*
X159441610Y-58507789D01*
X159329668Y-58778042D01*
X159272600Y-59064940D01*
X159272600Y-59357460D01*
X159329668Y-59644358D01*
X159441610Y-59914611D01*
X159604125Y-60157832D01*
X159810968Y-60364675D01*
X159985360Y-60481200D01*
X159810968Y-60597725D01*
X159604125Y-60804568D01*
X159441610Y-61047789D01*
X159329668Y-61318042D01*
X159272600Y-61604940D01*
X159272600Y-61897460D01*
X159329668Y-62184358D01*
X159441610Y-62454611D01*
X159604125Y-62697832D01*
X159810968Y-62904675D01*
X159985360Y-63021200D01*
X159810968Y-63137725D01*
X159604125Y-63344568D01*
X159441610Y-63587789D01*
X159329668Y-63858042D01*
X159272600Y-64144940D01*
X159272600Y-64437460D01*
X159329668Y-64724358D01*
X159441610Y-64994611D01*
X159604125Y-65237832D01*
X159810968Y-65444675D01*
X159985360Y-65561200D01*
X159810968Y-65677725D01*
X159604125Y-65884568D01*
X159441610Y-66127789D01*
X159329668Y-66398042D01*
X159272600Y-66684940D01*
X159272600Y-66977460D01*
X159329668Y-67264358D01*
X159441610Y-67534611D01*
X159604125Y-67777832D01*
X159810968Y-67984675D01*
X159985360Y-68101200D01*
X159810968Y-68217725D01*
X159604125Y-68424568D01*
X159441610Y-68667789D01*
X159329668Y-68938042D01*
X159272600Y-69224940D01*
X159272600Y-69517460D01*
X159329668Y-69804358D01*
X159441610Y-70074611D01*
X159604125Y-70317832D01*
X159810968Y-70524675D01*
X159985360Y-70641200D01*
X159810968Y-70757725D01*
X159604125Y-70964568D01*
X159441610Y-71207789D01*
X159329668Y-71478042D01*
X159272600Y-71764940D01*
X159272600Y-72057460D01*
X159329668Y-72344358D01*
X159441610Y-72614611D01*
X159604125Y-72857832D01*
X159810968Y-73064675D01*
X159985360Y-73181200D01*
X159810968Y-73297725D01*
X159604125Y-73504568D01*
X159441610Y-73747789D01*
X159329668Y-74018042D01*
X159272600Y-74304940D01*
X159272600Y-74597460D01*
X159329668Y-74884358D01*
X159441610Y-75154611D01*
X159604125Y-75397832D01*
X159810968Y-75604675D01*
X160054189Y-75767190D01*
X160324442Y-75879132D01*
X160611340Y-75936200D01*
X160903860Y-75936200D01*
X161190758Y-75879132D01*
X161461011Y-75767190D01*
X161704232Y-75604675D01*
X161911075Y-75397832D01*
X162073590Y-75154611D01*
X162185532Y-74884358D01*
X162242600Y-74597460D01*
X162242600Y-74304940D01*
X162185532Y-74018042D01*
X162073590Y-73747789D01*
X161911075Y-73504568D01*
X161704232Y-73297725D01*
X161529840Y-73181200D01*
X161704232Y-73064675D01*
X161911075Y-72857832D01*
X162073590Y-72614611D01*
X162185532Y-72344358D01*
X162242600Y-72057460D01*
X162242600Y-71764940D01*
X162185532Y-71478042D01*
X162073590Y-71207789D01*
X161911075Y-70964568D01*
X161704232Y-70757725D01*
X161529840Y-70641200D01*
X161704232Y-70524675D01*
X161911075Y-70317832D01*
X162073590Y-70074611D01*
X162185532Y-69804358D01*
X162242600Y-69517460D01*
X162242600Y-69224940D01*
X162185532Y-68938042D01*
X162073590Y-68667789D01*
X161911075Y-68424568D01*
X161704232Y-68217725D01*
X161529840Y-68101200D01*
X161704232Y-67984675D01*
X161911075Y-67777832D01*
X162073590Y-67534611D01*
X162185532Y-67264358D01*
X162242600Y-66977460D01*
X162242600Y-66684940D01*
X162185532Y-66398042D01*
X162073590Y-66127789D01*
X161911075Y-65884568D01*
X161704232Y-65677725D01*
X161529840Y-65561200D01*
X161704232Y-65444675D01*
X161911075Y-65237832D01*
X162073590Y-64994611D01*
X162185532Y-64724358D01*
X162242600Y-64437460D01*
X162242600Y-64144940D01*
X162185532Y-63858042D01*
X162073590Y-63587789D01*
X161911075Y-63344568D01*
X161704232Y-63137725D01*
X161529840Y-63021200D01*
X161704232Y-62904675D01*
X161911075Y-62697832D01*
X162073590Y-62454611D01*
X162185532Y-62184358D01*
X162242600Y-61897460D01*
X162242600Y-61604940D01*
X162185532Y-61318042D01*
X162073590Y-61047789D01*
X161911075Y-60804568D01*
X161704232Y-60597725D01*
X161529840Y-60481200D01*
X161704232Y-60364675D01*
X161911075Y-60157832D01*
X162073590Y-59914611D01*
X162185532Y-59644358D01*
X162242600Y-59357460D01*
X162242600Y-59064940D01*
X162185532Y-58778042D01*
X162073590Y-58507789D01*
X161911075Y-58264568D01*
X161779220Y-58132713D01*
X161851780Y-58110702D01*
X161962094Y-58051737D01*
X162058785Y-57972385D01*
X162138137Y-57875694D01*
X162197102Y-57765380D01*
X162233412Y-57645682D01*
X162245672Y-57521200D01*
X162242600Y-56956950D01*
X162083850Y-56798200D01*
X160884600Y-56798200D01*
X160884600Y-56818200D01*
X160630600Y-56818200D01*
X160630600Y-56798200D01*
X159431350Y-56798200D01*
X159272600Y-56956950D01*
X159269528Y-57521200D01*
X156768830Y-57521200D01*
X158468830Y-55821200D01*
X159269528Y-55821200D01*
X159272600Y-56385450D01*
X159431350Y-56544200D01*
X160630600Y-56544200D01*
X160630600Y-55344950D01*
X160884600Y-55344950D01*
X160884600Y-56544200D01*
X162083850Y-56544200D01*
X162242600Y-56385450D01*
X162245672Y-55821200D01*
X162233412Y-55696718D01*
X162197102Y-55577020D01*
X162138137Y-55466706D01*
X162058785Y-55370015D01*
X161962094Y-55290663D01*
X161851780Y-55231698D01*
X161732082Y-55195388D01*
X161607600Y-55183128D01*
X161043350Y-55186200D01*
X160884600Y-55344950D01*
X160630600Y-55344950D01*
X160471850Y-55186200D01*
X159907600Y-55183128D01*
X159783118Y-55195388D01*
X159663420Y-55231698D01*
X159553106Y-55290663D01*
X159456415Y-55370015D01*
X159377063Y-55466706D01*
X159318098Y-55577020D01*
X159281788Y-55696718D01*
X159269528Y-55821200D01*
X158468830Y-55821200D01*
X162489146Y-51800884D01*
X162518222Y-51777022D01*
X162578657Y-51703381D01*
X162613445Y-51660993D01*
X162651265Y-51590236D01*
X162684202Y-51528615D01*
X162727774Y-51384978D01*
X162738800Y-51273026D01*
X162738800Y-51273023D01*
X162742486Y-51235600D01*
X162738800Y-51198177D01*
X162738800Y-50053822D01*
X162742486Y-50016399D01*
X162731841Y-49908321D01*
X162727774Y-49867022D01*
X162684202Y-49723385D01*
X162613445Y-49591008D01*
X162518222Y-49474978D01*
X162489153Y-49451122D01*
X161195884Y-48157854D01*
X161172022Y-48128778D01*
X161055992Y-48033555D01*
X160923615Y-47962798D01*
X160779978Y-47919226D01*
X160668026Y-47908200D01*
X160668023Y-47908200D01*
X160630600Y-47904514D01*
X160593177Y-47908200D01*
X128594741Y-47908200D01*
X128557318Y-47904514D01*
X128519895Y-47908200D01*
X128519892Y-47908200D01*
X128407940Y-47919226D01*
X128264303Y-47962798D01*
X128202682Y-47995735D01*
X128131925Y-48033555D01*
X128049222Y-48101428D01*
X128015896Y-48128778D01*
X127992039Y-48157848D01*
X126890914Y-49258974D01*
X126739211Y-49157610D01*
X126468958Y-49045668D01*
X126182060Y-48988600D01*
X125889540Y-48988600D01*
X125602642Y-49045668D01*
X125332389Y-49157610D01*
X125089168Y-49320125D01*
X124882325Y-49526968D01*
X124760605Y-49709134D01*
X124690978Y-49592245D01*
X124496069Y-49376012D01*
X124262720Y-49201959D01*
X123999899Y-49076775D01*
X123852690Y-49032124D01*
X123622800Y-49153445D01*
X123622800Y-50346600D01*
X123642800Y-50346600D01*
X123642800Y-50600600D01*
X123622800Y-50600600D01*
X123622800Y-50620600D01*
X123368800Y-50620600D01*
X123368800Y-50600600D01*
X123348800Y-50600600D01*
X123348800Y-50346600D01*
X123368800Y-50346600D01*
X123368800Y-49153445D01*
X123138910Y-49032124D01*
X122991701Y-49076775D01*
X122728880Y-49201959D01*
X122495531Y-49376012D01*
X122300622Y-49592245D01*
X122230995Y-49709134D01*
X122109275Y-49526968D01*
X121902432Y-49320125D01*
X121659211Y-49157610D01*
X121388958Y-49045668D01*
X121102060Y-48988600D01*
X120809540Y-48988600D01*
X120522642Y-49045668D01*
X120252389Y-49157610D01*
X120009168Y-49320125D01*
X119802325Y-49526968D01*
X119685800Y-49701360D01*
X119569275Y-49526968D01*
X119362432Y-49320125D01*
X119119211Y-49157610D01*
X118848958Y-49045668D01*
X118562060Y-48988600D01*
X118269540Y-48988600D01*
X117982642Y-49045668D01*
X117712389Y-49157610D01*
X117469168Y-49320125D01*
X117262325Y-49526968D01*
X117145800Y-49701360D01*
X117029275Y-49526968D01*
X116822432Y-49320125D01*
X116579211Y-49157610D01*
X116308958Y-49045668D01*
X116022060Y-48988600D01*
X115729540Y-48988600D01*
X115442642Y-49045668D01*
X115172389Y-49157610D01*
X114929168Y-49320125D01*
X114722325Y-49526968D01*
X114600605Y-49709134D01*
X114530978Y-49592245D01*
X114336069Y-49376012D01*
X114102720Y-49201959D01*
X113839899Y-49076775D01*
X113692690Y-49032124D01*
X113462800Y-49153445D01*
X113462800Y-50346600D01*
X113482800Y-50346600D01*
X113482800Y-50600600D01*
X113462800Y-50600600D01*
X113462800Y-50620600D01*
X113208800Y-50620600D01*
X113208800Y-50600600D01*
X113188800Y-50600600D01*
X113188800Y-50346600D01*
X113208800Y-50346600D01*
X113208800Y-49153445D01*
X112978910Y-49032124D01*
X112831701Y-49076775D01*
X112568880Y-49201959D01*
X112335531Y-49376012D01*
X112140622Y-49592245D01*
X112070995Y-49709134D01*
X111949275Y-49526968D01*
X111742432Y-49320125D01*
X111499211Y-49157610D01*
X111228958Y-49045668D01*
X110942060Y-48988600D01*
X110649540Y-48988600D01*
X110362642Y-49045668D01*
X110092389Y-49157610D01*
X109849168Y-49320125D01*
X109642325Y-49526968D01*
X109603817Y-49584600D01*
X109447783Y-49584600D01*
X109409275Y-49526968D01*
X109202432Y-49320125D01*
X108959211Y-49157610D01*
X108688958Y-49045668D01*
X108402060Y-48988600D01*
X108109540Y-48988600D01*
X107822642Y-49045668D01*
X107552389Y-49157610D01*
X107309168Y-49320125D01*
X107102325Y-49526968D01*
X106939810Y-49770189D01*
X106827868Y-50040442D01*
X106770800Y-50327340D01*
X106770800Y-50619860D01*
X106784322Y-50687842D01*
X100469048Y-57003117D01*
X100437693Y-45350274D01*
X100484553Y-44872366D01*
X100613538Y-44445145D01*
X100823046Y-44051116D01*
X101105099Y-43705286D01*
X101448951Y-43420827D01*
X101841510Y-43208571D01*
X102267813Y-43076608D01*
X102744564Y-43026500D01*
X161692879Y-43026500D01*
X162171734Y-43073453D01*
G04 #@! TA.AperFunction,Conductor*
D25*
G36*
X162171734Y-43073453D02*
G01*
X162598955Y-43202438D01*
X162992984Y-43411946D01*
X163338814Y-43693999D01*
X163623273Y-44037851D01*
X163835529Y-44430410D01*
X163967492Y-44856713D01*
X164017644Y-45333887D01*
X164169907Y-101921726D01*
X164123048Y-102399633D01*
X163994063Y-102826853D01*
X163784554Y-103220884D01*
X163502501Y-103566714D01*
X163158651Y-103851172D01*
X162766093Y-104063427D01*
X162339788Y-104195391D01*
X161863036Y-104245500D01*
X102914721Y-104245500D01*
X102435867Y-104198548D01*
X102008647Y-104069563D01*
X101614616Y-103860054D01*
X101268786Y-103578001D01*
X100984328Y-103234151D01*
X100772073Y-102841593D01*
X100640109Y-102415288D01*
X100589956Y-101938113D01*
X100583989Y-99720245D01*
X144488900Y-99720245D01*
X144488900Y-100032955D01*
X144549907Y-100339657D01*
X144669576Y-100628563D01*
X144843308Y-100888572D01*
X145064428Y-101109692D01*
X145324437Y-101283424D01*
X145613343Y-101403093D01*
X145920045Y-101464100D01*
X146232755Y-101464100D01*
X146539457Y-101403093D01*
X146828363Y-101283424D01*
X147088372Y-101109692D01*
X147309492Y-100888572D01*
X147483224Y-100628563D01*
X147602893Y-100339657D01*
X147663900Y-100032955D01*
X147663900Y-99720245D01*
X147602893Y-99413543D01*
X147483224Y-99124637D01*
X147309492Y-98864628D01*
X147088372Y-98643508D01*
X146828363Y-98469776D01*
X146539457Y-98350107D01*
X146232755Y-98289100D01*
X145920045Y-98289100D01*
X145613343Y-98350107D01*
X145324437Y-98469776D01*
X145064428Y-98643508D01*
X144843308Y-98864628D01*
X144669576Y-99124637D01*
X144549907Y-99413543D01*
X144488900Y-99720245D01*
X100583989Y-99720245D01*
X100580545Y-98440364D01*
X118674641Y-98440364D01*
X118721948Y-98663948D01*
X118943316Y-98764837D01*
X119180113Y-98820600D01*
X119423238Y-98829095D01*
X119663349Y-98789995D01*
X119891218Y-98704802D01*
X119967652Y-98663948D01*
X120014959Y-98440364D01*
X119344800Y-97770205D01*
X118674641Y-98440364D01*
X100580545Y-98440364D01*
X100575243Y-96469913D01*
X104344200Y-96469913D01*
X104344200Y-96730087D01*
X104394957Y-96985263D01*
X104494522Y-97225634D01*
X104639067Y-97441961D01*
X104823039Y-97625933D01*
X105039366Y-97770478D01*
X105279737Y-97870043D01*
X105534913Y-97920800D01*
X105795087Y-97920800D01*
X106050263Y-97870043D01*
X106290634Y-97770478D01*
X106506961Y-97625933D01*
X106621773Y-97511121D01*
X109933485Y-97511121D01*
X109991221Y-97743442D01*
X110227242Y-97852919D01*
X110480086Y-97914247D01*
X110740036Y-97925069D01*
X110997103Y-97884970D01*
X111241407Y-97795490D01*
X111338779Y-97743442D01*
X111357269Y-97669038D01*
X118106305Y-97669038D01*
X118145405Y-97909149D01*
X118230598Y-98137018D01*
X118271452Y-98213452D01*
X118495036Y-98260759D01*
X119165195Y-97590600D01*
X119524405Y-97590600D01*
X120194564Y-98260759D01*
X120418148Y-98213452D01*
X120519037Y-97992084D01*
X120574800Y-97755287D01*
X120583295Y-97512162D01*
X120544195Y-97272051D01*
X120459002Y-97044182D01*
X120418148Y-96967748D01*
X120194564Y-96920441D01*
X119524405Y-97590600D01*
X119165195Y-97590600D01*
X118495036Y-96920441D01*
X118271452Y-96967748D01*
X118170563Y-97189116D01*
X118114800Y-97425913D01*
X118106305Y-97669038D01*
X111357269Y-97669038D01*
X111396515Y-97511121D01*
X110665000Y-96779605D01*
X109933485Y-97511121D01*
X106621773Y-97511121D01*
X106690933Y-97441961D01*
X106835478Y-97225634D01*
X106935043Y-96985263D01*
X106985800Y-96730087D01*
X106985800Y-96675036D01*
X109339931Y-96675036D01*
X109380030Y-96932103D01*
X109469510Y-97176407D01*
X109521558Y-97273779D01*
X109753879Y-97331515D01*
X110485395Y-96600000D01*
X110844605Y-96600000D01*
X111576121Y-97331515D01*
X111808442Y-97273779D01*
X111917919Y-97037758D01*
X111979247Y-96784914D01*
X111981082Y-96740836D01*
X118674641Y-96740836D01*
X119344800Y-97410995D01*
X120014959Y-96740836D01*
X119967652Y-96517252D01*
X119746284Y-96416363D01*
X119509487Y-96360600D01*
X119266362Y-96352105D01*
X119026251Y-96391205D01*
X118798382Y-96476398D01*
X118721948Y-96517252D01*
X118674641Y-96740836D01*
X111981082Y-96740836D01*
X111990069Y-96524964D01*
X111949970Y-96267897D01*
X111860490Y-96023593D01*
X111808442Y-95926221D01*
X111576121Y-95868485D01*
X110844605Y-96600000D01*
X110485395Y-96600000D01*
X109753879Y-95868485D01*
X109521558Y-95926221D01*
X109412081Y-96162242D01*
X109350753Y-96415086D01*
X109339931Y-96675036D01*
X106985800Y-96675036D01*
X106985800Y-96469913D01*
X106935043Y-96214737D01*
X106835478Y-95974366D01*
X106690933Y-95758039D01*
X106621773Y-95688879D01*
X109933485Y-95688879D01*
X110665000Y-96420395D01*
X111396515Y-95688879D01*
X111338779Y-95456558D01*
X111102758Y-95347081D01*
X110849914Y-95285753D01*
X110589964Y-95274931D01*
X110332897Y-95315030D01*
X110088593Y-95404510D01*
X109991221Y-95456558D01*
X109933485Y-95688879D01*
X106621773Y-95688879D01*
X106506961Y-95574067D01*
X106290634Y-95429522D01*
X106050263Y-95329957D01*
X105795087Y-95279200D01*
X105534913Y-95279200D01*
X105279737Y-95329957D01*
X105039366Y-95429522D01*
X104823039Y-95574067D01*
X104639067Y-95758039D01*
X104494522Y-95974366D01*
X104394957Y-96214737D01*
X104344200Y-96469913D01*
X100575243Y-96469913D01*
X100529639Y-79521395D01*
X106943000Y-79521395D01*
X106943000Y-79795005D01*
X106996378Y-80063356D01*
X107101084Y-80316138D01*
X107253093Y-80543636D01*
X107443001Y-80733544D01*
X107443001Y-81534130D01*
X107438700Y-81577800D01*
X107455864Y-81752074D01*
X107506698Y-81919652D01*
X107527347Y-81958283D01*
X107589248Y-82074091D01*
X107700342Y-82209459D01*
X107734259Y-82237294D01*
X123106728Y-97609764D01*
X123106728Y-98190600D01*
X123118988Y-98315082D01*
X123155298Y-98434780D01*
X123214263Y-98545094D01*
X123293615Y-98641785D01*
X123390306Y-98721137D01*
X123500620Y-98780102D01*
X123620318Y-98816412D01*
X123744800Y-98828672D01*
X124944800Y-98828672D01*
X125069282Y-98816412D01*
X125188980Y-98780102D01*
X125299294Y-98721137D01*
X125395985Y-98641785D01*
X125475337Y-98545094D01*
X125534302Y-98434780D01*
X125570612Y-98315082D01*
X125582872Y-98190600D01*
X125582872Y-96990600D01*
X125570612Y-96866118D01*
X125534302Y-96746420D01*
X125475337Y-96636106D01*
X125395985Y-96539415D01*
X125299294Y-96460063D01*
X125188980Y-96401098D01*
X125069282Y-96364788D01*
X124944800Y-96352528D01*
X124363964Y-96352528D01*
X123565698Y-95554262D01*
X133262100Y-95554262D01*
X133262100Y-95816938D01*
X133313346Y-96074568D01*
X133413868Y-96317249D01*
X133559803Y-96535657D01*
X133745543Y-96721397D01*
X133963951Y-96867332D01*
X134206632Y-96967854D01*
X134464262Y-97019100D01*
X134726938Y-97019100D01*
X134984568Y-96967854D01*
X135227249Y-96867332D01*
X135445657Y-96721397D01*
X135631397Y-96535657D01*
X135777332Y-96317249D01*
X135877854Y-96074568D01*
X135929100Y-95816938D01*
X135929100Y-95554262D01*
X135877854Y-95296632D01*
X135777332Y-95053951D01*
X135631397Y-94835543D01*
X135445657Y-94649803D01*
X135227249Y-94503868D01*
X134984568Y-94403346D01*
X134726938Y-94352100D01*
X134464262Y-94352100D01*
X134206632Y-94403346D01*
X133963951Y-94503868D01*
X133745543Y-94649803D01*
X133559803Y-94835543D01*
X133413868Y-95053951D01*
X133313346Y-95296632D01*
X133262100Y-95554262D01*
X123565698Y-95554262D01*
X121534081Y-93522645D01*
X129502900Y-93522645D01*
X129502900Y-93835355D01*
X129563907Y-94142057D01*
X129683576Y-94430963D01*
X129857308Y-94690972D01*
X130078428Y-94912092D01*
X130338437Y-95085824D01*
X130627343Y-95205493D01*
X130934045Y-95266500D01*
X131246755Y-95266500D01*
X131553457Y-95205493D01*
X131842363Y-95085824D01*
X132102372Y-94912092D01*
X132323492Y-94690972D01*
X132497224Y-94430963D01*
X132616893Y-94142057D01*
X132677900Y-93835355D01*
X132677900Y-93522645D01*
X132616893Y-93215943D01*
X132497224Y-92927037D01*
X132323492Y-92667028D01*
X132102372Y-92445908D01*
X131842363Y-92272176D01*
X131553457Y-92152507D01*
X131246755Y-92091500D01*
X130934045Y-92091500D01*
X130627343Y-92152507D01*
X130338437Y-92272176D01*
X130078428Y-92445908D01*
X129857308Y-92667028D01*
X129683576Y-92927037D01*
X129563907Y-93215943D01*
X129502900Y-93522645D01*
X121534081Y-93522645D01*
X109221000Y-81209565D01*
X109221000Y-80733543D01*
X109410907Y-80543636D01*
X109482343Y-80436724D01*
X109492188Y-80536682D01*
X109528498Y-80656380D01*
X109587463Y-80766694D01*
X109666815Y-80863385D01*
X109763506Y-80942737D01*
X109873820Y-81001702D01*
X109993518Y-81038012D01*
X110118000Y-81050272D01*
X111626000Y-81050272D01*
X111750482Y-81038012D01*
X111870180Y-81001702D01*
X111980494Y-80942737D01*
X112077185Y-80863385D01*
X112156537Y-80766694D01*
X112215502Y-80656380D01*
X112251812Y-80536682D01*
X112264072Y-80412200D01*
X112264072Y-79005800D01*
X117277728Y-79005800D01*
X117277728Y-80513800D01*
X117289988Y-80638282D01*
X117326298Y-80757980D01*
X117385263Y-80868294D01*
X117464615Y-80964985D01*
X117561306Y-81044337D01*
X117671620Y-81103302D01*
X117791318Y-81139612D01*
X117915800Y-81151872D01*
X119423800Y-81151872D01*
X119548282Y-81139612D01*
X119667980Y-81103302D01*
X119778294Y-81044337D01*
X119874985Y-80964985D01*
X119954337Y-80868294D01*
X120013302Y-80757980D01*
X120049612Y-80638282D01*
X120059457Y-80538324D01*
X120130893Y-80645236D01*
X120324364Y-80838707D01*
X120551862Y-80990716D01*
X120804644Y-81095422D01*
X121072995Y-81148800D01*
X121346605Y-81148800D01*
X121614956Y-81095422D01*
X121867738Y-80990716D01*
X122095236Y-80838707D01*
X122288707Y-80645236D01*
X122440716Y-80417738D01*
X122545422Y-80164956D01*
X122598800Y-79896605D01*
X122598800Y-79622995D01*
X122545422Y-79354644D01*
X122440716Y-79101862D01*
X122313718Y-78911795D01*
X129676000Y-78911795D01*
X129676000Y-79185405D01*
X129729378Y-79453756D01*
X129834084Y-79706538D01*
X129986093Y-79934036D01*
X130179564Y-80127507D01*
X130407062Y-80279516D01*
X130659844Y-80384222D01*
X130928195Y-80437600D01*
X131201805Y-80437600D01*
X131470156Y-80384222D01*
X131722938Y-80279516D01*
X131950436Y-80127507D01*
X132143907Y-79934036D01*
X132295916Y-79706538D01*
X132335000Y-79612181D01*
X132374084Y-79706538D01*
X132526093Y-79934036D01*
X132719564Y-80127507D01*
X132947062Y-80279516D01*
X133199844Y-80384222D01*
X133468195Y-80437600D01*
X133741805Y-80437600D01*
X134010156Y-80384222D01*
X134262938Y-80279516D01*
X134490436Y-80127507D01*
X134683907Y-79934036D01*
X134835916Y-79706538D01*
X134940622Y-79453756D01*
X134994000Y-79185405D01*
X134994000Y-78911795D01*
X134948529Y-78683195D01*
X139226400Y-78683195D01*
X139226400Y-78956805D01*
X139279778Y-79225156D01*
X139384484Y-79477938D01*
X139536493Y-79705436D01*
X139729964Y-79898907D01*
X139957462Y-80050916D01*
X140210244Y-80155622D01*
X140478595Y-80209000D01*
X140752205Y-80209000D01*
X141020556Y-80155622D01*
X141273338Y-80050916D01*
X141500836Y-79898907D01*
X141694307Y-79705436D01*
X141765743Y-79598524D01*
X141775588Y-79698482D01*
X141811898Y-79818180D01*
X141870863Y-79928494D01*
X141950215Y-80025185D01*
X142046906Y-80104537D01*
X142157220Y-80163502D01*
X142276918Y-80199812D01*
X142401400Y-80212072D01*
X143909400Y-80212072D01*
X144033882Y-80199812D01*
X144153580Y-80163502D01*
X144263894Y-80104537D01*
X144360585Y-80025185D01*
X144439937Y-79928494D01*
X144498902Y-79818180D01*
X144535212Y-79698482D01*
X144547472Y-79574000D01*
X144547472Y-78066000D01*
X144535212Y-77941518D01*
X144498902Y-77821820D01*
X144439937Y-77711506D01*
X144360585Y-77614815D01*
X144263894Y-77535463D01*
X144153580Y-77476498D01*
X144033882Y-77440188D01*
X143909400Y-77427928D01*
X142401400Y-77427928D01*
X142276918Y-77440188D01*
X142157220Y-77476498D01*
X142046906Y-77535463D01*
X141950215Y-77614815D01*
X141870863Y-77711506D01*
X141811898Y-77821820D01*
X141775588Y-77941518D01*
X141765743Y-78041476D01*
X141694307Y-77934564D01*
X141500836Y-77741093D01*
X141273338Y-77589084D01*
X141020556Y-77484378D01*
X140752205Y-77431000D01*
X140478595Y-77431000D01*
X140210244Y-77484378D01*
X139957462Y-77589084D01*
X139729964Y-77741093D01*
X139536493Y-77934564D01*
X139384484Y-78162062D01*
X139279778Y-78414844D01*
X139226400Y-78683195D01*
X134948529Y-78683195D01*
X134940622Y-78643444D01*
X134835916Y-78390662D01*
X134683907Y-78163164D01*
X134490436Y-77969693D01*
X134262938Y-77817684D01*
X134010156Y-77712978D01*
X133741805Y-77659600D01*
X133468195Y-77659600D01*
X133199844Y-77712978D01*
X132947062Y-77817684D01*
X132719564Y-77969693D01*
X132526093Y-78163164D01*
X132374084Y-78390662D01*
X132335000Y-78485019D01*
X132295916Y-78390662D01*
X132143907Y-78163164D01*
X131950436Y-77969693D01*
X131722938Y-77817684D01*
X131470156Y-77712978D01*
X131201805Y-77659600D01*
X130928195Y-77659600D01*
X130659844Y-77712978D01*
X130407062Y-77817684D01*
X130179564Y-77969693D01*
X129986093Y-78163164D01*
X129834084Y-78390662D01*
X129729378Y-78643444D01*
X129676000Y-78911795D01*
X122313718Y-78911795D01*
X122288707Y-78874364D01*
X122095236Y-78680893D01*
X121867738Y-78528884D01*
X121614956Y-78424178D01*
X121346605Y-78370800D01*
X121072995Y-78370800D01*
X120804644Y-78424178D01*
X120551862Y-78528884D01*
X120324364Y-78680893D01*
X120130893Y-78874364D01*
X120059457Y-78981276D01*
X120049612Y-78881318D01*
X120013302Y-78761620D01*
X119954337Y-78651306D01*
X119874985Y-78554615D01*
X119778294Y-78475263D01*
X119667980Y-78416298D01*
X119548282Y-78379988D01*
X119423800Y-78367728D01*
X117915800Y-78367728D01*
X117791318Y-78379988D01*
X117671620Y-78416298D01*
X117561306Y-78475263D01*
X117464615Y-78554615D01*
X117385263Y-78651306D01*
X117326298Y-78761620D01*
X117289988Y-78881318D01*
X117277728Y-79005800D01*
X112264072Y-79005800D01*
X112264072Y-78904200D01*
X112251812Y-78779718D01*
X112215502Y-78660020D01*
X112156537Y-78549706D01*
X112077185Y-78453015D01*
X111980494Y-78373663D01*
X111870180Y-78314698D01*
X111750482Y-78278388D01*
X111626000Y-78266128D01*
X110118000Y-78266128D01*
X109993518Y-78278388D01*
X109873820Y-78314698D01*
X109763506Y-78373663D01*
X109666815Y-78453015D01*
X109587463Y-78549706D01*
X109528498Y-78660020D01*
X109492188Y-78779718D01*
X109482343Y-78879676D01*
X109410907Y-78772764D01*
X109217436Y-78579293D01*
X108989938Y-78427284D01*
X108737156Y-78322578D01*
X108468805Y-78269200D01*
X108195195Y-78269200D01*
X107926844Y-78322578D01*
X107674062Y-78427284D01*
X107446564Y-78579293D01*
X107253093Y-78772764D01*
X107101084Y-79000262D01*
X106996378Y-79253044D01*
X106943000Y-79521395D01*
X100529639Y-79521395D01*
X100516118Y-74496553D01*
X101220905Y-75201341D01*
X101248741Y-75235259D01*
X101384109Y-75346353D01*
X101538549Y-75428903D01*
X101633158Y-75457602D01*
X101706125Y-75479736D01*
X101722725Y-75481371D01*
X101836733Y-75492600D01*
X101836740Y-75492600D01*
X101880400Y-75496900D01*
X101924060Y-75492600D01*
X106332540Y-75492600D01*
X106376200Y-75496900D01*
X106419860Y-75492600D01*
X106419867Y-75492600D01*
X106550474Y-75479736D01*
X106718051Y-75428903D01*
X106872491Y-75346353D01*
X107007859Y-75235259D01*
X107035699Y-75201336D01*
X108518912Y-73718124D01*
X108642810Y-73666804D01*
X108802975Y-73559785D01*
X108939185Y-73423575D01*
X109046204Y-73263410D01*
X109119920Y-73085443D01*
X109157500Y-72896515D01*
X109157500Y-72703885D01*
X109119920Y-72514957D01*
X109046204Y-72336990D01*
X108939185Y-72176825D01*
X108802975Y-72040615D01*
X108642810Y-71933596D01*
X108464843Y-71859880D01*
X108275915Y-71822300D01*
X108083285Y-71822300D01*
X107894357Y-71859880D01*
X107716390Y-71933596D01*
X107556225Y-72040615D01*
X107420015Y-72176825D01*
X107312996Y-72336990D01*
X107261676Y-72460888D01*
X106007965Y-73714600D01*
X102248636Y-73714600D01*
X101753400Y-73219365D01*
X101753400Y-58233235D01*
X106767728Y-53218908D01*
X106767728Y-53863600D01*
X106779988Y-53988082D01*
X106816298Y-54107780D01*
X106875263Y-54218094D01*
X106954615Y-54314785D01*
X107051306Y-54394137D01*
X107161620Y-54453102D01*
X107281318Y-54489412D01*
X107405800Y-54501672D01*
X108486637Y-54501672D01*
X112066701Y-58081736D01*
X112094541Y-58115659D01*
X112229909Y-58226753D01*
X112384349Y-58309303D01*
X112450258Y-58329296D01*
X112551924Y-58360136D01*
X112585124Y-58363406D01*
X112682533Y-58373000D01*
X112682539Y-58373000D01*
X112726199Y-58377300D01*
X112769859Y-58373000D01*
X124937947Y-58373000D01*
X124886647Y-58435510D01*
X124820736Y-58558821D01*
X124804098Y-58589948D01*
X124765591Y-58716891D01*
X124753264Y-58757527D01*
X124740400Y-58888134D01*
X124740400Y-58888140D01*
X124736100Y-58931800D01*
X124740400Y-58975460D01*
X124740401Y-64126163D01*
X122572289Y-66294275D01*
X122448390Y-66345596D01*
X122288225Y-66452615D01*
X122152015Y-66588825D01*
X122044996Y-66748990D01*
X121971280Y-66926957D01*
X121933700Y-67115885D01*
X121933700Y-67308515D01*
X121971280Y-67497443D01*
X122044996Y-67675410D01*
X122152015Y-67835575D01*
X122288225Y-67971785D01*
X122448390Y-68078804D01*
X122626357Y-68152520D01*
X122815285Y-68190100D01*
X123007915Y-68190100D01*
X123196843Y-68152520D01*
X123374810Y-68078804D01*
X123534975Y-67971785D01*
X123671185Y-67835575D01*
X123778204Y-67675410D01*
X123829525Y-67551511D01*
X126227142Y-65153894D01*
X126261059Y-65126059D01*
X126295671Y-65083885D01*
X126372152Y-64990692D01*
X126372153Y-64990691D01*
X126454703Y-64836251D01*
X126505536Y-64668674D01*
X126518400Y-64538067D01*
X126518400Y-64538060D01*
X126522700Y-64494400D01*
X126518400Y-64450740D01*
X126518400Y-59300035D01*
X126938341Y-58880095D01*
X126972259Y-58852259D01*
X127083353Y-58716891D01*
X127165903Y-58562451D01*
X127201316Y-58445708D01*
X127216736Y-58394875D01*
X127222726Y-58334060D01*
X127229600Y-58264267D01*
X127229600Y-58264260D01*
X127233900Y-58220600D01*
X127229600Y-58176940D01*
X127229600Y-57893141D01*
X127280920Y-57769243D01*
X127318500Y-57580315D01*
X127318500Y-57387685D01*
X127305245Y-57321050D01*
X143025695Y-73041500D01*
X142982885Y-73041500D01*
X142891734Y-73059631D01*
X136497366Y-66665264D01*
X136469526Y-66631341D01*
X136334158Y-66520247D01*
X136179718Y-66437697D01*
X136012141Y-66386864D01*
X135881534Y-66374000D01*
X135881527Y-66374000D01*
X135837867Y-66369700D01*
X135794207Y-66374000D01*
X130254941Y-66374000D01*
X130131043Y-66322680D01*
X129942115Y-66285100D01*
X129749485Y-66285100D01*
X129560557Y-66322680D01*
X129382590Y-66396396D01*
X129222425Y-66503415D01*
X129086215Y-66639625D01*
X129043067Y-66704200D01*
X125596859Y-66704200D01*
X125553199Y-66699900D01*
X125509539Y-66704200D01*
X125509533Y-66704200D01*
X125412124Y-66713794D01*
X125378924Y-66717064D01*
X125277258Y-66747904D01*
X125211349Y-66767897D01*
X125056909Y-66850447D01*
X124921541Y-66961541D01*
X124893701Y-66995464D01*
X118660690Y-73228475D01*
X118536790Y-73279796D01*
X118376625Y-73386815D01*
X118240415Y-73523025D01*
X118133396Y-73683190D01*
X118059680Y-73861157D01*
X118022100Y-74050085D01*
X118022100Y-74242715D01*
X118059680Y-74431643D01*
X118133396Y-74609610D01*
X118240415Y-74769775D01*
X118376625Y-74905985D01*
X118536790Y-75013004D01*
X118714757Y-75086720D01*
X118903685Y-75124300D01*
X119096315Y-75124300D01*
X119285243Y-75086720D01*
X119463210Y-75013004D01*
X119623375Y-74905985D01*
X119759585Y-74769775D01*
X119866604Y-74609610D01*
X119917925Y-74485710D01*
X125921435Y-68482200D01*
X129471940Y-68482200D01*
X129515600Y-68486500D01*
X129559260Y-68482200D01*
X129559267Y-68482200D01*
X129689874Y-68469336D01*
X129857451Y-68418503D01*
X130011891Y-68335953D01*
X130147259Y-68224859D01*
X130175100Y-68190935D01*
X130185110Y-68180925D01*
X130254941Y-68152000D01*
X135469632Y-68152000D01*
X141934773Y-74617142D01*
X141962608Y-74651059D01*
X142097976Y-74762153D01*
X142252416Y-74844703D01*
X142369159Y-74880116D01*
X142419992Y-74895536D01*
X142594267Y-74912701D01*
X142637935Y-74908400D01*
X142670059Y-74908400D01*
X142793957Y-74959720D01*
X142982885Y-74997300D01*
X143175515Y-74997300D01*
X143364443Y-74959720D01*
X143542410Y-74886004D01*
X143702575Y-74778985D01*
X143838785Y-74642775D01*
X143945804Y-74482610D01*
X144019520Y-74304643D01*
X144057100Y-74115715D01*
X144057100Y-74072905D01*
X145414825Y-75430630D01*
X145333790Y-75464196D01*
X145177239Y-75568800D01*
X113088057Y-75568800D01*
X112506651Y-74987395D01*
X112535023Y-74984600D01*
X112535026Y-74984600D01*
X112646978Y-74973574D01*
X112790615Y-74930002D01*
X112922992Y-74859245D01*
X113039022Y-74764022D01*
X113062884Y-74734946D01*
X115092753Y-72705078D01*
X115121822Y-72681222D01*
X115217045Y-72565192D01*
X115287802Y-72432815D01*
X115331374Y-72289178D01*
X115342400Y-72177226D01*
X115342400Y-72177224D01*
X115346086Y-72139801D01*
X115342400Y-72102378D01*
X115342400Y-69864630D01*
X115442978Y-69764052D01*
X115627643Y-69727320D01*
X115805610Y-69653604D01*
X115965775Y-69546585D01*
X116101985Y-69410375D01*
X116209004Y-69250210D01*
X116282720Y-69072243D01*
X116320300Y-68883315D01*
X116320300Y-68690685D01*
X116282720Y-68501757D01*
X116209004Y-68323790D01*
X116101985Y-68163625D01*
X115965775Y-68027415D01*
X115805610Y-67920396D01*
X115627643Y-67846680D01*
X115438715Y-67809100D01*
X115246085Y-67809100D01*
X115057157Y-67846680D01*
X114879190Y-67920396D01*
X114719025Y-68027415D01*
X114582815Y-68163625D01*
X114475796Y-68323790D01*
X114402080Y-68501757D01*
X114365348Y-68686422D01*
X114068049Y-68983721D01*
X114038979Y-69007578D01*
X114015122Y-69036648D01*
X114015121Y-69036649D01*
X113943755Y-69123608D01*
X113872999Y-69255985D01*
X113829427Y-69399622D01*
X113814714Y-69549000D01*
X113818401Y-69586433D01*
X113818400Y-71824169D01*
X112251421Y-73391149D01*
X112198810Y-73355996D01*
X112020843Y-73282280D01*
X111831915Y-73244700D01*
X111657530Y-73244700D01*
X112775979Y-72126252D01*
X112960643Y-72089520D01*
X113138610Y-72015804D01*
X113298775Y-71908785D01*
X113434985Y-71772575D01*
X113542004Y-71612410D01*
X113615720Y-71434443D01*
X113653300Y-71245515D01*
X113653300Y-71052885D01*
X113615720Y-70863957D01*
X113542004Y-70685990D01*
X113434985Y-70525825D01*
X113298775Y-70389615D01*
X113138610Y-70282596D01*
X112960643Y-70208880D01*
X112771715Y-70171300D01*
X112579085Y-70171300D01*
X112390157Y-70208880D01*
X112212190Y-70282596D01*
X112052025Y-70389615D01*
X111915815Y-70525825D01*
X111808796Y-70685990D01*
X111735080Y-70863957D01*
X111698348Y-71048621D01*
X110232654Y-72514316D01*
X110203578Y-72538178D01*
X110147983Y-72605922D01*
X110108355Y-72654208D01*
X110070535Y-72724965D01*
X110037598Y-72786586D01*
X109994026Y-72930223D01*
X109983000Y-73042174D01*
X109979314Y-73079600D01*
X109983000Y-73117024D01*
X109983001Y-74265941D01*
X109979314Y-74303374D01*
X109994027Y-74452752D01*
X110037599Y-74596389D01*
X110108355Y-74728766D01*
X110171654Y-74805895D01*
X110203579Y-74844796D01*
X110232649Y-74868653D01*
X112207147Y-76843152D01*
X112231004Y-76872222D01*
X112347034Y-76967445D01*
X112479411Y-77038202D01*
X112623048Y-77081774D01*
X112735000Y-77092800D01*
X112735002Y-77092800D01*
X112772425Y-77096486D01*
X112809848Y-77092800D01*
X145177239Y-77092800D01*
X145333790Y-77197404D01*
X145511757Y-77271120D01*
X145700685Y-77308700D01*
X145893315Y-77308700D01*
X146082243Y-77271120D01*
X146260210Y-77197404D01*
X146420375Y-77090385D01*
X146556585Y-76954175D01*
X146663604Y-76794010D01*
X146697170Y-76712975D01*
X148181545Y-78197350D01*
X148205403Y-78226421D01*
X148234473Y-78250278D01*
X148321432Y-78321644D01*
X148392189Y-78359464D01*
X148453810Y-78392401D01*
X148597447Y-78435973D01*
X148709399Y-78446999D01*
X148709402Y-78446999D01*
X148746825Y-78450685D01*
X148784248Y-78446999D01*
X149858169Y-78446999D01*
X150083698Y-78672528D01*
X149259400Y-78672528D01*
X149134918Y-78684788D01*
X149015220Y-78721098D01*
X148904906Y-78780063D01*
X148808215Y-78859415D01*
X148728863Y-78956106D01*
X148669898Y-79066420D01*
X148633588Y-79186118D01*
X148621328Y-79310600D01*
X148621328Y-80818600D01*
X148633588Y-80943082D01*
X148669898Y-81062780D01*
X148728863Y-81173094D01*
X148808215Y-81269785D01*
X148904906Y-81349137D01*
X149015220Y-81408102D01*
X149134918Y-81444412D01*
X149259400Y-81456672D01*
X150767400Y-81456672D01*
X150891882Y-81444412D01*
X151011580Y-81408102D01*
X151121894Y-81349137D01*
X151218585Y-81269785D01*
X151297937Y-81173094D01*
X151356902Y-81062780D01*
X151393212Y-80943082D01*
X151403057Y-80843124D01*
X151474493Y-80950036D01*
X151667964Y-81143507D01*
X151895462Y-81295516D01*
X152148244Y-81400222D01*
X152416595Y-81453600D01*
X152690205Y-81453600D01*
X152958556Y-81400222D01*
X153211338Y-81295516D01*
X153438836Y-81143507D01*
X153632307Y-80950036D01*
X153784316Y-80722538D01*
X153889022Y-80469756D01*
X153942400Y-80201405D01*
X153942400Y-79927795D01*
X153889022Y-79659444D01*
X153784316Y-79406662D01*
X153632307Y-79179164D01*
X153438836Y-78985693D01*
X153211338Y-78833684D01*
X152958556Y-78728978D01*
X152690205Y-78675600D01*
X152416595Y-78675600D01*
X152270993Y-78704562D01*
X150739083Y-77172653D01*
X150715221Y-77143577D01*
X150599191Y-77048354D01*
X150466814Y-76977597D01*
X150323177Y-76934025D01*
X150211225Y-76922999D01*
X150211222Y-76922999D01*
X150173799Y-76919313D01*
X150136376Y-76922999D01*
X149062456Y-76922999D01*
X141604257Y-69464800D01*
X151542328Y-69464800D01*
X151554588Y-69589282D01*
X151590898Y-69708980D01*
X151649863Y-69819294D01*
X151729215Y-69915985D01*
X151825906Y-69995337D01*
X151936220Y-70054302D01*
X152055918Y-70090612D01*
X152180400Y-70102872D01*
X152648650Y-70099800D01*
X152807400Y-69941050D01*
X152807400Y-68837800D01*
X151704150Y-68837800D01*
X151545400Y-68996550D01*
X151542328Y-69464800D01*
X141604257Y-69464800D01*
X140096257Y-67956800D01*
X151542328Y-67956800D01*
X151545400Y-68425050D01*
X151704150Y-68583800D01*
X152807400Y-68583800D01*
X152807400Y-67480550D01*
X153061400Y-67480550D01*
X153061400Y-68583800D01*
X153081400Y-68583800D01*
X153081400Y-68837800D01*
X153061400Y-68837800D01*
X153061400Y-69941050D01*
X153220150Y-70099800D01*
X153688400Y-70102872D01*
X153812882Y-70090612D01*
X153932580Y-70054302D01*
X154042894Y-69995337D01*
X154139585Y-69915985D01*
X154218937Y-69819294D01*
X154277902Y-69708980D01*
X154314212Y-69589282D01*
X154324057Y-69489324D01*
X154395493Y-69596236D01*
X154588964Y-69789707D01*
X154816462Y-69941716D01*
X155069244Y-70046422D01*
X155337595Y-70099800D01*
X155611205Y-70099800D01*
X155879556Y-70046422D01*
X156132338Y-69941716D01*
X156359836Y-69789707D01*
X156553307Y-69596236D01*
X156705316Y-69368738D01*
X156810022Y-69115956D01*
X156863400Y-68847605D01*
X156863400Y-68573995D01*
X156810022Y-68305644D01*
X156705316Y-68052862D01*
X156553307Y-67825364D01*
X156359836Y-67631893D01*
X156132338Y-67479884D01*
X155879556Y-67375178D01*
X155611205Y-67321800D01*
X155337595Y-67321800D01*
X155069244Y-67375178D01*
X154816462Y-67479884D01*
X154588964Y-67631893D01*
X154395493Y-67825364D01*
X154324057Y-67932276D01*
X154314212Y-67832318D01*
X154277902Y-67712620D01*
X154218937Y-67602306D01*
X154139585Y-67505615D01*
X154042894Y-67426263D01*
X153932580Y-67367298D01*
X153812882Y-67330988D01*
X153688400Y-67318728D01*
X153220150Y-67321800D01*
X153061400Y-67480550D01*
X152807400Y-67480550D01*
X152648650Y-67321800D01*
X152180400Y-67318728D01*
X152055918Y-67330988D01*
X151936220Y-67367298D01*
X151825906Y-67426263D01*
X151729215Y-67505615D01*
X151649863Y-67602306D01*
X151590898Y-67712620D01*
X151554588Y-67832318D01*
X151542328Y-67956800D01*
X140096257Y-67956800D01*
X139963808Y-67824352D01*
X140028785Y-67759375D01*
X140135804Y-67599210D01*
X140209520Y-67421243D01*
X140247100Y-67232315D01*
X140247100Y-67039685D01*
X140209520Y-66850757D01*
X140135804Y-66672790D01*
X140031200Y-66516239D01*
X140031200Y-63377585D01*
X140105759Y-63534120D01*
X140279812Y-63767469D01*
X140496045Y-63962378D01*
X140746148Y-64111357D01*
X141020509Y-64208681D01*
X141250400Y-64088014D01*
X141250400Y-62894200D01*
X141504400Y-62894200D01*
X141504400Y-64088014D01*
X141734291Y-64208681D01*
X142008652Y-64111357D01*
X142258755Y-63962378D01*
X142474988Y-63767469D01*
X142649041Y-63534120D01*
X142774225Y-63271299D01*
X142818876Y-63124090D01*
X142697555Y-62894200D01*
X141504400Y-62894200D01*
X141250400Y-62894200D01*
X141230400Y-62894200D01*
X141230400Y-62640200D01*
X141250400Y-62640200D01*
X141250400Y-62620200D01*
X141504400Y-62620200D01*
X141504400Y-62640200D01*
X142697555Y-62640200D01*
X142818876Y-62410310D01*
X142774225Y-62263101D01*
X142649041Y-62000280D01*
X142474988Y-61766931D01*
X142258755Y-61572022D01*
X142141866Y-61502395D01*
X142324032Y-61380675D01*
X142530875Y-61173832D01*
X142693390Y-60930611D01*
X142805332Y-60660358D01*
X142862400Y-60373460D01*
X142862400Y-60080940D01*
X142805332Y-59794042D01*
X142693390Y-59523789D01*
X142530875Y-59280568D01*
X142399020Y-59148713D01*
X142471580Y-59126702D01*
X142581894Y-59067737D01*
X142678585Y-58988385D01*
X142757937Y-58891694D01*
X142816902Y-58781380D01*
X142853212Y-58661682D01*
X142865472Y-58537200D01*
X142865472Y-56837200D01*
X142853212Y-56712718D01*
X142816902Y-56593020D01*
X142757937Y-56482706D01*
X142678585Y-56386015D01*
X142581894Y-56306663D01*
X142471580Y-56247698D01*
X142351882Y-56211388D01*
X142227400Y-56199128D01*
X140527400Y-56199128D01*
X140402918Y-56211388D01*
X140283220Y-56247698D01*
X140172906Y-56306663D01*
X140076215Y-56386015D01*
X139996863Y-56482706D01*
X139937898Y-56593020D01*
X139901588Y-56712718D01*
X139889328Y-56837200D01*
X139889328Y-58537200D01*
X139901588Y-58661682D01*
X139937898Y-58781380D01*
X139996863Y-58891694D01*
X140076215Y-58988385D01*
X140172906Y-59067737D01*
X140283220Y-59126702D01*
X140355780Y-59148713D01*
X140223925Y-59280568D01*
X140061410Y-59523789D01*
X139949468Y-59794042D01*
X139892400Y-60080940D01*
X139892400Y-60373460D01*
X139949468Y-60660358D01*
X140061410Y-60930611D01*
X140223925Y-61173832D01*
X140430768Y-61380675D01*
X140612934Y-61502395D01*
X140496045Y-61572022D01*
X140279812Y-61766931D01*
X140105759Y-62000280D01*
X139980575Y-62263101D01*
X139935924Y-62410310D01*
X140057244Y-62640198D01*
X139929572Y-62640198D01*
X139905845Y-62595808D01*
X139810622Y-62479778D01*
X139781552Y-62455921D01*
X134664731Y-57339101D01*
X134646920Y-57249557D01*
X134573204Y-57071590D01*
X134466185Y-56911425D01*
X134329975Y-56775215D01*
X134169810Y-56668196D01*
X133991843Y-56594480D01*
X133802915Y-56556900D01*
X133744699Y-56556900D01*
X133744699Y-55744099D01*
X134042050Y-55744099D01*
X134079473Y-55747785D01*
X134116896Y-55744099D01*
X134116899Y-55744099D01*
X134228851Y-55733073D01*
X134372488Y-55689501D01*
X134504865Y-55618744D01*
X134620895Y-55523521D01*
X134644757Y-55494446D01*
X135399152Y-54740051D01*
X135428223Y-54716193D01*
X135523446Y-54600163D01*
X135594203Y-54467786D01*
X135620080Y-54382481D01*
X135762642Y-54441532D01*
X136049540Y-54498600D01*
X136342060Y-54498600D01*
X136628958Y-54441532D01*
X136899211Y-54329590D01*
X137142432Y-54167075D01*
X137349275Y-53960232D01*
X137470995Y-53778066D01*
X137540622Y-53894955D01*
X137735531Y-54111188D01*
X137968880Y-54285241D01*
X138231701Y-54410425D01*
X138378910Y-54455076D01*
X138608800Y-54333755D01*
X138608800Y-53140600D01*
X138588800Y-53140600D01*
X138588800Y-52886600D01*
X138608800Y-52886600D01*
X138608800Y-52866600D01*
X138862800Y-52866600D01*
X138862800Y-52886600D01*
X138882800Y-52886600D01*
X138882800Y-53140600D01*
X138862800Y-53140600D01*
X138862800Y-54333755D01*
X139092690Y-54455076D01*
X139239899Y-54410425D01*
X139502720Y-54285241D01*
X139736069Y-54111188D01*
X139930978Y-53894955D01*
X140000605Y-53778066D01*
X140122325Y-53960232D01*
X140329168Y-54167075D01*
X140572389Y-54329590D01*
X140842642Y-54441532D01*
X141129540Y-54498600D01*
X141422060Y-54498600D01*
X141708958Y-54441532D01*
X141979211Y-54329590D01*
X142222432Y-54167075D01*
X142429275Y-53960232D01*
X142545800Y-53785840D01*
X142662325Y-53960232D01*
X142869168Y-54167075D01*
X143112389Y-54329590D01*
X143382642Y-54441532D01*
X143669540Y-54498600D01*
X143962060Y-54498600D01*
X144248958Y-54441532D01*
X144519211Y-54329590D01*
X144762432Y-54167075D01*
X144969275Y-53960232D01*
X145085800Y-53785840D01*
X145202325Y-53960232D01*
X145409168Y-54167075D01*
X145652389Y-54329590D01*
X145922642Y-54441532D01*
X146209540Y-54498600D01*
X146502060Y-54498600D01*
X146788958Y-54441532D01*
X147059211Y-54329590D01*
X147302432Y-54167075D01*
X147509275Y-53960232D01*
X147625800Y-53785840D01*
X147742325Y-53960232D01*
X147949168Y-54167075D01*
X148192389Y-54329590D01*
X148462642Y-54441532D01*
X148749540Y-54498600D01*
X149042060Y-54498600D01*
X149328958Y-54441532D01*
X149599211Y-54329590D01*
X149842432Y-54167075D01*
X150049275Y-53960232D01*
X150165800Y-53785840D01*
X150282325Y-53960232D01*
X150489168Y-54167075D01*
X150732389Y-54329590D01*
X151002642Y-54441532D01*
X151289540Y-54498600D01*
X151582060Y-54498600D01*
X151868958Y-54441532D01*
X152139211Y-54329590D01*
X152382432Y-54167075D01*
X152589275Y-53960232D01*
X152705800Y-53785840D01*
X152822325Y-53960232D01*
X153029168Y-54167075D01*
X153272389Y-54329590D01*
X153542642Y-54441532D01*
X153829540Y-54498600D01*
X154122060Y-54498600D01*
X154408958Y-54441532D01*
X154679211Y-54329590D01*
X154922432Y-54167075D01*
X155129275Y-53960232D01*
X155250995Y-53778066D01*
X155320622Y-53894955D01*
X155515531Y-54111188D01*
X155748880Y-54285241D01*
X156011701Y-54410425D01*
X156158910Y-54455076D01*
X156388800Y-54333755D01*
X156388800Y-53140600D01*
X156642800Y-53140600D01*
X156642800Y-54333755D01*
X156872690Y-54455076D01*
X157019899Y-54410425D01*
X157282720Y-54285241D01*
X157516069Y-54111188D01*
X157710978Y-53894955D01*
X157859957Y-53644852D01*
X157957281Y-53370491D01*
X157836614Y-53140600D01*
X156642800Y-53140600D01*
X156388800Y-53140600D01*
X156368800Y-53140600D01*
X156368800Y-52886600D01*
X156388800Y-52886600D01*
X156388800Y-52866600D01*
X156642800Y-52866600D01*
X156642800Y-52886600D01*
X157836614Y-52886600D01*
X157957281Y-52656709D01*
X157859957Y-52382348D01*
X157710978Y-52132245D01*
X157516069Y-51916012D01*
X157286394Y-51744700D01*
X157462432Y-51627075D01*
X157669275Y-51420232D01*
X157831790Y-51177011D01*
X157943732Y-50906758D01*
X158000800Y-50619860D01*
X158000800Y-50327340D01*
X157943732Y-50040442D01*
X157831790Y-49770189D01*
X157669275Y-49526968D01*
X157574507Y-49432200D01*
X160314970Y-49432200D01*
X161214800Y-50332031D01*
X161214801Y-50919969D01*
X155376207Y-56758563D01*
X155320084Y-56747400D01*
X155069916Y-56747400D01*
X154824555Y-56796205D01*
X154593429Y-56891941D01*
X154385422Y-57030927D01*
X154208527Y-57207822D01*
X154069541Y-57415829D01*
X153973805Y-57646955D01*
X153925000Y-57892316D01*
X153876195Y-57646955D01*
X153780459Y-57415829D01*
X153641473Y-57207822D01*
X153464578Y-57030927D01*
X153256571Y-56891941D01*
X153025445Y-56796205D01*
X152780084Y-56747400D01*
X152529916Y-56747400D01*
X152284555Y-56796205D01*
X152053429Y-56891941D01*
X151845422Y-57030927D01*
X151668527Y-57207822D01*
X151529541Y-57415829D01*
X151433805Y-57646955D01*
X151385000Y-57892316D01*
X151385000Y-58142484D01*
X151433805Y-58387845D01*
X151529541Y-58618971D01*
X151668527Y-58826978D01*
X151845422Y-59003873D01*
X152053429Y-59142859D01*
X152284555Y-59238595D01*
X152529916Y-59287400D01*
X152780084Y-59287400D01*
X153025445Y-59238595D01*
X153256571Y-59142859D01*
X153464578Y-59003873D01*
X153641473Y-58826978D01*
X153780459Y-58618971D01*
X153876195Y-58387845D01*
X153925000Y-58142484D01*
X153973805Y-58387845D01*
X154069541Y-58618971D01*
X154208527Y-58826978D01*
X154385422Y-59003873D01*
X154593429Y-59142859D01*
X154824555Y-59238595D01*
X155069916Y-59287400D01*
X155320084Y-59287400D01*
X155376207Y-59276237D01*
X156984802Y-60884832D01*
X156984801Y-81792030D01*
X143740895Y-95035937D01*
X143606997Y-94835543D01*
X143421257Y-94649803D01*
X143202849Y-94503868D01*
X142960168Y-94403346D01*
X142702538Y-94352100D01*
X142439862Y-94352100D01*
X142182232Y-94403346D01*
X141939551Y-94503868D01*
X141721143Y-94649803D01*
X141535403Y-94835543D01*
X141389468Y-95053951D01*
X141288946Y-95296632D01*
X141237700Y-95554262D01*
X141237700Y-95816938D01*
X141274730Y-96003101D01*
X139978532Y-96003101D01*
X139896239Y-95920808D01*
X139916900Y-95816938D01*
X139916900Y-95554262D01*
X139865654Y-95296632D01*
X139765132Y-95053951D01*
X139619197Y-94835543D01*
X139433457Y-94649803D01*
X139215049Y-94503868D01*
X138972368Y-94403346D01*
X138714738Y-94352100D01*
X138452062Y-94352100D01*
X138194432Y-94403346D01*
X137951751Y-94503868D01*
X137733343Y-94649803D01*
X137547603Y-94835543D01*
X137401668Y-95053951D01*
X137301146Y-95296632D01*
X137249900Y-95554262D01*
X137249900Y-95816938D01*
X137301146Y-96074568D01*
X137401668Y-96317249D01*
X137547603Y-96535657D01*
X137733343Y-96721397D01*
X137951751Y-96867332D01*
X138194432Y-96967854D01*
X138452062Y-97019100D01*
X138714738Y-97019100D01*
X138818608Y-96998439D01*
X139097622Y-97277453D01*
X139121479Y-97306523D01*
X139150549Y-97330380D01*
X139237508Y-97401746D01*
X139264784Y-97416325D01*
X139369886Y-97472503D01*
X139513523Y-97516075D01*
X139625475Y-97527101D01*
X139625478Y-97527101D01*
X139662901Y-97530787D01*
X139700324Y-97527101D01*
X143051938Y-97527101D01*
X143089361Y-97530787D01*
X143126784Y-97527101D01*
X143126787Y-97527101D01*
X143238739Y-97516075D01*
X143382376Y-97472503D01*
X143514753Y-97401746D01*
X143630783Y-97306523D01*
X143654645Y-97277447D01*
X145204104Y-95727988D01*
X154355414Y-95727988D01*
X154383051Y-95844621D01*
X154507564Y-96130383D01*
X154685434Y-96386362D01*
X154909825Y-96602722D01*
X155172114Y-96771148D01*
X155462222Y-96885168D01*
X155769000Y-96940400D01*
X156719000Y-96940400D01*
X156719000Y-95482400D01*
X156973000Y-95482400D01*
X156973000Y-96940400D01*
X157923000Y-96940400D01*
X158229778Y-96885168D01*
X158519886Y-96771148D01*
X158782175Y-96602722D01*
X159006566Y-96386362D01*
X159184436Y-96130383D01*
X159308949Y-95844621D01*
X159336586Y-95727988D01*
X159216584Y-95482400D01*
X156973000Y-95482400D01*
X156719000Y-95482400D01*
X154475416Y-95482400D01*
X154355414Y-95727988D01*
X145204104Y-95727988D01*
X145949280Y-94982812D01*
X154355414Y-94982812D01*
X154475416Y-95228400D01*
X156719000Y-95228400D01*
X156719000Y-93770400D01*
X156973000Y-93770400D01*
X156973000Y-95228400D01*
X159216584Y-95228400D01*
X159336586Y-94982812D01*
X159308949Y-94866179D01*
X159184436Y-94580417D01*
X159006566Y-94324438D01*
X158782175Y-94108078D01*
X158519886Y-93939652D01*
X158229778Y-93825632D01*
X157923000Y-93770400D01*
X156973000Y-93770400D01*
X156719000Y-93770400D01*
X155769000Y-93770400D01*
X155462222Y-93825632D01*
X155172114Y-93939652D01*
X154909825Y-94108078D01*
X154685434Y-94324438D01*
X154507564Y-94580417D01*
X154383051Y-94866179D01*
X154355414Y-94982812D01*
X145949280Y-94982812D01*
X148699692Y-92232400D01*
X159911000Y-92232400D01*
X159911000Y-93182400D01*
X159966232Y-93489178D01*
X160080252Y-93779286D01*
X160248678Y-94041575D01*
X160465038Y-94265966D01*
X160721017Y-94443836D01*
X161006779Y-94568349D01*
X161123412Y-94595986D01*
X161369000Y-94475984D01*
X161369000Y-92232400D01*
X161623000Y-92232400D01*
X161623000Y-94475984D01*
X161868588Y-94595986D01*
X161985221Y-94568349D01*
X162270983Y-94443836D01*
X162526962Y-94265966D01*
X162743322Y-94041575D01*
X162911748Y-93779286D01*
X163025768Y-93489178D01*
X163081000Y-93182400D01*
X163081000Y-92232400D01*
X161623000Y-92232400D01*
X161369000Y-92232400D01*
X159911000Y-92232400D01*
X148699692Y-92232400D01*
X149903692Y-91028400D01*
X159911000Y-91028400D01*
X159911000Y-91978400D01*
X161369000Y-91978400D01*
X161369000Y-89734816D01*
X161623000Y-89734816D01*
X161623000Y-91978400D01*
X163081000Y-91978400D01*
X163081000Y-91028400D01*
X163025768Y-90721622D01*
X162911748Y-90431514D01*
X162743322Y-90169225D01*
X162526962Y-89944834D01*
X162270983Y-89766964D01*
X161985221Y-89642451D01*
X161868588Y-89614814D01*
X161623000Y-89734816D01*
X161369000Y-89734816D01*
X161123412Y-89614814D01*
X161006779Y-89642451D01*
X160721017Y-89766964D01*
X160465038Y-89944834D01*
X160248678Y-90169225D01*
X160080252Y-90431514D01*
X159966232Y-90721622D01*
X159911000Y-91028400D01*
X149903692Y-91028400D01*
X151506692Y-89425400D01*
X154303331Y-89425400D01*
X154333934Y-89736114D01*
X154424566Y-90034888D01*
X154571744Y-90310239D01*
X154769813Y-90551587D01*
X155011161Y-90749656D01*
X155286512Y-90896834D01*
X155585286Y-90987466D01*
X155818136Y-91010400D01*
X157873864Y-91010400D01*
X158106714Y-90987466D01*
X158405488Y-90896834D01*
X158680839Y-90749656D01*
X158922187Y-90551587D01*
X159120256Y-90310239D01*
X159267434Y-90034888D01*
X159358066Y-89736114D01*
X159388669Y-89425400D01*
X159358066Y-89114686D01*
X159267434Y-88815912D01*
X159120256Y-88540561D01*
X158922187Y-88299213D01*
X158680839Y-88101144D01*
X158405488Y-87953966D01*
X158106714Y-87863334D01*
X157873864Y-87840400D01*
X155818136Y-87840400D01*
X155585286Y-87863334D01*
X155286512Y-87953966D01*
X155011161Y-88101144D01*
X154769813Y-88299213D01*
X154571744Y-88540561D01*
X154424566Y-88815912D01*
X154333934Y-89114686D01*
X154303331Y-89425400D01*
X151506692Y-89425400D01*
X158259154Y-82672939D01*
X158288223Y-82649083D01*
X158383446Y-82533053D01*
X158454203Y-82400676D01*
X158497775Y-82257039D01*
X158508801Y-82145087D01*
X158508801Y-82145085D01*
X158512487Y-82107662D01*
X158508801Y-82070239D01*
X158508801Y-60606624D01*
X158512487Y-60569201D01*
X158499290Y-60435210D01*
X158497775Y-60419823D01*
X158454203Y-60276186D01*
X158421266Y-60214565D01*
X158383446Y-60143808D01*
X158348658Y-60101420D01*
X158288223Y-60027779D01*
X158259147Y-60003917D01*
X156453837Y-58198607D01*
X156465000Y-58142484D01*
X156465000Y-57892316D01*
X156453837Y-57836193D01*
X156768830Y-57521200D01*
X159269528Y-57521200D01*
X159281788Y-57645682D01*
X159318098Y-57765380D01*
X159377063Y-57875694D01*
X159456415Y-57972385D01*
X159553106Y-58051737D01*
X159663420Y-58110702D01*
X159735980Y-58132713D01*
X159604125Y-58264568D01*
X159441610Y-58507789D01*
X159329668Y-58778042D01*
X159272600Y-59064940D01*
X159272600Y-59357460D01*
X159329668Y-59644358D01*
X159441610Y-59914611D01*
X159604125Y-60157832D01*
X159810968Y-60364675D01*
X159985360Y-60481200D01*
X159810968Y-60597725D01*
X159604125Y-60804568D01*
X159441610Y-61047789D01*
X159329668Y-61318042D01*
X159272600Y-61604940D01*
X159272600Y-61897460D01*
X159329668Y-62184358D01*
X159441610Y-62454611D01*
X159604125Y-62697832D01*
X159810968Y-62904675D01*
X159985360Y-63021200D01*
X159810968Y-63137725D01*
X159604125Y-63344568D01*
X159441610Y-63587789D01*
X159329668Y-63858042D01*
X159272600Y-64144940D01*
X159272600Y-64437460D01*
X159329668Y-64724358D01*
X159441610Y-64994611D01*
X159604125Y-65237832D01*
X159810968Y-65444675D01*
X159985360Y-65561200D01*
X159810968Y-65677725D01*
X159604125Y-65884568D01*
X159441610Y-66127789D01*
X159329668Y-66398042D01*
X159272600Y-66684940D01*
X159272600Y-66977460D01*
X159329668Y-67264358D01*
X159441610Y-67534611D01*
X159604125Y-67777832D01*
X159810968Y-67984675D01*
X159985360Y-68101200D01*
X159810968Y-68217725D01*
X159604125Y-68424568D01*
X159441610Y-68667789D01*
X159329668Y-68938042D01*
X159272600Y-69224940D01*
X159272600Y-69517460D01*
X159329668Y-69804358D01*
X159441610Y-70074611D01*
X159604125Y-70317832D01*
X159810968Y-70524675D01*
X159985360Y-70641200D01*
X159810968Y-70757725D01*
X159604125Y-70964568D01*
X159441610Y-71207789D01*
X159329668Y-71478042D01*
X159272600Y-71764940D01*
X159272600Y-72057460D01*
X159329668Y-72344358D01*
X159441610Y-72614611D01*
X159604125Y-72857832D01*
X159810968Y-73064675D01*
X159985360Y-73181200D01*
X159810968Y-73297725D01*
X159604125Y-73504568D01*
X159441610Y-73747789D01*
X159329668Y-74018042D01*
X159272600Y-74304940D01*
X159272600Y-74597460D01*
X159329668Y-74884358D01*
X159441610Y-75154611D01*
X159604125Y-75397832D01*
X159810968Y-75604675D01*
X160054189Y-75767190D01*
X160324442Y-75879132D01*
X160611340Y-75936200D01*
X160903860Y-75936200D01*
X161190758Y-75879132D01*
X161461011Y-75767190D01*
X161704232Y-75604675D01*
X161911075Y-75397832D01*
X162073590Y-75154611D01*
X162185532Y-74884358D01*
X162242600Y-74597460D01*
X162242600Y-74304940D01*
X162185532Y-74018042D01*
X162073590Y-73747789D01*
X161911075Y-73504568D01*
X161704232Y-73297725D01*
X161529840Y-73181200D01*
X161704232Y-73064675D01*
X161911075Y-72857832D01*
X162073590Y-72614611D01*
X162185532Y-72344358D01*
X162242600Y-72057460D01*
X162242600Y-71764940D01*
X162185532Y-71478042D01*
X162073590Y-71207789D01*
X161911075Y-70964568D01*
X161704232Y-70757725D01*
X161529840Y-70641200D01*
X161704232Y-70524675D01*
X161911075Y-70317832D01*
X162073590Y-70074611D01*
X162185532Y-69804358D01*
X162242600Y-69517460D01*
X162242600Y-69224940D01*
X162185532Y-68938042D01*
X162073590Y-68667789D01*
X161911075Y-68424568D01*
X161704232Y-68217725D01*
X161529840Y-68101200D01*
X161704232Y-67984675D01*
X161911075Y-67777832D01*
X162073590Y-67534611D01*
X162185532Y-67264358D01*
X162242600Y-66977460D01*
X162242600Y-66684940D01*
X162185532Y-66398042D01*
X162073590Y-66127789D01*
X161911075Y-65884568D01*
X161704232Y-65677725D01*
X161529840Y-65561200D01*
X161704232Y-65444675D01*
X161911075Y-65237832D01*
X162073590Y-64994611D01*
X162185532Y-64724358D01*
X162242600Y-64437460D01*
X162242600Y-64144940D01*
X162185532Y-63858042D01*
X162073590Y-63587789D01*
X161911075Y-63344568D01*
X161704232Y-63137725D01*
X161529840Y-63021200D01*
X161704232Y-62904675D01*
X161911075Y-62697832D01*
X162073590Y-62454611D01*
X162185532Y-62184358D01*
X162242600Y-61897460D01*
X162242600Y-61604940D01*
X162185532Y-61318042D01*
X162073590Y-61047789D01*
X161911075Y-60804568D01*
X161704232Y-60597725D01*
X161529840Y-60481200D01*
X161704232Y-60364675D01*
X161911075Y-60157832D01*
X162073590Y-59914611D01*
X162185532Y-59644358D01*
X162242600Y-59357460D01*
X162242600Y-59064940D01*
X162185532Y-58778042D01*
X162073590Y-58507789D01*
X161911075Y-58264568D01*
X161779220Y-58132713D01*
X161851780Y-58110702D01*
X161962094Y-58051737D01*
X162058785Y-57972385D01*
X162138137Y-57875694D01*
X162197102Y-57765380D01*
X162233412Y-57645682D01*
X162245672Y-57521200D01*
X162242600Y-56956950D01*
X162083850Y-56798200D01*
X160884600Y-56798200D01*
X160884600Y-56818200D01*
X160630600Y-56818200D01*
X160630600Y-56798200D01*
X159431350Y-56798200D01*
X159272600Y-56956950D01*
X159269528Y-57521200D01*
X156768830Y-57521200D01*
X158468830Y-55821200D01*
X159269528Y-55821200D01*
X159272600Y-56385450D01*
X159431350Y-56544200D01*
X160630600Y-56544200D01*
X160630600Y-55344950D01*
X160884600Y-55344950D01*
X160884600Y-56544200D01*
X162083850Y-56544200D01*
X162242600Y-56385450D01*
X162245672Y-55821200D01*
X162233412Y-55696718D01*
X162197102Y-55577020D01*
X162138137Y-55466706D01*
X162058785Y-55370015D01*
X161962094Y-55290663D01*
X161851780Y-55231698D01*
X161732082Y-55195388D01*
X161607600Y-55183128D01*
X161043350Y-55186200D01*
X160884600Y-55344950D01*
X160630600Y-55344950D01*
X160471850Y-55186200D01*
X159907600Y-55183128D01*
X159783118Y-55195388D01*
X159663420Y-55231698D01*
X159553106Y-55290663D01*
X159456415Y-55370015D01*
X159377063Y-55466706D01*
X159318098Y-55577020D01*
X159281788Y-55696718D01*
X159269528Y-55821200D01*
X158468830Y-55821200D01*
X162489146Y-51800884D01*
X162518222Y-51777022D01*
X162578657Y-51703381D01*
X162613445Y-51660993D01*
X162651265Y-51590236D01*
X162684202Y-51528615D01*
X162727774Y-51384978D01*
X162738800Y-51273026D01*
X162738800Y-51273023D01*
X162742486Y-51235600D01*
X162738800Y-51198177D01*
X162738800Y-50053822D01*
X162742486Y-50016399D01*
X162731841Y-49908321D01*
X162727774Y-49867022D01*
X162684202Y-49723385D01*
X162613445Y-49591008D01*
X162518222Y-49474978D01*
X162489153Y-49451122D01*
X161195884Y-48157854D01*
X161172022Y-48128778D01*
X161055992Y-48033555D01*
X160923615Y-47962798D01*
X160779978Y-47919226D01*
X160668026Y-47908200D01*
X160668023Y-47908200D01*
X160630600Y-47904514D01*
X160593177Y-47908200D01*
X128594741Y-47908200D01*
X128557318Y-47904514D01*
X128519895Y-47908200D01*
X128519892Y-47908200D01*
X128407940Y-47919226D01*
X128264303Y-47962798D01*
X128202682Y-47995735D01*
X128131925Y-48033555D01*
X128049222Y-48101428D01*
X128015896Y-48128778D01*
X127992039Y-48157848D01*
X126890914Y-49258974D01*
X126739211Y-49157610D01*
X126468958Y-49045668D01*
X126182060Y-48988600D01*
X125889540Y-48988600D01*
X125602642Y-49045668D01*
X125332389Y-49157610D01*
X125089168Y-49320125D01*
X124882325Y-49526968D01*
X124760605Y-49709134D01*
X124690978Y-49592245D01*
X124496069Y-49376012D01*
X124262720Y-49201959D01*
X123999899Y-49076775D01*
X123852690Y-49032124D01*
X123622800Y-49153445D01*
X123622800Y-50346600D01*
X123642800Y-50346600D01*
X123642800Y-50600600D01*
X123622800Y-50600600D01*
X123622800Y-50620600D01*
X123368800Y-50620600D01*
X123368800Y-50600600D01*
X123348800Y-50600600D01*
X123348800Y-50346600D01*
X123368800Y-50346600D01*
X123368800Y-49153445D01*
X123138910Y-49032124D01*
X122991701Y-49076775D01*
X122728880Y-49201959D01*
X122495531Y-49376012D01*
X122300622Y-49592245D01*
X122230995Y-49709134D01*
X122109275Y-49526968D01*
X121902432Y-49320125D01*
X121659211Y-49157610D01*
X121388958Y-49045668D01*
X121102060Y-48988600D01*
X120809540Y-48988600D01*
X120522642Y-49045668D01*
X120252389Y-49157610D01*
X120009168Y-49320125D01*
X119802325Y-49526968D01*
X119685800Y-49701360D01*
X119569275Y-49526968D01*
X119362432Y-49320125D01*
X119119211Y-49157610D01*
X118848958Y-49045668D01*
X118562060Y-48988600D01*
X118269540Y-48988600D01*
X117982642Y-49045668D01*
X117712389Y-49157610D01*
X117469168Y-49320125D01*
X117262325Y-49526968D01*
X117145800Y-49701360D01*
X117029275Y-49526968D01*
X116822432Y-49320125D01*
X116579211Y-49157610D01*
X116308958Y-49045668D01*
X116022060Y-48988600D01*
X115729540Y-48988600D01*
X115442642Y-49045668D01*
X115172389Y-49157610D01*
X114929168Y-49320125D01*
X114722325Y-49526968D01*
X114600605Y-49709134D01*
X114530978Y-49592245D01*
X114336069Y-49376012D01*
X114102720Y-49201959D01*
X113839899Y-49076775D01*
X113692690Y-49032124D01*
X113462800Y-49153445D01*
X113462800Y-50346600D01*
X113482800Y-50346600D01*
X113482800Y-50600600D01*
X113462800Y-50600600D01*
X113462800Y-50620600D01*
X113208800Y-50620600D01*
X113208800Y-50600600D01*
X113188800Y-50600600D01*
X113188800Y-50346600D01*
X113208800Y-50346600D01*
X113208800Y-49153445D01*
X112978910Y-49032124D01*
X112831701Y-49076775D01*
X112568880Y-49201959D01*
X112335531Y-49376012D01*
X112140622Y-49592245D01*
X112070995Y-49709134D01*
X111949275Y-49526968D01*
X111742432Y-49320125D01*
X111499211Y-49157610D01*
X111228958Y-49045668D01*
X110942060Y-48988600D01*
X110649540Y-48988600D01*
X110362642Y-49045668D01*
X110092389Y-49157610D01*
X109849168Y-49320125D01*
X109642325Y-49526968D01*
X109603817Y-49584600D01*
X109447783Y-49584600D01*
X109409275Y-49526968D01*
X109202432Y-49320125D01*
X108959211Y-49157610D01*
X108688958Y-49045668D01*
X108402060Y-48988600D01*
X108109540Y-48988600D01*
X107822642Y-49045668D01*
X107552389Y-49157610D01*
X107309168Y-49320125D01*
X107102325Y-49526968D01*
X106939810Y-49770189D01*
X106827868Y-50040442D01*
X106770800Y-50327340D01*
X106770800Y-50619860D01*
X106784322Y-50687842D01*
X100469048Y-57003117D01*
X100437693Y-45350274D01*
X100484553Y-44872366D01*
X100613538Y-44445145D01*
X100823046Y-44051116D01*
X101105099Y-43705286D01*
X101448951Y-43420827D01*
X101841510Y-43208571D01*
X102267813Y-43076608D01*
X102744564Y-43026500D01*
X161692879Y-43026500D01*
X162171734Y-43073453D01*
G37*
G04 #@! TD.AperFunction*
D23*
X118542800Y-52886600D02*
X118562800Y-52886600D01*
X118562800Y-53140600D01*
X118542800Y-53140600D01*
X118542800Y-54333755D01*
X118772690Y-54455076D01*
X118919899Y-54410425D01*
X119182720Y-54285241D01*
X119416069Y-54111188D01*
X119610978Y-53894955D01*
X119680605Y-53778066D01*
X119802325Y-53960232D01*
X120009168Y-54167075D01*
X120252389Y-54329590D01*
X120522642Y-54441532D01*
X120809540Y-54498600D01*
X121102060Y-54498600D01*
X121388958Y-54441532D01*
X121659211Y-54329590D01*
X121902432Y-54167075D01*
X122109275Y-53960232D01*
X122225800Y-53785840D01*
X122342325Y-53960232D01*
X122549168Y-54167075D01*
X122792389Y-54329590D01*
X123062642Y-54441532D01*
X123349540Y-54498600D01*
X123642060Y-54498600D01*
X123928958Y-54441532D01*
X124199211Y-54329590D01*
X124264936Y-54285674D01*
X124292453Y-54308257D01*
X126503550Y-56519355D01*
X126436915Y-56506100D01*
X126244285Y-56506100D01*
X126055357Y-56543680D01*
X125931459Y-56595000D01*
X113094435Y-56595000D01*
X110988748Y-54489313D01*
X111228958Y-54441532D01*
X111499211Y-54329590D01*
X111742432Y-54167075D01*
X111949275Y-53960232D01*
X112065800Y-53785840D01*
X112182325Y-53960232D01*
X112389168Y-54167075D01*
X112632389Y-54329590D01*
X112902642Y-54441532D01*
X113189540Y-54498600D01*
X113482060Y-54498600D01*
X113768958Y-54441532D01*
X114039211Y-54329590D01*
X114282432Y-54167075D01*
X114489275Y-53960232D01*
X114605800Y-53785840D01*
X114722325Y-53960232D01*
X114929168Y-54167075D01*
X115172389Y-54329590D01*
X115442642Y-54441532D01*
X115729540Y-54498600D01*
X116022060Y-54498600D01*
X116308958Y-54441532D01*
X116579211Y-54329590D01*
X116822432Y-54167075D01*
X117029275Y-53960232D01*
X117150995Y-53778066D01*
X117220622Y-53894955D01*
X117415531Y-54111188D01*
X117648880Y-54285241D01*
X117911701Y-54410425D01*
X118058910Y-54455076D01*
X118288800Y-54333755D01*
X118288800Y-53140600D01*
X118268800Y-53140600D01*
X118268800Y-52886600D01*
X118288800Y-52886600D01*
X118288800Y-52866600D01*
X118542800Y-52866600D01*
X118542800Y-52886600D01*
G04 #@! TA.AperFunction,Conductor*
D25*
G36*
X118542800Y-52886600D02*
G01*
X118562800Y-52886600D01*
X118562800Y-53140600D01*
X118542800Y-53140600D01*
X118542800Y-54333755D01*
X118772690Y-54455076D01*
X118919899Y-54410425D01*
X119182720Y-54285241D01*
X119416069Y-54111188D01*
X119610978Y-53894955D01*
X119680605Y-53778066D01*
X119802325Y-53960232D01*
X120009168Y-54167075D01*
X120252389Y-54329590D01*
X120522642Y-54441532D01*
X120809540Y-54498600D01*
X121102060Y-54498600D01*
X121388958Y-54441532D01*
X121659211Y-54329590D01*
X121902432Y-54167075D01*
X122109275Y-53960232D01*
X122225800Y-53785840D01*
X122342325Y-53960232D01*
X122549168Y-54167075D01*
X122792389Y-54329590D01*
X123062642Y-54441532D01*
X123349540Y-54498600D01*
X123642060Y-54498600D01*
X123928958Y-54441532D01*
X124199211Y-54329590D01*
X124264936Y-54285674D01*
X124292453Y-54308257D01*
X126503550Y-56519355D01*
X126436915Y-56506100D01*
X126244285Y-56506100D01*
X126055357Y-56543680D01*
X125931459Y-56595000D01*
X113094435Y-56595000D01*
X110988748Y-54489313D01*
X111228958Y-54441532D01*
X111499211Y-54329590D01*
X111742432Y-54167075D01*
X111949275Y-53960232D01*
X112065800Y-53785840D01*
X112182325Y-53960232D01*
X112389168Y-54167075D01*
X112632389Y-54329590D01*
X112902642Y-54441532D01*
X113189540Y-54498600D01*
X113482060Y-54498600D01*
X113768958Y-54441532D01*
X114039211Y-54329590D01*
X114282432Y-54167075D01*
X114489275Y-53960232D01*
X114605800Y-53785840D01*
X114722325Y-53960232D01*
X114929168Y-54167075D01*
X115172389Y-54329590D01*
X115442642Y-54441532D01*
X115729540Y-54498600D01*
X116022060Y-54498600D01*
X116308958Y-54441532D01*
X116579211Y-54329590D01*
X116822432Y-54167075D01*
X117029275Y-53960232D01*
X117150995Y-53778066D01*
X117220622Y-53894955D01*
X117415531Y-54111188D01*
X117648880Y-54285241D01*
X117911701Y-54410425D01*
X118058910Y-54455076D01*
X118288800Y-54333755D01*
X118288800Y-53140600D01*
X118268800Y-53140600D01*
X118268800Y-52886600D01*
X118288800Y-52886600D01*
X118288800Y-52866600D01*
X118542800Y-52866600D01*
X118542800Y-52886600D01*
G37*
G04 #@! TD.AperFunction*
D23*
X119802325Y-51420232D02*
X120009168Y-51627075D01*
X120183560Y-51743600D01*
X120009168Y-51860125D01*
X119802325Y-52066968D01*
X119680605Y-52249134D01*
X119610978Y-52132245D01*
X119416069Y-51916012D01*
X119186394Y-51744700D01*
X119362432Y-51627075D01*
X119569275Y-51420232D01*
X119685800Y-51245840D01*
X119802325Y-51420232D01*
G04 #@! TA.AperFunction,Conductor*
D25*
G36*
X119802325Y-51420232D02*
G01*
X120009168Y-51627075D01*
X120183560Y-51743600D01*
X120009168Y-51860125D01*
X119802325Y-52066968D01*
X119680605Y-52249134D01*
X119610978Y-52132245D01*
X119416069Y-51916012D01*
X119186394Y-51744700D01*
X119362432Y-51627075D01*
X119569275Y-51420232D01*
X119685800Y-51245840D01*
X119802325Y-51420232D01*
G37*
G04 #@! TD.AperFunction*
D23*
X122300622Y-51354955D02*
X122495531Y-51571188D01*
X122725206Y-51742500D01*
X122549168Y-51860125D01*
X122342325Y-52066968D01*
X122225800Y-52241360D01*
X122109275Y-52066968D01*
X121902432Y-51860125D01*
X121728040Y-51743600D01*
X121902432Y-51627075D01*
X122109275Y-51420232D01*
X122230995Y-51238066D01*
X122300622Y-51354955D01*
G04 #@! TA.AperFunction,Conductor*
D25*
G36*
X122300622Y-51354955D02*
G01*
X122495531Y-51571188D01*
X122725206Y-51742500D01*
X122549168Y-51860125D01*
X122342325Y-52066968D01*
X122225800Y-52241360D01*
X122109275Y-52066968D01*
X121902432Y-51860125D01*
X121728040Y-51743600D01*
X121902432Y-51627075D01*
X122109275Y-51420232D01*
X122230995Y-51238066D01*
X122300622Y-51354955D01*
G37*
G04 #@! TD.AperFunction*
D23*
X149022800Y-50346600D02*
X149042800Y-50346600D01*
X149042800Y-50600600D01*
X149022800Y-50600600D01*
X149022800Y-50620600D01*
X148768800Y-50620600D01*
X148768800Y-50600600D01*
X148748800Y-50600600D01*
X148748800Y-50346600D01*
X148768800Y-50346600D01*
X148768800Y-50326600D01*
X149022800Y-50326600D01*
X149022800Y-50346600D01*
G04 #@! TA.AperFunction,Conductor*
D25*
G36*
X149022800Y-50346600D02*
G01*
X149042800Y-50346600D01*
X149042800Y-50600600D01*
X149022800Y-50600600D01*
X149022800Y-50620600D01*
X148768800Y-50620600D01*
X148768800Y-50600600D01*
X148748800Y-50600600D01*
X148748800Y-50346600D01*
X148768800Y-50346600D01*
X148768800Y-50326600D01*
X149022800Y-50326600D01*
X149022800Y-50346600D01*
G37*
G04 #@! TD.AperFunction*
D23*
X143942800Y-50346600D02*
X143962800Y-50346600D01*
X143962800Y-50600600D01*
X143942800Y-50600600D01*
X143942800Y-50620600D01*
X143688800Y-50620600D01*
X143688800Y-50600600D01*
X143668800Y-50600600D01*
X143668800Y-50346600D01*
X143688800Y-50346600D01*
X143688800Y-50326600D01*
X143942800Y-50326600D01*
X143942800Y-50346600D01*
G04 #@! TA.AperFunction,Conductor*
D25*
G36*
X143942800Y-50346600D02*
G01*
X143962800Y-50346600D01*
X143962800Y-50600600D01*
X143942800Y-50600600D01*
X143942800Y-50620600D01*
X143688800Y-50620600D01*
X143688800Y-50600600D01*
X143668800Y-50600600D01*
X143668800Y-50346600D01*
X143688800Y-50346600D01*
X143688800Y-50326600D01*
X143942800Y-50326600D01*
X143942800Y-50346600D01*
G37*
G04 #@! TD.AperFunction*
D23*
X131242800Y-50346600D02*
X131262800Y-50346600D01*
X131262800Y-50600600D01*
X131242800Y-50600600D01*
X131242800Y-50620600D01*
X130988800Y-50620600D01*
X130988800Y-50600600D01*
X130968800Y-50600600D01*
X130968800Y-50346600D01*
X130988800Y-50346600D01*
X130988800Y-50326600D01*
X131242800Y-50326600D01*
X131242800Y-50346600D01*
G04 #@! TA.AperFunction,Conductor*
D25*
G36*
X131242800Y-50346600D02*
G01*
X131262800Y-50346600D01*
X131262800Y-50600600D01*
X131242800Y-50600600D01*
X131242800Y-50620600D01*
X130988800Y-50620600D01*
X130988800Y-50600600D01*
X130968800Y-50600600D01*
X130968800Y-50346600D01*
X130988800Y-50346600D01*
X130988800Y-50326600D01*
X131242800Y-50326600D01*
X131242800Y-50346600D01*
G37*
G04 #@! TD.AperFunction*
M02*
