G04 #@! TF.GenerationSoftware,KiCad,Pcbnew,(5.1.10-1-10_14)*
G04 #@! TF.CreationDate,2021-11-25T21:30:16-05:00*
G04 #@! TF.ProjectId,tool_circuit,746f6f6c-5f63-4697-9263-7569742e6b69,1.0*
G04 #@! TF.SameCoordinates,Original*
G04 #@! TF.FileFunction,Legend,Top*
G04 #@! TF.FilePolarity,Positive*
%FSLAX46Y46*%
G04 Gerber Fmt 4.6, Leading zero omitted, Abs format (unit mm)*
G04 Created by KiCad (PCBNEW (5.1.10-1-10_14)) date 2021-11-25 21:30:16*
%MOMM*%
%LPD*%
G01*
G04 APERTURE LIST*
%ADD10C,0.150000*%
%ADD11C,0.200000*%
%ADD12C,0.127000*%
%ADD13C,0.100000*%
%ADD14C,0.120000*%
%ADD15C,0.010000*%
%ADD16C,0.098425*%
%ADD17C,1.301600*%
%ADD18C,1.609600*%
%ADD19C,2.006600*%
%ADD20C,1.498600*%
%ADD21O,1.801600X1.801600*%
%ADD22O,2.001600X3.901600*%
%ADD23O,3.901600X2.001600*%
%ADD24C,1.473200*%
%ADD25C,1.371600*%
G04 APERTURE END LIST*
D10*
X104177580Y-51695933D02*
X104891866Y-51695933D01*
X105034723Y-51743552D01*
X105129961Y-51838790D01*
X105177580Y-51981647D01*
X105177580Y-52076885D01*
X104510914Y-50791171D02*
X105177580Y-50791171D01*
X104129961Y-51029266D02*
X104844247Y-51267361D01*
X104844247Y-50648314D01*
D11*
X127694800Y-97590600D02*
G75*
G03*
X127694800Y-97590600I-100000J0D01*
G01*
D12*
X126844800Y-97590600D02*
G75*
G03*
X126844800Y-97590600I-5000000J0D01*
G01*
D13*
X151431400Y-67110800D02*
G75*
G03*
X151431400Y-67110800I-127000J0D01*
G01*
D12*
X156704400Y-68710800D02*
G75*
G03*
X156704400Y-68710800I-2500000J0D01*
G01*
X157154400Y-68710800D02*
G75*
G03*
X157154400Y-68710800I-2950000J0D01*
G01*
X111738400Y-87137600D02*
X112978400Y-87137600D01*
X111738400Y-85437600D02*
X112978400Y-85437600D01*
D13*
X112629000Y-81258200D02*
G75*
G03*
X112629000Y-81258200I-127000J0D01*
G01*
D12*
X112102000Y-79658200D02*
G75*
G03*
X112102000Y-79658200I-2500000J0D01*
G01*
X112552000Y-79658200D02*
G75*
G03*
X112552000Y-79658200I-2950000J0D01*
G01*
D14*
X129058400Y-95685600D02*
G75*
G03*
X129058400Y-95685600I-381000J0D01*
G01*
X130455400Y-94796415D02*
X130455400Y-100257600D01*
X146711400Y-93298000D02*
X132317869Y-93298000D01*
X146711400Y-98759185D02*
X146711400Y-93298000D01*
X130455400Y-100257600D02*
X144848931Y-100257600D01*
D13*
X148510400Y-78464600D02*
G75*
G03*
X148510400Y-78464600I-127000J0D01*
G01*
D12*
X153783400Y-80064600D02*
G75*
G03*
X153783400Y-80064600I-2500000J0D01*
G01*
X154233400Y-80064600D02*
G75*
G03*
X154233400Y-80064600I-2950000J0D01*
G01*
X102007400Y-70590400D02*
G75*
G03*
X102007400Y-70590400I-127000J0D01*
G01*
D15*
G36*
X109017800Y-68359380D02*
G01*
X109017800Y-67390000D01*
X110700430Y-67390000D01*
X110700430Y-68359380D01*
X109017800Y-68359380D01*
G37*
X109017800Y-68359380D02*
X109017800Y-67390000D01*
X110700430Y-67390000D01*
X110700430Y-68359380D01*
X109017800Y-68359380D01*
G36*
X107316000Y-68356510D02*
G01*
X107316000Y-67390000D01*
X108993570Y-67390000D01*
X108993570Y-68356510D01*
X107316000Y-68356510D01*
G37*
X107316000Y-68356510D02*
X107316000Y-67390000D01*
X108993570Y-67390000D01*
X108993570Y-68356510D01*
X107316000Y-68356510D01*
G36*
X105614200Y-68355590D02*
G01*
X105614200Y-67390000D01*
X107290715Y-67390000D01*
X107290715Y-68355590D01*
X105614200Y-68355590D01*
G37*
X105614200Y-68355590D02*
X105614200Y-67390000D01*
X107290715Y-67390000D01*
X107290715Y-68355590D01*
X105614200Y-68355590D01*
G36*
X103912400Y-68355830D02*
G01*
X103912400Y-67390000D01*
X105588609Y-67390000D01*
X105588609Y-68355830D01*
X103912400Y-68355830D01*
G37*
X103912400Y-68355830D02*
X103912400Y-67390000D01*
X105588609Y-67390000D01*
X105588609Y-68355830D01*
X103912400Y-68355830D01*
G36*
X102210600Y-68359840D02*
G01*
X102210600Y-67390000D01*
X103882820Y-67390000D01*
X103882820Y-68359840D01*
X102210600Y-68359840D01*
G37*
X102210600Y-68359840D02*
X102210600Y-67390000D01*
X103882820Y-67390000D01*
X103882820Y-68359840D01*
X102210600Y-68359840D01*
D12*
X147944200Y-86513400D02*
X147944200Y-87853400D01*
X149644200Y-86513400D02*
X149644200Y-87853400D01*
X146849000Y-72130800D02*
X147909000Y-72130800D01*
X146849000Y-70370800D02*
X147909000Y-70370800D01*
X147409000Y-59315600D02*
X147409000Y-57975600D01*
X145709000Y-59315600D02*
X145709000Y-57975600D01*
D13*
X144912400Y-80420000D02*
G75*
G03*
X144912400Y-80420000I-127000J0D01*
G01*
D12*
X144385400Y-78820000D02*
G75*
G03*
X144385400Y-78820000I-2500000J0D01*
G01*
X144835400Y-78820000D02*
G75*
G03*
X144835400Y-78820000I-2950000J0D01*
G01*
X134535000Y-77048600D02*
X134535000Y-81048600D01*
X132135000Y-77373600D02*
X131635000Y-77373600D01*
X132135000Y-76873600D02*
X132635000Y-77373600D01*
X132135000Y-77373600D02*
X132135000Y-76873600D01*
X132135000Y-77873600D02*
X132135000Y-77373600D01*
X132635000Y-77373600D02*
X132135000Y-77873600D01*
X132635000Y-77373600D02*
X132635000Y-76873600D01*
X132635000Y-77373600D02*
X132635000Y-77873600D01*
X133135000Y-77373600D02*
X132635000Y-77373600D01*
X134535000Y-77048599D02*
G75*
G03*
X134535000Y-81048600I-2200015J-2000001D01*
G01*
X134535000Y-77048599D02*
G75*
G03*
X134535000Y-81048600I-2200015J-2000001D01*
G01*
D14*
X140047400Y-64097200D02*
X142707400Y-64097200D01*
X140047400Y-58957200D02*
X140047400Y-64097200D01*
X142707400Y-58957200D02*
X142707400Y-64097200D01*
X140047400Y-58957200D02*
X142707400Y-58957200D01*
X140047400Y-57687200D02*
X140047400Y-56357200D01*
X140047400Y-56357200D02*
X141377400Y-56357200D01*
X159427600Y-55341200D02*
X160757600Y-55341200D01*
X159427600Y-56671200D02*
X159427600Y-55341200D01*
X159427600Y-57941200D02*
X162087600Y-57941200D01*
X162087600Y-57941200D02*
X162087600Y-75781200D01*
X159427600Y-57941200D02*
X159427600Y-75781200D01*
X159427600Y-75781200D02*
X162087600Y-75781200D01*
D12*
X154626000Y-88655400D02*
X152346000Y-88655400D01*
X152346000Y-88655400D02*
X152346000Y-102845400D01*
X152346000Y-102845400D02*
X161346000Y-102845400D01*
X161346000Y-102845400D02*
X161346000Y-94325400D01*
X159066000Y-88655400D02*
X161346000Y-88655400D01*
X161346000Y-88655400D02*
X161346000Y-89885400D01*
D11*
X156946000Y-87955400D02*
G75*
G03*
X156946000Y-87955400I-100000J0D01*
G01*
X105038800Y-79042800D02*
G75*
G03*
X105038800Y-79042800I-100000J0D01*
G01*
D12*
X104048800Y-79977800D02*
X102048800Y-79977800D01*
X102048800Y-78017800D02*
X104048800Y-78017800D01*
X115968000Y-71667800D02*
X117968000Y-71667800D01*
X117968000Y-73627800D02*
X115968000Y-73627800D01*
D11*
X118958000Y-72692800D02*
G75*
G03*
X118958000Y-72692800I-100000J0D01*
G01*
X148295000Y-63142400D02*
G75*
G03*
X148295000Y-63142400I-100000J0D01*
G01*
D12*
X147305000Y-64077400D02*
X145305000Y-64077400D01*
X145305000Y-62117400D02*
X147305000Y-62117400D01*
X127874000Y-88994800D02*
X125874000Y-88994800D01*
X125874000Y-87034800D02*
X127874000Y-87034800D01*
D11*
X125084000Y-87969800D02*
G75*
G03*
X125084000Y-87969800I-100000J0D01*
G01*
D12*
X116704600Y-45124800D02*
X118704600Y-45124800D01*
X118704600Y-47084800D02*
X116704600Y-47084800D01*
D11*
X119694600Y-46149800D02*
G75*
G03*
X119694600Y-46149800I-100000J0D01*
G01*
X131048400Y-73226200D02*
G75*
G03*
X131048400Y-73226200I-100000J0D01*
G01*
D12*
X130058400Y-74161200D02*
X128058400Y-74161200D01*
X128058400Y-72201200D02*
X130058400Y-72201200D01*
X139259800Y-71388400D02*
X141259800Y-71388400D01*
X141259800Y-73348400D02*
X139259800Y-73348400D01*
D11*
X142249800Y-72413400D02*
G75*
G03*
X142249800Y-72413400I-100000J0D01*
G01*
X161198200Y-80668400D02*
G75*
G03*
X161198200Y-80668400I-100000J0D01*
G01*
D12*
X160208200Y-81603400D02*
X158208200Y-81603400D01*
X158208200Y-79643400D02*
X160208200Y-79643400D01*
D13*
X117166800Y-78159800D02*
G75*
G03*
X117166800Y-78159800I-127000J0D01*
G01*
D12*
X122439800Y-79759800D02*
G75*
G03*
X122439800Y-79759800I-2500000J0D01*
G01*
X122889800Y-79759800D02*
G75*
G03*
X122889800Y-79759800I-2950000J0D01*
G01*
D14*
X101230800Y-96803200D02*
X102500800Y-96803200D01*
X101865800Y-96168200D02*
X101865800Y-97438200D01*
X115378600Y-96803200D02*
G75*
G03*
X115378600Y-96803200I-6375400J0D01*
G01*
X116841000Y-67746601D02*
X116841000Y-69016601D01*
X116206000Y-68762601D02*
X117476000Y-68762601D01*
X116841000Y-68762601D02*
X116206000Y-68000601D01*
X116841000Y-68762601D02*
X116333000Y-68000601D01*
X116841000Y-68762601D02*
X116460000Y-68000601D01*
X116841000Y-68762601D02*
X116587000Y-68000601D01*
X116841000Y-68762601D02*
X116714000Y-68000601D01*
X116841000Y-68762601D02*
X117476000Y-68000601D01*
X116841000Y-68762601D02*
X117349000Y-68000601D01*
X116841000Y-68762601D02*
X117222000Y-68000601D01*
X116841000Y-68762601D02*
X117095000Y-68000601D01*
X116841000Y-68762601D02*
X116968000Y-68000601D01*
X116206000Y-68000601D02*
X117476000Y-68000601D01*
X120077999Y-67365601D02*
X120077999Y-58981599D01*
X120077999Y-58981599D02*
X118763741Y-58981599D01*
X113604001Y-58981599D02*
X113604001Y-67365601D01*
X113604001Y-67365601D02*
X114918259Y-67365601D01*
X118763741Y-67365601D02*
X120077999Y-67365601D01*
X114918259Y-58981599D02*
X113604001Y-58981599D01*
X136348200Y-59096900D02*
X124918200Y-59096900D01*
X124918200Y-59096900D02*
X124918200Y-62409060D01*
X124918200Y-69637900D02*
X136348200Y-69637900D01*
X136348200Y-69637900D02*
X136348200Y-66325740D01*
X136348200Y-62409060D02*
X136348200Y-59096900D01*
X124918200Y-66325740D02*
X124918200Y-69637900D01*
X137567400Y-64367400D02*
G75*
G03*
X137567400Y-64367400I-76200J0D01*
G01*
X150800800Y-60201800D02*
X149530800Y-60201800D01*
X149784800Y-59566800D02*
X149784800Y-60836800D01*
X149784800Y-60201800D02*
X150546800Y-59566800D01*
X149784800Y-60201800D02*
X150546800Y-59693800D01*
X149784800Y-60201800D02*
X150546800Y-59820800D01*
X149784800Y-60201800D02*
X150546800Y-59947800D01*
X149784800Y-60201800D02*
X150546800Y-60074800D01*
X149784800Y-60201800D02*
X150546800Y-60836800D01*
X149784800Y-60201800D02*
X150546800Y-60709800D01*
X149784800Y-60201800D02*
X150546800Y-60582800D01*
X149784800Y-60201800D02*
X150546800Y-60455800D01*
X149784800Y-60201800D02*
X150546800Y-60328800D01*
X150546800Y-59566800D02*
X150546800Y-60836800D01*
X151163413Y-59537992D02*
G75*
G02*
X155111787Y-59537992I1974187J-663808D01*
G01*
X155111787Y-60865608D02*
G75*
G02*
X151163413Y-60865608I-1974187J663808D01*
G01*
D12*
X132837400Y-45280200D02*
X132137400Y-45280200D01*
X132837400Y-46980200D02*
X132137400Y-46980200D01*
X119761400Y-86453600D02*
X120461400Y-86453600D01*
X119761400Y-88153600D02*
X120461400Y-88153600D01*
X133972400Y-85296400D02*
X133972400Y-85996400D01*
X132272400Y-85296400D02*
X132272400Y-85996400D01*
X142534000Y-85601200D02*
X142534000Y-86301200D01*
X144234000Y-85601200D02*
X144234000Y-86301200D01*
D10*
X117614133Y-92715342D02*
X117566514Y-92762961D01*
X117423657Y-92810580D01*
X117328419Y-92810580D01*
X117185561Y-92762961D01*
X117090323Y-92667723D01*
X117042704Y-92572485D01*
X116995085Y-92382009D01*
X116995085Y-92239152D01*
X117042704Y-92048676D01*
X117090323Y-91953438D01*
X117185561Y-91858200D01*
X117328419Y-91810580D01*
X117423657Y-91810580D01*
X117566514Y-91858200D01*
X117614133Y-91905819D01*
X118566514Y-92810580D02*
X117995085Y-92810580D01*
X118280800Y-92810580D02*
X118280800Y-91810580D01*
X118185561Y-91953438D01*
X118090323Y-92048676D01*
X117995085Y-92096295D01*
X153462722Y-64787058D02*
X153462722Y-64145936D01*
X153615371Y-64145936D01*
X153706959Y-64176466D01*
X153768019Y-64237525D01*
X153798548Y-64298584D01*
X153829078Y-64420702D01*
X153829078Y-64512291D01*
X153798548Y-64634410D01*
X153768019Y-64695469D01*
X153706959Y-64756528D01*
X153615371Y-64787058D01*
X153462722Y-64787058D01*
X154409141Y-64145936D02*
X154103844Y-64145936D01*
X154073315Y-64451232D01*
X154103844Y-64420702D01*
X154164904Y-64390173D01*
X154317552Y-64390173D01*
X154378611Y-64420702D01*
X154409141Y-64451232D01*
X154439670Y-64512291D01*
X154439670Y-64664939D01*
X154409141Y-64725999D01*
X154378611Y-64756528D01*
X154317552Y-64787058D01*
X154164904Y-64787058D01*
X154103844Y-64756528D01*
X154073315Y-64725999D01*
D16*
X111302783Y-85015702D02*
X111171549Y-84828226D01*
X111077811Y-85015702D02*
X111077811Y-84622001D01*
X111227792Y-84622001D01*
X111265287Y-84640749D01*
X111284035Y-84659497D01*
X111302783Y-84696992D01*
X111302783Y-84753235D01*
X111284035Y-84790730D01*
X111265287Y-84809478D01*
X111227792Y-84828226D01*
X111077811Y-84828226D01*
X111452764Y-84659497D02*
X111471512Y-84640749D01*
X111509007Y-84622001D01*
X111602745Y-84622001D01*
X111640241Y-84640749D01*
X111658988Y-84659497D01*
X111677736Y-84696992D01*
X111677736Y-84734487D01*
X111658988Y-84790730D01*
X111434016Y-85015702D01*
X111677736Y-85015702D01*
D10*
X109001790Y-76087431D02*
X109001790Y-75446309D01*
X109154439Y-75446309D01*
X109246027Y-75476839D01*
X109307087Y-75537898D01*
X109337616Y-75598957D01*
X109368146Y-75721075D01*
X109368146Y-75812664D01*
X109337616Y-75934783D01*
X109307087Y-75995842D01*
X109246027Y-76056901D01*
X109154439Y-76087431D01*
X109001790Y-76087431D01*
X109917679Y-75446309D02*
X109795561Y-75446309D01*
X109734501Y-75476839D01*
X109703972Y-75507368D01*
X109642912Y-75598957D01*
X109612383Y-75721075D01*
X109612383Y-75965312D01*
X109642912Y-76026372D01*
X109673442Y-76056901D01*
X109734501Y-76087431D01*
X109856620Y-76087431D01*
X109917679Y-76056901D01*
X109948209Y-76026372D01*
X109978738Y-75965312D01*
X109978738Y-75812664D01*
X109948209Y-75751605D01*
X109917679Y-75721075D01*
X109856620Y-75690546D01*
X109734501Y-75690546D01*
X109673442Y-75721075D01*
X109642912Y-75751605D01*
X109612383Y-75812664D01*
X137580266Y-102541961D02*
X137723123Y-102589580D01*
X137961219Y-102589580D01*
X138056457Y-102541961D01*
X138104076Y-102494342D01*
X138151695Y-102399104D01*
X138151695Y-102303866D01*
X138104076Y-102208628D01*
X138056457Y-102161009D01*
X137961219Y-102113390D01*
X137770742Y-102065771D01*
X137675504Y-102018152D01*
X137627885Y-101970533D01*
X137580266Y-101875295D01*
X137580266Y-101780057D01*
X137627885Y-101684819D01*
X137675504Y-101637200D01*
X137770742Y-101589580D01*
X138008838Y-101589580D01*
X138151695Y-101637200D01*
X138485028Y-101589580D02*
X138723123Y-102589580D01*
X138913600Y-101875295D01*
X139104076Y-102589580D01*
X139342171Y-101589580D01*
X140246933Y-102589580D02*
X139675504Y-102589580D01*
X139961219Y-102589580D02*
X139961219Y-101589580D01*
X139865980Y-101732438D01*
X139770742Y-101827676D01*
X139675504Y-101875295D01*
X136724714Y-99011361D02*
X136867571Y-99058980D01*
X137105666Y-99058980D01*
X137200904Y-99011361D01*
X137248523Y-98963742D01*
X137296142Y-98868504D01*
X137296142Y-98773266D01*
X137248523Y-98678028D01*
X137200904Y-98630409D01*
X137105666Y-98582790D01*
X136915190Y-98535171D01*
X136819952Y-98487552D01*
X136772333Y-98439933D01*
X136724714Y-98344695D01*
X136724714Y-98249457D01*
X136772333Y-98154219D01*
X136819952Y-98106600D01*
X136915190Y-98058980D01*
X137153285Y-98058980D01*
X137296142Y-98106600D01*
X137629476Y-98392314D02*
X137819952Y-99058980D01*
X138010428Y-98582790D01*
X138200904Y-99058980D01*
X138391380Y-98392314D01*
X138772333Y-99058980D02*
X138772333Y-98392314D01*
X138772333Y-98058980D02*
X138724714Y-98106600D01*
X138772333Y-98154219D01*
X138819952Y-98106600D01*
X138772333Y-98058980D01*
X138772333Y-98154219D01*
X139105666Y-98392314D02*
X139486619Y-98392314D01*
X139248523Y-98058980D02*
X139248523Y-98916123D01*
X139296142Y-99011361D01*
X139391380Y-99058980D01*
X139486619Y-99058980D01*
X140248523Y-99011361D02*
X140153285Y-99058980D01*
X139962809Y-99058980D01*
X139867571Y-99011361D01*
X139819952Y-98963742D01*
X139772333Y-98868504D01*
X139772333Y-98582790D01*
X139819952Y-98487552D01*
X139867571Y-98439933D01*
X139962809Y-98392314D01*
X140153285Y-98392314D01*
X140248523Y-98439933D01*
X140677095Y-99058980D02*
X140677095Y-98058980D01*
X141105666Y-99058980D02*
X141105666Y-98535171D01*
X141058047Y-98439933D01*
X140962809Y-98392314D01*
X140819952Y-98392314D01*
X140724714Y-98439933D01*
X140677095Y-98487552D01*
X134595600Y-95137980D02*
X134595600Y-95376076D01*
X134357504Y-95280838D02*
X134595600Y-95376076D01*
X134833695Y-95280838D01*
X134452742Y-95566552D02*
X134595600Y-95376076D01*
X134738457Y-95566552D01*
X150606527Y-76341715D02*
X150606527Y-75699965D01*
X150759325Y-75699965D01*
X150851003Y-75730525D01*
X150912122Y-75791644D01*
X150942682Y-75852763D01*
X150973241Y-75975001D01*
X150973241Y-76066679D01*
X150942682Y-76188917D01*
X150912122Y-76250036D01*
X150851003Y-76311155D01*
X150759325Y-76341715D01*
X150606527Y-76341715D01*
X151523313Y-75913882D02*
X151523313Y-76341715D01*
X151370515Y-75669405D02*
X151217717Y-76127798D01*
X151614991Y-76127798D01*
X101295263Y-53481239D02*
X101295263Y-54291859D01*
X101342947Y-54387226D01*
X101390630Y-54434909D01*
X101485997Y-54482593D01*
X101676731Y-54482593D01*
X101772098Y-54434909D01*
X101819782Y-54387226D01*
X101867465Y-54291859D01*
X101867465Y-53481239D01*
X102868819Y-54482593D02*
X102296617Y-54482593D01*
X102582718Y-54482593D02*
X102582718Y-53481239D01*
X102487351Y-53624290D01*
X102391984Y-53719657D01*
X102296617Y-53767340D01*
X147272619Y-87320533D02*
X146788809Y-87659200D01*
X147272619Y-87901104D02*
X146256619Y-87901104D01*
X146256619Y-87514057D01*
X146305000Y-87417295D01*
X146353380Y-87368914D01*
X146450142Y-87320533D01*
X146595285Y-87320533D01*
X146692047Y-87368914D01*
X146740428Y-87417295D01*
X146788809Y-87514057D01*
X146788809Y-87901104D01*
X147272619Y-86836723D02*
X147272619Y-86643200D01*
X147224238Y-86546438D01*
X147175857Y-86498057D01*
X147030714Y-86401295D01*
X146837190Y-86352914D01*
X146450142Y-86352914D01*
X146353380Y-86401295D01*
X146305000Y-86449676D01*
X146256619Y-86546438D01*
X146256619Y-86739961D01*
X146305000Y-86836723D01*
X146353380Y-86885104D01*
X146450142Y-86933485D01*
X146692047Y-86933485D01*
X146788809Y-86885104D01*
X146837190Y-86836723D01*
X146885571Y-86739961D01*
X146885571Y-86546438D01*
X146837190Y-86449676D01*
X146788809Y-86401295D01*
X146692047Y-86352914D01*
X147050066Y-69373619D02*
X146711400Y-68889809D01*
X146469495Y-69373619D02*
X146469495Y-68357619D01*
X146856542Y-68357619D01*
X146953304Y-68406000D01*
X147001685Y-68454380D01*
X147050066Y-68551142D01*
X147050066Y-68696285D01*
X147001685Y-68793047D01*
X146953304Y-68841428D01*
X146856542Y-68889809D01*
X146469495Y-68889809D01*
X147630638Y-68793047D02*
X147533876Y-68744666D01*
X147485495Y-68696285D01*
X147437114Y-68599523D01*
X147437114Y-68551142D01*
X147485495Y-68454380D01*
X147533876Y-68406000D01*
X147630638Y-68357619D01*
X147824161Y-68357619D01*
X147920923Y-68406000D01*
X147969304Y-68454380D01*
X148017685Y-68551142D01*
X148017685Y-68599523D01*
X147969304Y-68696285D01*
X147920923Y-68744666D01*
X147824161Y-68793047D01*
X147630638Y-68793047D01*
X147533876Y-68841428D01*
X147485495Y-68889809D01*
X147437114Y-68986571D01*
X147437114Y-69180095D01*
X147485495Y-69276857D01*
X147533876Y-69325238D01*
X147630638Y-69373619D01*
X147824161Y-69373619D01*
X147920923Y-69325238D01*
X147969304Y-69276857D01*
X148017685Y-69180095D01*
X148017685Y-68986571D01*
X147969304Y-68889809D01*
X147920923Y-68841428D01*
X147824161Y-68793047D01*
X144986619Y-58745533D02*
X144502809Y-59084200D01*
X144986619Y-59326104D02*
X143970619Y-59326104D01*
X143970619Y-58939057D01*
X144019000Y-58842295D01*
X144067380Y-58793914D01*
X144164142Y-58745533D01*
X144309285Y-58745533D01*
X144406047Y-58793914D01*
X144454428Y-58842295D01*
X144502809Y-58939057D01*
X144502809Y-59326104D01*
X144309285Y-57874676D02*
X144986619Y-57874676D01*
X143922238Y-58116580D02*
X144647952Y-58358485D01*
X144647952Y-57729533D01*
X141437590Y-75223831D02*
X141437590Y-74582709D01*
X141590239Y-74582709D01*
X141681827Y-74613239D01*
X141742887Y-74674298D01*
X141773416Y-74735357D01*
X141803946Y-74857475D01*
X141803946Y-74949064D01*
X141773416Y-75071183D01*
X141742887Y-75132242D01*
X141681827Y-75193301D01*
X141590239Y-75223831D01*
X141437590Y-75223831D01*
X142017653Y-74582709D02*
X142414538Y-74582709D01*
X142200831Y-74826946D01*
X142292420Y-74826946D01*
X142353479Y-74857475D01*
X142384009Y-74888005D01*
X142414538Y-74949064D01*
X142414538Y-75101712D01*
X142384009Y-75162772D01*
X142353479Y-75193301D01*
X142292420Y-75223831D01*
X142109242Y-75223831D01*
X142048183Y-75193301D01*
X142017653Y-75162772D01*
X131854619Y-75221723D02*
X131854619Y-74581723D01*
X132007000Y-74581723D01*
X132098428Y-74612200D01*
X132159380Y-74673152D01*
X132189857Y-74734104D01*
X132220333Y-74856009D01*
X132220333Y-74947438D01*
X132189857Y-75069342D01*
X132159380Y-75130295D01*
X132098428Y-75191247D01*
X132007000Y-75221723D01*
X131854619Y-75221723D01*
X132464142Y-74642676D02*
X132494619Y-74612200D01*
X132555571Y-74581723D01*
X132707952Y-74581723D01*
X132768904Y-74612200D01*
X132799380Y-74642676D01*
X132829857Y-74703628D01*
X132829857Y-74764580D01*
X132799380Y-74856009D01*
X132433666Y-75221723D01*
X132829857Y-75221723D01*
X133064523Y-81705742D02*
X133016904Y-81753361D01*
X132874047Y-81800980D01*
X132778809Y-81800980D01*
X132635952Y-81753361D01*
X132540714Y-81658123D01*
X132493095Y-81562885D01*
X132445476Y-81372409D01*
X132445476Y-81229552D01*
X132493095Y-81039076D01*
X132540714Y-80943838D01*
X132635952Y-80848600D01*
X132778809Y-80800980D01*
X132874047Y-80800980D01*
X133016904Y-80848600D01*
X133064523Y-80896219D01*
X140993266Y-64784980D02*
X140993266Y-65499266D01*
X140945647Y-65642123D01*
X140850409Y-65737361D01*
X140707552Y-65784980D01*
X140612314Y-65784980D01*
X141421838Y-64880219D02*
X141469457Y-64832600D01*
X141564695Y-64784980D01*
X141802790Y-64784980D01*
X141898028Y-64832600D01*
X141945647Y-64880219D01*
X141993266Y-64975457D01*
X141993266Y-65070695D01*
X141945647Y-65213552D01*
X141374219Y-65784980D01*
X141993266Y-65784980D01*
X159930580Y-53880333D02*
X160644866Y-53880333D01*
X160787723Y-53927952D01*
X160882961Y-54023190D01*
X160930580Y-54166047D01*
X160930580Y-54261285D01*
X159930580Y-53499380D02*
X159930580Y-52880333D01*
X160311533Y-53213666D01*
X160311533Y-53070809D01*
X160359152Y-52975571D01*
X160406771Y-52927952D01*
X160502009Y-52880333D01*
X160740104Y-52880333D01*
X160835342Y-52927952D01*
X160882961Y-52975571D01*
X160930580Y-53070809D01*
X160930580Y-53356523D01*
X160882961Y-53451761D01*
X160835342Y-53499380D01*
X153585333Y-86079733D02*
X153585333Y-87079733D01*
X153518666Y-87279733D01*
X153385333Y-87413066D01*
X153185333Y-87479733D01*
X153052000Y-87479733D01*
X154985333Y-87479733D02*
X154185333Y-87479733D01*
X154585333Y-87479733D02*
X154585333Y-86079733D01*
X154452000Y-86279733D01*
X154318666Y-86413066D01*
X154185333Y-86479733D01*
X101599276Y-80367704D02*
X102056419Y-80367704D01*
X101827847Y-81167704D02*
X101827847Y-80367704D01*
X102323085Y-81167704D02*
X102323085Y-80367704D01*
X102627847Y-80367704D01*
X102704038Y-80405800D01*
X102742133Y-80443895D01*
X102780228Y-80520085D01*
X102780228Y-80634371D01*
X102742133Y-80710561D01*
X102704038Y-80748657D01*
X102627847Y-80786752D01*
X102323085Y-80786752D01*
X103542133Y-81167704D02*
X103084990Y-81167704D01*
X103313561Y-81167704D02*
X103313561Y-80367704D01*
X103237371Y-80481990D01*
X103161180Y-80558180D01*
X103084990Y-80596276D01*
X115983876Y-70101504D02*
X116441019Y-70101504D01*
X116212447Y-70901504D02*
X116212447Y-70101504D01*
X116707685Y-70901504D02*
X116707685Y-70101504D01*
X117012447Y-70101504D01*
X117088638Y-70139600D01*
X117126733Y-70177695D01*
X117164828Y-70253885D01*
X117164828Y-70368171D01*
X117126733Y-70444361D01*
X117088638Y-70482457D01*
X117012447Y-70520552D01*
X116707685Y-70520552D01*
X117469590Y-70177695D02*
X117507685Y-70139600D01*
X117583876Y-70101504D01*
X117774352Y-70101504D01*
X117850542Y-70139600D01*
X117888638Y-70177695D01*
X117926733Y-70253885D01*
X117926733Y-70330076D01*
X117888638Y-70444361D01*
X117431495Y-70901504D01*
X117926733Y-70901504D01*
X144855476Y-64467304D02*
X145312619Y-64467304D01*
X145084047Y-65267304D02*
X145084047Y-64467304D01*
X145579285Y-65267304D02*
X145579285Y-64467304D01*
X145884047Y-64467304D01*
X145960238Y-64505400D01*
X145998333Y-64543495D01*
X146036428Y-64619685D01*
X146036428Y-64733971D01*
X145998333Y-64810161D01*
X145960238Y-64848257D01*
X145884047Y-64886352D01*
X145579285Y-64886352D01*
X146303095Y-64467304D02*
X146798333Y-64467304D01*
X146531666Y-64772066D01*
X146645952Y-64772066D01*
X146722142Y-64810161D01*
X146760238Y-64848257D01*
X146798333Y-64924447D01*
X146798333Y-65114923D01*
X146760238Y-65191114D01*
X146722142Y-65229209D01*
X146645952Y-65267304D01*
X146417380Y-65267304D01*
X146341190Y-65229209D01*
X146303095Y-65191114D01*
X126093076Y-85671704D02*
X126550219Y-85671704D01*
X126321647Y-86471704D02*
X126321647Y-85671704D01*
X126816885Y-86471704D02*
X126816885Y-85671704D01*
X127121647Y-85671704D01*
X127197838Y-85709800D01*
X127235933Y-85747895D01*
X127274028Y-85824085D01*
X127274028Y-85938371D01*
X127235933Y-86014561D01*
X127197838Y-86052657D01*
X127121647Y-86090752D01*
X126816885Y-86090752D01*
X127959742Y-85938371D02*
X127959742Y-86471704D01*
X127769266Y-85633609D02*
X127578790Y-86205038D01*
X128074028Y-86205038D01*
X116669676Y-47597104D02*
X117126819Y-47597104D01*
X116898247Y-48397104D02*
X116898247Y-47597104D01*
X117393485Y-48397104D02*
X117393485Y-47597104D01*
X117698247Y-47597104D01*
X117774438Y-47635200D01*
X117812533Y-47673295D01*
X117850628Y-47749485D01*
X117850628Y-47863771D01*
X117812533Y-47939961D01*
X117774438Y-47978057D01*
X117698247Y-48016152D01*
X117393485Y-48016152D01*
X118574438Y-47597104D02*
X118193485Y-47597104D01*
X118155390Y-47978057D01*
X118193485Y-47939961D01*
X118269676Y-47901866D01*
X118460152Y-47901866D01*
X118536342Y-47939961D01*
X118574438Y-47978057D01*
X118612533Y-48054247D01*
X118612533Y-48244723D01*
X118574438Y-48320914D01*
X118536342Y-48359009D01*
X118460152Y-48397104D01*
X118269676Y-48397104D01*
X118193485Y-48359009D01*
X118155390Y-48320914D01*
X127608876Y-74551104D02*
X128066019Y-74551104D01*
X127837447Y-75351104D02*
X127837447Y-74551104D01*
X128332685Y-75351104D02*
X128332685Y-74551104D01*
X128637447Y-74551104D01*
X128713638Y-74589200D01*
X128751733Y-74627295D01*
X128789828Y-74703485D01*
X128789828Y-74817771D01*
X128751733Y-74893961D01*
X128713638Y-74932057D01*
X128637447Y-74970152D01*
X128332685Y-74970152D01*
X129475542Y-74551104D02*
X129323161Y-74551104D01*
X129246971Y-74589200D01*
X129208876Y-74627295D01*
X129132685Y-74741580D01*
X129094590Y-74893961D01*
X129094590Y-75198723D01*
X129132685Y-75274914D01*
X129170780Y-75313009D01*
X129246971Y-75351104D01*
X129399352Y-75351104D01*
X129475542Y-75313009D01*
X129513638Y-75274914D01*
X129551733Y-75198723D01*
X129551733Y-75008247D01*
X129513638Y-74932057D01*
X129475542Y-74893961D01*
X129399352Y-74855866D01*
X129246971Y-74855866D01*
X129170780Y-74893961D01*
X129132685Y-74932057D01*
X129094590Y-75008247D01*
X139275676Y-70152304D02*
X139732819Y-70152304D01*
X139504247Y-70952304D02*
X139504247Y-70152304D01*
X139999485Y-70952304D02*
X139999485Y-70152304D01*
X140304247Y-70152304D01*
X140380438Y-70190400D01*
X140418533Y-70228495D01*
X140456628Y-70304685D01*
X140456628Y-70418971D01*
X140418533Y-70495161D01*
X140380438Y-70533257D01*
X140304247Y-70571352D01*
X139999485Y-70571352D01*
X140723295Y-70152304D02*
X141256628Y-70152304D01*
X140913771Y-70952304D01*
X157758676Y-81993304D02*
X158215819Y-81993304D01*
X157987247Y-82793304D02*
X157987247Y-81993304D01*
X158482485Y-82793304D02*
X158482485Y-81993304D01*
X158787247Y-81993304D01*
X158863438Y-82031400D01*
X158901533Y-82069495D01*
X158939628Y-82145685D01*
X158939628Y-82259971D01*
X158901533Y-82336161D01*
X158863438Y-82374257D01*
X158787247Y-82412352D01*
X158482485Y-82412352D01*
X159396771Y-82336161D02*
X159320580Y-82298066D01*
X159282485Y-82259971D01*
X159244390Y-82183780D01*
X159244390Y-82145685D01*
X159282485Y-82069495D01*
X159320580Y-82031400D01*
X159396771Y-81993304D01*
X159549152Y-81993304D01*
X159625342Y-82031400D01*
X159663438Y-82069495D01*
X159701533Y-82145685D01*
X159701533Y-82183780D01*
X159663438Y-82259971D01*
X159625342Y-82298066D01*
X159549152Y-82336161D01*
X159396771Y-82336161D01*
X159320580Y-82374257D01*
X159282485Y-82412352D01*
X159244390Y-82488542D01*
X159244390Y-82640923D01*
X159282485Y-82717114D01*
X159320580Y-82755209D01*
X159396771Y-82793304D01*
X159549152Y-82793304D01*
X159625342Y-82755209D01*
X159663438Y-82717114D01*
X159701533Y-82640923D01*
X159701533Y-82488542D01*
X159663438Y-82412352D01*
X159625342Y-82374257D01*
X159549152Y-82336161D01*
X119466590Y-76316031D02*
X119466590Y-75674909D01*
X119619239Y-75674909D01*
X119710827Y-75705439D01*
X119771887Y-75766498D01*
X119802416Y-75827557D01*
X119832946Y-75949675D01*
X119832946Y-76041264D01*
X119802416Y-76163383D01*
X119771887Y-76224442D01*
X119710827Y-76285501D01*
X119619239Y-76316031D01*
X119466590Y-76316031D01*
X120443538Y-76316031D02*
X120077183Y-76316031D01*
X120260361Y-76316031D02*
X120260361Y-75674909D01*
X120199301Y-75766498D01*
X120138242Y-75827557D01*
X120077183Y-75858087D01*
X108836533Y-97160342D02*
X108788914Y-97207961D01*
X108646057Y-97255580D01*
X108550819Y-97255580D01*
X108407961Y-97207961D01*
X108312723Y-97112723D01*
X108265104Y-97017485D01*
X108217485Y-96827009D01*
X108217485Y-96684152D01*
X108265104Y-96493676D01*
X108312723Y-96398438D01*
X108407961Y-96303200D01*
X108550819Y-96255580D01*
X108646057Y-96255580D01*
X108788914Y-96303200D01*
X108836533Y-96350819D01*
X109217485Y-96350819D02*
X109265104Y-96303200D01*
X109360342Y-96255580D01*
X109598438Y-96255580D01*
X109693676Y-96303200D01*
X109741295Y-96350819D01*
X109788914Y-96446057D01*
X109788914Y-96541295D01*
X109741295Y-96684152D01*
X109169866Y-97255580D01*
X109788914Y-97255580D01*
X106979390Y-97255580D02*
X106407961Y-97255580D01*
X106693676Y-97255580D02*
X106693676Y-96255580D01*
X106598438Y-96398438D01*
X106503200Y-96493676D01*
X106407961Y-96541295D01*
X107598438Y-96255580D02*
X107693676Y-96255580D01*
X107788914Y-96303200D01*
X107836533Y-96350819D01*
X107884152Y-96446057D01*
X107931771Y-96636533D01*
X107931771Y-96874628D01*
X107884152Y-97065104D01*
X107836533Y-97160342D01*
X107788914Y-97207961D01*
X107693676Y-97255580D01*
X107598438Y-97255580D01*
X107503200Y-97207961D01*
X107455580Y-97160342D01*
X107407961Y-97065104D01*
X107360342Y-96874628D01*
X107360342Y-96636533D01*
X107407961Y-96446057D01*
X107455580Y-96350819D01*
X107503200Y-96303200D01*
X107598438Y-96255580D01*
X108550819Y-96255580D02*
X108646057Y-96255580D01*
X108741295Y-96303200D01*
X108788914Y-96350819D01*
X108836533Y-96446057D01*
X108884152Y-96636533D01*
X108884152Y-96874628D01*
X108836533Y-97065104D01*
X108788914Y-97160342D01*
X108741295Y-97207961D01*
X108646057Y-97255580D01*
X108550819Y-97255580D01*
X108455580Y-97207961D01*
X108407961Y-97160342D01*
X108360342Y-97065104D01*
X108312723Y-96874628D01*
X108312723Y-96636533D01*
X108360342Y-96446057D01*
X108407961Y-96350819D01*
X108455580Y-96303200D01*
X108550819Y-96255580D01*
X109503200Y-96255580D02*
X109598438Y-96255580D01*
X109693676Y-96303200D01*
X109741295Y-96350819D01*
X109788914Y-96446057D01*
X109836533Y-96636533D01*
X109836533Y-96874628D01*
X109788914Y-97065104D01*
X109741295Y-97160342D01*
X109693676Y-97207961D01*
X109598438Y-97255580D01*
X109503200Y-97255580D01*
X109407961Y-97207961D01*
X109360342Y-97160342D01*
X109312723Y-97065104D01*
X109265104Y-96874628D01*
X109265104Y-96636533D01*
X109312723Y-96446057D01*
X109360342Y-96350819D01*
X109407961Y-96303200D01*
X109503200Y-96255580D01*
X110693676Y-96588914D02*
X110693676Y-97255580D01*
X110265104Y-96588914D02*
X110265104Y-97112723D01*
X110312723Y-97207961D01*
X110407961Y-97255580D01*
X110550819Y-97255580D01*
X110646057Y-97207961D01*
X110693676Y-97160342D01*
X111503200Y-96731771D02*
X111169866Y-96731771D01*
X111169866Y-97255580D02*
X111169866Y-96255580D01*
X111646057Y-96255580D01*
X106503200Y-96255580D02*
X106503200Y-96493676D01*
X106265104Y-96398438D02*
X106503200Y-96493676D01*
X106741295Y-96398438D01*
X106360342Y-96684152D02*
X106503200Y-96493676D01*
X106646057Y-96684152D01*
X117198142Y-63840266D02*
X117245761Y-63887885D01*
X117293380Y-64030742D01*
X117293380Y-64125980D01*
X117245761Y-64268838D01*
X117150523Y-64364076D01*
X117055285Y-64411695D01*
X116864809Y-64459314D01*
X116721952Y-64459314D01*
X116531476Y-64411695D01*
X116436238Y-64364076D01*
X116341000Y-64268838D01*
X116293380Y-64125980D01*
X116293380Y-64030742D01*
X116341000Y-63887885D01*
X116388619Y-63840266D01*
X117293380Y-62840266D02*
X116817190Y-63173600D01*
X117293380Y-63411695D02*
X116293380Y-63411695D01*
X116293380Y-63030742D01*
X116341000Y-62935504D01*
X116388619Y-62887885D01*
X116483857Y-62840266D01*
X116626714Y-62840266D01*
X116721952Y-62887885D01*
X116769571Y-62935504D01*
X116817190Y-63030742D01*
X116817190Y-63411695D01*
X116388619Y-62459314D02*
X116341000Y-62411695D01*
X116293380Y-62316457D01*
X116293380Y-62078361D01*
X116341000Y-61983123D01*
X116388619Y-61935504D01*
X116483857Y-61887885D01*
X116579095Y-61887885D01*
X116721952Y-61935504D01*
X117293380Y-62506933D01*
X117293380Y-61887885D01*
X118877771Y-67254390D02*
X118925390Y-67111533D01*
X118973009Y-67063914D01*
X119068247Y-67016295D01*
X119211104Y-67016295D01*
X119306342Y-67063914D01*
X119353961Y-67111533D01*
X119401580Y-67206771D01*
X119401580Y-67587723D01*
X118401580Y-67587723D01*
X118401580Y-67254390D01*
X118449200Y-67159152D01*
X118496819Y-67111533D01*
X118592057Y-67063914D01*
X118687295Y-67063914D01*
X118782533Y-67111533D01*
X118830152Y-67159152D01*
X118877771Y-67254390D01*
X118877771Y-67587723D01*
X118401580Y-66682961D02*
X118401580Y-66063914D01*
X118782533Y-66397247D01*
X118782533Y-66254390D01*
X118830152Y-66159152D01*
X118877771Y-66111533D01*
X118973009Y-66063914D01*
X119211104Y-66063914D01*
X119306342Y-66111533D01*
X119353961Y-66159152D01*
X119401580Y-66254390D01*
X119401580Y-66540104D01*
X119353961Y-66635342D01*
X119306342Y-66682961D01*
X118830152Y-65492485D02*
X118782533Y-65587723D01*
X118734914Y-65635342D01*
X118639676Y-65682961D01*
X118592057Y-65682961D01*
X118496819Y-65635342D01*
X118449200Y-65587723D01*
X118401580Y-65492485D01*
X118401580Y-65302009D01*
X118449200Y-65206771D01*
X118496819Y-65159152D01*
X118592057Y-65111533D01*
X118639676Y-65111533D01*
X118734914Y-65159152D01*
X118782533Y-65206771D01*
X118830152Y-65302009D01*
X118830152Y-65492485D01*
X118877771Y-65587723D01*
X118925390Y-65635342D01*
X119020628Y-65682961D01*
X119211104Y-65682961D01*
X119306342Y-65635342D01*
X119353961Y-65587723D01*
X119401580Y-65492485D01*
X119401580Y-65302009D01*
X119353961Y-65206771D01*
X119306342Y-65159152D01*
X119211104Y-65111533D01*
X119020628Y-65111533D01*
X118925390Y-65159152D01*
X118877771Y-65206771D01*
X118830152Y-65302009D01*
X118401580Y-64492485D02*
X118401580Y-64397247D01*
X118449200Y-64302009D01*
X118496819Y-64254390D01*
X118592057Y-64206771D01*
X118782533Y-64159152D01*
X119020628Y-64159152D01*
X119211104Y-64206771D01*
X119306342Y-64254390D01*
X119353961Y-64302009D01*
X119401580Y-64397247D01*
X119401580Y-64492485D01*
X119353961Y-64587723D01*
X119306342Y-64635342D01*
X119211104Y-64682961D01*
X119020628Y-64730580D01*
X118782533Y-64730580D01*
X118592057Y-64682961D01*
X118496819Y-64635342D01*
X118449200Y-64587723D01*
X118401580Y-64492485D01*
X119020628Y-63730580D02*
X119020628Y-62968676D01*
X119401580Y-61968676D02*
X119401580Y-62540104D01*
X119401580Y-62254390D02*
X118401580Y-62254390D01*
X118544438Y-62349628D01*
X118639676Y-62444866D01*
X118687295Y-62540104D01*
X118401580Y-61635342D02*
X118401580Y-61016295D01*
X118782533Y-61349628D01*
X118782533Y-61206771D01*
X118830152Y-61111533D01*
X118877771Y-61063914D01*
X118973009Y-61016295D01*
X119211104Y-61016295D01*
X119306342Y-61063914D01*
X119353961Y-61111533D01*
X119401580Y-61206771D01*
X119401580Y-61492485D01*
X119353961Y-61587723D01*
X119306342Y-61635342D01*
X119020628Y-60587723D02*
X119020628Y-59825819D01*
X118877771Y-59016295D02*
X118877771Y-59349628D01*
X119401580Y-59349628D02*
X118401580Y-59349628D01*
X118401580Y-58873438D01*
X116293380Y-63173600D02*
X116531476Y-63173600D01*
X116436238Y-63411695D02*
X116531476Y-63173600D01*
X116436238Y-62935504D01*
X116721952Y-63316457D02*
X116531476Y-63173600D01*
X116721952Y-63030742D01*
X130466533Y-64819780D02*
X129990342Y-64819780D01*
X129990342Y-63819780D01*
X131323676Y-64819780D02*
X130752247Y-64819780D01*
X131037961Y-64819780D02*
X131037961Y-63819780D01*
X130942723Y-63962638D01*
X130847485Y-64057876D01*
X130752247Y-64105495D01*
X128990342Y-64819780D02*
X128418914Y-64819780D01*
X128704628Y-64819780D02*
X128704628Y-63819780D01*
X128609390Y-63962638D01*
X128514152Y-64057876D01*
X128418914Y-64105495D01*
X129609390Y-63819780D02*
X129704628Y-63819780D01*
X129799866Y-63867400D01*
X129847485Y-63915019D01*
X129895104Y-64010257D01*
X129942723Y-64200733D01*
X129942723Y-64438828D01*
X129895104Y-64629304D01*
X129847485Y-64724542D01*
X129799866Y-64772161D01*
X129704628Y-64819780D01*
X129609390Y-64819780D01*
X129514152Y-64772161D01*
X129466533Y-64724542D01*
X129418914Y-64629304D01*
X129371295Y-64438828D01*
X129371295Y-64200733D01*
X129418914Y-64010257D01*
X129466533Y-63915019D01*
X129514152Y-63867400D01*
X129609390Y-63819780D01*
X130561771Y-63819780D02*
X130657009Y-63819780D01*
X130752247Y-63867400D01*
X130799866Y-63915019D01*
X130847485Y-64010257D01*
X130895104Y-64200733D01*
X130895104Y-64438828D01*
X130847485Y-64629304D01*
X130799866Y-64724542D01*
X130752247Y-64772161D01*
X130657009Y-64819780D01*
X130561771Y-64819780D01*
X130466533Y-64772161D01*
X130418914Y-64724542D01*
X130371295Y-64629304D01*
X130323676Y-64438828D01*
X130323676Y-64200733D01*
X130371295Y-64010257D01*
X130418914Y-63915019D01*
X130466533Y-63867400D01*
X130561771Y-63819780D01*
X131752247Y-64153114D02*
X131752247Y-64819780D01*
X131323676Y-64153114D02*
X131323676Y-64676923D01*
X131371295Y-64772161D01*
X131466533Y-64819780D01*
X131609390Y-64819780D01*
X131704628Y-64772161D01*
X131752247Y-64724542D01*
X132228438Y-64819780D02*
X132228438Y-63819780D01*
X132228438Y-64295971D02*
X132799866Y-64295971D01*
X132799866Y-64819780D02*
X132799866Y-63819780D01*
X130633200Y-63819780D02*
X130633200Y-64057876D01*
X130395104Y-63962638D02*
X130633200Y-64057876D01*
X130871295Y-63962638D01*
X130490342Y-64248352D02*
X130633200Y-64057876D01*
X130776057Y-64248352D01*
X152018552Y-60654180D02*
X151542361Y-60654180D01*
X151542361Y-59654180D01*
X152351885Y-60130371D02*
X152685219Y-60130371D01*
X152828076Y-60654180D02*
X152351885Y-60654180D01*
X152351885Y-59654180D01*
X152828076Y-59654180D01*
X153256647Y-60654180D02*
X153256647Y-59654180D01*
X153494742Y-59654180D01*
X153637600Y-59701800D01*
X153732838Y-59797038D01*
X153780457Y-59892276D01*
X153828076Y-60082752D01*
X153828076Y-60225609D01*
X153780457Y-60416085D01*
X153732838Y-60511323D01*
X153637600Y-60606561D01*
X153494742Y-60654180D01*
X153256647Y-60654180D01*
X154780457Y-60654180D02*
X154209028Y-60654180D01*
X154494742Y-60654180D02*
X154494742Y-59654180D01*
X154399504Y-59797038D01*
X154304266Y-59892276D01*
X154209028Y-59939895D01*
X148550094Y-56809779D02*
X149121522Y-56809779D01*
X148835808Y-57809779D02*
X148835808Y-56809779D01*
X149597713Y-57809779D02*
X149502475Y-57762160D01*
X149454856Y-57714541D01*
X149407237Y-57619303D01*
X149407237Y-57333589D01*
X149454856Y-57238351D01*
X149502475Y-57190732D01*
X149597713Y-57143113D01*
X149740570Y-57143113D01*
X149835808Y-57190732D01*
X149883427Y-57238351D01*
X149931046Y-57333589D01*
X149931046Y-57619303D01*
X149883427Y-57714541D01*
X149835808Y-57762160D01*
X149740570Y-57809779D01*
X149597713Y-57809779D01*
X150502475Y-57809779D02*
X150407237Y-57762160D01*
X150359618Y-57714541D01*
X150311999Y-57619303D01*
X150311999Y-57333589D01*
X150359618Y-57238351D01*
X150407237Y-57190732D01*
X150502475Y-57143113D01*
X150645332Y-57143113D01*
X150740570Y-57190732D01*
X150788189Y-57238351D01*
X150835808Y-57333589D01*
X150835808Y-57619303D01*
X150788189Y-57714541D01*
X150740570Y-57762160D01*
X150645332Y-57809779D01*
X150502475Y-57809779D01*
X151407237Y-57809779D02*
X151311999Y-57762160D01*
X151264379Y-57666922D01*
X151264379Y-56809779D01*
X151550094Y-57905018D02*
X152311999Y-57905018D01*
X152550094Y-57809779D02*
X152550094Y-56809779D01*
X153026284Y-57143113D02*
X153026284Y-57809779D01*
X153026284Y-57238351D02*
X153073903Y-57190732D01*
X153169141Y-57143113D01*
X153311999Y-57143113D01*
X153407237Y-57190732D01*
X153454856Y-57285970D01*
X153454856Y-57809779D01*
X153692951Y-57905018D02*
X154454856Y-57905018D01*
X154692951Y-56809779D02*
X154692951Y-57619303D01*
X154740570Y-57714541D01*
X154788189Y-57762160D01*
X154883427Y-57809779D01*
X155073903Y-57809779D01*
X155169141Y-57762160D01*
X155216760Y-57714541D01*
X155264379Y-57619303D01*
X155264379Y-56809779D01*
X155692951Y-57762160D02*
X155788189Y-57809779D01*
X155978665Y-57809779D01*
X156073903Y-57762160D01*
X156121522Y-57666922D01*
X156121522Y-57619303D01*
X156073903Y-57524065D01*
X155978665Y-57476446D01*
X155835808Y-57476446D01*
X155740570Y-57428827D01*
X155692951Y-57333589D01*
X155692951Y-57285970D01*
X155740570Y-57190732D01*
X155835808Y-57143113D01*
X155978665Y-57143113D01*
X156073903Y-57190732D01*
X156931046Y-57762160D02*
X156835808Y-57809779D01*
X156645332Y-57809779D01*
X156550094Y-57762160D01*
X156502475Y-57666922D01*
X156502475Y-57285970D01*
X156550094Y-57190732D01*
X156645332Y-57143113D01*
X156835808Y-57143113D01*
X156931046Y-57190732D01*
X156978665Y-57285970D01*
X156978665Y-57381208D01*
X156502475Y-57476446D01*
X151867600Y-59654180D02*
X151867600Y-59892276D01*
X151629504Y-59797038D02*
X151867600Y-59892276D01*
X152105695Y-59797038D01*
X151724742Y-60082752D02*
X151867600Y-59892276D01*
X152010457Y-60082752D01*
D16*
X133431783Y-47758302D02*
X133300549Y-47570826D01*
X133206811Y-47758302D02*
X133206811Y-47364601D01*
X133356792Y-47364601D01*
X133394287Y-47383349D01*
X133413035Y-47402097D01*
X133431783Y-47439592D01*
X133431783Y-47495835D01*
X133413035Y-47533330D01*
X133394287Y-47552078D01*
X133356792Y-47570826D01*
X133206811Y-47570826D01*
X133806736Y-47758302D02*
X133581764Y-47758302D01*
X133694250Y-47758302D02*
X133694250Y-47364601D01*
X133656755Y-47420844D01*
X133619259Y-47458340D01*
X133581764Y-47477087D01*
D10*
D16*
X119035783Y-86031702D02*
X118904549Y-85844226D01*
X118810811Y-86031702D02*
X118810811Y-85638001D01*
X118960792Y-85638001D01*
X118998287Y-85656749D01*
X119017035Y-85675497D01*
X119035783Y-85712992D01*
X119035783Y-85769235D01*
X119017035Y-85806730D01*
X118998287Y-85825478D01*
X118960792Y-85844226D01*
X118810811Y-85844226D01*
X119167016Y-85638001D02*
X119410736Y-85638001D01*
X119279502Y-85787983D01*
X119335745Y-85787983D01*
X119373241Y-85806730D01*
X119391988Y-85825478D01*
X119410736Y-85862973D01*
X119410736Y-85956712D01*
X119391988Y-85994207D01*
X119373241Y-86012955D01*
X119335745Y-86031702D01*
X119223259Y-86031702D01*
X119185764Y-86012955D01*
X119167016Y-85994207D01*
D10*
D16*
X134750502Y-84702016D02*
X134563026Y-84833250D01*
X134750502Y-84926988D02*
X134356801Y-84926988D01*
X134356801Y-84777007D01*
X134375549Y-84739512D01*
X134394297Y-84720764D01*
X134431792Y-84702016D01*
X134488035Y-84702016D01*
X134525530Y-84720764D01*
X134544278Y-84739512D01*
X134563026Y-84777007D01*
X134563026Y-84926988D01*
X134356801Y-84345811D02*
X134356801Y-84533287D01*
X134544278Y-84552035D01*
X134525530Y-84533287D01*
X134506783Y-84495792D01*
X134506783Y-84402054D01*
X134525530Y-84364558D01*
X134544278Y-84345811D01*
X134581773Y-84327063D01*
X134675512Y-84327063D01*
X134713007Y-84345811D01*
X134731755Y-84364558D01*
X134750502Y-84402054D01*
X134750502Y-84495792D01*
X134731755Y-84533287D01*
X134713007Y-84552035D01*
D10*
D16*
X145012102Y-85006816D02*
X144824626Y-85138050D01*
X145012102Y-85231788D02*
X144618401Y-85231788D01*
X144618401Y-85081807D01*
X144637149Y-85044312D01*
X144655897Y-85025564D01*
X144693392Y-85006816D01*
X144749635Y-85006816D01*
X144787130Y-85025564D01*
X144805878Y-85044312D01*
X144824626Y-85081807D01*
X144824626Y-85231788D01*
X144618401Y-84669358D02*
X144618401Y-84744349D01*
X144637149Y-84781844D01*
X144655897Y-84800592D01*
X144712140Y-84838087D01*
X144787130Y-84856835D01*
X144937112Y-84856835D01*
X144974607Y-84838087D01*
X144993355Y-84819340D01*
X145012102Y-84781844D01*
X145012102Y-84706854D01*
X144993355Y-84669358D01*
X144974607Y-84650611D01*
X144937112Y-84631863D01*
X144843373Y-84631863D01*
X144805878Y-84650611D01*
X144787130Y-84669358D01*
X144768383Y-84706854D01*
X144768383Y-84781844D01*
X144787130Y-84819340D01*
X144805878Y-84838087D01*
X144843373Y-84856835D01*
D10*
%LPC*%
D17*
X119344800Y-97590600D03*
G36*
G01*
X124995600Y-96990600D02*
X124995600Y-98190600D01*
G75*
G02*
X124944800Y-98241400I-50800J0D01*
G01*
X123744800Y-98241400D01*
G75*
G02*
X123694000Y-98190600I0J50800D01*
G01*
X123694000Y-96990600D01*
G75*
G02*
X123744800Y-96939800I50800J0D01*
G01*
X124944800Y-96939800D01*
G75*
G02*
X124995600Y-96990600I0J-50800D01*
G01*
G37*
G36*
G01*
X152129600Y-69464800D02*
X152129600Y-67956800D01*
G75*
G02*
X152180400Y-67906000I50800J0D01*
G01*
X153688400Y-67906000D01*
G75*
G02*
X153739200Y-67956800I0J-50800D01*
G01*
X153739200Y-69464800D01*
G75*
G02*
X153688400Y-69515600I-50800J0D01*
G01*
X152180400Y-69515600D01*
G75*
G02*
X152129600Y-69464800I0J50800D01*
G01*
G37*
D18*
X155474400Y-68710800D03*
G36*
G01*
X113242600Y-87147600D02*
X113242600Y-85427600D01*
G75*
G02*
X113293400Y-85376800I50800J0D01*
G01*
X114343400Y-85376800D01*
G75*
G02*
X114394200Y-85427600I0J-50800D01*
G01*
X114394200Y-87147600D01*
G75*
G02*
X114343400Y-87198400I-50800J0D01*
G01*
X113293400Y-87198400D01*
G75*
G02*
X113242600Y-87147600I0J50800D01*
G01*
G37*
G36*
G01*
X110322600Y-87147600D02*
X110322600Y-85427600D01*
G75*
G02*
X110373400Y-85376800I50800J0D01*
G01*
X111423400Y-85376800D01*
G75*
G02*
X111474200Y-85427600I0J-50800D01*
G01*
X111474200Y-87147600D01*
G75*
G02*
X111423400Y-87198400I-50800J0D01*
G01*
X110373400Y-87198400D01*
G75*
G02*
X110322600Y-87147600I0J50800D01*
G01*
G37*
G36*
G01*
X111676800Y-78904200D02*
X111676800Y-80412200D01*
G75*
G02*
X111626000Y-80463000I-50800J0D01*
G01*
X110118000Y-80463000D01*
G75*
G02*
X110067200Y-80412200I0J50800D01*
G01*
X110067200Y-78904200D01*
G75*
G02*
X110118000Y-78853400I50800J0D01*
G01*
X111626000Y-78853400D01*
G75*
G02*
X111676800Y-78904200I0J-50800D01*
G01*
G37*
X108332000Y-79658200D03*
D19*
X146076400Y-99876600D03*
X131090400Y-93679000D03*
D20*
X142571200Y-95685600D03*
X138583400Y-95685600D03*
X134595600Y-95685600D03*
G36*
G01*
X149208600Y-80818600D02*
X149208600Y-79310600D01*
G75*
G02*
X149259400Y-79259800I50800J0D01*
G01*
X150767400Y-79259800D01*
G75*
G02*
X150818200Y-79310600I0J-50800D01*
G01*
X150818200Y-80818600D01*
G75*
G02*
X150767400Y-80869400I-50800J0D01*
G01*
X149259400Y-80869400D01*
G75*
G02*
X149208600Y-80818600I0J50800D01*
G01*
G37*
D18*
X152553400Y-80064600D03*
G36*
G01*
X110389400Y-71582400D02*
X109322600Y-71582400D01*
G75*
G02*
X109271800Y-71531600I0J50800D01*
G01*
X109271800Y-68531600D01*
G75*
G02*
X109322600Y-68480800I50800J0D01*
G01*
X110389400Y-68480800D01*
G75*
G02*
X110440200Y-68531600I0J-50800D01*
G01*
X110440200Y-71531600D01*
G75*
G02*
X110389400Y-71582400I-50800J0D01*
G01*
G37*
G36*
G01*
X108687600Y-71582400D02*
X107620800Y-71582400D01*
G75*
G02*
X107570000Y-71531600I0J50800D01*
G01*
X107570000Y-68531600D01*
G75*
G02*
X107620800Y-68480800I50800J0D01*
G01*
X108687600Y-68480800D01*
G75*
G02*
X108738400Y-68531600I0J-50800D01*
G01*
X108738400Y-71531600D01*
G75*
G02*
X108687600Y-71582400I-50800J0D01*
G01*
G37*
G36*
G01*
X106985800Y-71582400D02*
X105919000Y-71582400D01*
G75*
G02*
X105868200Y-71531600I0J50800D01*
G01*
X105868200Y-68531600D01*
G75*
G02*
X105919000Y-68480800I50800J0D01*
G01*
X106985800Y-68480800D01*
G75*
G02*
X107036600Y-68531600I0J-50800D01*
G01*
X107036600Y-71531600D01*
G75*
G02*
X106985800Y-71582400I-50800J0D01*
G01*
G37*
G36*
G01*
X105284000Y-71582400D02*
X104217200Y-71582400D01*
G75*
G02*
X104166400Y-71531600I0J50800D01*
G01*
X104166400Y-68531600D01*
G75*
G02*
X104217200Y-68480800I50800J0D01*
G01*
X105284000Y-68480800D01*
G75*
G02*
X105334800Y-68531600I0J-50800D01*
G01*
X105334800Y-71531600D01*
G75*
G02*
X105284000Y-71582400I-50800J0D01*
G01*
G37*
G36*
G01*
X103582200Y-71582400D02*
X102515400Y-71582400D01*
G75*
G02*
X102464600Y-71531600I0J50800D01*
G01*
X102464600Y-68531600D01*
G75*
G02*
X102515400Y-68480800I50800J0D01*
G01*
X103582200Y-68480800D01*
G75*
G02*
X103633000Y-68531600I0J-50800D01*
G01*
X103633000Y-71531600D01*
G75*
G02*
X103582200Y-71582400I-50800J0D01*
G01*
G37*
G36*
G01*
X111852400Y-65956200D02*
X101052400Y-65956200D01*
G75*
G02*
X101001600Y-65905400I0J50800D01*
G01*
X101001600Y-55495400D01*
G75*
G02*
X101052400Y-55444600I50800J0D01*
G01*
X111852400Y-55444600D01*
G75*
G02*
X111903200Y-55495400I0J-50800D01*
G01*
X111903200Y-65905400D01*
G75*
G02*
X111852400Y-65956200I-50800J0D01*
G01*
G37*
G36*
G01*
X147929200Y-88127600D02*
X149659200Y-88127600D01*
G75*
G02*
X149710000Y-88178400I0J-50800D01*
G01*
X149710000Y-89148400D01*
G75*
G02*
X149659200Y-89199200I-50800J0D01*
G01*
X147929200Y-89199200D01*
G75*
G02*
X147878400Y-89148400I0J50800D01*
G01*
X147878400Y-88178400D01*
G75*
G02*
X147929200Y-88127600I50800J0D01*
G01*
G37*
G36*
G01*
X147929200Y-85167600D02*
X149659200Y-85167600D01*
G75*
G02*
X149710000Y-85218400I0J-50800D01*
G01*
X149710000Y-86188400D01*
G75*
G02*
X149659200Y-86239200I-50800J0D01*
G01*
X147929200Y-86239200D01*
G75*
G02*
X147878400Y-86188400I0J50800D01*
G01*
X147878400Y-85218400D01*
G75*
G02*
X147929200Y-85167600I50800J0D01*
G01*
G37*
G36*
G01*
X148179200Y-72135800D02*
X148179200Y-70365800D01*
G75*
G02*
X148230000Y-70315000I50800J0D01*
G01*
X149460000Y-70315000D01*
G75*
G02*
X149510800Y-70365800I0J-50800D01*
G01*
X149510800Y-72135800D01*
G75*
G02*
X149460000Y-72186600I-50800J0D01*
G01*
X148230000Y-72186600D01*
G75*
G02*
X148179200Y-72135800I0J50800D01*
G01*
G37*
G36*
G01*
X145247200Y-72135800D02*
X145247200Y-70365800D01*
G75*
G02*
X145298000Y-70315000I50800J0D01*
G01*
X146528000Y-70315000D01*
G75*
G02*
X146578800Y-70365800I0J-50800D01*
G01*
X146578800Y-72135800D01*
G75*
G02*
X146528000Y-72186600I-50800J0D01*
G01*
X145298000Y-72186600D01*
G75*
G02*
X145247200Y-72135800I0J50800D01*
G01*
G37*
G36*
G01*
X147424000Y-57701400D02*
X145694000Y-57701400D01*
G75*
G02*
X145643200Y-57650600I0J50800D01*
G01*
X145643200Y-56680600D01*
G75*
G02*
X145694000Y-56629800I50800J0D01*
G01*
X147424000Y-56629800D01*
G75*
G02*
X147474800Y-56680600I0J-50800D01*
G01*
X147474800Y-57650600D01*
G75*
G02*
X147424000Y-57701400I-50800J0D01*
G01*
G37*
G36*
G01*
X147424000Y-60661400D02*
X145694000Y-60661400D01*
G75*
G02*
X145643200Y-60610600I0J50800D01*
G01*
X145643200Y-59640600D01*
G75*
G02*
X145694000Y-59589800I50800J0D01*
G01*
X147424000Y-59589800D01*
G75*
G02*
X147474800Y-59640600I0J-50800D01*
G01*
X147474800Y-60610600D01*
G75*
G02*
X147424000Y-60661400I-50800J0D01*
G01*
G37*
G36*
G01*
X143960200Y-78066000D02*
X143960200Y-79574000D01*
G75*
G02*
X143909400Y-79624800I-50800J0D01*
G01*
X142401400Y-79624800D01*
G75*
G02*
X142350600Y-79574000I0J50800D01*
G01*
X142350600Y-78066000D01*
G75*
G02*
X142401400Y-78015200I50800J0D01*
G01*
X143909400Y-78015200D01*
G75*
G02*
X143960200Y-78066000I0J-50800D01*
G01*
G37*
X140615400Y-78820000D03*
X133605000Y-79048600D03*
X131065000Y-79048600D03*
G36*
G01*
X140476600Y-58537200D02*
X140476600Y-56837200D01*
G75*
G02*
X140527400Y-56786400I50800J0D01*
G01*
X142227400Y-56786400D01*
G75*
G02*
X142278200Y-56837200I0J-50800D01*
G01*
X142278200Y-58537200D01*
G75*
G02*
X142227400Y-58588000I-50800J0D01*
G01*
X140527400Y-58588000D01*
G75*
G02*
X140476600Y-58537200I0J50800D01*
G01*
G37*
D21*
X141377400Y-60227200D03*
X141377400Y-62767200D03*
G36*
G01*
X159856800Y-57521200D02*
X159856800Y-55821200D01*
G75*
G02*
X159907600Y-55770400I50800J0D01*
G01*
X161607600Y-55770400D01*
G75*
G02*
X161658400Y-55821200I0J-50800D01*
G01*
X161658400Y-57521200D01*
G75*
G02*
X161607600Y-57572000I-50800J0D01*
G01*
X159907600Y-57572000D01*
G75*
G02*
X159856800Y-57521200I0J50800D01*
G01*
G37*
X160757600Y-59211200D03*
X160757600Y-61751200D03*
X160757600Y-64291200D03*
X160757600Y-66831200D03*
X160757600Y-69371200D03*
X160757600Y-71911200D03*
X160757600Y-74451200D03*
D22*
X161496000Y-92105400D03*
D23*
X156846000Y-95355400D03*
X156846000Y-89425400D03*
G36*
G01*
X104199600Y-78297800D02*
X104199600Y-79697800D01*
G75*
G02*
X104148800Y-79748600I-50800J0D01*
G01*
X101948800Y-79748600D01*
G75*
G02*
X101898000Y-79697800I0J50800D01*
G01*
X101898000Y-78297800D01*
G75*
G02*
X101948800Y-78247000I50800J0D01*
G01*
X104148800Y-78247000D01*
G75*
G02*
X104199600Y-78297800I0J-50800D01*
G01*
G37*
G36*
G01*
X118118800Y-71947800D02*
X118118800Y-73347800D01*
G75*
G02*
X118068000Y-73398600I-50800J0D01*
G01*
X115868000Y-73398600D01*
G75*
G02*
X115817200Y-73347800I0J50800D01*
G01*
X115817200Y-71947800D01*
G75*
G02*
X115868000Y-71897000I50800J0D01*
G01*
X118068000Y-71897000D01*
G75*
G02*
X118118800Y-71947800I0J-50800D01*
G01*
G37*
G36*
G01*
X147455800Y-62397400D02*
X147455800Y-63797400D01*
G75*
G02*
X147405000Y-63848200I-50800J0D01*
G01*
X145205000Y-63848200D01*
G75*
G02*
X145154200Y-63797400I0J50800D01*
G01*
X145154200Y-62397400D01*
G75*
G02*
X145205000Y-62346600I50800J0D01*
G01*
X147405000Y-62346600D01*
G75*
G02*
X147455800Y-62397400I0J-50800D01*
G01*
G37*
G36*
G01*
X125723200Y-88714800D02*
X125723200Y-87314800D01*
G75*
G02*
X125774000Y-87264000I50800J0D01*
G01*
X127974000Y-87264000D01*
G75*
G02*
X128024800Y-87314800I0J-50800D01*
G01*
X128024800Y-88714800D01*
G75*
G02*
X127974000Y-88765600I-50800J0D01*
G01*
X125774000Y-88765600D01*
G75*
G02*
X125723200Y-88714800I0J50800D01*
G01*
G37*
G36*
G01*
X118855400Y-45404800D02*
X118855400Y-46804800D01*
G75*
G02*
X118804600Y-46855600I-50800J0D01*
G01*
X116604600Y-46855600D01*
G75*
G02*
X116553800Y-46804800I0J50800D01*
G01*
X116553800Y-45404800D01*
G75*
G02*
X116604600Y-45354000I50800J0D01*
G01*
X118804600Y-45354000D01*
G75*
G02*
X118855400Y-45404800I0J-50800D01*
G01*
G37*
G36*
G01*
X130209200Y-72481200D02*
X130209200Y-73881200D01*
G75*
G02*
X130158400Y-73932000I-50800J0D01*
G01*
X127958400Y-73932000D01*
G75*
G02*
X127907600Y-73881200I0J50800D01*
G01*
X127907600Y-72481200D01*
G75*
G02*
X127958400Y-72430400I50800J0D01*
G01*
X130158400Y-72430400D01*
G75*
G02*
X130209200Y-72481200I0J-50800D01*
G01*
G37*
G36*
G01*
X141410600Y-71668400D02*
X141410600Y-73068400D01*
G75*
G02*
X141359800Y-73119200I-50800J0D01*
G01*
X139159800Y-73119200D01*
G75*
G02*
X139109000Y-73068400I0J50800D01*
G01*
X139109000Y-71668400D01*
G75*
G02*
X139159800Y-71617600I50800J0D01*
G01*
X141359800Y-71617600D01*
G75*
G02*
X141410600Y-71668400I0J-50800D01*
G01*
G37*
G36*
G01*
X160359000Y-79923400D02*
X160359000Y-81323400D01*
G75*
G02*
X160308200Y-81374200I-50800J0D01*
G01*
X158108200Y-81374200D01*
G75*
G02*
X158057400Y-81323400I0J50800D01*
G01*
X158057400Y-79923400D01*
G75*
G02*
X158108200Y-79872600I50800J0D01*
G01*
X160308200Y-79872600D01*
G75*
G02*
X160359000Y-79923400I0J-50800D01*
G01*
G37*
G36*
G01*
X117865000Y-80513800D02*
X117865000Y-79005800D01*
G75*
G02*
X117915800Y-78955000I50800J0D01*
G01*
X119423800Y-78955000D01*
G75*
G02*
X119474600Y-79005800I0J-50800D01*
G01*
X119474600Y-80513800D01*
G75*
G02*
X119423800Y-80564600I-50800J0D01*
G01*
X117915800Y-80564600D01*
G75*
G02*
X117865000Y-80513800I0J50800D01*
G01*
G37*
D18*
X121209800Y-79759800D03*
D21*
X156515800Y-50473600D03*
X156515800Y-53013600D03*
X153975800Y-50473600D03*
X153975800Y-53013600D03*
X151435800Y-50473600D03*
X151435800Y-53013600D03*
X148895800Y-50473600D03*
X148895800Y-53013600D03*
X146355800Y-50473600D03*
X146355800Y-53013600D03*
X143815800Y-50473600D03*
X143815800Y-53013600D03*
X141275800Y-50473600D03*
X141275800Y-53013600D03*
X138735800Y-50473600D03*
X138735800Y-53013600D03*
X136195800Y-50473600D03*
X136195800Y-53013600D03*
X133655800Y-50473600D03*
X133655800Y-53013600D03*
X131115800Y-50473600D03*
X131115800Y-53013600D03*
X128575800Y-50473600D03*
X128575800Y-53013600D03*
X126035800Y-50473600D03*
X126035800Y-53013600D03*
X123495800Y-50473600D03*
X123495800Y-53013600D03*
X120955800Y-50473600D03*
X120955800Y-53013600D03*
X118415800Y-50473600D03*
X118415800Y-53013600D03*
X115875800Y-50473600D03*
X115875800Y-53013600D03*
X113335800Y-50473600D03*
X113335800Y-53013600D03*
X110795800Y-50473600D03*
X110795800Y-53013600D03*
X108255800Y-50473600D03*
G36*
G01*
X107405800Y-52112800D02*
X109105800Y-52112800D01*
G75*
G02*
X109156600Y-52163600I0J-50800D01*
G01*
X109156600Y-53863600D01*
G75*
G02*
X109105800Y-53914400I-50800J0D01*
G01*
X107405800Y-53914400D01*
G75*
G02*
X107355000Y-53863600I0J50800D01*
G01*
X107355000Y-52163600D01*
G75*
G02*
X107405800Y-52112800I50800J0D01*
G01*
G37*
D24*
X106503200Y-96803200D03*
X111503200Y-96803200D03*
G36*
G01*
X118481800Y-65210600D02*
X118481800Y-67391000D01*
G75*
G02*
X118431000Y-67441800I-50800J0D01*
G01*
X115251000Y-67441800D01*
G75*
G02*
X115200200Y-67391000I0J50800D01*
G01*
X115200200Y-65210600D01*
G75*
G02*
X115251000Y-65159800I50800J0D01*
G01*
X118431000Y-65159800D01*
G75*
G02*
X118481800Y-65210600I0J-50800D01*
G01*
G37*
G36*
G01*
X118481800Y-58956200D02*
X118481800Y-61136600D01*
G75*
G02*
X118431000Y-61187400I-50800J0D01*
G01*
X115251000Y-61187400D01*
G75*
G02*
X115200200Y-61136600I0J50800D01*
G01*
X115200200Y-58956200D01*
G75*
G02*
X115251000Y-58905400I50800J0D01*
G01*
X118431000Y-58905400D01*
G75*
G02*
X118481800Y-58956200I0J-50800D01*
G01*
G37*
G36*
G01*
X133452600Y-62691000D02*
X136373600Y-62691000D01*
G75*
G02*
X136424400Y-62741800I0J-50800D01*
G01*
X136424400Y-65993000D01*
G75*
G02*
X136373600Y-66043800I-50800J0D01*
G01*
X133452600Y-66043800D01*
G75*
G02*
X133401800Y-65993000I0J50800D01*
G01*
X133401800Y-62741800D01*
G75*
G02*
X133452600Y-62691000I50800J0D01*
G01*
G37*
G36*
G01*
X124892800Y-62691000D02*
X127813800Y-62691000D01*
G75*
G02*
X127864600Y-62741800I0J-50800D01*
G01*
X127864600Y-65993000D01*
G75*
G02*
X127813800Y-66043800I-50800J0D01*
G01*
X124892800Y-66043800D01*
G75*
G02*
X124842000Y-65993000I0J50800D01*
G01*
X124842000Y-62741800D01*
G75*
G02*
X124892800Y-62691000I50800J0D01*
G01*
G37*
D25*
X151867600Y-60201800D03*
X154407600Y-60201800D03*
G36*
G01*
X131868200Y-45270200D02*
X131868200Y-46990200D01*
G75*
G02*
X131817400Y-47041000I-50800J0D01*
G01*
X130477400Y-47041000D01*
G75*
G02*
X130426600Y-46990200I0J50800D01*
G01*
X130426600Y-45270200D01*
G75*
G02*
X130477400Y-45219400I50800J0D01*
G01*
X131817400Y-45219400D01*
G75*
G02*
X131868200Y-45270200I0J-50800D01*
G01*
G37*
G36*
G01*
X134548200Y-45270200D02*
X134548200Y-46990200D01*
G75*
G02*
X134497400Y-47041000I-50800J0D01*
G01*
X133157400Y-47041000D01*
G75*
G02*
X133106600Y-46990200I0J50800D01*
G01*
X133106600Y-45270200D01*
G75*
G02*
X133157400Y-45219400I50800J0D01*
G01*
X134497400Y-45219400D01*
G75*
G02*
X134548200Y-45270200I0J-50800D01*
G01*
G37*
G36*
G01*
X118050600Y-88163600D02*
X118050600Y-86443600D01*
G75*
G02*
X118101400Y-86392800I50800J0D01*
G01*
X119441400Y-86392800D01*
G75*
G02*
X119492200Y-86443600I0J-50800D01*
G01*
X119492200Y-88163600D01*
G75*
G02*
X119441400Y-88214400I-50800J0D01*
G01*
X118101400Y-88214400D01*
G75*
G02*
X118050600Y-88163600I0J50800D01*
G01*
G37*
G36*
G01*
X120730600Y-88163600D02*
X120730600Y-86443600D01*
G75*
G02*
X120781400Y-86392800I50800J0D01*
G01*
X122121400Y-86392800D01*
G75*
G02*
X122172200Y-86443600I0J-50800D01*
G01*
X122172200Y-88163600D01*
G75*
G02*
X122121400Y-88214400I-50800J0D01*
G01*
X120781400Y-88214400D01*
G75*
G02*
X120730600Y-88163600I0J50800D01*
G01*
G37*
G36*
G01*
X132262400Y-83585600D02*
X133982400Y-83585600D01*
G75*
G02*
X134033200Y-83636400I0J-50800D01*
G01*
X134033200Y-84976400D01*
G75*
G02*
X133982400Y-85027200I-50800J0D01*
G01*
X132262400Y-85027200D01*
G75*
G02*
X132211600Y-84976400I0J50800D01*
G01*
X132211600Y-83636400D01*
G75*
G02*
X132262400Y-83585600I50800J0D01*
G01*
G37*
G36*
G01*
X132262400Y-86265600D02*
X133982400Y-86265600D01*
G75*
G02*
X134033200Y-86316400I0J-50800D01*
G01*
X134033200Y-87656400D01*
G75*
G02*
X133982400Y-87707200I-50800J0D01*
G01*
X132262400Y-87707200D01*
G75*
G02*
X132211600Y-87656400I0J50800D01*
G01*
X132211600Y-86316400D01*
G75*
G02*
X132262400Y-86265600I50800J0D01*
G01*
G37*
G36*
G01*
X142524000Y-86570400D02*
X144244000Y-86570400D01*
G75*
G02*
X144294800Y-86621200I0J-50800D01*
G01*
X144294800Y-87961200D01*
G75*
G02*
X144244000Y-88012000I-50800J0D01*
G01*
X142524000Y-88012000D01*
G75*
G02*
X142473200Y-87961200I0J50800D01*
G01*
X142473200Y-86621200D01*
G75*
G02*
X142524000Y-86570400I50800J0D01*
G01*
G37*
G36*
G01*
X142524000Y-83890400D02*
X144244000Y-83890400D01*
G75*
G02*
X144294800Y-83941200I0J-50800D01*
G01*
X144294800Y-85281200D01*
G75*
G02*
X144244000Y-85332000I-50800J0D01*
G01*
X142524000Y-85332000D01*
G75*
G02*
X142473200Y-85281200I0J50800D01*
G01*
X142473200Y-83941200D01*
G75*
G02*
X142524000Y-83890400I50800J0D01*
G01*
G37*
M02*
