G04 #@! TF.GenerationSoftware,KiCad,Pcbnew,(5.1.10)-1*
G04 #@! TF.CreationDate,2021-11-10T20:49:48-05:00*
G04 #@! TF.ProjectId,tool_circuit,746f6f6c-5f63-4697-9263-7569742e6b69,1.0*
G04 #@! TF.SameCoordinates,Original*
G04 #@! TF.FileFunction,Soldermask,Top*
G04 #@! TF.FilePolarity,Negative*
%FSLAX46Y46*%
G04 Gerber Fmt 4.6, Leading zero omitted, Abs format (unit mm)*
G04 Created by KiCad (PCBNEW (5.1.10)-1) date 2021-11-10 20:49:48*
%MOMM*%
%LPD*%
G01*
G04 APERTURE LIST*
%ADD10C,1.371600*%
%ADD11C,1.473200*%
%ADD12C,1.301600*%
%ADD13C,1.609600*%
%ADD14C,2.006600*%
%ADD15C,1.498600*%
%ADD16O,1.801600X1.801600*%
%ADD17O,2.001600X3.901600*%
%ADD18O,3.901600X2.001600*%
G04 APERTURE END LIST*
D10*
X152655000Y-58017400D03*
X155195000Y-58017400D03*
D11*
X110665000Y-96600000D03*
X105665000Y-96600000D03*
D12*
X119344800Y-97590600D03*
G36*
G01*
X124995600Y-96990600D02*
X124995600Y-98190600D01*
G75*
G02*
X124944800Y-98241400I-50800J0D01*
G01*
X123744800Y-98241400D01*
G75*
G02*
X123694000Y-98190600I0J50800D01*
G01*
X123694000Y-96990600D01*
G75*
G02*
X123744800Y-96939800I50800J0D01*
G01*
X124944800Y-96939800D01*
G75*
G02*
X124995600Y-96990600I0J-50800D01*
G01*
G37*
G36*
G01*
X152129600Y-69464800D02*
X152129600Y-67956800D01*
G75*
G02*
X152180400Y-67906000I50800J0D01*
G01*
X153688400Y-67906000D01*
G75*
G02*
X153739200Y-67956800I0J-50800D01*
G01*
X153739200Y-69464800D01*
G75*
G02*
X153688400Y-69515600I-50800J0D01*
G01*
X152180400Y-69515600D01*
G75*
G02*
X152129600Y-69464800I0J50800D01*
G01*
G37*
D13*
X155474400Y-68710800D03*
G36*
G01*
X113242600Y-87147600D02*
X113242600Y-85427600D01*
G75*
G02*
X113293400Y-85376800I50800J0D01*
G01*
X114343400Y-85376800D01*
G75*
G02*
X114394200Y-85427600I0J-50800D01*
G01*
X114394200Y-87147600D01*
G75*
G02*
X114343400Y-87198400I-50800J0D01*
G01*
X113293400Y-87198400D01*
G75*
G02*
X113242600Y-87147600I0J50800D01*
G01*
G37*
G36*
G01*
X110322600Y-87147600D02*
X110322600Y-85427600D01*
G75*
G02*
X110373400Y-85376800I50800J0D01*
G01*
X111423400Y-85376800D01*
G75*
G02*
X111474200Y-85427600I0J-50800D01*
G01*
X111474200Y-87147600D01*
G75*
G02*
X111423400Y-87198400I-50800J0D01*
G01*
X110373400Y-87198400D01*
G75*
G02*
X110322600Y-87147600I0J50800D01*
G01*
G37*
G36*
G01*
X111676800Y-78904200D02*
X111676800Y-80412200D01*
G75*
G02*
X111626000Y-80463000I-50800J0D01*
G01*
X110118000Y-80463000D01*
G75*
G02*
X110067200Y-80412200I0J50800D01*
G01*
X110067200Y-78904200D01*
G75*
G02*
X110118000Y-78853400I50800J0D01*
G01*
X111626000Y-78853400D01*
G75*
G02*
X111676800Y-78904200I0J-50800D01*
G01*
G37*
X108332000Y-79658200D03*
D14*
X146076400Y-99876600D03*
X131090400Y-93679000D03*
D15*
X142571200Y-95685600D03*
X138583400Y-95685600D03*
X134595600Y-95685600D03*
G36*
G01*
X124384800Y-62665600D02*
X127305800Y-62665600D01*
G75*
G02*
X127356600Y-62716400I0J-50800D01*
G01*
X127356600Y-65967600D01*
G75*
G02*
X127305800Y-66018400I-50800J0D01*
G01*
X124384800Y-66018400D01*
G75*
G02*
X124334000Y-65967600I0J50800D01*
G01*
X124334000Y-62716400D01*
G75*
G02*
X124384800Y-62665600I50800J0D01*
G01*
G37*
G36*
G01*
X132944600Y-62665600D02*
X135865600Y-62665600D01*
G75*
G02*
X135916400Y-62716400I0J-50800D01*
G01*
X135916400Y-65967600D01*
G75*
G02*
X135865600Y-66018400I-50800J0D01*
G01*
X132944600Y-66018400D01*
G75*
G02*
X132893800Y-65967600I0J50800D01*
G01*
X132893800Y-62716400D01*
G75*
G02*
X132944600Y-62665600I50800J0D01*
G01*
G37*
G36*
G01*
X149208600Y-80818600D02*
X149208600Y-79310600D01*
G75*
G02*
X149259400Y-79259800I50800J0D01*
G01*
X150767400Y-79259800D01*
G75*
G02*
X150818200Y-79310600I0J-50800D01*
G01*
X150818200Y-80818600D01*
G75*
G02*
X150767400Y-80869400I-50800J0D01*
G01*
X149259400Y-80869400D01*
G75*
G02*
X149208600Y-80818600I0J50800D01*
G01*
G37*
D13*
X152553400Y-80064600D03*
G36*
G01*
X110389400Y-71582400D02*
X109322600Y-71582400D01*
G75*
G02*
X109271800Y-71531600I0J50800D01*
G01*
X109271800Y-68531600D01*
G75*
G02*
X109322600Y-68480800I50800J0D01*
G01*
X110389400Y-68480800D01*
G75*
G02*
X110440200Y-68531600I0J-50800D01*
G01*
X110440200Y-71531600D01*
G75*
G02*
X110389400Y-71582400I-50800J0D01*
G01*
G37*
G36*
G01*
X108687600Y-71582400D02*
X107620800Y-71582400D01*
G75*
G02*
X107570000Y-71531600I0J50800D01*
G01*
X107570000Y-68531600D01*
G75*
G02*
X107620800Y-68480800I50800J0D01*
G01*
X108687600Y-68480800D01*
G75*
G02*
X108738400Y-68531600I0J-50800D01*
G01*
X108738400Y-71531600D01*
G75*
G02*
X108687600Y-71582400I-50800J0D01*
G01*
G37*
G36*
G01*
X106985800Y-71582400D02*
X105919000Y-71582400D01*
G75*
G02*
X105868200Y-71531600I0J50800D01*
G01*
X105868200Y-68531600D01*
G75*
G02*
X105919000Y-68480800I50800J0D01*
G01*
X106985800Y-68480800D01*
G75*
G02*
X107036600Y-68531600I0J-50800D01*
G01*
X107036600Y-71531600D01*
G75*
G02*
X106985800Y-71582400I-50800J0D01*
G01*
G37*
G36*
G01*
X105284000Y-71582400D02*
X104217200Y-71582400D01*
G75*
G02*
X104166400Y-71531600I0J50800D01*
G01*
X104166400Y-68531600D01*
G75*
G02*
X104217200Y-68480800I50800J0D01*
G01*
X105284000Y-68480800D01*
G75*
G02*
X105334800Y-68531600I0J-50800D01*
G01*
X105334800Y-71531600D01*
G75*
G02*
X105284000Y-71582400I-50800J0D01*
G01*
G37*
G36*
G01*
X103582200Y-71582400D02*
X102515400Y-71582400D01*
G75*
G02*
X102464600Y-71531600I0J50800D01*
G01*
X102464600Y-68531600D01*
G75*
G02*
X102515400Y-68480800I50800J0D01*
G01*
X103582200Y-68480800D01*
G75*
G02*
X103633000Y-68531600I0J-50800D01*
G01*
X103633000Y-71531600D01*
G75*
G02*
X103582200Y-71582400I-50800J0D01*
G01*
G37*
G36*
G01*
X111852400Y-65956200D02*
X101052400Y-65956200D01*
G75*
G02*
X101001600Y-65905400I0J50800D01*
G01*
X101001600Y-55495400D01*
G75*
G02*
X101052400Y-55444600I50800J0D01*
G01*
X111852400Y-55444600D01*
G75*
G02*
X111903200Y-55495400I0J-50800D01*
G01*
X111903200Y-65905400D01*
G75*
G02*
X111852400Y-65956200I-50800J0D01*
G01*
G37*
G36*
G01*
X147929200Y-88127600D02*
X149659200Y-88127600D01*
G75*
G02*
X149710000Y-88178400I0J-50800D01*
G01*
X149710000Y-89148400D01*
G75*
G02*
X149659200Y-89199200I-50800J0D01*
G01*
X147929200Y-89199200D01*
G75*
G02*
X147878400Y-89148400I0J50800D01*
G01*
X147878400Y-88178400D01*
G75*
G02*
X147929200Y-88127600I50800J0D01*
G01*
G37*
G36*
G01*
X147929200Y-85167600D02*
X149659200Y-85167600D01*
G75*
G02*
X149710000Y-85218400I0J-50800D01*
G01*
X149710000Y-86188400D01*
G75*
G02*
X149659200Y-86239200I-50800J0D01*
G01*
X147929200Y-86239200D01*
G75*
G02*
X147878400Y-86188400I0J50800D01*
G01*
X147878400Y-85218400D01*
G75*
G02*
X147929200Y-85167600I50800J0D01*
G01*
G37*
G36*
G01*
X148179200Y-72135800D02*
X148179200Y-70365800D01*
G75*
G02*
X148230000Y-70315000I50800J0D01*
G01*
X149460000Y-70315000D01*
G75*
G02*
X149510800Y-70365800I0J-50800D01*
G01*
X149510800Y-72135800D01*
G75*
G02*
X149460000Y-72186600I-50800J0D01*
G01*
X148230000Y-72186600D01*
G75*
G02*
X148179200Y-72135800I0J50800D01*
G01*
G37*
G36*
G01*
X145247200Y-72135800D02*
X145247200Y-70365800D01*
G75*
G02*
X145298000Y-70315000I50800J0D01*
G01*
X146528000Y-70315000D01*
G75*
G02*
X146578800Y-70365800I0J-50800D01*
G01*
X146578800Y-72135800D01*
G75*
G02*
X146528000Y-72186600I-50800J0D01*
G01*
X145298000Y-72186600D01*
G75*
G02*
X145247200Y-72135800I0J50800D01*
G01*
G37*
G36*
G01*
X141098000Y-85462100D02*
X141098000Y-87163900D01*
G75*
G02*
X141047200Y-87214700I-50800J0D01*
G01*
X139929600Y-87214700D01*
G75*
G02*
X139878800Y-87163900I0J50800D01*
G01*
X139878800Y-85462100D01*
G75*
G02*
X139929600Y-85411300I50800J0D01*
G01*
X141047200Y-85411300D01*
G75*
G02*
X141098000Y-85462100I0J-50800D01*
G01*
G37*
G36*
G01*
X143688800Y-85462100D02*
X143688800Y-87163900D01*
G75*
G02*
X143638000Y-87214700I-50800J0D01*
G01*
X142520400Y-87214700D01*
G75*
G02*
X142469600Y-87163900I0J50800D01*
G01*
X142469600Y-85462100D01*
G75*
G02*
X142520400Y-85411300I50800J0D01*
G01*
X143638000Y-85411300D01*
G75*
G02*
X143688800Y-85462100I0J-50800D01*
G01*
G37*
G36*
G01*
X132754100Y-88116400D02*
X134455900Y-88116400D01*
G75*
G02*
X134506700Y-88167200I0J-50800D01*
G01*
X134506700Y-89284800D01*
G75*
G02*
X134455900Y-89335600I-50800J0D01*
G01*
X132754100Y-89335600D01*
G75*
G02*
X132703300Y-89284800I0J50800D01*
G01*
X132703300Y-88167200D01*
G75*
G02*
X132754100Y-88116400I50800J0D01*
G01*
G37*
G36*
G01*
X132754100Y-85525600D02*
X134455900Y-85525600D01*
G75*
G02*
X134506700Y-85576400I0J-50800D01*
G01*
X134506700Y-86694000D01*
G75*
G02*
X134455900Y-86744800I-50800J0D01*
G01*
X132754100Y-86744800D01*
G75*
G02*
X132703300Y-86694000I0J50800D01*
G01*
X132703300Y-85576400D01*
G75*
G02*
X132754100Y-85525600I50800J0D01*
G01*
G37*
G36*
G01*
X119800100Y-88802200D02*
X121501900Y-88802200D01*
G75*
G02*
X121552700Y-88853000I0J-50800D01*
G01*
X121552700Y-89970600D01*
G75*
G02*
X121501900Y-90021400I-50800J0D01*
G01*
X119800100Y-90021400D01*
G75*
G02*
X119749300Y-89970600I0J50800D01*
G01*
X119749300Y-88853000D01*
G75*
G02*
X119800100Y-88802200I50800J0D01*
G01*
G37*
G36*
G01*
X119800100Y-86211400D02*
X121501900Y-86211400D01*
G75*
G02*
X121552700Y-86262200I0J-50800D01*
G01*
X121552700Y-87379800D01*
G75*
G02*
X121501900Y-87430600I-50800J0D01*
G01*
X119800100Y-87430600D01*
G75*
G02*
X119749300Y-87379800I0J50800D01*
G01*
X119749300Y-86262200D01*
G75*
G02*
X119800100Y-86211400I50800J0D01*
G01*
G37*
G36*
G01*
X147424000Y-57701400D02*
X145694000Y-57701400D01*
G75*
G02*
X145643200Y-57650600I0J50800D01*
G01*
X145643200Y-56680600D01*
G75*
G02*
X145694000Y-56629800I50800J0D01*
G01*
X147424000Y-56629800D01*
G75*
G02*
X147474800Y-56680600I0J-50800D01*
G01*
X147474800Y-57650600D01*
G75*
G02*
X147424000Y-57701400I-50800J0D01*
G01*
G37*
G36*
G01*
X147424000Y-60661400D02*
X145694000Y-60661400D01*
G75*
G02*
X145643200Y-60610600I0J50800D01*
G01*
X145643200Y-59640600D01*
G75*
G02*
X145694000Y-59589800I50800J0D01*
G01*
X147424000Y-59589800D01*
G75*
G02*
X147474800Y-59640600I0J-50800D01*
G01*
X147474800Y-60610600D01*
G75*
G02*
X147424000Y-60661400I-50800J0D01*
G01*
G37*
G36*
G01*
X149051800Y-94863200D02*
X150771800Y-94863200D01*
G75*
G02*
X150822600Y-94914000I0J-50800D01*
G01*
X150822600Y-96254000D01*
G75*
G02*
X150771800Y-96304800I-50800J0D01*
G01*
X149051800Y-96304800D01*
G75*
G02*
X149001000Y-96254000I0J50800D01*
G01*
X149001000Y-94914000D01*
G75*
G02*
X149051800Y-94863200I50800J0D01*
G01*
G37*
G36*
G01*
X149051800Y-92183200D02*
X150771800Y-92183200D01*
G75*
G02*
X150822600Y-92234000I0J-50800D01*
G01*
X150822600Y-93574000D01*
G75*
G02*
X150771800Y-93624800I-50800J0D01*
G01*
X149051800Y-93624800D01*
G75*
G02*
X149001000Y-93574000I0J50800D01*
G01*
X149001000Y-92234000D01*
G75*
G02*
X149051800Y-92183200I50800J0D01*
G01*
G37*
G36*
G01*
X143960200Y-78066000D02*
X143960200Y-79574000D01*
G75*
G02*
X143909400Y-79624800I-50800J0D01*
G01*
X142401400Y-79624800D01*
G75*
G02*
X142350600Y-79574000I0J50800D01*
G01*
X142350600Y-78066000D01*
G75*
G02*
X142401400Y-78015200I50800J0D01*
G01*
X143909400Y-78015200D01*
G75*
G02*
X143960200Y-78066000I0J-50800D01*
G01*
G37*
X140615400Y-78820000D03*
X133605000Y-79048600D03*
X131065000Y-79048600D03*
G36*
G01*
X120082000Y-57962600D02*
X120082000Y-60143000D01*
G75*
G02*
X120031200Y-60193800I-50800J0D01*
G01*
X116851200Y-60193800D01*
G75*
G02*
X116800400Y-60143000I0J50800D01*
G01*
X116800400Y-57962600D01*
G75*
G02*
X116851200Y-57911800I50800J0D01*
G01*
X120031200Y-57911800D01*
G75*
G02*
X120082000Y-57962600I0J-50800D01*
G01*
G37*
G36*
G01*
X120082000Y-64217000D02*
X120082000Y-66397400D01*
G75*
G02*
X120031200Y-66448200I-50800J0D01*
G01*
X116851200Y-66448200D01*
G75*
G02*
X116800400Y-66397400I0J50800D01*
G01*
X116800400Y-64217000D01*
G75*
G02*
X116851200Y-64166200I50800J0D01*
G01*
X120031200Y-64166200D01*
G75*
G02*
X120082000Y-64217000I0J-50800D01*
G01*
G37*
G36*
G01*
X140476600Y-58537200D02*
X140476600Y-56837200D01*
G75*
G02*
X140527400Y-56786400I50800J0D01*
G01*
X142227400Y-56786400D01*
G75*
G02*
X142278200Y-56837200I0J-50800D01*
G01*
X142278200Y-58537200D01*
G75*
G02*
X142227400Y-58588000I-50800J0D01*
G01*
X140527400Y-58588000D01*
G75*
G02*
X140476600Y-58537200I0J50800D01*
G01*
G37*
D16*
X141377400Y-60227200D03*
X141377400Y-62767200D03*
G36*
G01*
X159856800Y-57521200D02*
X159856800Y-55821200D01*
G75*
G02*
X159907600Y-55770400I50800J0D01*
G01*
X161607600Y-55770400D01*
G75*
G02*
X161658400Y-55821200I0J-50800D01*
G01*
X161658400Y-57521200D01*
G75*
G02*
X161607600Y-57572000I-50800J0D01*
G01*
X159907600Y-57572000D01*
G75*
G02*
X159856800Y-57521200I0J50800D01*
G01*
G37*
X160757600Y-59211200D03*
X160757600Y-61751200D03*
X160757600Y-64291200D03*
X160757600Y-66831200D03*
X160757600Y-69371200D03*
X160757600Y-71911200D03*
X160757600Y-74451200D03*
D17*
X161496000Y-92105400D03*
D18*
X156846000Y-95355400D03*
X156846000Y-89425400D03*
G36*
G01*
X104199600Y-78297800D02*
X104199600Y-79697800D01*
G75*
G02*
X104148800Y-79748600I-50800J0D01*
G01*
X101948800Y-79748600D01*
G75*
G02*
X101898000Y-79697800I0J50800D01*
G01*
X101898000Y-78297800D01*
G75*
G02*
X101948800Y-78247000I50800J0D01*
G01*
X104148800Y-78247000D01*
G75*
G02*
X104199600Y-78297800I0J-50800D01*
G01*
G37*
G36*
G01*
X118118800Y-71947800D02*
X118118800Y-73347800D01*
G75*
G02*
X118068000Y-73398600I-50800J0D01*
G01*
X115868000Y-73398600D01*
G75*
G02*
X115817200Y-73347800I0J50800D01*
G01*
X115817200Y-71947800D01*
G75*
G02*
X115868000Y-71897000I50800J0D01*
G01*
X118068000Y-71897000D01*
G75*
G02*
X118118800Y-71947800I0J-50800D01*
G01*
G37*
G36*
G01*
X147455800Y-62397400D02*
X147455800Y-63797400D01*
G75*
G02*
X147405000Y-63848200I-50800J0D01*
G01*
X145205000Y-63848200D01*
G75*
G02*
X145154200Y-63797400I0J50800D01*
G01*
X145154200Y-62397400D01*
G75*
G02*
X145205000Y-62346600I50800J0D01*
G01*
X147405000Y-62346600D01*
G75*
G02*
X147455800Y-62397400I0J-50800D01*
G01*
G37*
G36*
G01*
X125723200Y-88714800D02*
X125723200Y-87314800D01*
G75*
G02*
X125774000Y-87264000I50800J0D01*
G01*
X127974000Y-87264000D01*
G75*
G02*
X128024800Y-87314800I0J-50800D01*
G01*
X128024800Y-88714800D01*
G75*
G02*
X127974000Y-88765600I-50800J0D01*
G01*
X125774000Y-88765600D01*
G75*
G02*
X125723200Y-88714800I0J50800D01*
G01*
G37*
G36*
G01*
X118855400Y-45404800D02*
X118855400Y-46804800D01*
G75*
G02*
X118804600Y-46855600I-50800J0D01*
G01*
X116604600Y-46855600D01*
G75*
G02*
X116553800Y-46804800I0J50800D01*
G01*
X116553800Y-45404800D01*
G75*
G02*
X116604600Y-45354000I50800J0D01*
G01*
X118804600Y-45354000D01*
G75*
G02*
X118855400Y-45404800I0J-50800D01*
G01*
G37*
G36*
G01*
X127034200Y-73827400D02*
X127034200Y-75227400D01*
G75*
G02*
X126983400Y-75278200I-50800J0D01*
G01*
X124783400Y-75278200D01*
G75*
G02*
X124732600Y-75227400I0J50800D01*
G01*
X124732600Y-73827400D01*
G75*
G02*
X124783400Y-73776600I50800J0D01*
G01*
X126983400Y-73776600D01*
G75*
G02*
X127034200Y-73827400I0J-50800D01*
G01*
G37*
G36*
G01*
X141410600Y-71668400D02*
X141410600Y-73068400D01*
G75*
G02*
X141359800Y-73119200I-50800J0D01*
G01*
X139159800Y-73119200D01*
G75*
G02*
X139109000Y-73068400I0J50800D01*
G01*
X139109000Y-71668400D01*
G75*
G02*
X139159800Y-71617600I50800J0D01*
G01*
X141359800Y-71617600D01*
G75*
G02*
X141410600Y-71668400I0J-50800D01*
G01*
G37*
G36*
G01*
X160359000Y-79923400D02*
X160359000Y-81323400D01*
G75*
G02*
X160308200Y-81374200I-50800J0D01*
G01*
X158108200Y-81374200D01*
G75*
G02*
X158057400Y-81323400I0J50800D01*
G01*
X158057400Y-79923400D01*
G75*
G02*
X158108200Y-79872600I50800J0D01*
G01*
X160308200Y-79872600D01*
G75*
G02*
X160359000Y-79923400I0J-50800D01*
G01*
G37*
G36*
G01*
X117865000Y-80513800D02*
X117865000Y-79005800D01*
G75*
G02*
X117915800Y-78955000I50800J0D01*
G01*
X119423800Y-78955000D01*
G75*
G02*
X119474600Y-79005800I0J-50800D01*
G01*
X119474600Y-80513800D01*
G75*
G02*
X119423800Y-80564600I-50800J0D01*
G01*
X117915800Y-80564600D01*
G75*
G02*
X117865000Y-80513800I0J50800D01*
G01*
G37*
D13*
X121209800Y-79759800D03*
G36*
G01*
X107405800Y-52112800D02*
X109105800Y-52112800D01*
G75*
G02*
X109156600Y-52163600I0J-50800D01*
G01*
X109156600Y-53863600D01*
G75*
G02*
X109105800Y-53914400I-50800J0D01*
G01*
X107405800Y-53914400D01*
G75*
G02*
X107355000Y-53863600I0J50800D01*
G01*
X107355000Y-52163600D01*
G75*
G02*
X107405800Y-52112800I50800J0D01*
G01*
G37*
D16*
X108255800Y-50473600D03*
X110795800Y-53013600D03*
X110795800Y-50473600D03*
X113335800Y-53013600D03*
X113335800Y-50473600D03*
X115875800Y-53013600D03*
X115875800Y-50473600D03*
X118415800Y-53013600D03*
X118415800Y-50473600D03*
X120955800Y-53013600D03*
X120955800Y-50473600D03*
X123495800Y-53013600D03*
X123495800Y-50473600D03*
X126035800Y-53013600D03*
X126035800Y-50473600D03*
X128575800Y-53013600D03*
X128575800Y-50473600D03*
X131115800Y-53013600D03*
X131115800Y-50473600D03*
X133655800Y-53013600D03*
X133655800Y-50473600D03*
X136195800Y-53013600D03*
X136195800Y-50473600D03*
X138735800Y-53013600D03*
X138735800Y-50473600D03*
X141275800Y-53013600D03*
X141275800Y-50473600D03*
X143815800Y-53013600D03*
X143815800Y-50473600D03*
X146355800Y-53013600D03*
X146355800Y-50473600D03*
X148895800Y-53013600D03*
X148895800Y-50473600D03*
X151435800Y-53013600D03*
X151435800Y-50473600D03*
X153975800Y-53013600D03*
X153975800Y-50473600D03*
X156515800Y-53013600D03*
X156515800Y-50473600D03*
M02*
