G04 #@! TF.GenerationSoftware,KiCad,Pcbnew,(5.1.10-1-10_14)*
G04 #@! TF.CreationDate,2021-11-10T19:43:01-05:00*
G04 #@! TF.ProjectId,tool_circuit,746f6f6c-5f63-4697-9263-7569742e6b69,1.0*
G04 #@! TF.SameCoordinates,Original*
G04 #@! TF.FileFunction,Legend,Top*
G04 #@! TF.FilePolarity,Positive*
%FSLAX46Y46*%
G04 Gerber Fmt 4.6, Leading zero omitted, Abs format (unit mm)*
G04 Created by KiCad (PCBNEW (5.1.10-1-10_14)) date 2021-11-10 19:43:01*
%MOMM*%
%LPD*%
G01*
G04 APERTURE LIST*
%ADD10C,0.120000*%
%ADD11C,0.127000*%
%ADD12C,0.200000*%
%ADD13C,0.100000*%
%ADD14C,0.010000*%
%ADD15C,0.150000*%
%ADD16C,0.098425*%
%ADD17C,1.473200*%
%ADD18C,1.371600*%
%ADD19C,1.301600*%
%ADD20C,1.609600*%
%ADD21C,2.006600*%
%ADD22C,1.498600*%
%ADD23O,1.801600X1.801600*%
%ADD24O,2.001600X3.901600*%
%ADD25O,3.901600X2.001600*%
G04 APERTURE END LIST*
D10*
X100392600Y-96600000D02*
X101662600Y-96600000D01*
X101027600Y-95965000D02*
X101027600Y-97235000D01*
X114540400Y-96600000D02*
G75*
G03*
X114540400Y-96600000I-6375400J0D01*
G01*
X151334200Y-57382400D02*
X151334200Y-58652400D01*
X150572200Y-58017400D02*
X151334200Y-58144400D01*
X150572200Y-58017400D02*
X151334200Y-58271400D01*
X150572200Y-58017400D02*
X151334200Y-58398400D01*
X150572200Y-58017400D02*
X151334200Y-58525400D01*
X150572200Y-58017400D02*
X151334200Y-58652400D01*
X150572200Y-58017400D02*
X151334200Y-57890400D01*
X150572200Y-58017400D02*
X151334200Y-57763400D01*
X150572200Y-58017400D02*
X151334200Y-57636400D01*
X150572200Y-58017400D02*
X151334200Y-57509400D01*
X150572200Y-58017400D02*
X151334200Y-57382400D01*
X150572200Y-57382400D02*
X150572200Y-58652400D01*
X151588200Y-58017400D02*
X150318200Y-58017400D01*
X151950813Y-57353592D02*
G75*
G02*
X155899187Y-57353592I1974187J-663808D01*
G01*
X155899187Y-58681208D02*
G75*
G02*
X151950813Y-58681208I-1974187J663808D01*
G01*
D11*
X126844800Y-97590600D02*
G75*
G03*
X126844800Y-97590600I-5000000J0D01*
G01*
D12*
X127694800Y-97590600D02*
G75*
G03*
X127694800Y-97590600I-100000J0D01*
G01*
D11*
X157154400Y-68710800D02*
G75*
G03*
X157154400Y-68710800I-2950000J0D01*
G01*
X156704400Y-68710800D02*
G75*
G03*
X156704400Y-68710800I-2500000J0D01*
G01*
D13*
X151431400Y-67110800D02*
G75*
G03*
X151431400Y-67110800I-127000J0D01*
G01*
D11*
X111738400Y-85437600D02*
X112978400Y-85437600D01*
X111738400Y-87137600D02*
X112978400Y-87137600D01*
X112552000Y-79658200D02*
G75*
G03*
X112552000Y-79658200I-2950000J0D01*
G01*
X112102000Y-79658200D02*
G75*
G03*
X112102000Y-79658200I-2500000J0D01*
G01*
D13*
X112629000Y-81258200D02*
G75*
G03*
X112629000Y-81258200I-127000J0D01*
G01*
D10*
X130455400Y-100257600D02*
X144848931Y-100257600D01*
X146711400Y-98759185D02*
X146711400Y-93298000D01*
X146711400Y-93298000D02*
X132317869Y-93298000D01*
X130455400Y-94796415D02*
X130455400Y-100257600D01*
X129058400Y-95685600D02*
G75*
G03*
X129058400Y-95685600I-381000J0D01*
G01*
X135840200Y-59071500D02*
X124410200Y-59071500D01*
X124410200Y-59071500D02*
X124410200Y-62383660D01*
X124410200Y-69612500D02*
X135840200Y-69612500D01*
X135840200Y-69612500D02*
X135840200Y-66300340D01*
X135840200Y-62383660D02*
X135840200Y-59071500D01*
X124410200Y-66300340D02*
X124410200Y-69612500D01*
X137059400Y-64342000D02*
G75*
G03*
X137059400Y-64342000I-76200J0D01*
G01*
D11*
X154233400Y-80064600D02*
G75*
G03*
X154233400Y-80064600I-2950000J0D01*
G01*
X153783400Y-80064600D02*
G75*
G03*
X153783400Y-80064600I-2500000J0D01*
G01*
D13*
X148510400Y-78464600D02*
G75*
G03*
X148510400Y-78464600I-127000J0D01*
G01*
D14*
G36*
X102210600Y-68359840D02*
G01*
X102210600Y-67390000D01*
X103882820Y-67390000D01*
X103882820Y-68359840D01*
X102210600Y-68359840D01*
G37*
X102210600Y-68359840D02*
X102210600Y-67390000D01*
X103882820Y-67390000D01*
X103882820Y-68359840D01*
X102210600Y-68359840D01*
G36*
X103912400Y-68355830D02*
G01*
X103912400Y-67390000D01*
X105588609Y-67390000D01*
X105588609Y-68355830D01*
X103912400Y-68355830D01*
G37*
X103912400Y-68355830D02*
X103912400Y-67390000D01*
X105588609Y-67390000D01*
X105588609Y-68355830D01*
X103912400Y-68355830D01*
G36*
X105614200Y-68355590D02*
G01*
X105614200Y-67390000D01*
X107290715Y-67390000D01*
X107290715Y-68355590D01*
X105614200Y-68355590D01*
G37*
X105614200Y-68355590D02*
X105614200Y-67390000D01*
X107290715Y-67390000D01*
X107290715Y-68355590D01*
X105614200Y-68355590D01*
G36*
X107316000Y-68356510D02*
G01*
X107316000Y-67390000D01*
X108993570Y-67390000D01*
X108993570Y-68356510D01*
X107316000Y-68356510D01*
G37*
X107316000Y-68356510D02*
X107316000Y-67390000D01*
X108993570Y-67390000D01*
X108993570Y-68356510D01*
X107316000Y-68356510D01*
G36*
X109017800Y-68359380D02*
G01*
X109017800Y-67390000D01*
X110700430Y-67390000D01*
X110700430Y-68359380D01*
X109017800Y-68359380D01*
G37*
X109017800Y-68359380D02*
X109017800Y-67390000D01*
X110700430Y-67390000D01*
X110700430Y-68359380D01*
X109017800Y-68359380D01*
D11*
X102007400Y-70590400D02*
G75*
G03*
X102007400Y-70590400I-127000J0D01*
G01*
X149644200Y-86513400D02*
X149644200Y-87853400D01*
X147944200Y-86513400D02*
X147944200Y-87853400D01*
X146849000Y-70370800D02*
X147909000Y-70370800D01*
X146849000Y-72130800D02*
X147909000Y-72130800D01*
D10*
X142212850Y-85335100D02*
X141354750Y-85335100D01*
X141354750Y-87290900D02*
X142212850Y-87290900D01*
X132627100Y-87001550D02*
X132627100Y-87859650D01*
X134582900Y-87859650D02*
X134582900Y-87001550D01*
X119673100Y-87687350D02*
X119673100Y-88545450D01*
X121628900Y-88545450D02*
X121628900Y-87687350D01*
D11*
X145709000Y-59315600D02*
X145709000Y-57975600D01*
X147409000Y-59315600D02*
X147409000Y-57975600D01*
X150761800Y-93894000D02*
X150761800Y-94594000D01*
X149061800Y-93894000D02*
X149061800Y-94594000D01*
X144835400Y-78820000D02*
G75*
G03*
X144835400Y-78820000I-2950000J0D01*
G01*
X144385400Y-78820000D02*
G75*
G03*
X144385400Y-78820000I-2500000J0D01*
G01*
D13*
X144912400Y-80420000D02*
G75*
G03*
X144912400Y-80420000I-127000J0D01*
G01*
D11*
X133135000Y-77373600D02*
X132635000Y-77373600D01*
X132635000Y-77373600D02*
X132635000Y-77873600D01*
X132635000Y-77373600D02*
X132635000Y-76873600D01*
X132635000Y-77373600D02*
X132135000Y-77873600D01*
X132135000Y-77873600D02*
X132135000Y-77373600D01*
X132135000Y-77373600D02*
X132135000Y-76873600D01*
X132135000Y-76873600D02*
X132635000Y-77373600D01*
X132135000Y-77373600D02*
X131635000Y-77373600D01*
X134535000Y-77048600D02*
X134535000Y-81048600D01*
X134535000Y-77048599D02*
G75*
G03*
X134535000Y-81048600I-2200015J-2000001D01*
G01*
X134535000Y-77048599D02*
G75*
G03*
X134535000Y-81048600I-2200015J-2000001D01*
G01*
D10*
X118441200Y-66753001D02*
X118441200Y-68023001D01*
X117806200Y-67769001D02*
X119076200Y-67769001D01*
X118441200Y-67769001D02*
X117806200Y-67007001D01*
X118441200Y-67769001D02*
X117933200Y-67007001D01*
X118441200Y-67769001D02*
X118060200Y-67007001D01*
X118441200Y-67769001D02*
X118187200Y-67007001D01*
X118441200Y-67769001D02*
X118314200Y-67007001D01*
X118441200Y-67769001D02*
X119076200Y-67007001D01*
X118441200Y-67769001D02*
X118949200Y-67007001D01*
X118441200Y-67769001D02*
X118822200Y-67007001D01*
X118441200Y-67769001D02*
X118695200Y-67007001D01*
X118441200Y-67769001D02*
X118568200Y-67007001D01*
X117806200Y-67007001D02*
X119076200Y-67007001D01*
X121678199Y-66372001D02*
X121678199Y-57987999D01*
X121678199Y-57987999D02*
X120363941Y-57987999D01*
X115204201Y-57987999D02*
X115204201Y-66372001D01*
X115204201Y-66372001D02*
X116518459Y-66372001D01*
X120363941Y-66372001D02*
X121678199Y-66372001D01*
X116518459Y-57987999D02*
X115204201Y-57987999D01*
X140047400Y-56357200D02*
X141377400Y-56357200D01*
X140047400Y-57687200D02*
X140047400Y-56357200D01*
X140047400Y-58957200D02*
X142707400Y-58957200D01*
X142707400Y-58957200D02*
X142707400Y-64097200D01*
X140047400Y-58957200D02*
X140047400Y-64097200D01*
X140047400Y-64097200D02*
X142707400Y-64097200D01*
X159427600Y-75781200D02*
X162087600Y-75781200D01*
X159427600Y-57941200D02*
X159427600Y-75781200D01*
X162087600Y-57941200D02*
X162087600Y-75781200D01*
X159427600Y-57941200D02*
X162087600Y-57941200D01*
X159427600Y-56671200D02*
X159427600Y-55341200D01*
X159427600Y-55341200D02*
X160757600Y-55341200D01*
D12*
X156946000Y-87955400D02*
G75*
G03*
X156946000Y-87955400I-100000J0D01*
G01*
D11*
X161346000Y-88655400D02*
X161346000Y-89885400D01*
X159066000Y-88655400D02*
X161346000Y-88655400D01*
X161346000Y-102845400D02*
X161346000Y-94325400D01*
X152346000Y-102845400D02*
X161346000Y-102845400D01*
X152346000Y-88655400D02*
X152346000Y-102845400D01*
X154626000Y-88655400D02*
X152346000Y-88655400D01*
X102048800Y-78017800D02*
X104048800Y-78017800D01*
X104048800Y-79977800D02*
X102048800Y-79977800D01*
D12*
X105038800Y-79042800D02*
G75*
G03*
X105038800Y-79042800I-100000J0D01*
G01*
X118958000Y-72692800D02*
G75*
G03*
X118958000Y-72692800I-100000J0D01*
G01*
D11*
X117968000Y-73627800D02*
X115968000Y-73627800D01*
X115968000Y-71667800D02*
X117968000Y-71667800D01*
X145305000Y-62117400D02*
X147305000Y-62117400D01*
X147305000Y-64077400D02*
X145305000Y-64077400D01*
D12*
X148295000Y-63142400D02*
G75*
G03*
X148295000Y-63142400I-100000J0D01*
G01*
X125084000Y-87969800D02*
G75*
G03*
X125084000Y-87969800I-100000J0D01*
G01*
D11*
X125874000Y-87034800D02*
X127874000Y-87034800D01*
X127874000Y-88994800D02*
X125874000Y-88994800D01*
D12*
X119694600Y-46149800D02*
G75*
G03*
X119694600Y-46149800I-100000J0D01*
G01*
D11*
X118704600Y-47084800D02*
X116704600Y-47084800D01*
X116704600Y-45124800D02*
X118704600Y-45124800D01*
X124883400Y-73547400D02*
X126883400Y-73547400D01*
X126883400Y-75507400D02*
X124883400Y-75507400D01*
D12*
X127873400Y-74572400D02*
G75*
G03*
X127873400Y-74572400I-100000J0D01*
G01*
X142249800Y-72413400D02*
G75*
G03*
X142249800Y-72413400I-100000J0D01*
G01*
D11*
X141259800Y-73348400D02*
X139259800Y-73348400D01*
X139259800Y-71388400D02*
X141259800Y-71388400D01*
X158208200Y-79643400D02*
X160208200Y-79643400D01*
X160208200Y-81603400D02*
X158208200Y-81603400D01*
D12*
X161198200Y-80668400D02*
G75*
G03*
X161198200Y-80668400I-100000J0D01*
G01*
D11*
X122889800Y-79759800D02*
G75*
G03*
X122889800Y-79759800I-2950000J0D01*
G01*
X122439800Y-79759800D02*
G75*
G03*
X122439800Y-79759800I-2500000J0D01*
G01*
D13*
X117166800Y-78159800D02*
G75*
G03*
X117166800Y-78159800I-127000J0D01*
G01*
D15*
X107998333Y-96957142D02*
X107950714Y-97004761D01*
X107807857Y-97052380D01*
X107712619Y-97052380D01*
X107569761Y-97004761D01*
X107474523Y-96909523D01*
X107426904Y-96814285D01*
X107379285Y-96623809D01*
X107379285Y-96480952D01*
X107426904Y-96290476D01*
X107474523Y-96195238D01*
X107569761Y-96100000D01*
X107712619Y-96052380D01*
X107807857Y-96052380D01*
X107950714Y-96100000D01*
X107998333Y-96147619D01*
X108379285Y-96147619D02*
X108426904Y-96100000D01*
X108522142Y-96052380D01*
X108760238Y-96052380D01*
X108855476Y-96100000D01*
X108903095Y-96147619D01*
X108950714Y-96242857D01*
X108950714Y-96338095D01*
X108903095Y-96480952D01*
X108331666Y-97052380D01*
X108950714Y-97052380D01*
X106435190Y-99846380D02*
X105863761Y-99846380D01*
X106149476Y-99846380D02*
X106149476Y-98846380D01*
X106054238Y-98989238D01*
X105959000Y-99084476D01*
X105863761Y-99132095D01*
X107054238Y-98846380D02*
X107149476Y-98846380D01*
X107244714Y-98894000D01*
X107292333Y-98941619D01*
X107339952Y-99036857D01*
X107387571Y-99227333D01*
X107387571Y-99465428D01*
X107339952Y-99655904D01*
X107292333Y-99751142D01*
X107244714Y-99798761D01*
X107149476Y-99846380D01*
X107054238Y-99846380D01*
X106959000Y-99798761D01*
X106911380Y-99751142D01*
X106863761Y-99655904D01*
X106816142Y-99465428D01*
X106816142Y-99227333D01*
X106863761Y-99036857D01*
X106911380Y-98941619D01*
X106959000Y-98894000D01*
X107054238Y-98846380D01*
X108006619Y-98846380D02*
X108101857Y-98846380D01*
X108197095Y-98894000D01*
X108244714Y-98941619D01*
X108292333Y-99036857D01*
X108339952Y-99227333D01*
X108339952Y-99465428D01*
X108292333Y-99655904D01*
X108244714Y-99751142D01*
X108197095Y-99798761D01*
X108101857Y-99846380D01*
X108006619Y-99846380D01*
X107911380Y-99798761D01*
X107863761Y-99751142D01*
X107816142Y-99655904D01*
X107768523Y-99465428D01*
X107768523Y-99227333D01*
X107816142Y-99036857D01*
X107863761Y-98941619D01*
X107911380Y-98894000D01*
X108006619Y-98846380D01*
X108959000Y-98846380D02*
X109054238Y-98846380D01*
X109149476Y-98894000D01*
X109197095Y-98941619D01*
X109244714Y-99036857D01*
X109292333Y-99227333D01*
X109292333Y-99465428D01*
X109244714Y-99655904D01*
X109197095Y-99751142D01*
X109149476Y-99798761D01*
X109054238Y-99846380D01*
X108959000Y-99846380D01*
X108863761Y-99798761D01*
X108816142Y-99751142D01*
X108768523Y-99655904D01*
X108720904Y-99465428D01*
X108720904Y-99227333D01*
X108768523Y-99036857D01*
X108816142Y-98941619D01*
X108863761Y-98894000D01*
X108959000Y-98846380D01*
X110149476Y-99179714D02*
X110149476Y-99846380D01*
X109720904Y-99179714D02*
X109720904Y-99703523D01*
X109768523Y-99798761D01*
X109863761Y-99846380D01*
X110006619Y-99846380D01*
X110101857Y-99798761D01*
X110149476Y-99751142D01*
X110959000Y-99322571D02*
X110625666Y-99322571D01*
X110625666Y-99846380D02*
X110625666Y-98846380D01*
X111101857Y-98846380D01*
X105665000Y-96052380D02*
X105665000Y-96290476D01*
X105426904Y-96195238D02*
X105665000Y-96290476D01*
X105903095Y-96195238D01*
X105522142Y-96480952D02*
X105665000Y-96290476D01*
X105807857Y-96480952D01*
X152805952Y-58469780D02*
X152329761Y-58469780D01*
X152329761Y-57469780D01*
X153139285Y-57945971D02*
X153472619Y-57945971D01*
X153615476Y-58469780D02*
X153139285Y-58469780D01*
X153139285Y-57469780D01*
X153615476Y-57469780D01*
X154044047Y-58469780D02*
X154044047Y-57469780D01*
X154282142Y-57469780D01*
X154425000Y-57517400D01*
X154520238Y-57612638D01*
X154567857Y-57707876D01*
X154615476Y-57898352D01*
X154615476Y-58041209D01*
X154567857Y-58231685D01*
X154520238Y-58326923D01*
X154425000Y-58422161D01*
X154282142Y-58469780D01*
X154044047Y-58469780D01*
X155567857Y-58469780D02*
X154996428Y-58469780D01*
X155282142Y-58469780D02*
X155282142Y-57469780D01*
X155186904Y-57612638D01*
X155091666Y-57707876D01*
X154996428Y-57755495D01*
X148723295Y-60670180D02*
X149294723Y-60670180D01*
X149009009Y-61670180D02*
X149009009Y-60670180D01*
X149770914Y-61670180D02*
X149675676Y-61622561D01*
X149628057Y-61574942D01*
X149580438Y-61479704D01*
X149580438Y-61193990D01*
X149628057Y-61098752D01*
X149675676Y-61051133D01*
X149770914Y-61003514D01*
X149913771Y-61003514D01*
X150009009Y-61051133D01*
X150056628Y-61098752D01*
X150104247Y-61193990D01*
X150104247Y-61479704D01*
X150056628Y-61574942D01*
X150009009Y-61622561D01*
X149913771Y-61670180D01*
X149770914Y-61670180D01*
X150675676Y-61670180D02*
X150580438Y-61622561D01*
X150532819Y-61574942D01*
X150485200Y-61479704D01*
X150485200Y-61193990D01*
X150532819Y-61098752D01*
X150580438Y-61051133D01*
X150675676Y-61003514D01*
X150818533Y-61003514D01*
X150913771Y-61051133D01*
X150961390Y-61098752D01*
X151009009Y-61193990D01*
X151009009Y-61479704D01*
X150961390Y-61574942D01*
X150913771Y-61622561D01*
X150818533Y-61670180D01*
X150675676Y-61670180D01*
X151580438Y-61670180D02*
X151485200Y-61622561D01*
X151437580Y-61527323D01*
X151437580Y-60670180D01*
X151723295Y-61765419D02*
X152485200Y-61765419D01*
X152723295Y-61670180D02*
X152723295Y-60670180D01*
X153199485Y-61003514D02*
X153199485Y-61670180D01*
X153199485Y-61098752D02*
X153247104Y-61051133D01*
X153342342Y-61003514D01*
X153485200Y-61003514D01*
X153580438Y-61051133D01*
X153628057Y-61146371D01*
X153628057Y-61670180D01*
X153866152Y-61765419D02*
X154628057Y-61765419D01*
X154866152Y-60670180D02*
X154866152Y-61479704D01*
X154913771Y-61574942D01*
X154961390Y-61622561D01*
X155056628Y-61670180D01*
X155247104Y-61670180D01*
X155342342Y-61622561D01*
X155389961Y-61574942D01*
X155437580Y-61479704D01*
X155437580Y-60670180D01*
X155866152Y-61622561D02*
X155961390Y-61670180D01*
X156151866Y-61670180D01*
X156247104Y-61622561D01*
X156294723Y-61527323D01*
X156294723Y-61479704D01*
X156247104Y-61384466D01*
X156151866Y-61336847D01*
X156009009Y-61336847D01*
X155913771Y-61289228D01*
X155866152Y-61193990D01*
X155866152Y-61146371D01*
X155913771Y-61051133D01*
X156009009Y-61003514D01*
X156151866Y-61003514D01*
X156247104Y-61051133D01*
X157104247Y-61622561D02*
X157009009Y-61670180D01*
X156818533Y-61670180D01*
X156723295Y-61622561D01*
X156675676Y-61527323D01*
X156675676Y-61146371D01*
X156723295Y-61051133D01*
X156818533Y-61003514D01*
X157009009Y-61003514D01*
X157104247Y-61051133D01*
X157151866Y-61146371D01*
X157151866Y-61241609D01*
X156675676Y-61336847D01*
X152655000Y-57469780D02*
X152655000Y-57707876D01*
X152416904Y-57612638D02*
X152655000Y-57707876D01*
X152893095Y-57612638D01*
X152512142Y-57898352D02*
X152655000Y-57707876D01*
X152797857Y-57898352D01*
X121128133Y-104282742D02*
X121080514Y-104330361D01*
X120937657Y-104377980D01*
X120842419Y-104377980D01*
X120699561Y-104330361D01*
X120604323Y-104235123D01*
X120556704Y-104139885D01*
X120509085Y-103949409D01*
X120509085Y-103806552D01*
X120556704Y-103616076D01*
X120604323Y-103520838D01*
X120699561Y-103425600D01*
X120842419Y-103377980D01*
X120937657Y-103377980D01*
X121080514Y-103425600D01*
X121128133Y-103473219D01*
X122080514Y-104377980D02*
X121509085Y-104377980D01*
X121794800Y-104377980D02*
X121794800Y-103377980D01*
X121699561Y-103520838D01*
X121604323Y-103616076D01*
X121509085Y-103663695D01*
X153462722Y-64787058D02*
X153462722Y-64145936D01*
X153615371Y-64145936D01*
X153706959Y-64176466D01*
X153768019Y-64237525D01*
X153798548Y-64298584D01*
X153829078Y-64420702D01*
X153829078Y-64512291D01*
X153798548Y-64634410D01*
X153768019Y-64695469D01*
X153706959Y-64756528D01*
X153615371Y-64787058D01*
X153462722Y-64787058D01*
X154409141Y-64145936D02*
X154103844Y-64145936D01*
X154073315Y-64451232D01*
X154103844Y-64420702D01*
X154164904Y-64390173D01*
X154317552Y-64390173D01*
X154378611Y-64420702D01*
X154409141Y-64451232D01*
X154439670Y-64512291D01*
X154439670Y-64664939D01*
X154409141Y-64725999D01*
X154378611Y-64756528D01*
X154317552Y-64787058D01*
X154164904Y-64787058D01*
X154103844Y-64756528D01*
X154073315Y-64725999D01*
D16*
X111302783Y-85015702D02*
X111171549Y-84828226D01*
X111077811Y-85015702D02*
X111077811Y-84622001D01*
X111227792Y-84622001D01*
X111265287Y-84640749D01*
X111284035Y-84659497D01*
X111302783Y-84696992D01*
X111302783Y-84753235D01*
X111284035Y-84790730D01*
X111265287Y-84809478D01*
X111227792Y-84828226D01*
X111077811Y-84828226D01*
X111452764Y-84659497D02*
X111471512Y-84640749D01*
X111509007Y-84622001D01*
X111602745Y-84622001D01*
X111640241Y-84640749D01*
X111658988Y-84659497D01*
X111677736Y-84696992D01*
X111677736Y-84734487D01*
X111658988Y-84790730D01*
X111434016Y-85015702D01*
X111677736Y-85015702D01*
D15*
X109077990Y-81523031D02*
X109077990Y-80881909D01*
X109230639Y-80881909D01*
X109322227Y-80912439D01*
X109383287Y-80973498D01*
X109413816Y-81034557D01*
X109444346Y-81156675D01*
X109444346Y-81248264D01*
X109413816Y-81370383D01*
X109383287Y-81431442D01*
X109322227Y-81492501D01*
X109230639Y-81523031D01*
X109077990Y-81523031D01*
X109993879Y-80881909D02*
X109871761Y-80881909D01*
X109810701Y-80912439D01*
X109780172Y-80942968D01*
X109719112Y-81034557D01*
X109688583Y-81156675D01*
X109688583Y-81400912D01*
X109719112Y-81461972D01*
X109749642Y-81492501D01*
X109810701Y-81523031D01*
X109932820Y-81523031D01*
X109993879Y-81492501D01*
X110024409Y-81461972D01*
X110054938Y-81400912D01*
X110054938Y-81248264D01*
X110024409Y-81187205D01*
X109993879Y-81156675D01*
X109932820Y-81126146D01*
X109810701Y-81126146D01*
X109749642Y-81156675D01*
X109719112Y-81187205D01*
X109688583Y-81248264D01*
X137580266Y-102541961D02*
X137723123Y-102589580D01*
X137961219Y-102589580D01*
X138056457Y-102541961D01*
X138104076Y-102494342D01*
X138151695Y-102399104D01*
X138151695Y-102303866D01*
X138104076Y-102208628D01*
X138056457Y-102161009D01*
X137961219Y-102113390D01*
X137770742Y-102065771D01*
X137675504Y-102018152D01*
X137627885Y-101970533D01*
X137580266Y-101875295D01*
X137580266Y-101780057D01*
X137627885Y-101684819D01*
X137675504Y-101637200D01*
X137770742Y-101589580D01*
X138008838Y-101589580D01*
X138151695Y-101637200D01*
X138485028Y-101589580D02*
X138723123Y-102589580D01*
X138913600Y-101875295D01*
X139104076Y-102589580D01*
X139342171Y-101589580D01*
X140246933Y-102589580D02*
X139675504Y-102589580D01*
X139961219Y-102589580D02*
X139961219Y-101589580D01*
X139865980Y-101732438D01*
X139770742Y-101827676D01*
X139675504Y-101875295D01*
X136724714Y-99011361D02*
X136867571Y-99058980D01*
X137105666Y-99058980D01*
X137200904Y-99011361D01*
X137248523Y-98963742D01*
X137296142Y-98868504D01*
X137296142Y-98773266D01*
X137248523Y-98678028D01*
X137200904Y-98630409D01*
X137105666Y-98582790D01*
X136915190Y-98535171D01*
X136819952Y-98487552D01*
X136772333Y-98439933D01*
X136724714Y-98344695D01*
X136724714Y-98249457D01*
X136772333Y-98154219D01*
X136819952Y-98106600D01*
X136915190Y-98058980D01*
X137153285Y-98058980D01*
X137296142Y-98106600D01*
X137629476Y-98392314D02*
X137819952Y-99058980D01*
X138010428Y-98582790D01*
X138200904Y-99058980D01*
X138391380Y-98392314D01*
X138772333Y-99058980D02*
X138772333Y-98392314D01*
X138772333Y-98058980D02*
X138724714Y-98106600D01*
X138772333Y-98154219D01*
X138819952Y-98106600D01*
X138772333Y-98058980D01*
X138772333Y-98154219D01*
X139105666Y-98392314D02*
X139486619Y-98392314D01*
X139248523Y-98058980D02*
X139248523Y-98916123D01*
X139296142Y-99011361D01*
X139391380Y-99058980D01*
X139486619Y-99058980D01*
X140248523Y-99011361D02*
X140153285Y-99058980D01*
X139962809Y-99058980D01*
X139867571Y-99011361D01*
X139819952Y-98963742D01*
X139772333Y-98868504D01*
X139772333Y-98582790D01*
X139819952Y-98487552D01*
X139867571Y-98439933D01*
X139962809Y-98392314D01*
X140153285Y-98392314D01*
X140248523Y-98439933D01*
X140677095Y-99058980D02*
X140677095Y-98058980D01*
X141105666Y-99058980D02*
X141105666Y-98535171D01*
X141058047Y-98439933D01*
X140962809Y-98392314D01*
X140819952Y-98392314D01*
X140724714Y-98439933D01*
X140677095Y-98487552D01*
X134595600Y-95137980D02*
X134595600Y-95376076D01*
X134357504Y-95280838D02*
X134595600Y-95376076D01*
X134833695Y-95280838D01*
X134452742Y-95566552D02*
X134595600Y-95376076D01*
X134738457Y-95566552D01*
X129958533Y-58266580D02*
X129482342Y-58266580D01*
X129482342Y-57266580D01*
X130815676Y-58266580D02*
X130244247Y-58266580D01*
X130529961Y-58266580D02*
X130529961Y-57266580D01*
X130434723Y-57409438D01*
X130339485Y-57504676D01*
X130244247Y-57552295D01*
X128101390Y-64794380D02*
X127529961Y-64794380D01*
X127815676Y-64794380D02*
X127815676Y-63794380D01*
X127720438Y-63937238D01*
X127625200Y-64032476D01*
X127529961Y-64080095D01*
X128720438Y-63794380D02*
X128815676Y-63794380D01*
X128910914Y-63842000D01*
X128958533Y-63889619D01*
X129006152Y-63984857D01*
X129053771Y-64175333D01*
X129053771Y-64413428D01*
X129006152Y-64603904D01*
X128958533Y-64699142D01*
X128910914Y-64746761D01*
X128815676Y-64794380D01*
X128720438Y-64794380D01*
X128625200Y-64746761D01*
X128577580Y-64699142D01*
X128529961Y-64603904D01*
X128482342Y-64413428D01*
X128482342Y-64175333D01*
X128529961Y-63984857D01*
X128577580Y-63889619D01*
X128625200Y-63842000D01*
X128720438Y-63794380D01*
X129672819Y-63794380D02*
X129768057Y-63794380D01*
X129863295Y-63842000D01*
X129910914Y-63889619D01*
X129958533Y-63984857D01*
X130006152Y-64175333D01*
X130006152Y-64413428D01*
X129958533Y-64603904D01*
X129910914Y-64699142D01*
X129863295Y-64746761D01*
X129768057Y-64794380D01*
X129672819Y-64794380D01*
X129577580Y-64746761D01*
X129529961Y-64699142D01*
X129482342Y-64603904D01*
X129434723Y-64413428D01*
X129434723Y-64175333D01*
X129482342Y-63984857D01*
X129529961Y-63889619D01*
X129577580Y-63842000D01*
X129672819Y-63794380D01*
X131625200Y-64127714D02*
X131625200Y-64794380D01*
X131196628Y-64127714D02*
X131196628Y-64651523D01*
X131244247Y-64746761D01*
X131339485Y-64794380D01*
X131482342Y-64794380D01*
X131577580Y-64746761D01*
X131625200Y-64699142D01*
X132101390Y-64794380D02*
X132101390Y-63794380D01*
X132101390Y-64270571D02*
X132672819Y-64270571D01*
X132672819Y-64794380D02*
X132672819Y-63794380D01*
X130125200Y-63794380D02*
X130125200Y-64032476D01*
X129887104Y-63937238D02*
X130125200Y-64032476D01*
X130363295Y-63937238D01*
X129982342Y-64222952D02*
X130125200Y-64032476D01*
X130268057Y-64222952D01*
X150540992Y-76137014D02*
X150540992Y-75495264D01*
X150693790Y-75495264D01*
X150785468Y-75525824D01*
X150846587Y-75586943D01*
X150877147Y-75648062D01*
X150907706Y-75770300D01*
X150907706Y-75861978D01*
X150877147Y-75984216D01*
X150846587Y-76045335D01*
X150785468Y-76106454D01*
X150693790Y-76137014D01*
X150540992Y-76137014D01*
X151457778Y-75709181D02*
X151457778Y-76137014D01*
X151304980Y-75464704D02*
X151152182Y-75923097D01*
X151549456Y-75923097D01*
X102602039Y-67543336D02*
X103412659Y-67543336D01*
X103508026Y-67495652D01*
X103555709Y-67447969D01*
X103603393Y-67352602D01*
X103603393Y-67161868D01*
X103555709Y-67066501D01*
X103508026Y-67018817D01*
X103412659Y-66971134D01*
X102602039Y-66971134D01*
X103603393Y-65969780D02*
X103603393Y-66541982D01*
X103603393Y-66255881D02*
X102602039Y-66255881D01*
X102745090Y-66351248D01*
X102840457Y-66446615D01*
X102888140Y-66541982D01*
D16*
X150422302Y-86289016D02*
X150234826Y-86420250D01*
X150422302Y-86513988D02*
X150028601Y-86513988D01*
X150028601Y-86364007D01*
X150047349Y-86326512D01*
X150066097Y-86307764D01*
X150103592Y-86289016D01*
X150159835Y-86289016D01*
X150197330Y-86307764D01*
X150216078Y-86326512D01*
X150234826Y-86364007D01*
X150234826Y-86513988D01*
X150422302Y-86101540D02*
X150422302Y-86026549D01*
X150403555Y-85989054D01*
X150384807Y-85970306D01*
X150328564Y-85932811D01*
X150253573Y-85914063D01*
X150103592Y-85914063D01*
X150066097Y-85932811D01*
X150047349Y-85951558D01*
X150028601Y-85989054D01*
X150028601Y-86064044D01*
X150047349Y-86101540D01*
X150066097Y-86120287D01*
X150103592Y-86139035D01*
X150197330Y-86139035D01*
X150234826Y-86120287D01*
X150253573Y-86101540D01*
X150272321Y-86064044D01*
X150272321Y-85989054D01*
X150253573Y-85951558D01*
X150234826Y-85932811D01*
X150197330Y-85914063D01*
D15*
D16*
X146233383Y-69948902D02*
X146102149Y-69761426D01*
X146008411Y-69948902D02*
X146008411Y-69555201D01*
X146158392Y-69555201D01*
X146195887Y-69573949D01*
X146214635Y-69592697D01*
X146233383Y-69630192D01*
X146233383Y-69686435D01*
X146214635Y-69723930D01*
X146195887Y-69742678D01*
X146158392Y-69761426D01*
X146008411Y-69761426D01*
X146458355Y-69723930D02*
X146420859Y-69705183D01*
X146402112Y-69686435D01*
X146383364Y-69648940D01*
X146383364Y-69630192D01*
X146402112Y-69592697D01*
X146420859Y-69573949D01*
X146458355Y-69555201D01*
X146533345Y-69555201D01*
X146570841Y-69573949D01*
X146589588Y-69592697D01*
X146608336Y-69630192D01*
X146608336Y-69648940D01*
X146589588Y-69686435D01*
X146570841Y-69705183D01*
X146533345Y-69723930D01*
X146458355Y-69723930D01*
X146420859Y-69742678D01*
X146402112Y-69761426D01*
X146383364Y-69798921D01*
X146383364Y-69873912D01*
X146402112Y-69911407D01*
X146420859Y-69930155D01*
X146458355Y-69948902D01*
X146533345Y-69948902D01*
X146570841Y-69930155D01*
X146589588Y-69911407D01*
X146608336Y-69873912D01*
X146608336Y-69798921D01*
X146589588Y-69761426D01*
X146570841Y-69742678D01*
X146533345Y-69723930D01*
D15*
X141617133Y-86765380D02*
X141283800Y-86289190D01*
X141045704Y-86765380D02*
X141045704Y-85765380D01*
X141426657Y-85765380D01*
X141521895Y-85813000D01*
X141569514Y-85860619D01*
X141617133Y-85955857D01*
X141617133Y-86098714D01*
X141569514Y-86193952D01*
X141521895Y-86241571D01*
X141426657Y-86289190D01*
X141045704Y-86289190D01*
X141950466Y-85765380D02*
X142617133Y-85765380D01*
X142188561Y-86765380D01*
X141117133Y-86765380D02*
X140545704Y-86765380D01*
X140831419Y-86765380D02*
X140831419Y-85765380D01*
X140736180Y-85908238D01*
X140640942Y-86003476D01*
X140545704Y-86051095D01*
X141736180Y-85765380D02*
X141831419Y-85765380D01*
X141926657Y-85813000D01*
X141974276Y-85860619D01*
X142021895Y-85955857D01*
X142069514Y-86146333D01*
X142069514Y-86384428D01*
X142021895Y-86574904D01*
X141974276Y-86670142D01*
X141926657Y-86717761D01*
X141831419Y-86765380D01*
X141736180Y-86765380D01*
X141640942Y-86717761D01*
X141593323Y-86670142D01*
X141545704Y-86574904D01*
X141498085Y-86384428D01*
X141498085Y-86146333D01*
X141545704Y-85955857D01*
X141593323Y-85860619D01*
X141640942Y-85813000D01*
X141736180Y-85765380D01*
X142688561Y-85765380D02*
X142783800Y-85765380D01*
X142879038Y-85813000D01*
X142926657Y-85860619D01*
X142974276Y-85955857D01*
X143021895Y-86146333D01*
X143021895Y-86384428D01*
X142974276Y-86574904D01*
X142926657Y-86670142D01*
X142879038Y-86717761D01*
X142783800Y-86765380D01*
X142688561Y-86765380D01*
X142593323Y-86717761D01*
X142545704Y-86670142D01*
X142498085Y-86574904D01*
X142450466Y-86384428D01*
X142450466Y-86146333D01*
X142498085Y-85955857D01*
X142545704Y-85860619D01*
X142593323Y-85813000D01*
X142688561Y-85765380D01*
X141783800Y-85765380D02*
X141783800Y-86003476D01*
X141545704Y-85908238D02*
X141783800Y-86003476D01*
X142021895Y-85908238D01*
X141640942Y-86193952D02*
X141783800Y-86003476D01*
X141926657Y-86193952D01*
X134057380Y-87597266D02*
X133581190Y-87930600D01*
X134057380Y-88168695D02*
X133057380Y-88168695D01*
X133057380Y-87787742D01*
X133105000Y-87692504D01*
X133152619Y-87644885D01*
X133247857Y-87597266D01*
X133390714Y-87597266D01*
X133485952Y-87644885D01*
X133533571Y-87692504D01*
X133581190Y-87787742D01*
X133581190Y-88168695D01*
X133057380Y-86740123D02*
X133057380Y-86930600D01*
X133105000Y-87025838D01*
X133152619Y-87073457D01*
X133295476Y-87168695D01*
X133485952Y-87216314D01*
X133866904Y-87216314D01*
X133962142Y-87168695D01*
X134009761Y-87121076D01*
X134057380Y-87025838D01*
X134057380Y-86835361D01*
X134009761Y-86740123D01*
X133962142Y-86692504D01*
X133866904Y-86644885D01*
X133628809Y-86644885D01*
X133533571Y-86692504D01*
X133485952Y-86740123D01*
X133438333Y-86835361D01*
X133438333Y-87025838D01*
X133485952Y-87121076D01*
X133533571Y-87168695D01*
X133628809Y-87216314D01*
X137816580Y-80985266D02*
X137816580Y-81556695D01*
X137816580Y-81270980D02*
X136816580Y-81270980D01*
X136959438Y-81366219D01*
X137054676Y-81461457D01*
X137102295Y-81556695D01*
X136816580Y-80366219D02*
X136816580Y-80270980D01*
X136864200Y-80175742D01*
X136911819Y-80128123D01*
X137007057Y-80080504D01*
X137197533Y-80032885D01*
X137435628Y-80032885D01*
X137626104Y-80080504D01*
X137721342Y-80128123D01*
X137768961Y-80175742D01*
X137816580Y-80270980D01*
X137816580Y-80366219D01*
X137768961Y-80461457D01*
X137721342Y-80509076D01*
X137626104Y-80556695D01*
X137435628Y-80604314D01*
X137197533Y-80604314D01*
X137007057Y-80556695D01*
X136911819Y-80509076D01*
X136864200Y-80461457D01*
X136816580Y-80366219D01*
X136816580Y-79413838D02*
X136816580Y-79318600D01*
X136864200Y-79223361D01*
X136911819Y-79175742D01*
X137007057Y-79128123D01*
X137197533Y-79080504D01*
X137435628Y-79080504D01*
X137626104Y-79128123D01*
X137721342Y-79175742D01*
X137768961Y-79223361D01*
X137816580Y-79318600D01*
X137816580Y-79413838D01*
X137768961Y-79509076D01*
X137721342Y-79556695D01*
X137626104Y-79604314D01*
X137435628Y-79651933D01*
X137197533Y-79651933D01*
X137007057Y-79604314D01*
X136911819Y-79556695D01*
X136864200Y-79509076D01*
X136816580Y-79413838D01*
X133057380Y-87430600D02*
X133295476Y-87430600D01*
X133200238Y-87668695D02*
X133295476Y-87430600D01*
X133200238Y-87192504D01*
X133485952Y-87573457D02*
X133295476Y-87430600D01*
X133485952Y-87287742D01*
X121103380Y-88283066D02*
X120627190Y-88616400D01*
X121103380Y-88854495D02*
X120103380Y-88854495D01*
X120103380Y-88473542D01*
X120151000Y-88378304D01*
X120198619Y-88330685D01*
X120293857Y-88283066D01*
X120436714Y-88283066D01*
X120531952Y-88330685D01*
X120579571Y-88378304D01*
X120627190Y-88473542D01*
X120627190Y-88854495D01*
X120103380Y-87378304D02*
X120103380Y-87854495D01*
X120579571Y-87902114D01*
X120531952Y-87854495D01*
X120484333Y-87759257D01*
X120484333Y-87521161D01*
X120531952Y-87425923D01*
X120579571Y-87378304D01*
X120674809Y-87330685D01*
X120912904Y-87330685D01*
X121008142Y-87378304D01*
X121055761Y-87425923D01*
X121103380Y-87521161D01*
X121103380Y-87759257D01*
X121055761Y-87854495D01*
X121008142Y-87902114D01*
X119984333Y-88568780D02*
X119412904Y-88568780D01*
X119698619Y-88568780D02*
X119698619Y-87568780D01*
X119603380Y-87711638D01*
X119508142Y-87806876D01*
X119412904Y-87854495D01*
X120603380Y-87568780D02*
X120698619Y-87568780D01*
X120793857Y-87616400D01*
X120841476Y-87664019D01*
X120889095Y-87759257D01*
X120936714Y-87949733D01*
X120936714Y-88187828D01*
X120889095Y-88378304D01*
X120841476Y-88473542D01*
X120793857Y-88521161D01*
X120698619Y-88568780D01*
X120603380Y-88568780D01*
X120508142Y-88521161D01*
X120460523Y-88473542D01*
X120412904Y-88378304D01*
X120365285Y-88187828D01*
X120365285Y-87949733D01*
X120412904Y-87759257D01*
X120460523Y-87664019D01*
X120508142Y-87616400D01*
X120603380Y-87568780D01*
X121555761Y-87568780D02*
X121651000Y-87568780D01*
X121746238Y-87616400D01*
X121793857Y-87664019D01*
X121841476Y-87759257D01*
X121889095Y-87949733D01*
X121889095Y-88187828D01*
X121841476Y-88378304D01*
X121793857Y-88473542D01*
X121746238Y-88521161D01*
X121651000Y-88568780D01*
X121555761Y-88568780D01*
X121460523Y-88521161D01*
X121412904Y-88473542D01*
X121365285Y-88378304D01*
X121317666Y-88187828D01*
X121317666Y-87949733D01*
X121365285Y-87759257D01*
X121412904Y-87664019D01*
X121460523Y-87616400D01*
X121555761Y-87568780D01*
X120103380Y-88116400D02*
X120341476Y-88116400D01*
X120246238Y-88354495D02*
X120341476Y-88116400D01*
X120246238Y-87878304D01*
X120531952Y-88259257D02*
X120341476Y-88116400D01*
X120531952Y-87973542D01*
D16*
X146493383Y-58740702D02*
X146362149Y-58553226D01*
X146268411Y-58740702D02*
X146268411Y-58347001D01*
X146418392Y-58347001D01*
X146455887Y-58365749D01*
X146474635Y-58384497D01*
X146493383Y-58421992D01*
X146493383Y-58478235D01*
X146474635Y-58515730D01*
X146455887Y-58534478D01*
X146418392Y-58553226D01*
X146268411Y-58553226D01*
X146830841Y-58478235D02*
X146830841Y-58740702D01*
X146737102Y-58328254D02*
X146643364Y-58609469D01*
X146887084Y-58609469D01*
D15*
D16*
X151539902Y-93299616D02*
X151352426Y-93430850D01*
X151539902Y-93524588D02*
X151146201Y-93524588D01*
X151146201Y-93374607D01*
X151164949Y-93337112D01*
X151183697Y-93318364D01*
X151221192Y-93299616D01*
X151277435Y-93299616D01*
X151314930Y-93318364D01*
X151333678Y-93337112D01*
X151352426Y-93374607D01*
X151352426Y-93524588D01*
X151146201Y-93168383D02*
X151146201Y-92924663D01*
X151296183Y-93055897D01*
X151296183Y-92999654D01*
X151314930Y-92962158D01*
X151333678Y-92943411D01*
X151371173Y-92924663D01*
X151464912Y-92924663D01*
X151502407Y-92943411D01*
X151521155Y-92962158D01*
X151539902Y-92999654D01*
X151539902Y-93112140D01*
X151521155Y-93149635D01*
X151502407Y-93168383D01*
D15*
X141680658Y-83323804D02*
X141680658Y-82682682D01*
X141833307Y-82682682D01*
X141924895Y-82713212D01*
X141985955Y-82774271D01*
X142016484Y-82835330D01*
X142047014Y-82957448D01*
X142047014Y-83049037D01*
X142016484Y-83171156D01*
X141985955Y-83232215D01*
X141924895Y-83293274D01*
X141833307Y-83323804D01*
X141680658Y-83323804D01*
X142260721Y-82682682D02*
X142657606Y-82682682D01*
X142443899Y-82926919D01*
X142535488Y-82926919D01*
X142596547Y-82957448D01*
X142627077Y-82987978D01*
X142657606Y-83049037D01*
X142657606Y-83201685D01*
X142627077Y-83262745D01*
X142596547Y-83293274D01*
X142535488Y-83323804D01*
X142352310Y-83323804D01*
X142291251Y-83293274D01*
X142260721Y-83262745D01*
X131854619Y-75221723D02*
X131854619Y-74581723D01*
X132007000Y-74581723D01*
X132098428Y-74612200D01*
X132159380Y-74673152D01*
X132189857Y-74734104D01*
X132220333Y-74856009D01*
X132220333Y-74947438D01*
X132189857Y-75069342D01*
X132159380Y-75130295D01*
X132098428Y-75191247D01*
X132007000Y-75221723D01*
X131854619Y-75221723D01*
X132464142Y-74642676D02*
X132494619Y-74612200D01*
X132555571Y-74581723D01*
X132707952Y-74581723D01*
X132768904Y-74612200D01*
X132799380Y-74642676D01*
X132829857Y-74703628D01*
X132829857Y-74764580D01*
X132799380Y-74856009D01*
X132433666Y-75221723D01*
X132829857Y-75221723D01*
X133064523Y-81705742D02*
X133016904Y-81753361D01*
X132874047Y-81800980D01*
X132778809Y-81800980D01*
X132635952Y-81753361D01*
X132540714Y-81658123D01*
X132493095Y-81562885D01*
X132445476Y-81372409D01*
X132445476Y-81229552D01*
X132493095Y-81039076D01*
X132540714Y-80943838D01*
X132635952Y-80848600D01*
X132778809Y-80800980D01*
X132874047Y-80800980D01*
X133016904Y-80848600D01*
X133064523Y-80896219D01*
X114289842Y-63052866D02*
X114337461Y-63100485D01*
X114385080Y-63243342D01*
X114385080Y-63338580D01*
X114337461Y-63481438D01*
X114242223Y-63576676D01*
X114146985Y-63624295D01*
X113956509Y-63671914D01*
X113813652Y-63671914D01*
X113623176Y-63624295D01*
X113527938Y-63576676D01*
X113432700Y-63481438D01*
X113385080Y-63338580D01*
X113385080Y-63243342D01*
X113432700Y-63100485D01*
X113480319Y-63052866D01*
X114385080Y-62052866D02*
X113908890Y-62386200D01*
X114385080Y-62624295D02*
X113385080Y-62624295D01*
X113385080Y-62243342D01*
X113432700Y-62148104D01*
X113480319Y-62100485D01*
X113575557Y-62052866D01*
X113718414Y-62052866D01*
X113813652Y-62100485D01*
X113861271Y-62148104D01*
X113908890Y-62243342D01*
X113908890Y-62624295D01*
X114385080Y-61100485D02*
X114385080Y-61671914D01*
X114385080Y-61386200D02*
X113385080Y-61386200D01*
X113527938Y-61481438D01*
X113623176Y-61576676D01*
X113670795Y-61671914D01*
X116083771Y-65473390D02*
X116131390Y-65330533D01*
X116179009Y-65282914D01*
X116274247Y-65235295D01*
X116417104Y-65235295D01*
X116512342Y-65282914D01*
X116559961Y-65330533D01*
X116607580Y-65425771D01*
X116607580Y-65806723D01*
X115607580Y-65806723D01*
X115607580Y-65473390D01*
X115655200Y-65378152D01*
X115702819Y-65330533D01*
X115798057Y-65282914D01*
X115893295Y-65282914D01*
X115988533Y-65330533D01*
X116036152Y-65378152D01*
X116083771Y-65473390D01*
X116083771Y-65806723D01*
X115607580Y-64901961D02*
X115607580Y-64282914D01*
X115988533Y-64616247D01*
X115988533Y-64473390D01*
X116036152Y-64378152D01*
X116083771Y-64330533D01*
X116179009Y-64282914D01*
X116417104Y-64282914D01*
X116512342Y-64330533D01*
X116559961Y-64378152D01*
X116607580Y-64473390D01*
X116607580Y-64759104D01*
X116559961Y-64854342D01*
X116512342Y-64901961D01*
X116036152Y-63711485D02*
X115988533Y-63806723D01*
X115940914Y-63854342D01*
X115845676Y-63901961D01*
X115798057Y-63901961D01*
X115702819Y-63854342D01*
X115655200Y-63806723D01*
X115607580Y-63711485D01*
X115607580Y-63521009D01*
X115655200Y-63425771D01*
X115702819Y-63378152D01*
X115798057Y-63330533D01*
X115845676Y-63330533D01*
X115940914Y-63378152D01*
X115988533Y-63425771D01*
X116036152Y-63521009D01*
X116036152Y-63711485D01*
X116083771Y-63806723D01*
X116131390Y-63854342D01*
X116226628Y-63901961D01*
X116417104Y-63901961D01*
X116512342Y-63854342D01*
X116559961Y-63806723D01*
X116607580Y-63711485D01*
X116607580Y-63521009D01*
X116559961Y-63425771D01*
X116512342Y-63378152D01*
X116417104Y-63330533D01*
X116226628Y-63330533D01*
X116131390Y-63378152D01*
X116083771Y-63425771D01*
X116036152Y-63521009D01*
X115607580Y-62711485D02*
X115607580Y-62616247D01*
X115655200Y-62521009D01*
X115702819Y-62473390D01*
X115798057Y-62425771D01*
X115988533Y-62378152D01*
X116226628Y-62378152D01*
X116417104Y-62425771D01*
X116512342Y-62473390D01*
X116559961Y-62521009D01*
X116607580Y-62616247D01*
X116607580Y-62711485D01*
X116559961Y-62806723D01*
X116512342Y-62854342D01*
X116417104Y-62901961D01*
X116226628Y-62949580D01*
X115988533Y-62949580D01*
X115798057Y-62901961D01*
X115702819Y-62854342D01*
X115655200Y-62806723D01*
X115607580Y-62711485D01*
X116226628Y-61949580D02*
X116226628Y-61187676D01*
X116607580Y-60187676D02*
X116607580Y-60759104D01*
X116607580Y-60473390D02*
X115607580Y-60473390D01*
X115750438Y-60568628D01*
X115845676Y-60663866D01*
X115893295Y-60759104D01*
X115607580Y-59854342D02*
X115607580Y-59235295D01*
X115988533Y-59568628D01*
X115988533Y-59425771D01*
X116036152Y-59330533D01*
X116083771Y-59282914D01*
X116179009Y-59235295D01*
X116417104Y-59235295D01*
X116512342Y-59282914D01*
X116559961Y-59330533D01*
X116607580Y-59425771D01*
X116607580Y-59711485D01*
X116559961Y-59806723D01*
X116512342Y-59854342D01*
X116226628Y-58806723D02*
X116226628Y-58044819D01*
X116083771Y-57235295D02*
X116083771Y-57568628D01*
X116607580Y-57568628D02*
X115607580Y-57568628D01*
X115607580Y-57092438D01*
X117893580Y-62180000D02*
X118131676Y-62180000D01*
X118036438Y-62418095D02*
X118131676Y-62180000D01*
X118036438Y-61941904D01*
X118322152Y-62322857D02*
X118131676Y-62180000D01*
X118322152Y-62037142D01*
X141044066Y-60695580D02*
X141044066Y-61409866D01*
X140996447Y-61552723D01*
X140901209Y-61647961D01*
X140758352Y-61695580D01*
X140663114Y-61695580D01*
X141472638Y-60790819D02*
X141520257Y-60743200D01*
X141615495Y-60695580D01*
X141853590Y-60695580D01*
X141948828Y-60743200D01*
X141996447Y-60790819D01*
X142044066Y-60886057D01*
X142044066Y-60981295D01*
X141996447Y-61124152D01*
X141425019Y-61695580D01*
X142044066Y-61695580D01*
X160463980Y-63354533D02*
X161178266Y-63354533D01*
X161321123Y-63402152D01*
X161416361Y-63497390D01*
X161463980Y-63640247D01*
X161463980Y-63735485D01*
X160463980Y-62973580D02*
X160463980Y-62354533D01*
X160844933Y-62687866D01*
X160844933Y-62545009D01*
X160892552Y-62449771D01*
X160940171Y-62402152D01*
X161035409Y-62354533D01*
X161273504Y-62354533D01*
X161368742Y-62402152D01*
X161416361Y-62449771D01*
X161463980Y-62545009D01*
X161463980Y-62830723D01*
X161416361Y-62925961D01*
X161368742Y-62973580D01*
X156379333Y-92100733D02*
X156379333Y-93100733D01*
X156312666Y-93300733D01*
X156179333Y-93434066D01*
X155979333Y-93500733D01*
X155846000Y-93500733D01*
X157779333Y-93500733D02*
X156979333Y-93500733D01*
X157379333Y-93500733D02*
X157379333Y-92100733D01*
X157246000Y-92300733D01*
X157112666Y-92434066D01*
X156979333Y-92500733D01*
X101599276Y-80367704D02*
X102056419Y-80367704D01*
X101827847Y-81167704D02*
X101827847Y-80367704D01*
X102323085Y-81167704D02*
X102323085Y-80367704D01*
X102627847Y-80367704D01*
X102704038Y-80405800D01*
X102742133Y-80443895D01*
X102780228Y-80520085D01*
X102780228Y-80634371D01*
X102742133Y-80710561D01*
X102704038Y-80748657D01*
X102627847Y-80786752D01*
X102323085Y-80786752D01*
X103542133Y-81167704D02*
X103084990Y-81167704D01*
X103313561Y-81167704D02*
X103313561Y-80367704D01*
X103237371Y-80481990D01*
X103161180Y-80558180D01*
X103084990Y-80596276D01*
X115518476Y-74017704D02*
X115975619Y-74017704D01*
X115747047Y-74817704D02*
X115747047Y-74017704D01*
X116242285Y-74817704D02*
X116242285Y-74017704D01*
X116547047Y-74017704D01*
X116623238Y-74055800D01*
X116661333Y-74093895D01*
X116699428Y-74170085D01*
X116699428Y-74284371D01*
X116661333Y-74360561D01*
X116623238Y-74398657D01*
X116547047Y-74436752D01*
X116242285Y-74436752D01*
X117004190Y-74093895D02*
X117042285Y-74055800D01*
X117118476Y-74017704D01*
X117308952Y-74017704D01*
X117385142Y-74055800D01*
X117423238Y-74093895D01*
X117461333Y-74170085D01*
X117461333Y-74246276D01*
X117423238Y-74360561D01*
X116966095Y-74817704D01*
X117461333Y-74817704D01*
X144855476Y-64467304D02*
X145312619Y-64467304D01*
X145084047Y-65267304D02*
X145084047Y-64467304D01*
X145579285Y-65267304D02*
X145579285Y-64467304D01*
X145884047Y-64467304D01*
X145960238Y-64505400D01*
X145998333Y-64543495D01*
X146036428Y-64619685D01*
X146036428Y-64733971D01*
X145998333Y-64810161D01*
X145960238Y-64848257D01*
X145884047Y-64886352D01*
X145579285Y-64886352D01*
X146303095Y-64467304D02*
X146798333Y-64467304D01*
X146531666Y-64772066D01*
X146645952Y-64772066D01*
X146722142Y-64810161D01*
X146760238Y-64848257D01*
X146798333Y-64924447D01*
X146798333Y-65114923D01*
X146760238Y-65191114D01*
X146722142Y-65229209D01*
X146645952Y-65267304D01*
X146417380Y-65267304D01*
X146341190Y-65229209D01*
X146303095Y-65191114D01*
X126118476Y-85951104D02*
X126575619Y-85951104D01*
X126347047Y-86751104D02*
X126347047Y-85951104D01*
X126842285Y-86751104D02*
X126842285Y-85951104D01*
X127147047Y-85951104D01*
X127223238Y-85989200D01*
X127261333Y-86027295D01*
X127299428Y-86103485D01*
X127299428Y-86217771D01*
X127261333Y-86293961D01*
X127223238Y-86332057D01*
X127147047Y-86370152D01*
X126842285Y-86370152D01*
X127985142Y-86217771D02*
X127985142Y-86751104D01*
X127794666Y-85913009D02*
X127604190Y-86484438D01*
X128099428Y-86484438D01*
X116314076Y-46809704D02*
X116771219Y-46809704D01*
X116542647Y-47609704D02*
X116542647Y-46809704D01*
X117037885Y-47609704D02*
X117037885Y-46809704D01*
X117342647Y-46809704D01*
X117418838Y-46847800D01*
X117456933Y-46885895D01*
X117495028Y-46962085D01*
X117495028Y-47076371D01*
X117456933Y-47152561D01*
X117418838Y-47190657D01*
X117342647Y-47228752D01*
X117037885Y-47228752D01*
X118218838Y-46809704D02*
X117837885Y-46809704D01*
X117799790Y-47190657D01*
X117837885Y-47152561D01*
X117914076Y-47114466D01*
X118104552Y-47114466D01*
X118180742Y-47152561D01*
X118218838Y-47190657D01*
X118256933Y-47266847D01*
X118256933Y-47457323D01*
X118218838Y-47533514D01*
X118180742Y-47571609D01*
X118104552Y-47609704D01*
X117914076Y-47609704D01*
X117837885Y-47571609D01*
X117799790Y-47533514D01*
X124433876Y-75897304D02*
X124891019Y-75897304D01*
X124662447Y-76697304D02*
X124662447Y-75897304D01*
X125157685Y-76697304D02*
X125157685Y-75897304D01*
X125462447Y-75897304D01*
X125538638Y-75935400D01*
X125576733Y-75973495D01*
X125614828Y-76049685D01*
X125614828Y-76163971D01*
X125576733Y-76240161D01*
X125538638Y-76278257D01*
X125462447Y-76316352D01*
X125157685Y-76316352D01*
X126300542Y-75897304D02*
X126148161Y-75897304D01*
X126071971Y-75935400D01*
X126033876Y-75973495D01*
X125957685Y-76087780D01*
X125919590Y-76240161D01*
X125919590Y-76544923D01*
X125957685Y-76621114D01*
X125995780Y-76659209D01*
X126071971Y-76697304D01*
X126224352Y-76697304D01*
X126300542Y-76659209D01*
X126338638Y-76621114D01*
X126376733Y-76544923D01*
X126376733Y-76354447D01*
X126338638Y-76278257D01*
X126300542Y-76240161D01*
X126224352Y-76202066D01*
X126071971Y-76202066D01*
X125995780Y-76240161D01*
X125957685Y-76278257D01*
X125919590Y-76354447D01*
X139275676Y-70152304D02*
X139732819Y-70152304D01*
X139504247Y-70952304D02*
X139504247Y-70152304D01*
X139999485Y-70952304D02*
X139999485Y-70152304D01*
X140304247Y-70152304D01*
X140380438Y-70190400D01*
X140418533Y-70228495D01*
X140456628Y-70304685D01*
X140456628Y-70418971D01*
X140418533Y-70495161D01*
X140380438Y-70533257D01*
X140304247Y-70571352D01*
X139999485Y-70571352D01*
X140723295Y-70152304D02*
X141256628Y-70152304D01*
X140913771Y-70952304D01*
X157758676Y-81993304D02*
X158215819Y-81993304D01*
X157987247Y-82793304D02*
X157987247Y-81993304D01*
X158482485Y-82793304D02*
X158482485Y-81993304D01*
X158787247Y-81993304D01*
X158863438Y-82031400D01*
X158901533Y-82069495D01*
X158939628Y-82145685D01*
X158939628Y-82259971D01*
X158901533Y-82336161D01*
X158863438Y-82374257D01*
X158787247Y-82412352D01*
X158482485Y-82412352D01*
X159396771Y-82336161D02*
X159320580Y-82298066D01*
X159282485Y-82259971D01*
X159244390Y-82183780D01*
X159244390Y-82145685D01*
X159282485Y-82069495D01*
X159320580Y-82031400D01*
X159396771Y-81993304D01*
X159549152Y-81993304D01*
X159625342Y-82031400D01*
X159663438Y-82069495D01*
X159701533Y-82145685D01*
X159701533Y-82183780D01*
X159663438Y-82259971D01*
X159625342Y-82298066D01*
X159549152Y-82336161D01*
X159396771Y-82336161D01*
X159320580Y-82374257D01*
X159282485Y-82412352D01*
X159244390Y-82488542D01*
X159244390Y-82640923D01*
X159282485Y-82717114D01*
X159320580Y-82755209D01*
X159396771Y-82793304D01*
X159549152Y-82793304D01*
X159625342Y-82755209D01*
X159663438Y-82717114D01*
X159701533Y-82640923D01*
X159701533Y-82488542D01*
X159663438Y-82412352D01*
X159625342Y-82374257D01*
X159549152Y-82336161D01*
X119466590Y-76316031D02*
X119466590Y-75674909D01*
X119619239Y-75674909D01*
X119710827Y-75705439D01*
X119771887Y-75766498D01*
X119802416Y-75827557D01*
X119832946Y-75949675D01*
X119832946Y-76041264D01*
X119802416Y-76163383D01*
X119771887Y-76224442D01*
X119710827Y-76285501D01*
X119619239Y-76316031D01*
X119466590Y-76316031D01*
X120443538Y-76316031D02*
X120077183Y-76316031D01*
X120260361Y-76316031D02*
X120260361Y-75674909D01*
X120199301Y-75766498D01*
X120138242Y-75827557D01*
X120077183Y-75858087D01*
%LPC*%
D17*
X110665000Y-96600000D03*
X105665000Y-96600000D03*
D18*
X152655000Y-58017400D03*
X155195000Y-58017400D03*
D19*
X119344800Y-97590600D03*
G36*
G01*
X124995600Y-96990600D02*
X124995600Y-98190600D01*
G75*
G02*
X124944800Y-98241400I-50800J0D01*
G01*
X123744800Y-98241400D01*
G75*
G02*
X123694000Y-98190600I0J50800D01*
G01*
X123694000Y-96990600D01*
G75*
G02*
X123744800Y-96939800I50800J0D01*
G01*
X124944800Y-96939800D01*
G75*
G02*
X124995600Y-96990600I0J-50800D01*
G01*
G37*
G36*
G01*
X152129600Y-69464800D02*
X152129600Y-67956800D01*
G75*
G02*
X152180400Y-67906000I50800J0D01*
G01*
X153688400Y-67906000D01*
G75*
G02*
X153739200Y-67956800I0J-50800D01*
G01*
X153739200Y-69464800D01*
G75*
G02*
X153688400Y-69515600I-50800J0D01*
G01*
X152180400Y-69515600D01*
G75*
G02*
X152129600Y-69464800I0J50800D01*
G01*
G37*
D20*
X155474400Y-68710800D03*
G36*
G01*
X113242600Y-87147600D02*
X113242600Y-85427600D01*
G75*
G02*
X113293400Y-85376800I50800J0D01*
G01*
X114343400Y-85376800D01*
G75*
G02*
X114394200Y-85427600I0J-50800D01*
G01*
X114394200Y-87147600D01*
G75*
G02*
X114343400Y-87198400I-50800J0D01*
G01*
X113293400Y-87198400D01*
G75*
G02*
X113242600Y-87147600I0J50800D01*
G01*
G37*
G36*
G01*
X110322600Y-87147600D02*
X110322600Y-85427600D01*
G75*
G02*
X110373400Y-85376800I50800J0D01*
G01*
X111423400Y-85376800D01*
G75*
G02*
X111474200Y-85427600I0J-50800D01*
G01*
X111474200Y-87147600D01*
G75*
G02*
X111423400Y-87198400I-50800J0D01*
G01*
X110373400Y-87198400D01*
G75*
G02*
X110322600Y-87147600I0J50800D01*
G01*
G37*
G36*
G01*
X111676800Y-78904200D02*
X111676800Y-80412200D01*
G75*
G02*
X111626000Y-80463000I-50800J0D01*
G01*
X110118000Y-80463000D01*
G75*
G02*
X110067200Y-80412200I0J50800D01*
G01*
X110067200Y-78904200D01*
G75*
G02*
X110118000Y-78853400I50800J0D01*
G01*
X111626000Y-78853400D01*
G75*
G02*
X111676800Y-78904200I0J-50800D01*
G01*
G37*
X108332000Y-79658200D03*
D21*
X146076400Y-99876600D03*
X131090400Y-93679000D03*
D22*
X142571200Y-95685600D03*
X138583400Y-95685600D03*
X134595600Y-95685600D03*
G36*
G01*
X124384800Y-62665600D02*
X127305800Y-62665600D01*
G75*
G02*
X127356600Y-62716400I0J-50800D01*
G01*
X127356600Y-65967600D01*
G75*
G02*
X127305800Y-66018400I-50800J0D01*
G01*
X124384800Y-66018400D01*
G75*
G02*
X124334000Y-65967600I0J50800D01*
G01*
X124334000Y-62716400D01*
G75*
G02*
X124384800Y-62665600I50800J0D01*
G01*
G37*
G36*
G01*
X132944600Y-62665600D02*
X135865600Y-62665600D01*
G75*
G02*
X135916400Y-62716400I0J-50800D01*
G01*
X135916400Y-65967600D01*
G75*
G02*
X135865600Y-66018400I-50800J0D01*
G01*
X132944600Y-66018400D01*
G75*
G02*
X132893800Y-65967600I0J50800D01*
G01*
X132893800Y-62716400D01*
G75*
G02*
X132944600Y-62665600I50800J0D01*
G01*
G37*
G36*
G01*
X149208600Y-80818600D02*
X149208600Y-79310600D01*
G75*
G02*
X149259400Y-79259800I50800J0D01*
G01*
X150767400Y-79259800D01*
G75*
G02*
X150818200Y-79310600I0J-50800D01*
G01*
X150818200Y-80818600D01*
G75*
G02*
X150767400Y-80869400I-50800J0D01*
G01*
X149259400Y-80869400D01*
G75*
G02*
X149208600Y-80818600I0J50800D01*
G01*
G37*
D20*
X152553400Y-80064600D03*
G36*
G01*
X110389400Y-71582400D02*
X109322600Y-71582400D01*
G75*
G02*
X109271800Y-71531600I0J50800D01*
G01*
X109271800Y-68531600D01*
G75*
G02*
X109322600Y-68480800I50800J0D01*
G01*
X110389400Y-68480800D01*
G75*
G02*
X110440200Y-68531600I0J-50800D01*
G01*
X110440200Y-71531600D01*
G75*
G02*
X110389400Y-71582400I-50800J0D01*
G01*
G37*
G36*
G01*
X108687600Y-71582400D02*
X107620800Y-71582400D01*
G75*
G02*
X107570000Y-71531600I0J50800D01*
G01*
X107570000Y-68531600D01*
G75*
G02*
X107620800Y-68480800I50800J0D01*
G01*
X108687600Y-68480800D01*
G75*
G02*
X108738400Y-68531600I0J-50800D01*
G01*
X108738400Y-71531600D01*
G75*
G02*
X108687600Y-71582400I-50800J0D01*
G01*
G37*
G36*
G01*
X106985800Y-71582400D02*
X105919000Y-71582400D01*
G75*
G02*
X105868200Y-71531600I0J50800D01*
G01*
X105868200Y-68531600D01*
G75*
G02*
X105919000Y-68480800I50800J0D01*
G01*
X106985800Y-68480800D01*
G75*
G02*
X107036600Y-68531600I0J-50800D01*
G01*
X107036600Y-71531600D01*
G75*
G02*
X106985800Y-71582400I-50800J0D01*
G01*
G37*
G36*
G01*
X105284000Y-71582400D02*
X104217200Y-71582400D01*
G75*
G02*
X104166400Y-71531600I0J50800D01*
G01*
X104166400Y-68531600D01*
G75*
G02*
X104217200Y-68480800I50800J0D01*
G01*
X105284000Y-68480800D01*
G75*
G02*
X105334800Y-68531600I0J-50800D01*
G01*
X105334800Y-71531600D01*
G75*
G02*
X105284000Y-71582400I-50800J0D01*
G01*
G37*
G36*
G01*
X103582200Y-71582400D02*
X102515400Y-71582400D01*
G75*
G02*
X102464600Y-71531600I0J50800D01*
G01*
X102464600Y-68531600D01*
G75*
G02*
X102515400Y-68480800I50800J0D01*
G01*
X103582200Y-68480800D01*
G75*
G02*
X103633000Y-68531600I0J-50800D01*
G01*
X103633000Y-71531600D01*
G75*
G02*
X103582200Y-71582400I-50800J0D01*
G01*
G37*
G36*
G01*
X111852400Y-65956200D02*
X101052400Y-65956200D01*
G75*
G02*
X101001600Y-65905400I0J50800D01*
G01*
X101001600Y-55495400D01*
G75*
G02*
X101052400Y-55444600I50800J0D01*
G01*
X111852400Y-55444600D01*
G75*
G02*
X111903200Y-55495400I0J-50800D01*
G01*
X111903200Y-65905400D01*
G75*
G02*
X111852400Y-65956200I-50800J0D01*
G01*
G37*
G36*
G01*
X147929200Y-88127600D02*
X149659200Y-88127600D01*
G75*
G02*
X149710000Y-88178400I0J-50800D01*
G01*
X149710000Y-89148400D01*
G75*
G02*
X149659200Y-89199200I-50800J0D01*
G01*
X147929200Y-89199200D01*
G75*
G02*
X147878400Y-89148400I0J50800D01*
G01*
X147878400Y-88178400D01*
G75*
G02*
X147929200Y-88127600I50800J0D01*
G01*
G37*
G36*
G01*
X147929200Y-85167600D02*
X149659200Y-85167600D01*
G75*
G02*
X149710000Y-85218400I0J-50800D01*
G01*
X149710000Y-86188400D01*
G75*
G02*
X149659200Y-86239200I-50800J0D01*
G01*
X147929200Y-86239200D01*
G75*
G02*
X147878400Y-86188400I0J50800D01*
G01*
X147878400Y-85218400D01*
G75*
G02*
X147929200Y-85167600I50800J0D01*
G01*
G37*
G36*
G01*
X148179200Y-72135800D02*
X148179200Y-70365800D01*
G75*
G02*
X148230000Y-70315000I50800J0D01*
G01*
X149460000Y-70315000D01*
G75*
G02*
X149510800Y-70365800I0J-50800D01*
G01*
X149510800Y-72135800D01*
G75*
G02*
X149460000Y-72186600I-50800J0D01*
G01*
X148230000Y-72186600D01*
G75*
G02*
X148179200Y-72135800I0J50800D01*
G01*
G37*
G36*
G01*
X145247200Y-72135800D02*
X145247200Y-70365800D01*
G75*
G02*
X145298000Y-70315000I50800J0D01*
G01*
X146528000Y-70315000D01*
G75*
G02*
X146578800Y-70365800I0J-50800D01*
G01*
X146578800Y-72135800D01*
G75*
G02*
X146528000Y-72186600I-50800J0D01*
G01*
X145298000Y-72186600D01*
G75*
G02*
X145247200Y-72135800I0J50800D01*
G01*
G37*
G36*
G01*
X141098000Y-85462100D02*
X141098000Y-87163900D01*
G75*
G02*
X141047200Y-87214700I-50800J0D01*
G01*
X139929600Y-87214700D01*
G75*
G02*
X139878800Y-87163900I0J50800D01*
G01*
X139878800Y-85462100D01*
G75*
G02*
X139929600Y-85411300I50800J0D01*
G01*
X141047200Y-85411300D01*
G75*
G02*
X141098000Y-85462100I0J-50800D01*
G01*
G37*
G36*
G01*
X143688800Y-85462100D02*
X143688800Y-87163900D01*
G75*
G02*
X143638000Y-87214700I-50800J0D01*
G01*
X142520400Y-87214700D01*
G75*
G02*
X142469600Y-87163900I0J50800D01*
G01*
X142469600Y-85462100D01*
G75*
G02*
X142520400Y-85411300I50800J0D01*
G01*
X143638000Y-85411300D01*
G75*
G02*
X143688800Y-85462100I0J-50800D01*
G01*
G37*
G36*
G01*
X132754100Y-88116400D02*
X134455900Y-88116400D01*
G75*
G02*
X134506700Y-88167200I0J-50800D01*
G01*
X134506700Y-89284800D01*
G75*
G02*
X134455900Y-89335600I-50800J0D01*
G01*
X132754100Y-89335600D01*
G75*
G02*
X132703300Y-89284800I0J50800D01*
G01*
X132703300Y-88167200D01*
G75*
G02*
X132754100Y-88116400I50800J0D01*
G01*
G37*
G36*
G01*
X132754100Y-85525600D02*
X134455900Y-85525600D01*
G75*
G02*
X134506700Y-85576400I0J-50800D01*
G01*
X134506700Y-86694000D01*
G75*
G02*
X134455900Y-86744800I-50800J0D01*
G01*
X132754100Y-86744800D01*
G75*
G02*
X132703300Y-86694000I0J50800D01*
G01*
X132703300Y-85576400D01*
G75*
G02*
X132754100Y-85525600I50800J0D01*
G01*
G37*
G36*
G01*
X119800100Y-88802200D02*
X121501900Y-88802200D01*
G75*
G02*
X121552700Y-88853000I0J-50800D01*
G01*
X121552700Y-89970600D01*
G75*
G02*
X121501900Y-90021400I-50800J0D01*
G01*
X119800100Y-90021400D01*
G75*
G02*
X119749300Y-89970600I0J50800D01*
G01*
X119749300Y-88853000D01*
G75*
G02*
X119800100Y-88802200I50800J0D01*
G01*
G37*
G36*
G01*
X119800100Y-86211400D02*
X121501900Y-86211400D01*
G75*
G02*
X121552700Y-86262200I0J-50800D01*
G01*
X121552700Y-87379800D01*
G75*
G02*
X121501900Y-87430600I-50800J0D01*
G01*
X119800100Y-87430600D01*
G75*
G02*
X119749300Y-87379800I0J50800D01*
G01*
X119749300Y-86262200D01*
G75*
G02*
X119800100Y-86211400I50800J0D01*
G01*
G37*
G36*
G01*
X147424000Y-57701400D02*
X145694000Y-57701400D01*
G75*
G02*
X145643200Y-57650600I0J50800D01*
G01*
X145643200Y-56680600D01*
G75*
G02*
X145694000Y-56629800I50800J0D01*
G01*
X147424000Y-56629800D01*
G75*
G02*
X147474800Y-56680600I0J-50800D01*
G01*
X147474800Y-57650600D01*
G75*
G02*
X147424000Y-57701400I-50800J0D01*
G01*
G37*
G36*
G01*
X147424000Y-60661400D02*
X145694000Y-60661400D01*
G75*
G02*
X145643200Y-60610600I0J50800D01*
G01*
X145643200Y-59640600D01*
G75*
G02*
X145694000Y-59589800I50800J0D01*
G01*
X147424000Y-59589800D01*
G75*
G02*
X147474800Y-59640600I0J-50800D01*
G01*
X147474800Y-60610600D01*
G75*
G02*
X147424000Y-60661400I-50800J0D01*
G01*
G37*
G36*
G01*
X149051800Y-94863200D02*
X150771800Y-94863200D01*
G75*
G02*
X150822600Y-94914000I0J-50800D01*
G01*
X150822600Y-96254000D01*
G75*
G02*
X150771800Y-96304800I-50800J0D01*
G01*
X149051800Y-96304800D01*
G75*
G02*
X149001000Y-96254000I0J50800D01*
G01*
X149001000Y-94914000D01*
G75*
G02*
X149051800Y-94863200I50800J0D01*
G01*
G37*
G36*
G01*
X149051800Y-92183200D02*
X150771800Y-92183200D01*
G75*
G02*
X150822600Y-92234000I0J-50800D01*
G01*
X150822600Y-93574000D01*
G75*
G02*
X150771800Y-93624800I-50800J0D01*
G01*
X149051800Y-93624800D01*
G75*
G02*
X149001000Y-93574000I0J50800D01*
G01*
X149001000Y-92234000D01*
G75*
G02*
X149051800Y-92183200I50800J0D01*
G01*
G37*
G36*
G01*
X143960200Y-78066000D02*
X143960200Y-79574000D01*
G75*
G02*
X143909400Y-79624800I-50800J0D01*
G01*
X142401400Y-79624800D01*
G75*
G02*
X142350600Y-79574000I0J50800D01*
G01*
X142350600Y-78066000D01*
G75*
G02*
X142401400Y-78015200I50800J0D01*
G01*
X143909400Y-78015200D01*
G75*
G02*
X143960200Y-78066000I0J-50800D01*
G01*
G37*
X140615400Y-78820000D03*
X133605000Y-79048600D03*
X131065000Y-79048600D03*
G36*
G01*
X120082000Y-57962600D02*
X120082000Y-60143000D01*
G75*
G02*
X120031200Y-60193800I-50800J0D01*
G01*
X116851200Y-60193800D01*
G75*
G02*
X116800400Y-60143000I0J50800D01*
G01*
X116800400Y-57962600D01*
G75*
G02*
X116851200Y-57911800I50800J0D01*
G01*
X120031200Y-57911800D01*
G75*
G02*
X120082000Y-57962600I0J-50800D01*
G01*
G37*
G36*
G01*
X120082000Y-64217000D02*
X120082000Y-66397400D01*
G75*
G02*
X120031200Y-66448200I-50800J0D01*
G01*
X116851200Y-66448200D01*
G75*
G02*
X116800400Y-66397400I0J50800D01*
G01*
X116800400Y-64217000D01*
G75*
G02*
X116851200Y-64166200I50800J0D01*
G01*
X120031200Y-64166200D01*
G75*
G02*
X120082000Y-64217000I0J-50800D01*
G01*
G37*
G36*
G01*
X140476600Y-58537200D02*
X140476600Y-56837200D01*
G75*
G02*
X140527400Y-56786400I50800J0D01*
G01*
X142227400Y-56786400D01*
G75*
G02*
X142278200Y-56837200I0J-50800D01*
G01*
X142278200Y-58537200D01*
G75*
G02*
X142227400Y-58588000I-50800J0D01*
G01*
X140527400Y-58588000D01*
G75*
G02*
X140476600Y-58537200I0J50800D01*
G01*
G37*
D23*
X141377400Y-60227200D03*
X141377400Y-62767200D03*
G36*
G01*
X159856800Y-57521200D02*
X159856800Y-55821200D01*
G75*
G02*
X159907600Y-55770400I50800J0D01*
G01*
X161607600Y-55770400D01*
G75*
G02*
X161658400Y-55821200I0J-50800D01*
G01*
X161658400Y-57521200D01*
G75*
G02*
X161607600Y-57572000I-50800J0D01*
G01*
X159907600Y-57572000D01*
G75*
G02*
X159856800Y-57521200I0J50800D01*
G01*
G37*
X160757600Y-59211200D03*
X160757600Y-61751200D03*
X160757600Y-64291200D03*
X160757600Y-66831200D03*
X160757600Y-69371200D03*
X160757600Y-71911200D03*
X160757600Y-74451200D03*
D24*
X161496000Y-92105400D03*
D25*
X156846000Y-95355400D03*
X156846000Y-89425400D03*
G36*
G01*
X104199600Y-78297800D02*
X104199600Y-79697800D01*
G75*
G02*
X104148800Y-79748600I-50800J0D01*
G01*
X101948800Y-79748600D01*
G75*
G02*
X101898000Y-79697800I0J50800D01*
G01*
X101898000Y-78297800D01*
G75*
G02*
X101948800Y-78247000I50800J0D01*
G01*
X104148800Y-78247000D01*
G75*
G02*
X104199600Y-78297800I0J-50800D01*
G01*
G37*
G36*
G01*
X118118800Y-71947800D02*
X118118800Y-73347800D01*
G75*
G02*
X118068000Y-73398600I-50800J0D01*
G01*
X115868000Y-73398600D01*
G75*
G02*
X115817200Y-73347800I0J50800D01*
G01*
X115817200Y-71947800D01*
G75*
G02*
X115868000Y-71897000I50800J0D01*
G01*
X118068000Y-71897000D01*
G75*
G02*
X118118800Y-71947800I0J-50800D01*
G01*
G37*
G36*
G01*
X147455800Y-62397400D02*
X147455800Y-63797400D01*
G75*
G02*
X147405000Y-63848200I-50800J0D01*
G01*
X145205000Y-63848200D01*
G75*
G02*
X145154200Y-63797400I0J50800D01*
G01*
X145154200Y-62397400D01*
G75*
G02*
X145205000Y-62346600I50800J0D01*
G01*
X147405000Y-62346600D01*
G75*
G02*
X147455800Y-62397400I0J-50800D01*
G01*
G37*
G36*
G01*
X125723200Y-88714800D02*
X125723200Y-87314800D01*
G75*
G02*
X125774000Y-87264000I50800J0D01*
G01*
X127974000Y-87264000D01*
G75*
G02*
X128024800Y-87314800I0J-50800D01*
G01*
X128024800Y-88714800D01*
G75*
G02*
X127974000Y-88765600I-50800J0D01*
G01*
X125774000Y-88765600D01*
G75*
G02*
X125723200Y-88714800I0J50800D01*
G01*
G37*
G36*
G01*
X118855400Y-45404800D02*
X118855400Y-46804800D01*
G75*
G02*
X118804600Y-46855600I-50800J0D01*
G01*
X116604600Y-46855600D01*
G75*
G02*
X116553800Y-46804800I0J50800D01*
G01*
X116553800Y-45404800D01*
G75*
G02*
X116604600Y-45354000I50800J0D01*
G01*
X118804600Y-45354000D01*
G75*
G02*
X118855400Y-45404800I0J-50800D01*
G01*
G37*
G36*
G01*
X127034200Y-73827400D02*
X127034200Y-75227400D01*
G75*
G02*
X126983400Y-75278200I-50800J0D01*
G01*
X124783400Y-75278200D01*
G75*
G02*
X124732600Y-75227400I0J50800D01*
G01*
X124732600Y-73827400D01*
G75*
G02*
X124783400Y-73776600I50800J0D01*
G01*
X126983400Y-73776600D01*
G75*
G02*
X127034200Y-73827400I0J-50800D01*
G01*
G37*
G36*
G01*
X141410600Y-71668400D02*
X141410600Y-73068400D01*
G75*
G02*
X141359800Y-73119200I-50800J0D01*
G01*
X139159800Y-73119200D01*
G75*
G02*
X139109000Y-73068400I0J50800D01*
G01*
X139109000Y-71668400D01*
G75*
G02*
X139159800Y-71617600I50800J0D01*
G01*
X141359800Y-71617600D01*
G75*
G02*
X141410600Y-71668400I0J-50800D01*
G01*
G37*
G36*
G01*
X160359000Y-79923400D02*
X160359000Y-81323400D01*
G75*
G02*
X160308200Y-81374200I-50800J0D01*
G01*
X158108200Y-81374200D01*
G75*
G02*
X158057400Y-81323400I0J50800D01*
G01*
X158057400Y-79923400D01*
G75*
G02*
X158108200Y-79872600I50800J0D01*
G01*
X160308200Y-79872600D01*
G75*
G02*
X160359000Y-79923400I0J-50800D01*
G01*
G37*
G36*
G01*
X117865000Y-80513800D02*
X117865000Y-79005800D01*
G75*
G02*
X117915800Y-78955000I50800J0D01*
G01*
X119423800Y-78955000D01*
G75*
G02*
X119474600Y-79005800I0J-50800D01*
G01*
X119474600Y-80513800D01*
G75*
G02*
X119423800Y-80564600I-50800J0D01*
G01*
X117915800Y-80564600D01*
G75*
G02*
X117865000Y-80513800I0J50800D01*
G01*
G37*
D20*
X121209800Y-79759800D03*
G36*
G01*
X107405800Y-52112800D02*
X109105800Y-52112800D01*
G75*
G02*
X109156600Y-52163600I0J-50800D01*
G01*
X109156600Y-53863600D01*
G75*
G02*
X109105800Y-53914400I-50800J0D01*
G01*
X107405800Y-53914400D01*
G75*
G02*
X107355000Y-53863600I0J50800D01*
G01*
X107355000Y-52163600D01*
G75*
G02*
X107405800Y-52112800I50800J0D01*
G01*
G37*
D23*
X108255800Y-50473600D03*
X110795800Y-53013600D03*
X110795800Y-50473600D03*
X113335800Y-53013600D03*
X113335800Y-50473600D03*
X115875800Y-53013600D03*
X115875800Y-50473600D03*
X118415800Y-53013600D03*
X118415800Y-50473600D03*
X120955800Y-53013600D03*
X120955800Y-50473600D03*
X123495800Y-53013600D03*
X123495800Y-50473600D03*
X126035800Y-53013600D03*
X126035800Y-50473600D03*
X128575800Y-53013600D03*
X128575800Y-50473600D03*
X131115800Y-53013600D03*
X131115800Y-50473600D03*
X133655800Y-53013600D03*
X133655800Y-50473600D03*
X136195800Y-53013600D03*
X136195800Y-50473600D03*
X138735800Y-53013600D03*
X138735800Y-50473600D03*
X141275800Y-53013600D03*
X141275800Y-50473600D03*
X143815800Y-53013600D03*
X143815800Y-50473600D03*
X146355800Y-53013600D03*
X146355800Y-50473600D03*
X148895800Y-53013600D03*
X148895800Y-50473600D03*
X151435800Y-53013600D03*
X151435800Y-50473600D03*
X153975800Y-53013600D03*
X153975800Y-50473600D03*
X156515800Y-53013600D03*
X156515800Y-50473600D03*
M02*
