G04 #@! TF.GenerationSoftware,KiCad,Pcbnew,(5.1.10-1-10_14)*
G04 #@! TF.CreationDate,2021-11-26T00:33:47-05:00*
G04 #@! TF.ProjectId,tool_circuit,746f6f6c-5f63-4697-9263-7569742e6b69,1.0*
G04 #@! TF.SameCoordinates,Original*
G04 #@! TF.FileFunction,Copper,L1,Top*
G04 #@! TF.FilePolarity,Positive*
%FSLAX46Y46*%
G04 Gerber Fmt 4.6, Leading zero omitted, Abs format (unit mm)*
G04 Created by KiCad (PCBNEW (5.1.10-1-10_14)) date 2021-11-26 00:33:47*
%MOMM*%
%LPD*%
G01*
G04 APERTURE LIST*
G04 #@! TA.AperFunction,ComponentPad*
%ADD10C,1.200000*%
G04 #@! TD*
G04 #@! TA.AperFunction,ComponentPad*
%ADD11R,1.200000X1.200000*%
G04 #@! TD*
G04 #@! TA.AperFunction,ComponentPad*
%ADD12R,1.508000X1.508000*%
G04 #@! TD*
G04 #@! TA.AperFunction,ComponentPad*
%ADD13C,1.508000*%
G04 #@! TD*
G04 #@! TA.AperFunction,SMDPad,CuDef*
%ADD14R,1.050000X1.720000*%
G04 #@! TD*
G04 #@! TA.AperFunction,ComponentPad*
%ADD15C,1.905000*%
G04 #@! TD*
G04 #@! TA.AperFunction,ComponentPad*
%ADD16C,1.397000*%
G04 #@! TD*
G04 #@! TA.AperFunction,SMDPad,CuDef*
%ADD17R,1.066800X3.000000*%
G04 #@! TD*
G04 #@! TA.AperFunction,SMDPad,CuDef*
%ADD18R,10.800000X10.410000*%
G04 #@! TD*
G04 #@! TA.AperFunction,SMDPad,CuDef*
%ADD19R,1.730000X0.970000*%
G04 #@! TD*
G04 #@! TA.AperFunction,SMDPad,CuDef*
%ADD20R,1.230000X1.770000*%
G04 #@! TD*
G04 #@! TA.AperFunction,ComponentPad*
%ADD21R,1.700000X1.700000*%
G04 #@! TD*
G04 #@! TA.AperFunction,ComponentPad*
%ADD22O,1.700000X1.700000*%
G04 #@! TD*
G04 #@! TA.AperFunction,ComponentPad*
%ADD23O,1.900000X3.800000*%
G04 #@! TD*
G04 #@! TA.AperFunction,ComponentPad*
%ADD24O,3.800000X1.900000*%
G04 #@! TD*
G04 #@! TA.AperFunction,SMDPad,CuDef*
%ADD25R,2.200000X1.400000*%
G04 #@! TD*
G04 #@! TA.AperFunction,ComponentPad*
%ADD26C,1.371600*%
G04 #@! TD*
G04 #@! TA.AperFunction,SMDPad,CuDef*
%ADD27R,3.180001X2.180400*%
G04 #@! TD*
G04 #@! TA.AperFunction,SMDPad,CuDef*
%ADD28R,2.921000X3.251200*%
G04 #@! TD*
G04 #@! TA.AperFunction,ComponentPad*
%ADD29C,1.270000*%
G04 #@! TD*
G04 #@! TA.AperFunction,SMDPad,CuDef*
%ADD30R,1.340000X1.720000*%
G04 #@! TD*
G04 #@! TA.AperFunction,SMDPad,CuDef*
%ADD31R,1.720000X1.340000*%
G04 #@! TD*
G04 #@! TA.AperFunction,ViaPad*
%ADD32C,0.685800*%
G04 #@! TD*
G04 #@! TA.AperFunction,Conductor*
%ADD33C,0.254000*%
G04 #@! TD*
G04 #@! TA.AperFunction,Conductor*
%ADD34C,0.508000*%
G04 #@! TD*
G04 #@! TA.AperFunction,Conductor*
%ADD35C,0.153300*%
G04 #@! TD*
G04 APERTURE END LIST*
D10*
X119344800Y-97590600D03*
D11*
X124344800Y-97590600D03*
D12*
X152934400Y-68710800D03*
D13*
X155474400Y-68710800D03*
D14*
X113818400Y-86287600D03*
X110898400Y-86287600D03*
D12*
X110872000Y-79658200D03*
D13*
X108332000Y-79658200D03*
D15*
X146076400Y-99876600D03*
X131090400Y-93679000D03*
D16*
X142571200Y-95685600D03*
X138583400Y-95685600D03*
X134595600Y-95685600D03*
D12*
X150013400Y-80064600D03*
D13*
X152553400Y-80064600D03*
D17*
X109856000Y-70031600D03*
X108154200Y-70031600D03*
X106452400Y-70031600D03*
X104750600Y-70031600D03*
X103048800Y-70031600D03*
D18*
X106452400Y-60700400D03*
D19*
X148794200Y-88663400D03*
X148794200Y-85703400D03*
D20*
X148845000Y-71250800D03*
X145913000Y-71250800D03*
D19*
X146559000Y-57165600D03*
X146559000Y-60125600D03*
D12*
X143155400Y-78820000D03*
D13*
X140615400Y-78820000D03*
X133605000Y-79048600D03*
X131065000Y-79048600D03*
D21*
X141377400Y-57687200D03*
D22*
X141377400Y-60227200D03*
X141377400Y-62767200D03*
D21*
X160757600Y-56671200D03*
D22*
X160757600Y-59211200D03*
X160757600Y-61751200D03*
X160757600Y-64291200D03*
X160757600Y-66831200D03*
X160757600Y-69371200D03*
X160757600Y-71911200D03*
X160757600Y-74451200D03*
D23*
X161496000Y-92105400D03*
D24*
X156846000Y-95355400D03*
X156846000Y-89425400D03*
D25*
X103048800Y-78997800D03*
X116968000Y-72647800D03*
X146305000Y-63097400D03*
X126874000Y-88014800D03*
X117704600Y-46104800D03*
X129058400Y-73181200D03*
X140259800Y-72368400D03*
X159208200Y-80623400D03*
D12*
X118669800Y-79759800D03*
D13*
X121209800Y-79759800D03*
D22*
X156515800Y-50473600D03*
X156515800Y-53013600D03*
X153975800Y-50473600D03*
X153975800Y-53013600D03*
X151435800Y-50473600D03*
X151435800Y-53013600D03*
X148895800Y-50473600D03*
X148895800Y-53013600D03*
X146355800Y-50473600D03*
X146355800Y-53013600D03*
X143815800Y-50473600D03*
X143815800Y-53013600D03*
X141275800Y-50473600D03*
X141275800Y-53013600D03*
X138735800Y-50473600D03*
X138735800Y-53013600D03*
X136195800Y-50473600D03*
X136195800Y-53013600D03*
X133655800Y-50473600D03*
X133655800Y-53013600D03*
X131115800Y-50473600D03*
X131115800Y-53013600D03*
X128575800Y-50473600D03*
X128575800Y-53013600D03*
X126035800Y-50473600D03*
X126035800Y-53013600D03*
X123495800Y-50473600D03*
X123495800Y-53013600D03*
X120955800Y-50473600D03*
X120955800Y-53013600D03*
X118415800Y-50473600D03*
X118415800Y-53013600D03*
X115875800Y-50473600D03*
X115875800Y-53013600D03*
X113335800Y-50473600D03*
X113335800Y-53013600D03*
X110795800Y-50473600D03*
X110795800Y-53013600D03*
X108255800Y-50473600D03*
D21*
X108255800Y-53013600D03*
D26*
X106503200Y-96803200D03*
X111503200Y-96803200D03*
D27*
X116841000Y-66300800D03*
X116841000Y-60046400D03*
D28*
X134913100Y-64367400D03*
X126353300Y-64367400D03*
D29*
X151867600Y-60201800D03*
X154407600Y-60201800D03*
D30*
X131147400Y-46130200D03*
X133827400Y-46130200D03*
X118771400Y-87303600D03*
X121451400Y-87303600D03*
D31*
X133122400Y-84306400D03*
X133122400Y-86986400D03*
X143384000Y-87291200D03*
X143384000Y-84611200D03*
D32*
X110211600Y-67136000D03*
X108611400Y-67161400D03*
X107341400Y-67186800D03*
X105842800Y-67186800D03*
X104141000Y-67161400D03*
X121997200Y-62386200D03*
X122911600Y-62386200D03*
X121057400Y-62386200D03*
X122911600Y-67212200D03*
X126340600Y-57484000D03*
X132106400Y-89894400D03*
X108179600Y-73587600D03*
X119965200Y-73663800D03*
X123419600Y-71962000D03*
X134671800Y-56899800D03*
X128550400Y-58931800D03*
X129134600Y-70361800D03*
X139269200Y-67136000D03*
X145797000Y-76330800D03*
X112675400Y-71149200D03*
X112853200Y-74349600D03*
X114250200Y-69777600D03*
X159259000Y-54512200D03*
D33*
X118557400Y-96803200D02*
X119344800Y-97590600D01*
X111503200Y-96803200D02*
X118557400Y-96803200D01*
X112104799Y-53604165D02*
X116841000Y-58340366D01*
X116841000Y-58340366D02*
X116841000Y-60046400D01*
X112104799Y-51704601D02*
X112104799Y-53604165D01*
X113335800Y-50473600D02*
X112104799Y-51704601D01*
D34*
X126874000Y-85424000D02*
X121209800Y-79759800D01*
X126874000Y-88014800D02*
X126874000Y-85424000D01*
X121209800Y-68914000D02*
X122911600Y-67212200D01*
X121209800Y-79759800D02*
X121209800Y-68914000D01*
X141377400Y-56583200D02*
X142203800Y-55756800D01*
X141377400Y-57687200D02*
X141377400Y-56583200D01*
X157303200Y-55756800D02*
X160757600Y-59211200D01*
X142203800Y-55756800D02*
X157303200Y-55756800D01*
X108255800Y-53013600D02*
X106096800Y-50854600D01*
X106096800Y-50810718D02*
X106122200Y-50785318D01*
X106096800Y-50854600D02*
X106096800Y-50810718D01*
X106122200Y-50785318D02*
X106122200Y-47984400D01*
X108001800Y-46104800D02*
X117704600Y-46104800D01*
X106122200Y-47984400D02*
X108001800Y-46104800D01*
X139091400Y-57687200D02*
X141377400Y-57687200D01*
X129460226Y-55960000D02*
X137364200Y-55960000D01*
X137364200Y-55960000D02*
X139091400Y-57687200D01*
X128575800Y-55075574D02*
X129460226Y-55960000D01*
X128575800Y-53013600D02*
X128575800Y-55075574D01*
X128575800Y-55248800D02*
X126340600Y-57484000D01*
X128575800Y-53013600D02*
X128575800Y-55248800D01*
X130226800Y-88014800D02*
X126874000Y-88014800D01*
X132106400Y-89894400D02*
X130226800Y-88014800D01*
X115393200Y-87913200D02*
X106503200Y-96803200D01*
X115393200Y-78337400D02*
X115393200Y-87913200D01*
X116968000Y-76762600D02*
X115393200Y-78337400D01*
X116968000Y-72647800D02*
X116968000Y-76762600D01*
X108154200Y-71049002D02*
X108154200Y-70031600D01*
X108154200Y-73562200D02*
X108179600Y-73587600D01*
X108154200Y-70031600D02*
X108154200Y-73562200D01*
X108179600Y-73587600D02*
X109754400Y-73587600D01*
X110694200Y-72647800D02*
X116968000Y-72647800D01*
X109754400Y-73587600D02*
X110694200Y-72647800D01*
X118949200Y-72647800D02*
X119965200Y-73663800D01*
X116968000Y-72647800D02*
X118949200Y-72647800D01*
X134849600Y-64367400D02*
X134913100Y-64367400D01*
X145217374Y-71250800D02*
X145913000Y-71250800D01*
X138333974Y-64367400D02*
X145217374Y-71250800D01*
X134913100Y-64367400D02*
X138333974Y-64367400D01*
X131014200Y-64367400D02*
X134913100Y-64367400D01*
X123419600Y-71962000D02*
X131014200Y-64367400D01*
X103048800Y-70031600D02*
X103048800Y-78997800D01*
X107671600Y-78997800D02*
X108332000Y-79658200D01*
X103048800Y-78997800D02*
X107671600Y-78997800D01*
X156846000Y-89425400D02*
X154649800Y-91621600D01*
X130313800Y-91621600D02*
X124344800Y-97590600D01*
X154649800Y-91621600D02*
X130313800Y-91621600D01*
D33*
X132639800Y-58931800D02*
X128550400Y-58931800D01*
X134671800Y-56899800D02*
X132639800Y-58931800D01*
X129134600Y-73105000D02*
X129058400Y-73181200D01*
X129134600Y-70361800D02*
X129134600Y-73105000D01*
X129058400Y-77042000D02*
X131065000Y-79048600D01*
X129058400Y-73181200D02*
X129058400Y-77042000D01*
X158649400Y-80064600D02*
X159208200Y-80623400D01*
X152553400Y-80064600D02*
X158649400Y-80064600D01*
X151791400Y-60125600D02*
X151867600Y-60201800D01*
X146559000Y-60125600D02*
X151791400Y-60125600D01*
X140615400Y-72724000D02*
X140259800Y-72368400D01*
X140615400Y-78820000D02*
X140615400Y-72724000D01*
X140259800Y-72368400D02*
X140259800Y-68329800D01*
X139269200Y-67339200D02*
X139269200Y-67136000D01*
X140259800Y-68329800D02*
X139269200Y-67339200D01*
X118669800Y-87202000D02*
X118771400Y-87303600D01*
X118669800Y-79759800D02*
X118669800Y-87202000D01*
X150013400Y-84484200D02*
X148794200Y-85703400D01*
X150013400Y-80064600D02*
X150013400Y-84484200D01*
X133605000Y-83823800D02*
X133122400Y-84306400D01*
X133605000Y-79048600D02*
X133605000Y-83823800D01*
X143155400Y-84382600D02*
X143384000Y-84611200D01*
X143155400Y-78820000D02*
X143155400Y-84382600D01*
X152934400Y-71250800D02*
X155474400Y-68710800D01*
X148845000Y-71250800D02*
X152934400Y-71250800D01*
X110872000Y-86261200D02*
X110898400Y-86287600D01*
X110872000Y-79658200D02*
X110872000Y-86261200D01*
X161988601Y-75042081D02*
X161988601Y-73142201D01*
X160699882Y-76330800D02*
X161988601Y-75042081D01*
X161988601Y-73142201D02*
X160757600Y-71911200D01*
X145797000Y-76330800D02*
X160699882Y-76330800D01*
X112233401Y-70707201D02*
X112675400Y-71149200D01*
X112233401Y-54451201D02*
X112233401Y-70707201D01*
X110795800Y-53013600D02*
X112233401Y-54451201D01*
X123495800Y-53013600D02*
X123495800Y-58601600D01*
X125121400Y-60227200D02*
X141377400Y-60227200D01*
X123495800Y-58601600D02*
X125121400Y-60227200D01*
X116999004Y-54244601D02*
X114566801Y-54244601D01*
X123489613Y-60735210D02*
X116999004Y-54244601D01*
X136115844Y-60735210D02*
X123489613Y-60735210D01*
X139559035Y-64178401D02*
X136115844Y-60735210D01*
X114566801Y-54244601D02*
X113335800Y-53013600D01*
X153815603Y-64178401D02*
X139559035Y-64178401D01*
X159526599Y-69889397D02*
X153815603Y-64178401D01*
X159526599Y-73220199D02*
X159526599Y-69889397D01*
X160757600Y-74451200D02*
X159526599Y-73220199D01*
X104750600Y-71785600D02*
X107568600Y-74603600D01*
X104750600Y-70031600D02*
X104750600Y-71785600D01*
X112599200Y-74603600D02*
X112853200Y-74349600D01*
X107568600Y-74603600D02*
X112599200Y-74603600D01*
X114250200Y-68891600D02*
X116841000Y-66300800D01*
X114250200Y-69777600D02*
X114250200Y-68891600D01*
X126353300Y-64367400D02*
X123368800Y-64367400D01*
X121435400Y-66300800D02*
X116841000Y-66300800D01*
X123368800Y-64367400D02*
X121435400Y-66300800D01*
X127344799Y-51704601D02*
X127344799Y-47158001D01*
X126035800Y-53013600D02*
X127344799Y-51704601D01*
X128372600Y-46130200D02*
X131147400Y-46130200D01*
X127344799Y-47158001D02*
X128372600Y-46130200D01*
X133827400Y-46130200D02*
X157481000Y-46130200D01*
X159259000Y-47908200D02*
X159259000Y-54512200D01*
X157481000Y-46130200D02*
X159259000Y-47908200D01*
X151512000Y-63097400D02*
X146305000Y-63097400D01*
X154407600Y-60201800D02*
X151512000Y-63097400D01*
X162171734Y-43073453D02*
X162598955Y-43202438D01*
X162992984Y-43411946D01*
X163338814Y-43693999D01*
X163623273Y-44037851D01*
X163835529Y-44430410D01*
X163967492Y-44856713D01*
X164017644Y-45333887D01*
X164169907Y-101921726D01*
X164123048Y-102399633D01*
X163994063Y-102826853D01*
X163784554Y-103220884D01*
X163502501Y-103566714D01*
X163158651Y-103851172D01*
X162766093Y-104063427D01*
X162339788Y-104195391D01*
X161863036Y-104245500D01*
X102914721Y-104245500D01*
X102435867Y-104198548D01*
X102008647Y-104069563D01*
X101614616Y-103860054D01*
X101268786Y-103578001D01*
X100984328Y-103234151D01*
X100772073Y-102841593D01*
X100640109Y-102415288D01*
X100589956Y-101938113D01*
X100583989Y-99720245D01*
X144488900Y-99720245D01*
X144488900Y-100032955D01*
X144549907Y-100339657D01*
X144669576Y-100628563D01*
X144843308Y-100888572D01*
X145064428Y-101109692D01*
X145324437Y-101283424D01*
X145613343Y-101403093D01*
X145920045Y-101464100D01*
X146232755Y-101464100D01*
X146539457Y-101403093D01*
X146828363Y-101283424D01*
X147088372Y-101109692D01*
X147309492Y-100888572D01*
X147483224Y-100628563D01*
X147602893Y-100339657D01*
X147663900Y-100032955D01*
X147663900Y-99720245D01*
X147602893Y-99413543D01*
X147483224Y-99124637D01*
X147309492Y-98864628D01*
X147088372Y-98643508D01*
X146828363Y-98469776D01*
X146539457Y-98350107D01*
X146232755Y-98289100D01*
X145920045Y-98289100D01*
X145613343Y-98350107D01*
X145324437Y-98469776D01*
X145064428Y-98643508D01*
X144843308Y-98864628D01*
X144669576Y-99124637D01*
X144549907Y-99413543D01*
X144488900Y-99720245D01*
X100583989Y-99720245D01*
X100580545Y-98440364D01*
X118674641Y-98440364D01*
X118721948Y-98663948D01*
X118943316Y-98764837D01*
X119180113Y-98820600D01*
X119423238Y-98829095D01*
X119663349Y-98789995D01*
X119891218Y-98704802D01*
X119967652Y-98663948D01*
X120014959Y-98440364D01*
X119344800Y-97770205D01*
X118674641Y-98440364D01*
X100580545Y-98440364D01*
X100526347Y-78297800D01*
X101310728Y-78297800D01*
X101310728Y-79697800D01*
X101322988Y-79822282D01*
X101359298Y-79941980D01*
X101418263Y-80052294D01*
X101497615Y-80148985D01*
X101594306Y-80228337D01*
X101704620Y-80287302D01*
X101824318Y-80323612D01*
X101948800Y-80335872D01*
X104148800Y-80335872D01*
X104273282Y-80323612D01*
X104392980Y-80287302D01*
X104503294Y-80228337D01*
X104599985Y-80148985D01*
X104679337Y-80052294D01*
X104738302Y-79941980D01*
X104755041Y-79886800D01*
X106961259Y-79886800D01*
X106996378Y-80063356D01*
X107101084Y-80316138D01*
X107253093Y-80543636D01*
X107446564Y-80737107D01*
X107674062Y-80889116D01*
X107926844Y-80993822D01*
X108195195Y-81047200D01*
X108468805Y-81047200D01*
X108737156Y-80993822D01*
X108989938Y-80889116D01*
X109217436Y-80737107D01*
X109410907Y-80543636D01*
X109482343Y-80436724D01*
X109492188Y-80536682D01*
X109528498Y-80656380D01*
X109587463Y-80766694D01*
X109666815Y-80863385D01*
X109763506Y-80942737D01*
X109873820Y-81001702D01*
X109993518Y-81038012D01*
X110110000Y-81049484D01*
X110110001Y-84848371D01*
X110018906Y-84897063D01*
X109922215Y-84976415D01*
X109842863Y-85073106D01*
X109783898Y-85183420D01*
X109747588Y-85303118D01*
X109735328Y-85427600D01*
X109735328Y-87147600D01*
X109747588Y-87272082D01*
X109783898Y-87391780D01*
X109842863Y-87502094D01*
X109922215Y-87598785D01*
X110018906Y-87678137D01*
X110129220Y-87737102D01*
X110248918Y-87773412D01*
X110373400Y-87785672D01*
X111423400Y-87785672D01*
X111547882Y-87773412D01*
X111667580Y-87737102D01*
X111777894Y-87678137D01*
X111874585Y-87598785D01*
X111953937Y-87502094D01*
X112012902Y-87391780D01*
X112049212Y-87272082D01*
X112061472Y-87147600D01*
X112655328Y-87147600D01*
X112667588Y-87272082D01*
X112703898Y-87391780D01*
X112762863Y-87502094D01*
X112842215Y-87598785D01*
X112938906Y-87678137D01*
X113049220Y-87737102D01*
X113168918Y-87773412D01*
X113293400Y-87785672D01*
X113532650Y-87782600D01*
X113691400Y-87623850D01*
X113691400Y-86414600D01*
X112817150Y-86414600D01*
X112658400Y-86573350D01*
X112655328Y-87147600D01*
X112061472Y-87147600D01*
X112061472Y-85427600D01*
X112655328Y-85427600D01*
X112658400Y-86001850D01*
X112817150Y-86160600D01*
X113691400Y-86160600D01*
X113691400Y-84951350D01*
X113532650Y-84792600D01*
X113293400Y-84789528D01*
X113168918Y-84801788D01*
X113049220Y-84838098D01*
X112938906Y-84897063D01*
X112842215Y-84976415D01*
X112762863Y-85073106D01*
X112703898Y-85183420D01*
X112667588Y-85303118D01*
X112655328Y-85427600D01*
X112061472Y-85427600D01*
X112049212Y-85303118D01*
X112012902Y-85183420D01*
X111953937Y-85073106D01*
X111874585Y-84976415D01*
X111777894Y-84897063D01*
X111667580Y-84838098D01*
X111634000Y-84827912D01*
X111634000Y-81049484D01*
X111750482Y-81038012D01*
X111870180Y-81001702D01*
X111980494Y-80942737D01*
X112077185Y-80863385D01*
X112156537Y-80766694D01*
X112215502Y-80656380D01*
X112251812Y-80536682D01*
X112264072Y-80412200D01*
X112264072Y-78904200D01*
X112251812Y-78779718D01*
X112215502Y-78660020D01*
X112156537Y-78549706D01*
X112077185Y-78453015D01*
X111980494Y-78373663D01*
X111870180Y-78314698D01*
X111750482Y-78278388D01*
X111626000Y-78266128D01*
X110118000Y-78266128D01*
X109993518Y-78278388D01*
X109873820Y-78314698D01*
X109763506Y-78373663D01*
X109666815Y-78453015D01*
X109587463Y-78549706D01*
X109528498Y-78660020D01*
X109492188Y-78779718D01*
X109482343Y-78879676D01*
X109410907Y-78772764D01*
X109217436Y-78579293D01*
X108989938Y-78427284D01*
X108737156Y-78322578D01*
X108468805Y-78269200D01*
X108195195Y-78269200D01*
X108187099Y-78270810D01*
X108167891Y-78255047D01*
X108013451Y-78172497D01*
X107845874Y-78121664D01*
X107715267Y-78108800D01*
X107715260Y-78108800D01*
X107671600Y-78104500D01*
X107627940Y-78108800D01*
X104755041Y-78108800D01*
X104738302Y-78053620D01*
X104679337Y-77943306D01*
X104599985Y-77846615D01*
X104503294Y-77767263D01*
X104392980Y-77708298D01*
X104273282Y-77671988D01*
X104148800Y-77659728D01*
X103937800Y-77659728D01*
X103937800Y-72102276D01*
X103973020Y-72121102D01*
X104083884Y-72154732D01*
X104113955Y-72210992D01*
X104143706Y-72247243D01*
X104209179Y-72327022D01*
X104238249Y-72350879D01*
X107003321Y-75115952D01*
X107027178Y-75145022D01*
X107056248Y-75168879D01*
X107143207Y-75240245D01*
X107213964Y-75278065D01*
X107275585Y-75311002D01*
X107419222Y-75354574D01*
X107531174Y-75365600D01*
X107531177Y-75365600D01*
X107568600Y-75369286D01*
X107606023Y-75365600D01*
X112561777Y-75365600D01*
X112599200Y-75369286D01*
X112636623Y-75365600D01*
X112636626Y-75365600D01*
X112748578Y-75354574D01*
X112837829Y-75327500D01*
X112949515Y-75327500D01*
X113138443Y-75289920D01*
X113316410Y-75216204D01*
X113476575Y-75109185D01*
X113612785Y-74972975D01*
X113719804Y-74812810D01*
X113793520Y-74634843D01*
X113831100Y-74445915D01*
X113831100Y-74253285D01*
X113793520Y-74064357D01*
X113719804Y-73886390D01*
X113612785Y-73726225D01*
X113476575Y-73590015D01*
X113396933Y-73536800D01*
X115261759Y-73536800D01*
X115278498Y-73591980D01*
X115337463Y-73702294D01*
X115416815Y-73798985D01*
X115513506Y-73878337D01*
X115623820Y-73937302D01*
X115743518Y-73973612D01*
X115868000Y-73985872D01*
X116079000Y-73985872D01*
X116079001Y-76394363D01*
X114795464Y-77677901D01*
X114761541Y-77705741D01*
X114650447Y-77841110D01*
X114567897Y-77995550D01*
X114546527Y-78066000D01*
X114532392Y-78112598D01*
X114517064Y-78163127D01*
X114504200Y-78293734D01*
X114504200Y-78293740D01*
X114499900Y-78337400D01*
X114504200Y-78381060D01*
X114504201Y-84812805D01*
X114467882Y-84801788D01*
X114343400Y-84789528D01*
X114104150Y-84792600D01*
X113945400Y-84951350D01*
X113945400Y-86160600D01*
X113965400Y-86160600D01*
X113965400Y-86414600D01*
X113945400Y-86414600D01*
X113945400Y-87623850D01*
X114104150Y-87782600D01*
X114264505Y-87784659D01*
X106566765Y-95482400D01*
X106373113Y-95482400D01*
X106117937Y-95533157D01*
X105877566Y-95632722D01*
X105661239Y-95777267D01*
X105477267Y-95961239D01*
X105332722Y-96177566D01*
X105233157Y-96417937D01*
X105182400Y-96673113D01*
X105182400Y-96933287D01*
X105233157Y-97188463D01*
X105332722Y-97428834D01*
X105477267Y-97645161D01*
X105661239Y-97829133D01*
X105877566Y-97973678D01*
X106117937Y-98073243D01*
X106373113Y-98124000D01*
X106633287Y-98124000D01*
X106888463Y-98073243D01*
X107128834Y-97973678D01*
X107345161Y-97829133D01*
X107459973Y-97714321D01*
X110771685Y-97714321D01*
X110829421Y-97946642D01*
X111065442Y-98056119D01*
X111318286Y-98117447D01*
X111578236Y-98128269D01*
X111835303Y-98088170D01*
X112079607Y-97998690D01*
X112176979Y-97946642D01*
X112234715Y-97714321D01*
X112189433Y-97669038D01*
X118106305Y-97669038D01*
X118145405Y-97909149D01*
X118230598Y-98137018D01*
X118271452Y-98213452D01*
X118495036Y-98260759D01*
X119165195Y-97590600D01*
X119524405Y-97590600D01*
X120194564Y-98260759D01*
X120418148Y-98213452D01*
X120519037Y-97992084D01*
X120574800Y-97755287D01*
X120583295Y-97512162D01*
X120544195Y-97272051D01*
X120459002Y-97044182D01*
X120418148Y-96967748D01*
X120194564Y-96920441D01*
X119524405Y-97590600D01*
X119165195Y-97590600D01*
X118495036Y-96920441D01*
X118271452Y-96967748D01*
X118170563Y-97189116D01*
X118114800Y-97425913D01*
X118106305Y-97669038D01*
X112189433Y-97669038D01*
X111503200Y-96982805D01*
X110771685Y-97714321D01*
X107459973Y-97714321D01*
X107529133Y-97645161D01*
X107673678Y-97428834D01*
X107773243Y-97188463D01*
X107824000Y-96933287D01*
X107824000Y-96878236D01*
X110178131Y-96878236D01*
X110218230Y-97135303D01*
X110307710Y-97379607D01*
X110359758Y-97476979D01*
X110592079Y-97534715D01*
X111323595Y-96803200D01*
X111682805Y-96803200D01*
X112414321Y-97534715D01*
X112646642Y-97476979D01*
X112756119Y-97240958D01*
X112817447Y-96988114D01*
X112827741Y-96740836D01*
X118674641Y-96740836D01*
X119344800Y-97410995D01*
X120014959Y-96740836D01*
X119967652Y-96517252D01*
X119746284Y-96416363D01*
X119509487Y-96360600D01*
X119266362Y-96352105D01*
X119026251Y-96391205D01*
X118798382Y-96476398D01*
X118721948Y-96517252D01*
X118674641Y-96740836D01*
X112827741Y-96740836D01*
X112828269Y-96728164D01*
X112788170Y-96471097D01*
X112698690Y-96226793D01*
X112646642Y-96129421D01*
X112414321Y-96071685D01*
X111682805Y-96803200D01*
X111323595Y-96803200D01*
X110592079Y-96071685D01*
X110359758Y-96129421D01*
X110250281Y-96365442D01*
X110188953Y-96618286D01*
X110178131Y-96878236D01*
X107824000Y-96878236D01*
X107824000Y-96739635D01*
X108671556Y-95892079D01*
X110771685Y-95892079D01*
X111503200Y-96623595D01*
X112234715Y-95892079D01*
X112176979Y-95659758D01*
X111940958Y-95550281D01*
X111688114Y-95488953D01*
X111428164Y-95478131D01*
X111171097Y-95518230D01*
X110926793Y-95607710D01*
X110829421Y-95659758D01*
X110771685Y-95892079D01*
X108671556Y-95892079D01*
X115990942Y-88572694D01*
X116024859Y-88544859D01*
X116135953Y-88409491D01*
X116218503Y-88255051D01*
X116263236Y-88107585D01*
X116269336Y-88087475D01*
X116286501Y-87913200D01*
X116282200Y-87869532D01*
X116282200Y-78705635D01*
X117565742Y-77422094D01*
X117599659Y-77394259D01*
X117648280Y-77335015D01*
X117710752Y-77258892D01*
X117710753Y-77258891D01*
X117793303Y-77104451D01*
X117844136Y-76936874D01*
X117857000Y-76806267D01*
X117861301Y-76762600D01*
X117857000Y-76718932D01*
X117857000Y-73985872D01*
X118068000Y-73985872D01*
X118192482Y-73973612D01*
X118312180Y-73937302D01*
X118422494Y-73878337D01*
X118519185Y-73798985D01*
X118598537Y-73702294D01*
X118650063Y-73605898D01*
X119047276Y-74003112D01*
X119098596Y-74127010D01*
X119205615Y-74287175D01*
X119341825Y-74423385D01*
X119501990Y-74530404D01*
X119679957Y-74604120D01*
X119868885Y-74641700D01*
X120061515Y-74641700D01*
X120250443Y-74604120D01*
X120320800Y-74574977D01*
X120320800Y-78684457D01*
X120130893Y-78874364D01*
X120059457Y-78981276D01*
X120049612Y-78881318D01*
X120013302Y-78761620D01*
X119954337Y-78651306D01*
X119874985Y-78554615D01*
X119778294Y-78475263D01*
X119667980Y-78416298D01*
X119548282Y-78379988D01*
X119423800Y-78367728D01*
X117915800Y-78367728D01*
X117791318Y-78379988D01*
X117671620Y-78416298D01*
X117561306Y-78475263D01*
X117464615Y-78554615D01*
X117385263Y-78651306D01*
X117326298Y-78761620D01*
X117289988Y-78881318D01*
X117277728Y-79005800D01*
X117277728Y-80513800D01*
X117289988Y-80638282D01*
X117326298Y-80757980D01*
X117385263Y-80868294D01*
X117464615Y-80964985D01*
X117561306Y-81044337D01*
X117671620Y-81103302D01*
X117791318Y-81139612D01*
X117907800Y-81151084D01*
X117907801Y-85838754D01*
X117857220Y-85854098D01*
X117746906Y-85913063D01*
X117650215Y-85992415D01*
X117570863Y-86089106D01*
X117511898Y-86199420D01*
X117475588Y-86319118D01*
X117463328Y-86443600D01*
X117463328Y-88163600D01*
X117475588Y-88288082D01*
X117511898Y-88407780D01*
X117570863Y-88518094D01*
X117650215Y-88614785D01*
X117746906Y-88694137D01*
X117857220Y-88753102D01*
X117976918Y-88789412D01*
X118101400Y-88801672D01*
X119441400Y-88801672D01*
X119565882Y-88789412D01*
X119685580Y-88753102D01*
X119795894Y-88694137D01*
X119892585Y-88614785D01*
X119971937Y-88518094D01*
X120030902Y-88407780D01*
X120067212Y-88288082D01*
X120079472Y-88163600D01*
X120143328Y-88163600D01*
X120155588Y-88288082D01*
X120191898Y-88407780D01*
X120250863Y-88518094D01*
X120330215Y-88614785D01*
X120426906Y-88694137D01*
X120537220Y-88753102D01*
X120656918Y-88789412D01*
X120781400Y-88801672D01*
X121165650Y-88798600D01*
X121324400Y-88639850D01*
X121324400Y-87430600D01*
X121578400Y-87430600D01*
X121578400Y-88639850D01*
X121737150Y-88798600D01*
X122121400Y-88801672D01*
X122245882Y-88789412D01*
X122365580Y-88753102D01*
X122475894Y-88694137D01*
X122572585Y-88614785D01*
X122651937Y-88518094D01*
X122710902Y-88407780D01*
X122747212Y-88288082D01*
X122759472Y-88163600D01*
X122756400Y-87589350D01*
X122597650Y-87430600D01*
X121578400Y-87430600D01*
X121324400Y-87430600D01*
X120305150Y-87430600D01*
X120146400Y-87589350D01*
X120143328Y-88163600D01*
X120079472Y-88163600D01*
X120079472Y-86443600D01*
X120143328Y-86443600D01*
X120146400Y-87017850D01*
X120305150Y-87176600D01*
X121324400Y-87176600D01*
X121324400Y-85967350D01*
X121578400Y-85967350D01*
X121578400Y-87176600D01*
X122597650Y-87176600D01*
X122756400Y-87017850D01*
X122759472Y-86443600D01*
X122747212Y-86319118D01*
X122710902Y-86199420D01*
X122651937Y-86089106D01*
X122572585Y-85992415D01*
X122475894Y-85913063D01*
X122365580Y-85854098D01*
X122245882Y-85817788D01*
X122121400Y-85805528D01*
X121737150Y-85808600D01*
X121578400Y-85967350D01*
X121324400Y-85967350D01*
X121165650Y-85808600D01*
X120781400Y-85805528D01*
X120656918Y-85817788D01*
X120537220Y-85854098D01*
X120426906Y-85913063D01*
X120330215Y-85992415D01*
X120250863Y-86089106D01*
X120191898Y-86199420D01*
X120155588Y-86319118D01*
X120143328Y-86443600D01*
X120079472Y-86443600D01*
X120067212Y-86319118D01*
X120030902Y-86199420D01*
X119971937Y-86089106D01*
X119892585Y-85992415D01*
X119795894Y-85913063D01*
X119685580Y-85854098D01*
X119565882Y-85817788D01*
X119441400Y-85805528D01*
X119431800Y-85805528D01*
X119431800Y-81151084D01*
X119548282Y-81139612D01*
X119667980Y-81103302D01*
X119778294Y-81044337D01*
X119874985Y-80964985D01*
X119954337Y-80868294D01*
X120013302Y-80757980D01*
X120049612Y-80638282D01*
X120059457Y-80538324D01*
X120130893Y-80645236D01*
X120324364Y-80838707D01*
X120551862Y-80990716D01*
X120804644Y-81095422D01*
X121072995Y-81148800D01*
X121341565Y-81148800D01*
X125985001Y-85792237D01*
X125985001Y-86676728D01*
X125774000Y-86676728D01*
X125649518Y-86688988D01*
X125529820Y-86725298D01*
X125419506Y-86784263D01*
X125322815Y-86863615D01*
X125243463Y-86960306D01*
X125184498Y-87070620D01*
X125148188Y-87190318D01*
X125135928Y-87314800D01*
X125135928Y-88714800D01*
X125148188Y-88839282D01*
X125184498Y-88958980D01*
X125243463Y-89069294D01*
X125322815Y-89165985D01*
X125419506Y-89245337D01*
X125529820Y-89304302D01*
X125649518Y-89340612D01*
X125774000Y-89352872D01*
X127974000Y-89352872D01*
X128098482Y-89340612D01*
X128218180Y-89304302D01*
X128328494Y-89245337D01*
X128425185Y-89165985D01*
X128504537Y-89069294D01*
X128563502Y-88958980D01*
X128580241Y-88903800D01*
X129858565Y-88903800D01*
X131188476Y-90233712D01*
X131239796Y-90357610D01*
X131346815Y-90517775D01*
X131483025Y-90653985D01*
X131600680Y-90732600D01*
X130357460Y-90732600D01*
X130313800Y-90728300D01*
X130270140Y-90732600D01*
X130270133Y-90732600D01*
X130156125Y-90743829D01*
X130139525Y-90745464D01*
X130066558Y-90767598D01*
X129971949Y-90796297D01*
X129817509Y-90878847D01*
X129682141Y-90989941D01*
X129654306Y-91023858D01*
X124325637Y-96352528D01*
X123744800Y-96352528D01*
X123620318Y-96364788D01*
X123500620Y-96401098D01*
X123390306Y-96460063D01*
X123293615Y-96539415D01*
X123214263Y-96636106D01*
X123155298Y-96746420D01*
X123118988Y-96866118D01*
X123106728Y-96990600D01*
X123106728Y-98190600D01*
X123118988Y-98315082D01*
X123155298Y-98434780D01*
X123214263Y-98545094D01*
X123293615Y-98641785D01*
X123390306Y-98721137D01*
X123500620Y-98780102D01*
X123620318Y-98816412D01*
X123744800Y-98828672D01*
X124944800Y-98828672D01*
X125069282Y-98816412D01*
X125188980Y-98780102D01*
X125299294Y-98721137D01*
X125395985Y-98641785D01*
X125475337Y-98545094D01*
X125534302Y-98434780D01*
X125570612Y-98315082D01*
X125582872Y-98190600D01*
X125582872Y-97609763D01*
X127638373Y-95554262D01*
X133262100Y-95554262D01*
X133262100Y-95816938D01*
X133313346Y-96074568D01*
X133413868Y-96317249D01*
X133559803Y-96535657D01*
X133745543Y-96721397D01*
X133963951Y-96867332D01*
X134206632Y-96967854D01*
X134464262Y-97019100D01*
X134726938Y-97019100D01*
X134984568Y-96967854D01*
X135227249Y-96867332D01*
X135445657Y-96721397D01*
X135631397Y-96535657D01*
X135777332Y-96317249D01*
X135877854Y-96074568D01*
X135929100Y-95816938D01*
X135929100Y-95554262D01*
X137249900Y-95554262D01*
X137249900Y-95816938D01*
X137301146Y-96074568D01*
X137401668Y-96317249D01*
X137547603Y-96535657D01*
X137733343Y-96721397D01*
X137951751Y-96867332D01*
X138194432Y-96967854D01*
X138452062Y-97019100D01*
X138714738Y-97019100D01*
X138972368Y-96967854D01*
X139215049Y-96867332D01*
X139433457Y-96721397D01*
X139549057Y-96605797D01*
X141830608Y-96605797D01*
X141889886Y-96839412D01*
X142128075Y-96950159D01*
X142383293Y-97012311D01*
X142645733Y-97023476D01*
X142905307Y-96983229D01*
X143152042Y-96893114D01*
X143252514Y-96839412D01*
X143311792Y-96605797D01*
X142571200Y-95865205D01*
X141830608Y-96605797D01*
X139549057Y-96605797D01*
X139619197Y-96535657D01*
X139765132Y-96317249D01*
X139865654Y-96074568D01*
X139916900Y-95816938D01*
X139916900Y-95760133D01*
X141233324Y-95760133D01*
X141273571Y-96019707D01*
X141363686Y-96266442D01*
X141417388Y-96366914D01*
X141651003Y-96426192D01*
X142391595Y-95685600D01*
X142750805Y-95685600D01*
X143491397Y-96426192D01*
X143725012Y-96366914D01*
X143835759Y-96128725D01*
X143897911Y-95873507D01*
X143904101Y-95727988D01*
X154355414Y-95727988D01*
X154383051Y-95844621D01*
X154507564Y-96130383D01*
X154685434Y-96386362D01*
X154909825Y-96602722D01*
X155172114Y-96771148D01*
X155462222Y-96885168D01*
X155769000Y-96940400D01*
X156719000Y-96940400D01*
X156719000Y-95482400D01*
X156973000Y-95482400D01*
X156973000Y-96940400D01*
X157923000Y-96940400D01*
X158229778Y-96885168D01*
X158519886Y-96771148D01*
X158782175Y-96602722D01*
X159006566Y-96386362D01*
X159184436Y-96130383D01*
X159308949Y-95844621D01*
X159336586Y-95727988D01*
X159216584Y-95482400D01*
X156973000Y-95482400D01*
X156719000Y-95482400D01*
X154475416Y-95482400D01*
X154355414Y-95727988D01*
X143904101Y-95727988D01*
X143909076Y-95611067D01*
X143868829Y-95351493D01*
X143778714Y-95104758D01*
X143725012Y-95004286D01*
X143640383Y-94982812D01*
X154355414Y-94982812D01*
X154475416Y-95228400D01*
X156719000Y-95228400D01*
X156719000Y-93770400D01*
X156973000Y-93770400D01*
X156973000Y-95228400D01*
X159216584Y-95228400D01*
X159336586Y-94982812D01*
X159308949Y-94866179D01*
X159184436Y-94580417D01*
X159006566Y-94324438D01*
X158782175Y-94108078D01*
X158519886Y-93939652D01*
X158229778Y-93825632D01*
X157923000Y-93770400D01*
X156973000Y-93770400D01*
X156719000Y-93770400D01*
X155769000Y-93770400D01*
X155462222Y-93825632D01*
X155172114Y-93939652D01*
X154909825Y-94108078D01*
X154685434Y-94324438D01*
X154507564Y-94580417D01*
X154383051Y-94866179D01*
X154355414Y-94982812D01*
X143640383Y-94982812D01*
X143491397Y-94945008D01*
X142750805Y-95685600D01*
X142391595Y-95685600D01*
X141651003Y-94945008D01*
X141417388Y-95004286D01*
X141306641Y-95242475D01*
X141244489Y-95497693D01*
X141233324Y-95760133D01*
X139916900Y-95760133D01*
X139916900Y-95554262D01*
X139865654Y-95296632D01*
X139765132Y-95053951D01*
X139619197Y-94835543D01*
X139549057Y-94765403D01*
X141830608Y-94765403D01*
X142571200Y-95505995D01*
X143311792Y-94765403D01*
X143252514Y-94531788D01*
X143014325Y-94421041D01*
X142759107Y-94358889D01*
X142496667Y-94347724D01*
X142237093Y-94387971D01*
X141990358Y-94478086D01*
X141889886Y-94531788D01*
X141830608Y-94765403D01*
X139549057Y-94765403D01*
X139433457Y-94649803D01*
X139215049Y-94503868D01*
X138972368Y-94403346D01*
X138714738Y-94352100D01*
X138452062Y-94352100D01*
X138194432Y-94403346D01*
X137951751Y-94503868D01*
X137733343Y-94649803D01*
X137547603Y-94835543D01*
X137401668Y-95053951D01*
X137301146Y-95296632D01*
X137249900Y-95554262D01*
X135929100Y-95554262D01*
X135877854Y-95296632D01*
X135777332Y-95053951D01*
X135631397Y-94835543D01*
X135445657Y-94649803D01*
X135227249Y-94503868D01*
X134984568Y-94403346D01*
X134726938Y-94352100D01*
X134464262Y-94352100D01*
X134206632Y-94403346D01*
X133963951Y-94503868D01*
X133745543Y-94649803D01*
X133559803Y-94835543D01*
X133413868Y-95053951D01*
X133313346Y-95296632D01*
X133262100Y-95554262D01*
X127638373Y-95554262D01*
X129502900Y-93689736D01*
X129502900Y-93835355D01*
X129563907Y-94142057D01*
X129683576Y-94430963D01*
X129857308Y-94690972D01*
X130078428Y-94912092D01*
X130338437Y-95085824D01*
X130627343Y-95205493D01*
X130934045Y-95266500D01*
X131246755Y-95266500D01*
X131553457Y-95205493D01*
X131842363Y-95085824D01*
X132102372Y-94912092D01*
X132323492Y-94690972D01*
X132497224Y-94430963D01*
X132616893Y-94142057D01*
X132677900Y-93835355D01*
X132677900Y-93522645D01*
X132616893Y-93215943D01*
X132497224Y-92927037D01*
X132323492Y-92667028D01*
X132167064Y-92510600D01*
X154606140Y-92510600D01*
X154649800Y-92514900D01*
X154693460Y-92510600D01*
X154693467Y-92510600D01*
X154824074Y-92497736D01*
X154991651Y-92446903D01*
X155146091Y-92364353D01*
X155281459Y-92253259D01*
X155298577Y-92232400D01*
X159911000Y-92232400D01*
X159911000Y-93182400D01*
X159966232Y-93489178D01*
X160080252Y-93779286D01*
X160248678Y-94041575D01*
X160465038Y-94265966D01*
X160721017Y-94443836D01*
X161006779Y-94568349D01*
X161123412Y-94595986D01*
X161369000Y-94475984D01*
X161369000Y-92232400D01*
X161623000Y-92232400D01*
X161623000Y-94475984D01*
X161868588Y-94595986D01*
X161985221Y-94568349D01*
X162270983Y-94443836D01*
X162526962Y-94265966D01*
X162743322Y-94041575D01*
X162911748Y-93779286D01*
X163025768Y-93489178D01*
X163081000Y-93182400D01*
X163081000Y-92232400D01*
X161623000Y-92232400D01*
X161369000Y-92232400D01*
X159911000Y-92232400D01*
X155298577Y-92232400D01*
X155309299Y-92219336D01*
X156500235Y-91028400D01*
X159911000Y-91028400D01*
X159911000Y-91978400D01*
X161369000Y-91978400D01*
X161369000Y-89734816D01*
X161623000Y-89734816D01*
X161623000Y-91978400D01*
X163081000Y-91978400D01*
X163081000Y-91028400D01*
X163025768Y-90721622D01*
X162911748Y-90431514D01*
X162743322Y-90169225D01*
X162526962Y-89944834D01*
X162270983Y-89766964D01*
X161985221Y-89642451D01*
X161868588Y-89614814D01*
X161623000Y-89734816D01*
X161369000Y-89734816D01*
X161123412Y-89614814D01*
X161006779Y-89642451D01*
X160721017Y-89766964D01*
X160465038Y-89944834D01*
X160248678Y-90169225D01*
X160080252Y-90431514D01*
X159966232Y-90721622D01*
X159911000Y-91028400D01*
X156500235Y-91028400D01*
X156518236Y-91010400D01*
X157873864Y-91010400D01*
X158106714Y-90987466D01*
X158405488Y-90896834D01*
X158680839Y-90749656D01*
X158922187Y-90551587D01*
X159120256Y-90310239D01*
X159267434Y-90034888D01*
X159358066Y-89736114D01*
X159388669Y-89425400D01*
X159358066Y-89114686D01*
X159267434Y-88815912D01*
X159120256Y-88540561D01*
X158922187Y-88299213D01*
X158680839Y-88101144D01*
X158405488Y-87953966D01*
X158106714Y-87863334D01*
X157873864Y-87840400D01*
X155818136Y-87840400D01*
X155585286Y-87863334D01*
X155286512Y-87953966D01*
X155011161Y-88101144D01*
X154769813Y-88299213D01*
X154571744Y-88540561D01*
X154424566Y-88815912D01*
X154333934Y-89114686D01*
X154303331Y-89425400D01*
X154333934Y-89736114D01*
X154424566Y-90034888D01*
X154571744Y-90310239D01*
X154631325Y-90382839D01*
X154281565Y-90732600D01*
X132612120Y-90732600D01*
X132729775Y-90653985D01*
X132865985Y-90517775D01*
X132973004Y-90357610D01*
X133046720Y-90179643D01*
X133084300Y-89990715D01*
X133084300Y-89798085D01*
X133046720Y-89609157D01*
X132973004Y-89431190D01*
X132865985Y-89271025D01*
X132743360Y-89148400D01*
X147291128Y-89148400D01*
X147303388Y-89272882D01*
X147339698Y-89392580D01*
X147398663Y-89502894D01*
X147478015Y-89599585D01*
X147574706Y-89678937D01*
X147685020Y-89737902D01*
X147804718Y-89774212D01*
X147929200Y-89786472D01*
X148508450Y-89783400D01*
X148667200Y-89624650D01*
X148667200Y-88790400D01*
X148921200Y-88790400D01*
X148921200Y-89624650D01*
X149079950Y-89783400D01*
X149659200Y-89786472D01*
X149783682Y-89774212D01*
X149903380Y-89737902D01*
X150013694Y-89678937D01*
X150110385Y-89599585D01*
X150189737Y-89502894D01*
X150248702Y-89392580D01*
X150285012Y-89272882D01*
X150297272Y-89148400D01*
X150294200Y-88949150D01*
X150135450Y-88790400D01*
X148921200Y-88790400D01*
X148667200Y-88790400D01*
X147452950Y-88790400D01*
X147294200Y-88949150D01*
X147291128Y-89148400D01*
X132743360Y-89148400D01*
X132729775Y-89134815D01*
X132569610Y-89027796D01*
X132445712Y-88976476D01*
X131125636Y-87656400D01*
X131624328Y-87656400D01*
X131636588Y-87780882D01*
X131672898Y-87900580D01*
X131731863Y-88010894D01*
X131811215Y-88107585D01*
X131907906Y-88186937D01*
X132018220Y-88245902D01*
X132137918Y-88282212D01*
X132262400Y-88294472D01*
X132836650Y-88291400D01*
X132995400Y-88132650D01*
X132995400Y-87113400D01*
X133249400Y-87113400D01*
X133249400Y-88132650D01*
X133408150Y-88291400D01*
X133982400Y-88294472D01*
X134106882Y-88282212D01*
X134226580Y-88245902D01*
X134336894Y-88186937D01*
X134433585Y-88107585D01*
X134512937Y-88010894D01*
X134539499Y-87961200D01*
X141885928Y-87961200D01*
X141898188Y-88085682D01*
X141934498Y-88205380D01*
X141993463Y-88315694D01*
X142072815Y-88412385D01*
X142169506Y-88491737D01*
X142279820Y-88550702D01*
X142399518Y-88587012D01*
X142524000Y-88599272D01*
X143098250Y-88596200D01*
X143257000Y-88437450D01*
X143257000Y-87418200D01*
X143511000Y-87418200D01*
X143511000Y-88437450D01*
X143669750Y-88596200D01*
X144244000Y-88599272D01*
X144368482Y-88587012D01*
X144488180Y-88550702D01*
X144598494Y-88491737D01*
X144695185Y-88412385D01*
X144774537Y-88315694D01*
X144833502Y-88205380D01*
X144841686Y-88178400D01*
X147291128Y-88178400D01*
X147294200Y-88377650D01*
X147452950Y-88536400D01*
X148667200Y-88536400D01*
X148667200Y-87702150D01*
X148921200Y-87702150D01*
X148921200Y-88536400D01*
X150135450Y-88536400D01*
X150294200Y-88377650D01*
X150297272Y-88178400D01*
X150285012Y-88053918D01*
X150248702Y-87934220D01*
X150189737Y-87823906D01*
X150110385Y-87727215D01*
X150013694Y-87647863D01*
X149903380Y-87588898D01*
X149783682Y-87552588D01*
X149659200Y-87540328D01*
X149079950Y-87543400D01*
X148921200Y-87702150D01*
X148667200Y-87702150D01*
X148508450Y-87543400D01*
X147929200Y-87540328D01*
X147804718Y-87552588D01*
X147685020Y-87588898D01*
X147574706Y-87647863D01*
X147478015Y-87727215D01*
X147398663Y-87823906D01*
X147339698Y-87934220D01*
X147303388Y-88053918D01*
X147291128Y-88178400D01*
X144841686Y-88178400D01*
X144869812Y-88085682D01*
X144882072Y-87961200D01*
X144879000Y-87576950D01*
X144720250Y-87418200D01*
X143511000Y-87418200D01*
X143257000Y-87418200D01*
X142047750Y-87418200D01*
X141889000Y-87576950D01*
X141885928Y-87961200D01*
X134539499Y-87961200D01*
X134571902Y-87900580D01*
X134608212Y-87780882D01*
X134620472Y-87656400D01*
X134617400Y-87272150D01*
X134458650Y-87113400D01*
X133249400Y-87113400D01*
X132995400Y-87113400D01*
X131786150Y-87113400D01*
X131627400Y-87272150D01*
X131624328Y-87656400D01*
X131125636Y-87656400D01*
X130886299Y-87417064D01*
X130858459Y-87383141D01*
X130723091Y-87272047D01*
X130568651Y-87189497D01*
X130401074Y-87138664D01*
X130270467Y-87125800D01*
X130270460Y-87125800D01*
X130226800Y-87121500D01*
X130183140Y-87125800D01*
X128580241Y-87125800D01*
X128563502Y-87070620D01*
X128504537Y-86960306D01*
X128425185Y-86863615D01*
X128328494Y-86784263D01*
X128218180Y-86725298D01*
X128098482Y-86688988D01*
X127974000Y-86676728D01*
X127763000Y-86676728D01*
X127763000Y-86316400D01*
X131624328Y-86316400D01*
X131627400Y-86700650D01*
X131786150Y-86859400D01*
X132995400Y-86859400D01*
X132995400Y-85840150D01*
X133249400Y-85840150D01*
X133249400Y-86859400D01*
X134458650Y-86859400D01*
X134617400Y-86700650D01*
X134618035Y-86621200D01*
X141885928Y-86621200D01*
X141889000Y-87005450D01*
X142047750Y-87164200D01*
X143257000Y-87164200D01*
X143257000Y-86144950D01*
X143511000Y-86144950D01*
X143511000Y-87164200D01*
X144720250Y-87164200D01*
X144879000Y-87005450D01*
X144882072Y-86621200D01*
X144869812Y-86496718D01*
X144833502Y-86377020D01*
X144774537Y-86266706D01*
X144695185Y-86170015D01*
X144598494Y-86090663D01*
X144488180Y-86031698D01*
X144368482Y-85995388D01*
X144244000Y-85983128D01*
X143669750Y-85986200D01*
X143511000Y-86144950D01*
X143257000Y-86144950D01*
X143098250Y-85986200D01*
X142524000Y-85983128D01*
X142399518Y-85995388D01*
X142279820Y-86031698D01*
X142169506Y-86090663D01*
X142072815Y-86170015D01*
X141993463Y-86266706D01*
X141934498Y-86377020D01*
X141898188Y-86496718D01*
X141885928Y-86621200D01*
X134618035Y-86621200D01*
X134620472Y-86316400D01*
X134608212Y-86191918D01*
X134571902Y-86072220D01*
X134512937Y-85961906D01*
X134433585Y-85865215D01*
X134336894Y-85785863D01*
X134226580Y-85726898D01*
X134106882Y-85690588D01*
X133982400Y-85678328D01*
X133408150Y-85681400D01*
X133249400Y-85840150D01*
X132995400Y-85840150D01*
X132836650Y-85681400D01*
X132262400Y-85678328D01*
X132137918Y-85690588D01*
X132018220Y-85726898D01*
X131907906Y-85785863D01*
X131811215Y-85865215D01*
X131731863Y-85961906D01*
X131672898Y-86072220D01*
X131636588Y-86191918D01*
X131624328Y-86316400D01*
X127763000Y-86316400D01*
X127763000Y-85467659D01*
X127767300Y-85423999D01*
X127763000Y-85380339D01*
X127763000Y-85380333D01*
X127750136Y-85249726D01*
X127750136Y-85249724D01*
X127699302Y-85082147D01*
X127674952Y-85036592D01*
X127616753Y-84927709D01*
X127505659Y-84792341D01*
X127471742Y-84764506D01*
X122598800Y-79891565D01*
X122598800Y-79622995D01*
X122545422Y-79354644D01*
X122440716Y-79101862D01*
X122288707Y-78874364D01*
X122098800Y-78684457D01*
X122098800Y-69282235D01*
X123250912Y-68130124D01*
X123374810Y-68078804D01*
X123534975Y-67971785D01*
X123671185Y-67835575D01*
X123778204Y-67675410D01*
X123851920Y-67497443D01*
X123889500Y-67308515D01*
X123889500Y-67115885D01*
X123851920Y-66926957D01*
X123778204Y-66748990D01*
X123671185Y-66588825D01*
X123534975Y-66452615D01*
X123374810Y-66345596D01*
X123196843Y-66271880D01*
X123007915Y-66234300D01*
X122815285Y-66234300D01*
X122626357Y-66271880D01*
X122482266Y-66331564D01*
X123684430Y-65129400D01*
X124254728Y-65129400D01*
X124254728Y-65993000D01*
X124266988Y-66117482D01*
X124303298Y-66237180D01*
X124362263Y-66347494D01*
X124441615Y-66444185D01*
X124538306Y-66523537D01*
X124648620Y-66582502D01*
X124768318Y-66618812D01*
X124892800Y-66631072D01*
X127493293Y-66631072D01*
X123080290Y-71044075D01*
X122956390Y-71095396D01*
X122796225Y-71202415D01*
X122660015Y-71338625D01*
X122552996Y-71498790D01*
X122479280Y-71676757D01*
X122441700Y-71865685D01*
X122441700Y-72058315D01*
X122479280Y-72247243D01*
X122552996Y-72425210D01*
X122660015Y-72585375D01*
X122796225Y-72721585D01*
X122956390Y-72828604D01*
X123134357Y-72902320D01*
X123323285Y-72939900D01*
X123515915Y-72939900D01*
X123704843Y-72902320D01*
X123882810Y-72828604D01*
X124042975Y-72721585D01*
X124179185Y-72585375D01*
X124248792Y-72481200D01*
X127320328Y-72481200D01*
X127320328Y-73881200D01*
X127332588Y-74005682D01*
X127368898Y-74125380D01*
X127427863Y-74235694D01*
X127507215Y-74332385D01*
X127603906Y-74411737D01*
X127714220Y-74470702D01*
X127833918Y-74507012D01*
X127958400Y-74519272D01*
X128296400Y-74519272D01*
X128296401Y-77004567D01*
X128292714Y-77042000D01*
X128307427Y-77191378D01*
X128350999Y-77335015D01*
X128421755Y-77467392D01*
X128458444Y-77512097D01*
X128516979Y-77583422D01*
X128546049Y-77607279D01*
X129704962Y-78766193D01*
X129676000Y-78911795D01*
X129676000Y-79185405D01*
X129729378Y-79453756D01*
X129834084Y-79706538D01*
X129986093Y-79934036D01*
X130179564Y-80127507D01*
X130407062Y-80279516D01*
X130659844Y-80384222D01*
X130928195Y-80437600D01*
X131201805Y-80437600D01*
X131470156Y-80384222D01*
X131722938Y-80279516D01*
X131950436Y-80127507D01*
X132143907Y-79934036D01*
X132295916Y-79706538D01*
X132335000Y-79612181D01*
X132374084Y-79706538D01*
X132526093Y-79934036D01*
X132719564Y-80127507D01*
X132843000Y-80209984D01*
X132843001Y-82998328D01*
X132262400Y-82998328D01*
X132137918Y-83010588D01*
X132018220Y-83046898D01*
X131907906Y-83105863D01*
X131811215Y-83185215D01*
X131731863Y-83281906D01*
X131672898Y-83392220D01*
X131636588Y-83511918D01*
X131624328Y-83636400D01*
X131624328Y-84976400D01*
X131636588Y-85100882D01*
X131672898Y-85220580D01*
X131731863Y-85330894D01*
X131811215Y-85427585D01*
X131907906Y-85506937D01*
X132018220Y-85565902D01*
X132137918Y-85602212D01*
X132262400Y-85614472D01*
X133982400Y-85614472D01*
X134106882Y-85602212D01*
X134226580Y-85565902D01*
X134336894Y-85506937D01*
X134433585Y-85427585D01*
X134512937Y-85330894D01*
X134571902Y-85220580D01*
X134608212Y-85100882D01*
X134620472Y-84976400D01*
X134620472Y-83636400D01*
X134608212Y-83511918D01*
X134571902Y-83392220D01*
X134512937Y-83281906D01*
X134433585Y-83185215D01*
X134367000Y-83130570D01*
X134367000Y-80209984D01*
X134490436Y-80127507D01*
X134683907Y-79934036D01*
X134835916Y-79706538D01*
X134940622Y-79453756D01*
X134994000Y-79185405D01*
X134994000Y-78911795D01*
X134940622Y-78643444D01*
X134835916Y-78390662D01*
X134683907Y-78163164D01*
X134490436Y-77969693D01*
X134262938Y-77817684D01*
X134010156Y-77712978D01*
X133741805Y-77659600D01*
X133468195Y-77659600D01*
X133199844Y-77712978D01*
X132947062Y-77817684D01*
X132719564Y-77969693D01*
X132526093Y-78163164D01*
X132374084Y-78390662D01*
X132335000Y-78485019D01*
X132295916Y-78390662D01*
X132143907Y-78163164D01*
X131950436Y-77969693D01*
X131722938Y-77817684D01*
X131470156Y-77712978D01*
X131201805Y-77659600D01*
X130928195Y-77659600D01*
X130782593Y-77688562D01*
X129820400Y-76726370D01*
X129820400Y-74519272D01*
X130158400Y-74519272D01*
X130282882Y-74507012D01*
X130402580Y-74470702D01*
X130512894Y-74411737D01*
X130609585Y-74332385D01*
X130688937Y-74235694D01*
X130747902Y-74125380D01*
X130784212Y-74005682D01*
X130796472Y-73881200D01*
X130796472Y-72481200D01*
X130784212Y-72356718D01*
X130747902Y-72237020D01*
X130688937Y-72126706D01*
X130609585Y-72030015D01*
X130512894Y-71950663D01*
X130402580Y-71891698D01*
X130282882Y-71855388D01*
X130158400Y-71843128D01*
X129896600Y-71843128D01*
X129896600Y-70981561D01*
X130001204Y-70825010D01*
X130074920Y-70647043D01*
X130112500Y-70458115D01*
X130112500Y-70265485D01*
X130074920Y-70076557D01*
X130001204Y-69898590D01*
X129894185Y-69738425D01*
X129757975Y-69602215D01*
X129597810Y-69495196D01*
X129419843Y-69421480D01*
X129230915Y-69383900D01*
X129038285Y-69383900D01*
X128849357Y-69421480D01*
X128671390Y-69495196D01*
X128511225Y-69602215D01*
X128375015Y-69738425D01*
X128267996Y-69898590D01*
X128194280Y-70076557D01*
X128156700Y-70265485D01*
X128156700Y-70458115D01*
X128194280Y-70647043D01*
X128267996Y-70825010D01*
X128372600Y-70981561D01*
X128372601Y-71843128D01*
X127958400Y-71843128D01*
X127833918Y-71855388D01*
X127714220Y-71891698D01*
X127603906Y-71950663D01*
X127507215Y-72030015D01*
X127427863Y-72126706D01*
X127368898Y-72237020D01*
X127332588Y-72356718D01*
X127320328Y-72481200D01*
X124248792Y-72481200D01*
X124286204Y-72425210D01*
X124337525Y-72301310D01*
X131382435Y-65256400D01*
X132814528Y-65256400D01*
X132814528Y-65993000D01*
X132826788Y-66117482D01*
X132863098Y-66237180D01*
X132922063Y-66347494D01*
X133001415Y-66444185D01*
X133098106Y-66523537D01*
X133208420Y-66582502D01*
X133328118Y-66618812D01*
X133452600Y-66631072D01*
X136373600Y-66631072D01*
X136498082Y-66618812D01*
X136617780Y-66582502D01*
X136728094Y-66523537D01*
X136824785Y-66444185D01*
X136904137Y-66347494D01*
X136963102Y-66237180D01*
X136999412Y-66117482D01*
X137011672Y-65993000D01*
X137011672Y-65256400D01*
X137965739Y-65256400D01*
X138928139Y-66218800D01*
X138805990Y-66269396D01*
X138645825Y-66376415D01*
X138509615Y-66512625D01*
X138402596Y-66672790D01*
X138328880Y-66850757D01*
X138291300Y-67039685D01*
X138291300Y-67232315D01*
X138328880Y-67421243D01*
X138402596Y-67599210D01*
X138509615Y-67759375D01*
X138645825Y-67895585D01*
X138805990Y-68002604D01*
X138889610Y-68037241D01*
X139497801Y-68645432D01*
X139497800Y-71030328D01*
X139159800Y-71030328D01*
X139035318Y-71042588D01*
X138915620Y-71078898D01*
X138805306Y-71137863D01*
X138708615Y-71217215D01*
X138629263Y-71313906D01*
X138570298Y-71424220D01*
X138533988Y-71543918D01*
X138521728Y-71668400D01*
X138521728Y-73068400D01*
X138533988Y-73192882D01*
X138570298Y-73312580D01*
X138629263Y-73422894D01*
X138708615Y-73519585D01*
X138805306Y-73598937D01*
X138915620Y-73657902D01*
X139035318Y-73694212D01*
X139159800Y-73706472D01*
X139853401Y-73706472D01*
X139853400Y-77658616D01*
X139729964Y-77741093D01*
X139536493Y-77934564D01*
X139384484Y-78162062D01*
X139279778Y-78414844D01*
X139226400Y-78683195D01*
X139226400Y-78956805D01*
X139279778Y-79225156D01*
X139384484Y-79477938D01*
X139536493Y-79705436D01*
X139729964Y-79898907D01*
X139957462Y-80050916D01*
X140210244Y-80155622D01*
X140478595Y-80209000D01*
X140752205Y-80209000D01*
X141020556Y-80155622D01*
X141273338Y-80050916D01*
X141500836Y-79898907D01*
X141694307Y-79705436D01*
X141765743Y-79598524D01*
X141775588Y-79698482D01*
X141811898Y-79818180D01*
X141870863Y-79928494D01*
X141950215Y-80025185D01*
X142046906Y-80104537D01*
X142157220Y-80163502D01*
X142276918Y-80199812D01*
X142393400Y-80211284D01*
X142393401Y-83317244D01*
X142279820Y-83351698D01*
X142169506Y-83410663D01*
X142072815Y-83490015D01*
X141993463Y-83586706D01*
X141934498Y-83697020D01*
X141898188Y-83816718D01*
X141885928Y-83941200D01*
X141885928Y-85281200D01*
X141898188Y-85405682D01*
X141934498Y-85525380D01*
X141993463Y-85635694D01*
X142072815Y-85732385D01*
X142169506Y-85811737D01*
X142279820Y-85870702D01*
X142399518Y-85907012D01*
X142524000Y-85919272D01*
X144244000Y-85919272D01*
X144368482Y-85907012D01*
X144488180Y-85870702D01*
X144598494Y-85811737D01*
X144695185Y-85732385D01*
X144774537Y-85635694D01*
X144833502Y-85525380D01*
X144869812Y-85405682D01*
X144882072Y-85281200D01*
X144882072Y-85218400D01*
X147291128Y-85218400D01*
X147291128Y-86188400D01*
X147303388Y-86312882D01*
X147339698Y-86432580D01*
X147398663Y-86542894D01*
X147478015Y-86639585D01*
X147574706Y-86718937D01*
X147685020Y-86777902D01*
X147804718Y-86814212D01*
X147929200Y-86826472D01*
X149659200Y-86826472D01*
X149783682Y-86814212D01*
X149903380Y-86777902D01*
X150013694Y-86718937D01*
X150110385Y-86639585D01*
X150189737Y-86542894D01*
X150248702Y-86432580D01*
X150285012Y-86312882D01*
X150297272Y-86188400D01*
X150297272Y-85277959D01*
X150525752Y-85049479D01*
X150554822Y-85025622D01*
X150650045Y-84909592D01*
X150720802Y-84777215D01*
X150764374Y-84633578D01*
X150775400Y-84521626D01*
X150775400Y-84521624D01*
X150779086Y-84484201D01*
X150775400Y-84446778D01*
X150775400Y-81455884D01*
X150891882Y-81444412D01*
X151011580Y-81408102D01*
X151121894Y-81349137D01*
X151218585Y-81269785D01*
X151297937Y-81173094D01*
X151356902Y-81062780D01*
X151393212Y-80943082D01*
X151403057Y-80843124D01*
X151474493Y-80950036D01*
X151667964Y-81143507D01*
X151895462Y-81295516D01*
X152148244Y-81400222D01*
X152416595Y-81453600D01*
X152690205Y-81453600D01*
X152958556Y-81400222D01*
X153211338Y-81295516D01*
X153438836Y-81143507D01*
X153632307Y-80950036D01*
X153714784Y-80826600D01*
X157470128Y-80826600D01*
X157470128Y-81323400D01*
X157482388Y-81447882D01*
X157518698Y-81567580D01*
X157577663Y-81677894D01*
X157657015Y-81774585D01*
X157753706Y-81853937D01*
X157864020Y-81912902D01*
X157983718Y-81949212D01*
X158108200Y-81961472D01*
X160308200Y-81961472D01*
X160432682Y-81949212D01*
X160552380Y-81912902D01*
X160662694Y-81853937D01*
X160759385Y-81774585D01*
X160838737Y-81677894D01*
X160897702Y-81567580D01*
X160934012Y-81447882D01*
X160946272Y-81323400D01*
X160946272Y-79923400D01*
X160934012Y-79798918D01*
X160897702Y-79679220D01*
X160838737Y-79568906D01*
X160759385Y-79472215D01*
X160662694Y-79392863D01*
X160552380Y-79333898D01*
X160432682Y-79297588D01*
X160308200Y-79285328D01*
X158108200Y-79285328D01*
X157983718Y-79297588D01*
X157967196Y-79302600D01*
X153714784Y-79302600D01*
X153632307Y-79179164D01*
X153438836Y-78985693D01*
X153211338Y-78833684D01*
X152958556Y-78728978D01*
X152690205Y-78675600D01*
X152416595Y-78675600D01*
X152148244Y-78728978D01*
X151895462Y-78833684D01*
X151667964Y-78985693D01*
X151474493Y-79179164D01*
X151403057Y-79286076D01*
X151393212Y-79186118D01*
X151356902Y-79066420D01*
X151297937Y-78956106D01*
X151218585Y-78859415D01*
X151121894Y-78780063D01*
X151011580Y-78721098D01*
X150891882Y-78684788D01*
X150767400Y-78672528D01*
X149259400Y-78672528D01*
X149134918Y-78684788D01*
X149015220Y-78721098D01*
X148904906Y-78780063D01*
X148808215Y-78859415D01*
X148728863Y-78956106D01*
X148669898Y-79066420D01*
X148633588Y-79186118D01*
X148621328Y-79310600D01*
X148621328Y-80818600D01*
X148633588Y-80943082D01*
X148669898Y-81062780D01*
X148728863Y-81173094D01*
X148808215Y-81269785D01*
X148904906Y-81349137D01*
X149015220Y-81408102D01*
X149134918Y-81444412D01*
X149251400Y-81455884D01*
X149251401Y-84168568D01*
X148839642Y-84580328D01*
X147929200Y-84580328D01*
X147804718Y-84592588D01*
X147685020Y-84628898D01*
X147574706Y-84687863D01*
X147478015Y-84767215D01*
X147398663Y-84863906D01*
X147339698Y-84974220D01*
X147303388Y-85093918D01*
X147291128Y-85218400D01*
X144882072Y-85218400D01*
X144882072Y-83941200D01*
X144869812Y-83816718D01*
X144833502Y-83697020D01*
X144774537Y-83586706D01*
X144695185Y-83490015D01*
X144598494Y-83410663D01*
X144488180Y-83351698D01*
X144368482Y-83315388D01*
X144244000Y-83303128D01*
X143917400Y-83303128D01*
X143917400Y-80211284D01*
X144033882Y-80199812D01*
X144153580Y-80163502D01*
X144263894Y-80104537D01*
X144360585Y-80025185D01*
X144439937Y-79928494D01*
X144498902Y-79818180D01*
X144535212Y-79698482D01*
X144547472Y-79574000D01*
X144547472Y-78066000D01*
X144535212Y-77941518D01*
X144498902Y-77821820D01*
X144439937Y-77711506D01*
X144360585Y-77614815D01*
X144263894Y-77535463D01*
X144153580Y-77476498D01*
X144033882Y-77440188D01*
X143909400Y-77427928D01*
X142401400Y-77427928D01*
X142276918Y-77440188D01*
X142157220Y-77476498D01*
X142046906Y-77535463D01*
X141950215Y-77614815D01*
X141870863Y-77711506D01*
X141811898Y-77821820D01*
X141775588Y-77941518D01*
X141765743Y-78041476D01*
X141694307Y-77934564D01*
X141500836Y-77741093D01*
X141377400Y-77658616D01*
X141377400Y-73704739D01*
X141484282Y-73694212D01*
X141603980Y-73657902D01*
X141714294Y-73598937D01*
X141810985Y-73519585D01*
X141890337Y-73422894D01*
X141949302Y-73312580D01*
X141985612Y-73192882D01*
X141997872Y-73068400D01*
X141997872Y-71668400D01*
X141985612Y-71543918D01*
X141949302Y-71424220D01*
X141890337Y-71313906D01*
X141810985Y-71217215D01*
X141714294Y-71137863D01*
X141603980Y-71078898D01*
X141484282Y-71042588D01*
X141359800Y-71030328D01*
X141021800Y-71030328D01*
X141021800Y-68367223D01*
X141025486Y-68329800D01*
X141023994Y-68314656D01*
X144557880Y-71848542D01*
X144585715Y-71882459D01*
X144659928Y-71943364D01*
X144659928Y-72135800D01*
X144672188Y-72260282D01*
X144708498Y-72379980D01*
X144767463Y-72490294D01*
X144846815Y-72586985D01*
X144943506Y-72666337D01*
X145053820Y-72725302D01*
X145173518Y-72761612D01*
X145298000Y-72773872D01*
X146528000Y-72773872D01*
X146652482Y-72761612D01*
X146772180Y-72725302D01*
X146882494Y-72666337D01*
X146979185Y-72586985D01*
X147058537Y-72490294D01*
X147117502Y-72379980D01*
X147153812Y-72260282D01*
X147166072Y-72135800D01*
X147166072Y-70365800D01*
X147153812Y-70241318D01*
X147117502Y-70121620D01*
X147058537Y-70011306D01*
X146979185Y-69914615D01*
X146882494Y-69835263D01*
X146772180Y-69776298D01*
X146652482Y-69739988D01*
X146528000Y-69727728D01*
X145298000Y-69727728D01*
X145173518Y-69739988D01*
X145053820Y-69776298D01*
X145018817Y-69795008D01*
X144688609Y-69464800D01*
X151542328Y-69464800D01*
X151554588Y-69589282D01*
X151590898Y-69708980D01*
X151649863Y-69819294D01*
X151729215Y-69915985D01*
X151825906Y-69995337D01*
X151936220Y-70054302D01*
X152055918Y-70090612D01*
X152180400Y-70102872D01*
X152648650Y-70099800D01*
X152807400Y-69941050D01*
X152807400Y-68837800D01*
X151704150Y-68837800D01*
X151545400Y-68996550D01*
X151542328Y-69464800D01*
X144688609Y-69464800D01*
X143180609Y-67956800D01*
X151542328Y-67956800D01*
X151545400Y-68425050D01*
X151704150Y-68583800D01*
X152807400Y-68583800D01*
X152807400Y-67480550D01*
X152648650Y-67321800D01*
X152180400Y-67318728D01*
X152055918Y-67330988D01*
X151936220Y-67367298D01*
X151825906Y-67426263D01*
X151729215Y-67505615D01*
X151649863Y-67602306D01*
X151590898Y-67712620D01*
X151554588Y-67832318D01*
X151542328Y-67956800D01*
X143180609Y-67956800D01*
X140164210Y-64940401D01*
X153499973Y-64940401D01*
X155973777Y-67414206D01*
X155879556Y-67375178D01*
X155611205Y-67321800D01*
X155337595Y-67321800D01*
X155069244Y-67375178D01*
X154816462Y-67479884D01*
X154588964Y-67631893D01*
X154395493Y-67825364D01*
X154324057Y-67932276D01*
X154314212Y-67832318D01*
X154277902Y-67712620D01*
X154218937Y-67602306D01*
X154139585Y-67505615D01*
X154042894Y-67426263D01*
X153932580Y-67367298D01*
X153812882Y-67330988D01*
X153688400Y-67318728D01*
X153220150Y-67321800D01*
X153061400Y-67480550D01*
X153061400Y-68583800D01*
X153081400Y-68583800D01*
X153081400Y-68837800D01*
X153061400Y-68837800D01*
X153061400Y-69941050D01*
X153113960Y-69993610D01*
X152618770Y-70488800D01*
X150098072Y-70488800D01*
X150098072Y-70365800D01*
X150085812Y-70241318D01*
X150049502Y-70121620D01*
X149990537Y-70011306D01*
X149911185Y-69914615D01*
X149814494Y-69835263D01*
X149704180Y-69776298D01*
X149584482Y-69739988D01*
X149460000Y-69727728D01*
X148230000Y-69727728D01*
X148105518Y-69739988D01*
X147985820Y-69776298D01*
X147875506Y-69835263D01*
X147778815Y-69914615D01*
X147699463Y-70011306D01*
X147640498Y-70121620D01*
X147604188Y-70241318D01*
X147591928Y-70365800D01*
X147591928Y-72135800D01*
X147604188Y-72260282D01*
X147640498Y-72379980D01*
X147699463Y-72490294D01*
X147778815Y-72586985D01*
X147875506Y-72666337D01*
X147985820Y-72725302D01*
X148105518Y-72761612D01*
X148230000Y-72773872D01*
X149460000Y-72773872D01*
X149584482Y-72761612D01*
X149704180Y-72725302D01*
X149814494Y-72666337D01*
X149911185Y-72586985D01*
X149990537Y-72490294D01*
X150049502Y-72379980D01*
X150085812Y-72260282D01*
X150098072Y-72135800D01*
X150098072Y-72012800D01*
X152896977Y-72012800D01*
X152934400Y-72016486D01*
X152971823Y-72012800D01*
X152971826Y-72012800D01*
X153083778Y-72001774D01*
X153227415Y-71958202D01*
X153359792Y-71887445D01*
X153475822Y-71792222D01*
X153499684Y-71763146D01*
X155191993Y-70070838D01*
X155337595Y-70099800D01*
X155611205Y-70099800D01*
X155879556Y-70046422D01*
X156132338Y-69941716D01*
X156359836Y-69789707D01*
X156553307Y-69596236D01*
X156705316Y-69368738D01*
X156810022Y-69115956D01*
X156863400Y-68847605D01*
X156863400Y-68573995D01*
X156810022Y-68305644D01*
X156770994Y-68211423D01*
X158764600Y-70205029D01*
X158764599Y-73182776D01*
X158760913Y-73220199D01*
X158764599Y-73257622D01*
X158764599Y-73257624D01*
X158775625Y-73369576D01*
X158819197Y-73513213D01*
X158831805Y-73536800D01*
X158889954Y-73645591D01*
X158921406Y-73683915D01*
X158985177Y-73761621D01*
X159014253Y-73785483D01*
X159315921Y-74087151D01*
X159272600Y-74304940D01*
X159272600Y-74597460D01*
X159329668Y-74884358D01*
X159441610Y-75154611D01*
X159604125Y-75397832D01*
X159775093Y-75568800D01*
X146416761Y-75568800D01*
X146260210Y-75464196D01*
X146082243Y-75390480D01*
X145893315Y-75352900D01*
X145700685Y-75352900D01*
X145511757Y-75390480D01*
X145333790Y-75464196D01*
X145173625Y-75571215D01*
X145037415Y-75707425D01*
X144930396Y-75867590D01*
X144856680Y-76045557D01*
X144819100Y-76234485D01*
X144819100Y-76427115D01*
X144856680Y-76616043D01*
X144930396Y-76794010D01*
X145037415Y-76954175D01*
X145173625Y-77090385D01*
X145333790Y-77197404D01*
X145511757Y-77271120D01*
X145700685Y-77308700D01*
X145893315Y-77308700D01*
X146082243Y-77271120D01*
X146260210Y-77197404D01*
X146416761Y-77092800D01*
X160662459Y-77092800D01*
X160699882Y-77096486D01*
X160737305Y-77092800D01*
X160737308Y-77092800D01*
X160849260Y-77081774D01*
X160992897Y-77038202D01*
X161125274Y-76967445D01*
X161241304Y-76872222D01*
X161265166Y-76843146D01*
X162500954Y-75607359D01*
X162530023Y-75583503D01*
X162557373Y-75550177D01*
X162625246Y-75467474D01*
X162679698Y-75365600D01*
X162696003Y-75335096D01*
X162739575Y-75191459D01*
X162750601Y-75079507D01*
X162750601Y-75079504D01*
X162754287Y-75042081D01*
X162750601Y-75004658D01*
X162750601Y-73179623D01*
X162754287Y-73142200D01*
X162750601Y-73104775D01*
X162739575Y-72992823D01*
X162696003Y-72849186D01*
X162625246Y-72716809D01*
X162530023Y-72600779D01*
X162500953Y-72576922D01*
X162199279Y-72275248D01*
X162242600Y-72057460D01*
X162242600Y-71764940D01*
X162185532Y-71478042D01*
X162073590Y-71207789D01*
X161911075Y-70964568D01*
X161704232Y-70757725D01*
X161529840Y-70641200D01*
X161704232Y-70524675D01*
X161911075Y-70317832D01*
X162073590Y-70074611D01*
X162185532Y-69804358D01*
X162242600Y-69517460D01*
X162242600Y-69224940D01*
X162185532Y-68938042D01*
X162073590Y-68667789D01*
X161911075Y-68424568D01*
X161704232Y-68217725D01*
X161529840Y-68101200D01*
X161704232Y-67984675D01*
X161911075Y-67777832D01*
X162073590Y-67534611D01*
X162185532Y-67264358D01*
X162242600Y-66977460D01*
X162242600Y-66684940D01*
X162185532Y-66398042D01*
X162073590Y-66127789D01*
X161911075Y-65884568D01*
X161704232Y-65677725D01*
X161529840Y-65561200D01*
X161704232Y-65444675D01*
X161911075Y-65237832D01*
X162073590Y-64994611D01*
X162185532Y-64724358D01*
X162242600Y-64437460D01*
X162242600Y-64144940D01*
X162185532Y-63858042D01*
X162073590Y-63587789D01*
X161911075Y-63344568D01*
X161704232Y-63137725D01*
X161529840Y-63021200D01*
X161704232Y-62904675D01*
X161911075Y-62697832D01*
X162073590Y-62454611D01*
X162185532Y-62184358D01*
X162242600Y-61897460D01*
X162242600Y-61604940D01*
X162185532Y-61318042D01*
X162073590Y-61047789D01*
X161911075Y-60804568D01*
X161704232Y-60597725D01*
X161529840Y-60481200D01*
X161704232Y-60364675D01*
X161911075Y-60157832D01*
X162073590Y-59914611D01*
X162185532Y-59644358D01*
X162242600Y-59357460D01*
X162242600Y-59064940D01*
X162185532Y-58778042D01*
X162073590Y-58507789D01*
X161911075Y-58264568D01*
X161779220Y-58132713D01*
X161851780Y-58110702D01*
X161962094Y-58051737D01*
X162058785Y-57972385D01*
X162138137Y-57875694D01*
X162197102Y-57765380D01*
X162233412Y-57645682D01*
X162245672Y-57521200D01*
X162242600Y-56956950D01*
X162083850Y-56798200D01*
X160884600Y-56798200D01*
X160884600Y-56818200D01*
X160630600Y-56818200D01*
X160630600Y-56798200D01*
X160610600Y-56798200D01*
X160610600Y-56544200D01*
X160630600Y-56544200D01*
X160630600Y-55344950D01*
X160884600Y-55344950D01*
X160884600Y-56544200D01*
X162083850Y-56544200D01*
X162242600Y-56385450D01*
X162245672Y-55821200D01*
X162233412Y-55696718D01*
X162197102Y-55577020D01*
X162138137Y-55466706D01*
X162058785Y-55370015D01*
X161962094Y-55290663D01*
X161851780Y-55231698D01*
X161732082Y-55195388D01*
X161607600Y-55183128D01*
X161043350Y-55186200D01*
X160884600Y-55344950D01*
X160630600Y-55344950D01*
X160471850Y-55186200D01*
X159970689Y-55183471D01*
X160018585Y-55135575D01*
X160125604Y-54975410D01*
X160199320Y-54797443D01*
X160236900Y-54608515D01*
X160236900Y-54415885D01*
X160199320Y-54226957D01*
X160125604Y-54048990D01*
X160021000Y-53892439D01*
X160021000Y-47945623D01*
X160024686Y-47908200D01*
X160020471Y-47865402D01*
X160009974Y-47758822D01*
X159966402Y-47615185D01*
X159933465Y-47553564D01*
X159895645Y-47482807D01*
X159852809Y-47430612D01*
X159800422Y-47366778D01*
X159771347Y-47342917D01*
X158046284Y-45617854D01*
X158022422Y-45588778D01*
X157906392Y-45493555D01*
X157774015Y-45422798D01*
X157630378Y-45379226D01*
X157518426Y-45368200D01*
X157518423Y-45368200D01*
X157481000Y-45364514D01*
X157443577Y-45368200D01*
X135135472Y-45368200D01*
X135135472Y-45270200D01*
X135123212Y-45145718D01*
X135086902Y-45026020D01*
X135027937Y-44915706D01*
X134948585Y-44819015D01*
X134851894Y-44739663D01*
X134741580Y-44680698D01*
X134621882Y-44644388D01*
X134497400Y-44632128D01*
X133157400Y-44632128D01*
X133032918Y-44644388D01*
X132913220Y-44680698D01*
X132802906Y-44739663D01*
X132706215Y-44819015D01*
X132626863Y-44915706D01*
X132567898Y-45026020D01*
X132531588Y-45145718D01*
X132519328Y-45270200D01*
X132519328Y-46990200D01*
X132531588Y-47114682D01*
X132567898Y-47234380D01*
X132626863Y-47344694D01*
X132706215Y-47441385D01*
X132802906Y-47520737D01*
X132913220Y-47579702D01*
X133032918Y-47616012D01*
X133157400Y-47628272D01*
X134497400Y-47628272D01*
X134621882Y-47616012D01*
X134741580Y-47579702D01*
X134851894Y-47520737D01*
X134948585Y-47441385D01*
X135027937Y-47344694D01*
X135086902Y-47234380D01*
X135123212Y-47114682D01*
X135135472Y-46990200D01*
X135135472Y-46892200D01*
X157165370Y-46892200D01*
X158497000Y-48223830D01*
X158497001Y-53892438D01*
X158392396Y-54048990D01*
X158318680Y-54226957D01*
X158281100Y-54415885D01*
X158281100Y-54608515D01*
X158318680Y-54797443D01*
X158392396Y-54975410D01*
X158499415Y-55135575D01*
X158635625Y-55271785D01*
X158795790Y-55378804D01*
X158973757Y-55452520D01*
X159162685Y-55490100D01*
X159355315Y-55490100D01*
X159365658Y-55488043D01*
X159318098Y-55577020D01*
X159281788Y-55696718D01*
X159269528Y-55821200D01*
X159272600Y-56385450D01*
X159431348Y-56544198D01*
X159347833Y-56544198D01*
X157962699Y-55159064D01*
X157934859Y-55125141D01*
X157799491Y-55014047D01*
X157645051Y-54931497D01*
X157477474Y-54880664D01*
X157346867Y-54867800D01*
X157346860Y-54867800D01*
X157303200Y-54863500D01*
X157259540Y-54867800D01*
X142247459Y-54867800D01*
X142203799Y-54863500D01*
X142160139Y-54867800D01*
X142160133Y-54867800D01*
X142062724Y-54877394D01*
X142029524Y-54880664D01*
X141927858Y-54911504D01*
X141861949Y-54931497D01*
X141707509Y-55014047D01*
X141572141Y-55125141D01*
X141544305Y-55159059D01*
X140779659Y-55923706D01*
X140745742Y-55951541D01*
X140717907Y-55985458D01*
X140717905Y-55985460D01*
X140634648Y-56086909D01*
X140574665Y-56199128D01*
X140527400Y-56199128D01*
X140402918Y-56211388D01*
X140283220Y-56247698D01*
X140172906Y-56306663D01*
X140076215Y-56386015D01*
X139996863Y-56482706D01*
X139937898Y-56593020D01*
X139901588Y-56712718D01*
X139893169Y-56798200D01*
X139459636Y-56798200D01*
X138023699Y-55362264D01*
X137995859Y-55328341D01*
X137860491Y-55217247D01*
X137706051Y-55134697D01*
X137538474Y-55083864D01*
X137407867Y-55071000D01*
X137407860Y-55071000D01*
X137364200Y-55066700D01*
X137320540Y-55071000D01*
X129828461Y-55071000D01*
X129464800Y-54707339D01*
X129464800Y-54205583D01*
X129522432Y-54167075D01*
X129729275Y-53960232D01*
X129845800Y-53785840D01*
X129962325Y-53960232D01*
X130169168Y-54167075D01*
X130412389Y-54329590D01*
X130682642Y-54441532D01*
X130969540Y-54498600D01*
X131262060Y-54498600D01*
X131548958Y-54441532D01*
X131819211Y-54329590D01*
X132062432Y-54167075D01*
X132269275Y-53960232D01*
X132385800Y-53785840D01*
X132502325Y-53960232D01*
X132709168Y-54167075D01*
X132952389Y-54329590D01*
X133222642Y-54441532D01*
X133509540Y-54498600D01*
X133802060Y-54498600D01*
X134088958Y-54441532D01*
X134359211Y-54329590D01*
X134602432Y-54167075D01*
X134809275Y-53960232D01*
X134925800Y-53785840D01*
X135042325Y-53960232D01*
X135249168Y-54167075D01*
X135492389Y-54329590D01*
X135762642Y-54441532D01*
X136049540Y-54498600D01*
X136342060Y-54498600D01*
X136628958Y-54441532D01*
X136899211Y-54329590D01*
X137142432Y-54167075D01*
X137349275Y-53960232D01*
X137470995Y-53778066D01*
X137540622Y-53894955D01*
X137735531Y-54111188D01*
X137968880Y-54285241D01*
X138231701Y-54410425D01*
X138378910Y-54455076D01*
X138608800Y-54333755D01*
X138608800Y-53140600D01*
X138588800Y-53140600D01*
X138588800Y-52886600D01*
X138608800Y-52886600D01*
X138608800Y-52866600D01*
X138862800Y-52866600D01*
X138862800Y-52886600D01*
X138882800Y-52886600D01*
X138882800Y-53140600D01*
X138862800Y-53140600D01*
X138862800Y-54333755D01*
X139092690Y-54455076D01*
X139239899Y-54410425D01*
X139502720Y-54285241D01*
X139736069Y-54111188D01*
X139930978Y-53894955D01*
X140000605Y-53778066D01*
X140122325Y-53960232D01*
X140329168Y-54167075D01*
X140572389Y-54329590D01*
X140842642Y-54441532D01*
X141129540Y-54498600D01*
X141422060Y-54498600D01*
X141708958Y-54441532D01*
X141979211Y-54329590D01*
X142222432Y-54167075D01*
X142429275Y-53960232D01*
X142545800Y-53785840D01*
X142662325Y-53960232D01*
X142869168Y-54167075D01*
X143112389Y-54329590D01*
X143382642Y-54441532D01*
X143669540Y-54498600D01*
X143962060Y-54498600D01*
X144248958Y-54441532D01*
X144519211Y-54329590D01*
X144762432Y-54167075D01*
X144969275Y-53960232D01*
X145085800Y-53785840D01*
X145202325Y-53960232D01*
X145409168Y-54167075D01*
X145652389Y-54329590D01*
X145922642Y-54441532D01*
X146209540Y-54498600D01*
X146502060Y-54498600D01*
X146788958Y-54441532D01*
X147059211Y-54329590D01*
X147302432Y-54167075D01*
X147509275Y-53960232D01*
X147625800Y-53785840D01*
X147742325Y-53960232D01*
X147949168Y-54167075D01*
X148192389Y-54329590D01*
X148462642Y-54441532D01*
X148749540Y-54498600D01*
X149042060Y-54498600D01*
X149328958Y-54441532D01*
X149599211Y-54329590D01*
X149842432Y-54167075D01*
X150049275Y-53960232D01*
X150165800Y-53785840D01*
X150282325Y-53960232D01*
X150489168Y-54167075D01*
X150732389Y-54329590D01*
X151002642Y-54441532D01*
X151289540Y-54498600D01*
X151582060Y-54498600D01*
X151868958Y-54441532D01*
X152139211Y-54329590D01*
X152382432Y-54167075D01*
X152589275Y-53960232D01*
X152705800Y-53785840D01*
X152822325Y-53960232D01*
X153029168Y-54167075D01*
X153272389Y-54329590D01*
X153542642Y-54441532D01*
X153829540Y-54498600D01*
X154122060Y-54498600D01*
X154408958Y-54441532D01*
X154679211Y-54329590D01*
X154922432Y-54167075D01*
X155129275Y-53960232D01*
X155250995Y-53778066D01*
X155320622Y-53894955D01*
X155515531Y-54111188D01*
X155748880Y-54285241D01*
X156011701Y-54410425D01*
X156158910Y-54455076D01*
X156388800Y-54333755D01*
X156388800Y-53140600D01*
X156642800Y-53140600D01*
X156642800Y-54333755D01*
X156872690Y-54455076D01*
X157019899Y-54410425D01*
X157282720Y-54285241D01*
X157516069Y-54111188D01*
X157710978Y-53894955D01*
X157859957Y-53644852D01*
X157957281Y-53370491D01*
X157836614Y-53140600D01*
X156642800Y-53140600D01*
X156388800Y-53140600D01*
X156368800Y-53140600D01*
X156368800Y-52886600D01*
X156388800Y-52886600D01*
X156388800Y-52866600D01*
X156642800Y-52866600D01*
X156642800Y-52886600D01*
X157836614Y-52886600D01*
X157957281Y-52656709D01*
X157859957Y-52382348D01*
X157710978Y-52132245D01*
X157516069Y-51916012D01*
X157286394Y-51744700D01*
X157462432Y-51627075D01*
X157669275Y-51420232D01*
X157831790Y-51177011D01*
X157943732Y-50906758D01*
X158000800Y-50619860D01*
X158000800Y-50327340D01*
X157943732Y-50040442D01*
X157831790Y-49770189D01*
X157669275Y-49526968D01*
X157462432Y-49320125D01*
X157219211Y-49157610D01*
X156948958Y-49045668D01*
X156662060Y-48988600D01*
X156369540Y-48988600D01*
X156082642Y-49045668D01*
X155812389Y-49157610D01*
X155569168Y-49320125D01*
X155362325Y-49526968D01*
X155245800Y-49701360D01*
X155129275Y-49526968D01*
X154922432Y-49320125D01*
X154679211Y-49157610D01*
X154408958Y-49045668D01*
X154122060Y-48988600D01*
X153829540Y-48988600D01*
X153542642Y-49045668D01*
X153272389Y-49157610D01*
X153029168Y-49320125D01*
X152822325Y-49526968D01*
X152705800Y-49701360D01*
X152589275Y-49526968D01*
X152382432Y-49320125D01*
X152139211Y-49157610D01*
X151868958Y-49045668D01*
X151582060Y-48988600D01*
X151289540Y-48988600D01*
X151002642Y-49045668D01*
X150732389Y-49157610D01*
X150489168Y-49320125D01*
X150282325Y-49526968D01*
X150160605Y-49709134D01*
X150090978Y-49592245D01*
X149896069Y-49376012D01*
X149662720Y-49201959D01*
X149399899Y-49076775D01*
X149252690Y-49032124D01*
X149022800Y-49153445D01*
X149022800Y-50346600D01*
X149042800Y-50346600D01*
X149042800Y-50600600D01*
X149022800Y-50600600D01*
X149022800Y-50620600D01*
X148768800Y-50620600D01*
X148768800Y-50600600D01*
X148748800Y-50600600D01*
X148748800Y-50346600D01*
X148768800Y-50346600D01*
X148768800Y-49153445D01*
X148538910Y-49032124D01*
X148391701Y-49076775D01*
X148128880Y-49201959D01*
X147895531Y-49376012D01*
X147700622Y-49592245D01*
X147630995Y-49709134D01*
X147509275Y-49526968D01*
X147302432Y-49320125D01*
X147059211Y-49157610D01*
X146788958Y-49045668D01*
X146502060Y-48988600D01*
X146209540Y-48988600D01*
X145922642Y-49045668D01*
X145652389Y-49157610D01*
X145409168Y-49320125D01*
X145202325Y-49526968D01*
X145080605Y-49709134D01*
X145010978Y-49592245D01*
X144816069Y-49376012D01*
X144582720Y-49201959D01*
X144319899Y-49076775D01*
X144172690Y-49032124D01*
X143942800Y-49153445D01*
X143942800Y-50346600D01*
X143962800Y-50346600D01*
X143962800Y-50600600D01*
X143942800Y-50600600D01*
X143942800Y-50620600D01*
X143688800Y-50620600D01*
X143688800Y-50600600D01*
X143668800Y-50600600D01*
X143668800Y-50346600D01*
X143688800Y-50346600D01*
X143688800Y-49153445D01*
X143458910Y-49032124D01*
X143311701Y-49076775D01*
X143048880Y-49201959D01*
X142815531Y-49376012D01*
X142620622Y-49592245D01*
X142550995Y-49709134D01*
X142429275Y-49526968D01*
X142222432Y-49320125D01*
X141979211Y-49157610D01*
X141708958Y-49045668D01*
X141422060Y-48988600D01*
X141129540Y-48988600D01*
X140842642Y-49045668D01*
X140572389Y-49157610D01*
X140329168Y-49320125D01*
X140122325Y-49526968D01*
X140005800Y-49701360D01*
X139889275Y-49526968D01*
X139682432Y-49320125D01*
X139439211Y-49157610D01*
X139168958Y-49045668D01*
X138882060Y-48988600D01*
X138589540Y-48988600D01*
X138302642Y-49045668D01*
X138032389Y-49157610D01*
X137789168Y-49320125D01*
X137582325Y-49526968D01*
X137465800Y-49701360D01*
X137349275Y-49526968D01*
X137142432Y-49320125D01*
X136899211Y-49157610D01*
X136628958Y-49045668D01*
X136342060Y-48988600D01*
X136049540Y-48988600D01*
X135762642Y-49045668D01*
X135492389Y-49157610D01*
X135249168Y-49320125D01*
X135042325Y-49526968D01*
X134925800Y-49701360D01*
X134809275Y-49526968D01*
X134602432Y-49320125D01*
X134359211Y-49157610D01*
X134088958Y-49045668D01*
X133802060Y-48988600D01*
X133509540Y-48988600D01*
X133222642Y-49045668D01*
X132952389Y-49157610D01*
X132709168Y-49320125D01*
X132502325Y-49526968D01*
X132380605Y-49709134D01*
X132310978Y-49592245D01*
X132116069Y-49376012D01*
X131882720Y-49201959D01*
X131619899Y-49076775D01*
X131472690Y-49032124D01*
X131242800Y-49153445D01*
X131242800Y-50346600D01*
X131262800Y-50346600D01*
X131262800Y-50600600D01*
X131242800Y-50600600D01*
X131242800Y-50620600D01*
X130988800Y-50620600D01*
X130988800Y-50600600D01*
X130968800Y-50600600D01*
X130968800Y-50346600D01*
X130988800Y-50346600D01*
X130988800Y-49153445D01*
X130758910Y-49032124D01*
X130611701Y-49076775D01*
X130348880Y-49201959D01*
X130115531Y-49376012D01*
X129920622Y-49592245D01*
X129850995Y-49709134D01*
X129729275Y-49526968D01*
X129522432Y-49320125D01*
X129279211Y-49157610D01*
X129008958Y-49045668D01*
X128722060Y-48988600D01*
X128429540Y-48988600D01*
X128142642Y-49045668D01*
X128106799Y-49060515D01*
X128106799Y-47473631D01*
X128688231Y-46892200D01*
X129839328Y-46892200D01*
X129839328Y-46990200D01*
X129851588Y-47114682D01*
X129887898Y-47234380D01*
X129946863Y-47344694D01*
X130026215Y-47441385D01*
X130122906Y-47520737D01*
X130233220Y-47579702D01*
X130352918Y-47616012D01*
X130477400Y-47628272D01*
X131817400Y-47628272D01*
X131941882Y-47616012D01*
X132061580Y-47579702D01*
X132171894Y-47520737D01*
X132268585Y-47441385D01*
X132347937Y-47344694D01*
X132406902Y-47234380D01*
X132443212Y-47114682D01*
X132455472Y-46990200D01*
X132455472Y-45270200D01*
X132443212Y-45145718D01*
X132406902Y-45026020D01*
X132347937Y-44915706D01*
X132268585Y-44819015D01*
X132171894Y-44739663D01*
X132061580Y-44680698D01*
X131941882Y-44644388D01*
X131817400Y-44632128D01*
X130477400Y-44632128D01*
X130352918Y-44644388D01*
X130233220Y-44680698D01*
X130122906Y-44739663D01*
X130026215Y-44819015D01*
X129946863Y-44915706D01*
X129887898Y-45026020D01*
X129851588Y-45145718D01*
X129839328Y-45270200D01*
X129839328Y-45368200D01*
X128410022Y-45368200D01*
X128372599Y-45364514D01*
X128335176Y-45368200D01*
X128335174Y-45368200D01*
X128223222Y-45379226D01*
X128079585Y-45422798D01*
X127947208Y-45493555D01*
X127831178Y-45588778D01*
X127807321Y-45617849D01*
X126832448Y-46592722D01*
X126803378Y-46616579D01*
X126779521Y-46645649D01*
X126779520Y-46645650D01*
X126708154Y-46732609D01*
X126637398Y-46864986D01*
X126593826Y-47008623D01*
X126579113Y-47158001D01*
X126582800Y-47195434D01*
X126582800Y-49092823D01*
X126468958Y-49045668D01*
X126182060Y-48988600D01*
X125889540Y-48988600D01*
X125602642Y-49045668D01*
X125332389Y-49157610D01*
X125089168Y-49320125D01*
X124882325Y-49526968D01*
X124760605Y-49709134D01*
X124690978Y-49592245D01*
X124496069Y-49376012D01*
X124262720Y-49201959D01*
X123999899Y-49076775D01*
X123852690Y-49032124D01*
X123622800Y-49153445D01*
X123622800Y-50346600D01*
X123642800Y-50346600D01*
X123642800Y-50600600D01*
X123622800Y-50600600D01*
X123622800Y-50620600D01*
X123368800Y-50620600D01*
X123368800Y-50600600D01*
X123348800Y-50600600D01*
X123348800Y-50346600D01*
X123368800Y-50346600D01*
X123368800Y-49153445D01*
X123138910Y-49032124D01*
X122991701Y-49076775D01*
X122728880Y-49201959D01*
X122495531Y-49376012D01*
X122300622Y-49592245D01*
X122230995Y-49709134D01*
X122109275Y-49526968D01*
X121902432Y-49320125D01*
X121659211Y-49157610D01*
X121388958Y-49045668D01*
X121102060Y-48988600D01*
X120809540Y-48988600D01*
X120522642Y-49045668D01*
X120252389Y-49157610D01*
X120009168Y-49320125D01*
X119802325Y-49526968D01*
X119685800Y-49701360D01*
X119569275Y-49526968D01*
X119362432Y-49320125D01*
X119119211Y-49157610D01*
X118848958Y-49045668D01*
X118562060Y-48988600D01*
X118269540Y-48988600D01*
X117982642Y-49045668D01*
X117712389Y-49157610D01*
X117469168Y-49320125D01*
X117262325Y-49526968D01*
X117145800Y-49701360D01*
X117029275Y-49526968D01*
X116822432Y-49320125D01*
X116579211Y-49157610D01*
X116308958Y-49045668D01*
X116022060Y-48988600D01*
X115729540Y-48988600D01*
X115442642Y-49045668D01*
X115172389Y-49157610D01*
X114929168Y-49320125D01*
X114722325Y-49526968D01*
X114600605Y-49709134D01*
X114530978Y-49592245D01*
X114336069Y-49376012D01*
X114102720Y-49201959D01*
X113839899Y-49076775D01*
X113692690Y-49032124D01*
X113462800Y-49153445D01*
X113462800Y-50346600D01*
X113482800Y-50346600D01*
X113482800Y-50600600D01*
X113462800Y-50600600D01*
X113462800Y-50620600D01*
X113208800Y-50620600D01*
X113208800Y-50600600D01*
X113188800Y-50600600D01*
X113188800Y-50346600D01*
X113208800Y-50346600D01*
X113208800Y-49153445D01*
X112978910Y-49032124D01*
X112831701Y-49076775D01*
X112568880Y-49201959D01*
X112335531Y-49376012D01*
X112140622Y-49592245D01*
X112070995Y-49709134D01*
X111949275Y-49526968D01*
X111742432Y-49320125D01*
X111499211Y-49157610D01*
X111228958Y-49045668D01*
X110942060Y-48988600D01*
X110649540Y-48988600D01*
X110362642Y-49045668D01*
X110092389Y-49157610D01*
X109849168Y-49320125D01*
X109642325Y-49526968D01*
X109525800Y-49701360D01*
X109409275Y-49526968D01*
X109202432Y-49320125D01*
X108959211Y-49157610D01*
X108688958Y-49045668D01*
X108402060Y-48988600D01*
X108109540Y-48988600D01*
X107822642Y-49045668D01*
X107552389Y-49157610D01*
X107309168Y-49320125D01*
X107102325Y-49526968D01*
X107011200Y-49663346D01*
X107011200Y-48352635D01*
X108370036Y-46993800D01*
X115998359Y-46993800D01*
X116015098Y-47048980D01*
X116074063Y-47159294D01*
X116153415Y-47255985D01*
X116250106Y-47335337D01*
X116360420Y-47394302D01*
X116480118Y-47430612D01*
X116604600Y-47442872D01*
X118804600Y-47442872D01*
X118929082Y-47430612D01*
X119048780Y-47394302D01*
X119159094Y-47335337D01*
X119255785Y-47255985D01*
X119335137Y-47159294D01*
X119394102Y-47048980D01*
X119430412Y-46929282D01*
X119442672Y-46804800D01*
X119442672Y-45404800D01*
X119430412Y-45280318D01*
X119394102Y-45160620D01*
X119335137Y-45050306D01*
X119255785Y-44953615D01*
X119159094Y-44874263D01*
X119048780Y-44815298D01*
X118929082Y-44778988D01*
X118804600Y-44766728D01*
X116604600Y-44766728D01*
X116480118Y-44778988D01*
X116360420Y-44815298D01*
X116250106Y-44874263D01*
X116153415Y-44953615D01*
X116074063Y-45050306D01*
X116015098Y-45160620D01*
X115998359Y-45215800D01*
X108045460Y-45215800D01*
X108001800Y-45211500D01*
X107958140Y-45215800D01*
X107958133Y-45215800D01*
X107844125Y-45227029D01*
X107827525Y-45228664D01*
X107766367Y-45247216D01*
X107659949Y-45279497D01*
X107505509Y-45362047D01*
X107370141Y-45473141D01*
X107342306Y-45507058D01*
X105524459Y-47324906D01*
X105490542Y-47352741D01*
X105462707Y-47386658D01*
X105462705Y-47386660D01*
X105379448Y-47488109D01*
X105296898Y-47642548D01*
X105246064Y-47810126D01*
X105228900Y-47984400D01*
X105233201Y-48028070D01*
X105233200Y-50595117D01*
X105220664Y-50636444D01*
X105207800Y-50767051D01*
X105207800Y-50767058D01*
X105203500Y-50810718D01*
X105205661Y-50832659D01*
X105203500Y-50854600D01*
X105207800Y-50898260D01*
X105207800Y-50898266D01*
X105220664Y-51028873D01*
X105271497Y-51196450D01*
X105354047Y-51350890D01*
X105465141Y-51486259D01*
X105499064Y-51514099D01*
X106767728Y-52782764D01*
X106767728Y-53863600D01*
X106779988Y-53988082D01*
X106816298Y-54107780D01*
X106875263Y-54218094D01*
X106954615Y-54314785D01*
X107051306Y-54394137D01*
X107161620Y-54453102D01*
X107281318Y-54489412D01*
X107405800Y-54501672D01*
X109105800Y-54501672D01*
X109230282Y-54489412D01*
X109349980Y-54453102D01*
X109460294Y-54394137D01*
X109556985Y-54314785D01*
X109636337Y-54218094D01*
X109695302Y-54107780D01*
X109717313Y-54035220D01*
X109849168Y-54167075D01*
X110092389Y-54329590D01*
X110362642Y-54441532D01*
X110649540Y-54498600D01*
X110942060Y-54498600D01*
X111159848Y-54455279D01*
X111471401Y-54766832D01*
X111471401Y-54857557D01*
X106738150Y-54860400D01*
X106579400Y-55019150D01*
X106579400Y-60573400D01*
X106599400Y-60573400D01*
X106599400Y-60827400D01*
X106579400Y-60827400D01*
X106579400Y-66381650D01*
X106738150Y-66540400D01*
X111471402Y-66543243D01*
X111471402Y-70669768D01*
X111467715Y-70707201D01*
X111482428Y-70856579D01*
X111526000Y-71000216D01*
X111596756Y-71132593D01*
X111666204Y-71217215D01*
X111691980Y-71248623D01*
X111699316Y-71254643D01*
X111735080Y-71434443D01*
X111808796Y-71612410D01*
X111906611Y-71758800D01*
X110984053Y-71758800D01*
X111015212Y-71656082D01*
X111027472Y-71531600D01*
X111024400Y-70317350D01*
X110865650Y-70158600D01*
X109983000Y-70158600D01*
X109983000Y-72007850D01*
X110029957Y-72054807D01*
X109386165Y-72698600D01*
X109043200Y-72698600D01*
X109043200Y-72102276D01*
X109078420Y-72121102D01*
X109198118Y-72157412D01*
X109322600Y-72169672D01*
X109570250Y-72166600D01*
X109729000Y-72007850D01*
X109729000Y-70158600D01*
X109709000Y-70158600D01*
X109709000Y-69904600D01*
X109729000Y-69904600D01*
X109729000Y-68055350D01*
X109983000Y-68055350D01*
X109983000Y-69904600D01*
X110865650Y-69904600D01*
X111024400Y-69745850D01*
X111027472Y-68531600D01*
X111015212Y-68407118D01*
X110978902Y-68287420D01*
X110919937Y-68177106D01*
X110840585Y-68080415D01*
X110743894Y-68001063D01*
X110633580Y-67942098D01*
X110513882Y-67905788D01*
X110389400Y-67893528D01*
X110141750Y-67896600D01*
X109983000Y-68055350D01*
X109729000Y-68055350D01*
X109570250Y-67896600D01*
X109322600Y-67893528D01*
X109198118Y-67905788D01*
X109078420Y-67942098D01*
X109005100Y-67981289D01*
X108931780Y-67942098D01*
X108812082Y-67905788D01*
X108687600Y-67893528D01*
X107620800Y-67893528D01*
X107496318Y-67905788D01*
X107376620Y-67942098D01*
X107303300Y-67981289D01*
X107229980Y-67942098D01*
X107110282Y-67905788D01*
X106985800Y-67893528D01*
X106738150Y-67896600D01*
X106579400Y-68055350D01*
X106579400Y-69904600D01*
X106599400Y-69904600D01*
X106599400Y-70158600D01*
X106579400Y-70158600D01*
X106579400Y-72007850D01*
X106738150Y-72166600D01*
X106985800Y-72169672D01*
X107110282Y-72157412D01*
X107229980Y-72121102D01*
X107265201Y-72102276D01*
X107265201Y-73222570D01*
X106187940Y-72145310D01*
X106325400Y-72007850D01*
X106325400Y-70158600D01*
X106305400Y-70158600D01*
X106305400Y-69904600D01*
X106325400Y-69904600D01*
X106325400Y-68055350D01*
X106166650Y-67896600D01*
X105919000Y-67893528D01*
X105794518Y-67905788D01*
X105674820Y-67942098D01*
X105601500Y-67981289D01*
X105528180Y-67942098D01*
X105408482Y-67905788D01*
X105284000Y-67893528D01*
X104217200Y-67893528D01*
X104092718Y-67905788D01*
X103973020Y-67942098D01*
X103899700Y-67981289D01*
X103826380Y-67942098D01*
X103706682Y-67905788D01*
X103582200Y-67893528D01*
X102515400Y-67893528D01*
X102390918Y-67905788D01*
X102271220Y-67942098D01*
X102160906Y-68001063D01*
X102064215Y-68080415D01*
X101984863Y-68177106D01*
X101925898Y-68287420D01*
X101889588Y-68407118D01*
X101877328Y-68531600D01*
X101877328Y-71531600D01*
X101889588Y-71656082D01*
X101925898Y-71775780D01*
X101984863Y-71886094D01*
X102064215Y-71982785D01*
X102159800Y-72061230D01*
X102159801Y-77659728D01*
X101948800Y-77659728D01*
X101824318Y-77671988D01*
X101704620Y-77708298D01*
X101594306Y-77767263D01*
X101497615Y-77846615D01*
X101418263Y-77943306D01*
X101359298Y-78053620D01*
X101322988Y-78173318D01*
X101310728Y-78297800D01*
X100526347Y-78297800D01*
X100493814Y-66207419D01*
X100521863Y-66259894D01*
X100601215Y-66356585D01*
X100697906Y-66435937D01*
X100808220Y-66494902D01*
X100927918Y-66531212D01*
X101052400Y-66543472D01*
X106166650Y-66540400D01*
X106325400Y-66381650D01*
X106325400Y-60827400D01*
X106305400Y-60827400D01*
X106305400Y-60573400D01*
X106325400Y-60573400D01*
X106325400Y-55019150D01*
X106166650Y-54860400D01*
X101052400Y-54857328D01*
X100927918Y-54869588D01*
X100808220Y-54905898D01*
X100697906Y-54964863D01*
X100601215Y-55044215D01*
X100521863Y-55140906D01*
X100464326Y-55248548D01*
X100437693Y-45350274D01*
X100484553Y-44872366D01*
X100613538Y-44445145D01*
X100823046Y-44051116D01*
X101105099Y-43705286D01*
X101448951Y-43420827D01*
X101841510Y-43208571D01*
X102267813Y-43076608D01*
X102744564Y-43026500D01*
X161692879Y-43026500D01*
X162171734Y-43073453D01*
G04 #@! TA.AperFunction,Conductor*
D35*
G36*
X162171734Y-43073453D02*
G01*
X162598955Y-43202438D01*
X162992984Y-43411946D01*
X163338814Y-43693999D01*
X163623273Y-44037851D01*
X163835529Y-44430410D01*
X163967492Y-44856713D01*
X164017644Y-45333887D01*
X164169907Y-101921726D01*
X164123048Y-102399633D01*
X163994063Y-102826853D01*
X163784554Y-103220884D01*
X163502501Y-103566714D01*
X163158651Y-103851172D01*
X162766093Y-104063427D01*
X162339788Y-104195391D01*
X161863036Y-104245500D01*
X102914721Y-104245500D01*
X102435867Y-104198548D01*
X102008647Y-104069563D01*
X101614616Y-103860054D01*
X101268786Y-103578001D01*
X100984328Y-103234151D01*
X100772073Y-102841593D01*
X100640109Y-102415288D01*
X100589956Y-101938113D01*
X100583989Y-99720245D01*
X144488900Y-99720245D01*
X144488900Y-100032955D01*
X144549907Y-100339657D01*
X144669576Y-100628563D01*
X144843308Y-100888572D01*
X145064428Y-101109692D01*
X145324437Y-101283424D01*
X145613343Y-101403093D01*
X145920045Y-101464100D01*
X146232755Y-101464100D01*
X146539457Y-101403093D01*
X146828363Y-101283424D01*
X147088372Y-101109692D01*
X147309492Y-100888572D01*
X147483224Y-100628563D01*
X147602893Y-100339657D01*
X147663900Y-100032955D01*
X147663900Y-99720245D01*
X147602893Y-99413543D01*
X147483224Y-99124637D01*
X147309492Y-98864628D01*
X147088372Y-98643508D01*
X146828363Y-98469776D01*
X146539457Y-98350107D01*
X146232755Y-98289100D01*
X145920045Y-98289100D01*
X145613343Y-98350107D01*
X145324437Y-98469776D01*
X145064428Y-98643508D01*
X144843308Y-98864628D01*
X144669576Y-99124637D01*
X144549907Y-99413543D01*
X144488900Y-99720245D01*
X100583989Y-99720245D01*
X100580545Y-98440364D01*
X118674641Y-98440364D01*
X118721948Y-98663948D01*
X118943316Y-98764837D01*
X119180113Y-98820600D01*
X119423238Y-98829095D01*
X119663349Y-98789995D01*
X119891218Y-98704802D01*
X119967652Y-98663948D01*
X120014959Y-98440364D01*
X119344800Y-97770205D01*
X118674641Y-98440364D01*
X100580545Y-98440364D01*
X100526347Y-78297800D01*
X101310728Y-78297800D01*
X101310728Y-79697800D01*
X101322988Y-79822282D01*
X101359298Y-79941980D01*
X101418263Y-80052294D01*
X101497615Y-80148985D01*
X101594306Y-80228337D01*
X101704620Y-80287302D01*
X101824318Y-80323612D01*
X101948800Y-80335872D01*
X104148800Y-80335872D01*
X104273282Y-80323612D01*
X104392980Y-80287302D01*
X104503294Y-80228337D01*
X104599985Y-80148985D01*
X104679337Y-80052294D01*
X104738302Y-79941980D01*
X104755041Y-79886800D01*
X106961259Y-79886800D01*
X106996378Y-80063356D01*
X107101084Y-80316138D01*
X107253093Y-80543636D01*
X107446564Y-80737107D01*
X107674062Y-80889116D01*
X107926844Y-80993822D01*
X108195195Y-81047200D01*
X108468805Y-81047200D01*
X108737156Y-80993822D01*
X108989938Y-80889116D01*
X109217436Y-80737107D01*
X109410907Y-80543636D01*
X109482343Y-80436724D01*
X109492188Y-80536682D01*
X109528498Y-80656380D01*
X109587463Y-80766694D01*
X109666815Y-80863385D01*
X109763506Y-80942737D01*
X109873820Y-81001702D01*
X109993518Y-81038012D01*
X110110000Y-81049484D01*
X110110001Y-84848371D01*
X110018906Y-84897063D01*
X109922215Y-84976415D01*
X109842863Y-85073106D01*
X109783898Y-85183420D01*
X109747588Y-85303118D01*
X109735328Y-85427600D01*
X109735328Y-87147600D01*
X109747588Y-87272082D01*
X109783898Y-87391780D01*
X109842863Y-87502094D01*
X109922215Y-87598785D01*
X110018906Y-87678137D01*
X110129220Y-87737102D01*
X110248918Y-87773412D01*
X110373400Y-87785672D01*
X111423400Y-87785672D01*
X111547882Y-87773412D01*
X111667580Y-87737102D01*
X111777894Y-87678137D01*
X111874585Y-87598785D01*
X111953937Y-87502094D01*
X112012902Y-87391780D01*
X112049212Y-87272082D01*
X112061472Y-87147600D01*
X112655328Y-87147600D01*
X112667588Y-87272082D01*
X112703898Y-87391780D01*
X112762863Y-87502094D01*
X112842215Y-87598785D01*
X112938906Y-87678137D01*
X113049220Y-87737102D01*
X113168918Y-87773412D01*
X113293400Y-87785672D01*
X113532650Y-87782600D01*
X113691400Y-87623850D01*
X113691400Y-86414600D01*
X112817150Y-86414600D01*
X112658400Y-86573350D01*
X112655328Y-87147600D01*
X112061472Y-87147600D01*
X112061472Y-85427600D01*
X112655328Y-85427600D01*
X112658400Y-86001850D01*
X112817150Y-86160600D01*
X113691400Y-86160600D01*
X113691400Y-84951350D01*
X113532650Y-84792600D01*
X113293400Y-84789528D01*
X113168918Y-84801788D01*
X113049220Y-84838098D01*
X112938906Y-84897063D01*
X112842215Y-84976415D01*
X112762863Y-85073106D01*
X112703898Y-85183420D01*
X112667588Y-85303118D01*
X112655328Y-85427600D01*
X112061472Y-85427600D01*
X112049212Y-85303118D01*
X112012902Y-85183420D01*
X111953937Y-85073106D01*
X111874585Y-84976415D01*
X111777894Y-84897063D01*
X111667580Y-84838098D01*
X111634000Y-84827912D01*
X111634000Y-81049484D01*
X111750482Y-81038012D01*
X111870180Y-81001702D01*
X111980494Y-80942737D01*
X112077185Y-80863385D01*
X112156537Y-80766694D01*
X112215502Y-80656380D01*
X112251812Y-80536682D01*
X112264072Y-80412200D01*
X112264072Y-78904200D01*
X112251812Y-78779718D01*
X112215502Y-78660020D01*
X112156537Y-78549706D01*
X112077185Y-78453015D01*
X111980494Y-78373663D01*
X111870180Y-78314698D01*
X111750482Y-78278388D01*
X111626000Y-78266128D01*
X110118000Y-78266128D01*
X109993518Y-78278388D01*
X109873820Y-78314698D01*
X109763506Y-78373663D01*
X109666815Y-78453015D01*
X109587463Y-78549706D01*
X109528498Y-78660020D01*
X109492188Y-78779718D01*
X109482343Y-78879676D01*
X109410907Y-78772764D01*
X109217436Y-78579293D01*
X108989938Y-78427284D01*
X108737156Y-78322578D01*
X108468805Y-78269200D01*
X108195195Y-78269200D01*
X108187099Y-78270810D01*
X108167891Y-78255047D01*
X108013451Y-78172497D01*
X107845874Y-78121664D01*
X107715267Y-78108800D01*
X107715260Y-78108800D01*
X107671600Y-78104500D01*
X107627940Y-78108800D01*
X104755041Y-78108800D01*
X104738302Y-78053620D01*
X104679337Y-77943306D01*
X104599985Y-77846615D01*
X104503294Y-77767263D01*
X104392980Y-77708298D01*
X104273282Y-77671988D01*
X104148800Y-77659728D01*
X103937800Y-77659728D01*
X103937800Y-72102276D01*
X103973020Y-72121102D01*
X104083884Y-72154732D01*
X104113955Y-72210992D01*
X104143706Y-72247243D01*
X104209179Y-72327022D01*
X104238249Y-72350879D01*
X107003321Y-75115952D01*
X107027178Y-75145022D01*
X107056248Y-75168879D01*
X107143207Y-75240245D01*
X107213964Y-75278065D01*
X107275585Y-75311002D01*
X107419222Y-75354574D01*
X107531174Y-75365600D01*
X107531177Y-75365600D01*
X107568600Y-75369286D01*
X107606023Y-75365600D01*
X112561777Y-75365600D01*
X112599200Y-75369286D01*
X112636623Y-75365600D01*
X112636626Y-75365600D01*
X112748578Y-75354574D01*
X112837829Y-75327500D01*
X112949515Y-75327500D01*
X113138443Y-75289920D01*
X113316410Y-75216204D01*
X113476575Y-75109185D01*
X113612785Y-74972975D01*
X113719804Y-74812810D01*
X113793520Y-74634843D01*
X113831100Y-74445915D01*
X113831100Y-74253285D01*
X113793520Y-74064357D01*
X113719804Y-73886390D01*
X113612785Y-73726225D01*
X113476575Y-73590015D01*
X113396933Y-73536800D01*
X115261759Y-73536800D01*
X115278498Y-73591980D01*
X115337463Y-73702294D01*
X115416815Y-73798985D01*
X115513506Y-73878337D01*
X115623820Y-73937302D01*
X115743518Y-73973612D01*
X115868000Y-73985872D01*
X116079000Y-73985872D01*
X116079001Y-76394363D01*
X114795464Y-77677901D01*
X114761541Y-77705741D01*
X114650447Y-77841110D01*
X114567897Y-77995550D01*
X114546527Y-78066000D01*
X114532392Y-78112598D01*
X114517064Y-78163127D01*
X114504200Y-78293734D01*
X114504200Y-78293740D01*
X114499900Y-78337400D01*
X114504200Y-78381060D01*
X114504201Y-84812805D01*
X114467882Y-84801788D01*
X114343400Y-84789528D01*
X114104150Y-84792600D01*
X113945400Y-84951350D01*
X113945400Y-86160600D01*
X113965400Y-86160600D01*
X113965400Y-86414600D01*
X113945400Y-86414600D01*
X113945400Y-87623850D01*
X114104150Y-87782600D01*
X114264505Y-87784659D01*
X106566765Y-95482400D01*
X106373113Y-95482400D01*
X106117937Y-95533157D01*
X105877566Y-95632722D01*
X105661239Y-95777267D01*
X105477267Y-95961239D01*
X105332722Y-96177566D01*
X105233157Y-96417937D01*
X105182400Y-96673113D01*
X105182400Y-96933287D01*
X105233157Y-97188463D01*
X105332722Y-97428834D01*
X105477267Y-97645161D01*
X105661239Y-97829133D01*
X105877566Y-97973678D01*
X106117937Y-98073243D01*
X106373113Y-98124000D01*
X106633287Y-98124000D01*
X106888463Y-98073243D01*
X107128834Y-97973678D01*
X107345161Y-97829133D01*
X107459973Y-97714321D01*
X110771685Y-97714321D01*
X110829421Y-97946642D01*
X111065442Y-98056119D01*
X111318286Y-98117447D01*
X111578236Y-98128269D01*
X111835303Y-98088170D01*
X112079607Y-97998690D01*
X112176979Y-97946642D01*
X112234715Y-97714321D01*
X112189433Y-97669038D01*
X118106305Y-97669038D01*
X118145405Y-97909149D01*
X118230598Y-98137018D01*
X118271452Y-98213452D01*
X118495036Y-98260759D01*
X119165195Y-97590600D01*
X119524405Y-97590600D01*
X120194564Y-98260759D01*
X120418148Y-98213452D01*
X120519037Y-97992084D01*
X120574800Y-97755287D01*
X120583295Y-97512162D01*
X120544195Y-97272051D01*
X120459002Y-97044182D01*
X120418148Y-96967748D01*
X120194564Y-96920441D01*
X119524405Y-97590600D01*
X119165195Y-97590600D01*
X118495036Y-96920441D01*
X118271452Y-96967748D01*
X118170563Y-97189116D01*
X118114800Y-97425913D01*
X118106305Y-97669038D01*
X112189433Y-97669038D01*
X111503200Y-96982805D01*
X110771685Y-97714321D01*
X107459973Y-97714321D01*
X107529133Y-97645161D01*
X107673678Y-97428834D01*
X107773243Y-97188463D01*
X107824000Y-96933287D01*
X107824000Y-96878236D01*
X110178131Y-96878236D01*
X110218230Y-97135303D01*
X110307710Y-97379607D01*
X110359758Y-97476979D01*
X110592079Y-97534715D01*
X111323595Y-96803200D01*
X111682805Y-96803200D01*
X112414321Y-97534715D01*
X112646642Y-97476979D01*
X112756119Y-97240958D01*
X112817447Y-96988114D01*
X112827741Y-96740836D01*
X118674641Y-96740836D01*
X119344800Y-97410995D01*
X120014959Y-96740836D01*
X119967652Y-96517252D01*
X119746284Y-96416363D01*
X119509487Y-96360600D01*
X119266362Y-96352105D01*
X119026251Y-96391205D01*
X118798382Y-96476398D01*
X118721948Y-96517252D01*
X118674641Y-96740836D01*
X112827741Y-96740836D01*
X112828269Y-96728164D01*
X112788170Y-96471097D01*
X112698690Y-96226793D01*
X112646642Y-96129421D01*
X112414321Y-96071685D01*
X111682805Y-96803200D01*
X111323595Y-96803200D01*
X110592079Y-96071685D01*
X110359758Y-96129421D01*
X110250281Y-96365442D01*
X110188953Y-96618286D01*
X110178131Y-96878236D01*
X107824000Y-96878236D01*
X107824000Y-96739635D01*
X108671556Y-95892079D01*
X110771685Y-95892079D01*
X111503200Y-96623595D01*
X112234715Y-95892079D01*
X112176979Y-95659758D01*
X111940958Y-95550281D01*
X111688114Y-95488953D01*
X111428164Y-95478131D01*
X111171097Y-95518230D01*
X110926793Y-95607710D01*
X110829421Y-95659758D01*
X110771685Y-95892079D01*
X108671556Y-95892079D01*
X115990942Y-88572694D01*
X116024859Y-88544859D01*
X116135953Y-88409491D01*
X116218503Y-88255051D01*
X116263236Y-88107585D01*
X116269336Y-88087475D01*
X116286501Y-87913200D01*
X116282200Y-87869532D01*
X116282200Y-78705635D01*
X117565742Y-77422094D01*
X117599659Y-77394259D01*
X117648280Y-77335015D01*
X117710752Y-77258892D01*
X117710753Y-77258891D01*
X117793303Y-77104451D01*
X117844136Y-76936874D01*
X117857000Y-76806267D01*
X117861301Y-76762600D01*
X117857000Y-76718932D01*
X117857000Y-73985872D01*
X118068000Y-73985872D01*
X118192482Y-73973612D01*
X118312180Y-73937302D01*
X118422494Y-73878337D01*
X118519185Y-73798985D01*
X118598537Y-73702294D01*
X118650063Y-73605898D01*
X119047276Y-74003112D01*
X119098596Y-74127010D01*
X119205615Y-74287175D01*
X119341825Y-74423385D01*
X119501990Y-74530404D01*
X119679957Y-74604120D01*
X119868885Y-74641700D01*
X120061515Y-74641700D01*
X120250443Y-74604120D01*
X120320800Y-74574977D01*
X120320800Y-78684457D01*
X120130893Y-78874364D01*
X120059457Y-78981276D01*
X120049612Y-78881318D01*
X120013302Y-78761620D01*
X119954337Y-78651306D01*
X119874985Y-78554615D01*
X119778294Y-78475263D01*
X119667980Y-78416298D01*
X119548282Y-78379988D01*
X119423800Y-78367728D01*
X117915800Y-78367728D01*
X117791318Y-78379988D01*
X117671620Y-78416298D01*
X117561306Y-78475263D01*
X117464615Y-78554615D01*
X117385263Y-78651306D01*
X117326298Y-78761620D01*
X117289988Y-78881318D01*
X117277728Y-79005800D01*
X117277728Y-80513800D01*
X117289988Y-80638282D01*
X117326298Y-80757980D01*
X117385263Y-80868294D01*
X117464615Y-80964985D01*
X117561306Y-81044337D01*
X117671620Y-81103302D01*
X117791318Y-81139612D01*
X117907800Y-81151084D01*
X117907801Y-85838754D01*
X117857220Y-85854098D01*
X117746906Y-85913063D01*
X117650215Y-85992415D01*
X117570863Y-86089106D01*
X117511898Y-86199420D01*
X117475588Y-86319118D01*
X117463328Y-86443600D01*
X117463328Y-88163600D01*
X117475588Y-88288082D01*
X117511898Y-88407780D01*
X117570863Y-88518094D01*
X117650215Y-88614785D01*
X117746906Y-88694137D01*
X117857220Y-88753102D01*
X117976918Y-88789412D01*
X118101400Y-88801672D01*
X119441400Y-88801672D01*
X119565882Y-88789412D01*
X119685580Y-88753102D01*
X119795894Y-88694137D01*
X119892585Y-88614785D01*
X119971937Y-88518094D01*
X120030902Y-88407780D01*
X120067212Y-88288082D01*
X120079472Y-88163600D01*
X120143328Y-88163600D01*
X120155588Y-88288082D01*
X120191898Y-88407780D01*
X120250863Y-88518094D01*
X120330215Y-88614785D01*
X120426906Y-88694137D01*
X120537220Y-88753102D01*
X120656918Y-88789412D01*
X120781400Y-88801672D01*
X121165650Y-88798600D01*
X121324400Y-88639850D01*
X121324400Y-87430600D01*
X121578400Y-87430600D01*
X121578400Y-88639850D01*
X121737150Y-88798600D01*
X122121400Y-88801672D01*
X122245882Y-88789412D01*
X122365580Y-88753102D01*
X122475894Y-88694137D01*
X122572585Y-88614785D01*
X122651937Y-88518094D01*
X122710902Y-88407780D01*
X122747212Y-88288082D01*
X122759472Y-88163600D01*
X122756400Y-87589350D01*
X122597650Y-87430600D01*
X121578400Y-87430600D01*
X121324400Y-87430600D01*
X120305150Y-87430600D01*
X120146400Y-87589350D01*
X120143328Y-88163600D01*
X120079472Y-88163600D01*
X120079472Y-86443600D01*
X120143328Y-86443600D01*
X120146400Y-87017850D01*
X120305150Y-87176600D01*
X121324400Y-87176600D01*
X121324400Y-85967350D01*
X121578400Y-85967350D01*
X121578400Y-87176600D01*
X122597650Y-87176600D01*
X122756400Y-87017850D01*
X122759472Y-86443600D01*
X122747212Y-86319118D01*
X122710902Y-86199420D01*
X122651937Y-86089106D01*
X122572585Y-85992415D01*
X122475894Y-85913063D01*
X122365580Y-85854098D01*
X122245882Y-85817788D01*
X122121400Y-85805528D01*
X121737150Y-85808600D01*
X121578400Y-85967350D01*
X121324400Y-85967350D01*
X121165650Y-85808600D01*
X120781400Y-85805528D01*
X120656918Y-85817788D01*
X120537220Y-85854098D01*
X120426906Y-85913063D01*
X120330215Y-85992415D01*
X120250863Y-86089106D01*
X120191898Y-86199420D01*
X120155588Y-86319118D01*
X120143328Y-86443600D01*
X120079472Y-86443600D01*
X120067212Y-86319118D01*
X120030902Y-86199420D01*
X119971937Y-86089106D01*
X119892585Y-85992415D01*
X119795894Y-85913063D01*
X119685580Y-85854098D01*
X119565882Y-85817788D01*
X119441400Y-85805528D01*
X119431800Y-85805528D01*
X119431800Y-81151084D01*
X119548282Y-81139612D01*
X119667980Y-81103302D01*
X119778294Y-81044337D01*
X119874985Y-80964985D01*
X119954337Y-80868294D01*
X120013302Y-80757980D01*
X120049612Y-80638282D01*
X120059457Y-80538324D01*
X120130893Y-80645236D01*
X120324364Y-80838707D01*
X120551862Y-80990716D01*
X120804644Y-81095422D01*
X121072995Y-81148800D01*
X121341565Y-81148800D01*
X125985001Y-85792237D01*
X125985001Y-86676728D01*
X125774000Y-86676728D01*
X125649518Y-86688988D01*
X125529820Y-86725298D01*
X125419506Y-86784263D01*
X125322815Y-86863615D01*
X125243463Y-86960306D01*
X125184498Y-87070620D01*
X125148188Y-87190318D01*
X125135928Y-87314800D01*
X125135928Y-88714800D01*
X125148188Y-88839282D01*
X125184498Y-88958980D01*
X125243463Y-89069294D01*
X125322815Y-89165985D01*
X125419506Y-89245337D01*
X125529820Y-89304302D01*
X125649518Y-89340612D01*
X125774000Y-89352872D01*
X127974000Y-89352872D01*
X128098482Y-89340612D01*
X128218180Y-89304302D01*
X128328494Y-89245337D01*
X128425185Y-89165985D01*
X128504537Y-89069294D01*
X128563502Y-88958980D01*
X128580241Y-88903800D01*
X129858565Y-88903800D01*
X131188476Y-90233712D01*
X131239796Y-90357610D01*
X131346815Y-90517775D01*
X131483025Y-90653985D01*
X131600680Y-90732600D01*
X130357460Y-90732600D01*
X130313800Y-90728300D01*
X130270140Y-90732600D01*
X130270133Y-90732600D01*
X130156125Y-90743829D01*
X130139525Y-90745464D01*
X130066558Y-90767598D01*
X129971949Y-90796297D01*
X129817509Y-90878847D01*
X129682141Y-90989941D01*
X129654306Y-91023858D01*
X124325637Y-96352528D01*
X123744800Y-96352528D01*
X123620318Y-96364788D01*
X123500620Y-96401098D01*
X123390306Y-96460063D01*
X123293615Y-96539415D01*
X123214263Y-96636106D01*
X123155298Y-96746420D01*
X123118988Y-96866118D01*
X123106728Y-96990600D01*
X123106728Y-98190600D01*
X123118988Y-98315082D01*
X123155298Y-98434780D01*
X123214263Y-98545094D01*
X123293615Y-98641785D01*
X123390306Y-98721137D01*
X123500620Y-98780102D01*
X123620318Y-98816412D01*
X123744800Y-98828672D01*
X124944800Y-98828672D01*
X125069282Y-98816412D01*
X125188980Y-98780102D01*
X125299294Y-98721137D01*
X125395985Y-98641785D01*
X125475337Y-98545094D01*
X125534302Y-98434780D01*
X125570612Y-98315082D01*
X125582872Y-98190600D01*
X125582872Y-97609763D01*
X127638373Y-95554262D01*
X133262100Y-95554262D01*
X133262100Y-95816938D01*
X133313346Y-96074568D01*
X133413868Y-96317249D01*
X133559803Y-96535657D01*
X133745543Y-96721397D01*
X133963951Y-96867332D01*
X134206632Y-96967854D01*
X134464262Y-97019100D01*
X134726938Y-97019100D01*
X134984568Y-96967854D01*
X135227249Y-96867332D01*
X135445657Y-96721397D01*
X135631397Y-96535657D01*
X135777332Y-96317249D01*
X135877854Y-96074568D01*
X135929100Y-95816938D01*
X135929100Y-95554262D01*
X137249900Y-95554262D01*
X137249900Y-95816938D01*
X137301146Y-96074568D01*
X137401668Y-96317249D01*
X137547603Y-96535657D01*
X137733343Y-96721397D01*
X137951751Y-96867332D01*
X138194432Y-96967854D01*
X138452062Y-97019100D01*
X138714738Y-97019100D01*
X138972368Y-96967854D01*
X139215049Y-96867332D01*
X139433457Y-96721397D01*
X139549057Y-96605797D01*
X141830608Y-96605797D01*
X141889886Y-96839412D01*
X142128075Y-96950159D01*
X142383293Y-97012311D01*
X142645733Y-97023476D01*
X142905307Y-96983229D01*
X143152042Y-96893114D01*
X143252514Y-96839412D01*
X143311792Y-96605797D01*
X142571200Y-95865205D01*
X141830608Y-96605797D01*
X139549057Y-96605797D01*
X139619197Y-96535657D01*
X139765132Y-96317249D01*
X139865654Y-96074568D01*
X139916900Y-95816938D01*
X139916900Y-95760133D01*
X141233324Y-95760133D01*
X141273571Y-96019707D01*
X141363686Y-96266442D01*
X141417388Y-96366914D01*
X141651003Y-96426192D01*
X142391595Y-95685600D01*
X142750805Y-95685600D01*
X143491397Y-96426192D01*
X143725012Y-96366914D01*
X143835759Y-96128725D01*
X143897911Y-95873507D01*
X143904101Y-95727988D01*
X154355414Y-95727988D01*
X154383051Y-95844621D01*
X154507564Y-96130383D01*
X154685434Y-96386362D01*
X154909825Y-96602722D01*
X155172114Y-96771148D01*
X155462222Y-96885168D01*
X155769000Y-96940400D01*
X156719000Y-96940400D01*
X156719000Y-95482400D01*
X156973000Y-95482400D01*
X156973000Y-96940400D01*
X157923000Y-96940400D01*
X158229778Y-96885168D01*
X158519886Y-96771148D01*
X158782175Y-96602722D01*
X159006566Y-96386362D01*
X159184436Y-96130383D01*
X159308949Y-95844621D01*
X159336586Y-95727988D01*
X159216584Y-95482400D01*
X156973000Y-95482400D01*
X156719000Y-95482400D01*
X154475416Y-95482400D01*
X154355414Y-95727988D01*
X143904101Y-95727988D01*
X143909076Y-95611067D01*
X143868829Y-95351493D01*
X143778714Y-95104758D01*
X143725012Y-95004286D01*
X143640383Y-94982812D01*
X154355414Y-94982812D01*
X154475416Y-95228400D01*
X156719000Y-95228400D01*
X156719000Y-93770400D01*
X156973000Y-93770400D01*
X156973000Y-95228400D01*
X159216584Y-95228400D01*
X159336586Y-94982812D01*
X159308949Y-94866179D01*
X159184436Y-94580417D01*
X159006566Y-94324438D01*
X158782175Y-94108078D01*
X158519886Y-93939652D01*
X158229778Y-93825632D01*
X157923000Y-93770400D01*
X156973000Y-93770400D01*
X156719000Y-93770400D01*
X155769000Y-93770400D01*
X155462222Y-93825632D01*
X155172114Y-93939652D01*
X154909825Y-94108078D01*
X154685434Y-94324438D01*
X154507564Y-94580417D01*
X154383051Y-94866179D01*
X154355414Y-94982812D01*
X143640383Y-94982812D01*
X143491397Y-94945008D01*
X142750805Y-95685600D01*
X142391595Y-95685600D01*
X141651003Y-94945008D01*
X141417388Y-95004286D01*
X141306641Y-95242475D01*
X141244489Y-95497693D01*
X141233324Y-95760133D01*
X139916900Y-95760133D01*
X139916900Y-95554262D01*
X139865654Y-95296632D01*
X139765132Y-95053951D01*
X139619197Y-94835543D01*
X139549057Y-94765403D01*
X141830608Y-94765403D01*
X142571200Y-95505995D01*
X143311792Y-94765403D01*
X143252514Y-94531788D01*
X143014325Y-94421041D01*
X142759107Y-94358889D01*
X142496667Y-94347724D01*
X142237093Y-94387971D01*
X141990358Y-94478086D01*
X141889886Y-94531788D01*
X141830608Y-94765403D01*
X139549057Y-94765403D01*
X139433457Y-94649803D01*
X139215049Y-94503868D01*
X138972368Y-94403346D01*
X138714738Y-94352100D01*
X138452062Y-94352100D01*
X138194432Y-94403346D01*
X137951751Y-94503868D01*
X137733343Y-94649803D01*
X137547603Y-94835543D01*
X137401668Y-95053951D01*
X137301146Y-95296632D01*
X137249900Y-95554262D01*
X135929100Y-95554262D01*
X135877854Y-95296632D01*
X135777332Y-95053951D01*
X135631397Y-94835543D01*
X135445657Y-94649803D01*
X135227249Y-94503868D01*
X134984568Y-94403346D01*
X134726938Y-94352100D01*
X134464262Y-94352100D01*
X134206632Y-94403346D01*
X133963951Y-94503868D01*
X133745543Y-94649803D01*
X133559803Y-94835543D01*
X133413868Y-95053951D01*
X133313346Y-95296632D01*
X133262100Y-95554262D01*
X127638373Y-95554262D01*
X129502900Y-93689736D01*
X129502900Y-93835355D01*
X129563907Y-94142057D01*
X129683576Y-94430963D01*
X129857308Y-94690972D01*
X130078428Y-94912092D01*
X130338437Y-95085824D01*
X130627343Y-95205493D01*
X130934045Y-95266500D01*
X131246755Y-95266500D01*
X131553457Y-95205493D01*
X131842363Y-95085824D01*
X132102372Y-94912092D01*
X132323492Y-94690972D01*
X132497224Y-94430963D01*
X132616893Y-94142057D01*
X132677900Y-93835355D01*
X132677900Y-93522645D01*
X132616893Y-93215943D01*
X132497224Y-92927037D01*
X132323492Y-92667028D01*
X132167064Y-92510600D01*
X154606140Y-92510600D01*
X154649800Y-92514900D01*
X154693460Y-92510600D01*
X154693467Y-92510600D01*
X154824074Y-92497736D01*
X154991651Y-92446903D01*
X155146091Y-92364353D01*
X155281459Y-92253259D01*
X155298577Y-92232400D01*
X159911000Y-92232400D01*
X159911000Y-93182400D01*
X159966232Y-93489178D01*
X160080252Y-93779286D01*
X160248678Y-94041575D01*
X160465038Y-94265966D01*
X160721017Y-94443836D01*
X161006779Y-94568349D01*
X161123412Y-94595986D01*
X161369000Y-94475984D01*
X161369000Y-92232400D01*
X161623000Y-92232400D01*
X161623000Y-94475984D01*
X161868588Y-94595986D01*
X161985221Y-94568349D01*
X162270983Y-94443836D01*
X162526962Y-94265966D01*
X162743322Y-94041575D01*
X162911748Y-93779286D01*
X163025768Y-93489178D01*
X163081000Y-93182400D01*
X163081000Y-92232400D01*
X161623000Y-92232400D01*
X161369000Y-92232400D01*
X159911000Y-92232400D01*
X155298577Y-92232400D01*
X155309299Y-92219336D01*
X156500235Y-91028400D01*
X159911000Y-91028400D01*
X159911000Y-91978400D01*
X161369000Y-91978400D01*
X161369000Y-89734816D01*
X161623000Y-89734816D01*
X161623000Y-91978400D01*
X163081000Y-91978400D01*
X163081000Y-91028400D01*
X163025768Y-90721622D01*
X162911748Y-90431514D01*
X162743322Y-90169225D01*
X162526962Y-89944834D01*
X162270983Y-89766964D01*
X161985221Y-89642451D01*
X161868588Y-89614814D01*
X161623000Y-89734816D01*
X161369000Y-89734816D01*
X161123412Y-89614814D01*
X161006779Y-89642451D01*
X160721017Y-89766964D01*
X160465038Y-89944834D01*
X160248678Y-90169225D01*
X160080252Y-90431514D01*
X159966232Y-90721622D01*
X159911000Y-91028400D01*
X156500235Y-91028400D01*
X156518236Y-91010400D01*
X157873864Y-91010400D01*
X158106714Y-90987466D01*
X158405488Y-90896834D01*
X158680839Y-90749656D01*
X158922187Y-90551587D01*
X159120256Y-90310239D01*
X159267434Y-90034888D01*
X159358066Y-89736114D01*
X159388669Y-89425400D01*
X159358066Y-89114686D01*
X159267434Y-88815912D01*
X159120256Y-88540561D01*
X158922187Y-88299213D01*
X158680839Y-88101144D01*
X158405488Y-87953966D01*
X158106714Y-87863334D01*
X157873864Y-87840400D01*
X155818136Y-87840400D01*
X155585286Y-87863334D01*
X155286512Y-87953966D01*
X155011161Y-88101144D01*
X154769813Y-88299213D01*
X154571744Y-88540561D01*
X154424566Y-88815912D01*
X154333934Y-89114686D01*
X154303331Y-89425400D01*
X154333934Y-89736114D01*
X154424566Y-90034888D01*
X154571744Y-90310239D01*
X154631325Y-90382839D01*
X154281565Y-90732600D01*
X132612120Y-90732600D01*
X132729775Y-90653985D01*
X132865985Y-90517775D01*
X132973004Y-90357610D01*
X133046720Y-90179643D01*
X133084300Y-89990715D01*
X133084300Y-89798085D01*
X133046720Y-89609157D01*
X132973004Y-89431190D01*
X132865985Y-89271025D01*
X132743360Y-89148400D01*
X147291128Y-89148400D01*
X147303388Y-89272882D01*
X147339698Y-89392580D01*
X147398663Y-89502894D01*
X147478015Y-89599585D01*
X147574706Y-89678937D01*
X147685020Y-89737902D01*
X147804718Y-89774212D01*
X147929200Y-89786472D01*
X148508450Y-89783400D01*
X148667200Y-89624650D01*
X148667200Y-88790400D01*
X148921200Y-88790400D01*
X148921200Y-89624650D01*
X149079950Y-89783400D01*
X149659200Y-89786472D01*
X149783682Y-89774212D01*
X149903380Y-89737902D01*
X150013694Y-89678937D01*
X150110385Y-89599585D01*
X150189737Y-89502894D01*
X150248702Y-89392580D01*
X150285012Y-89272882D01*
X150297272Y-89148400D01*
X150294200Y-88949150D01*
X150135450Y-88790400D01*
X148921200Y-88790400D01*
X148667200Y-88790400D01*
X147452950Y-88790400D01*
X147294200Y-88949150D01*
X147291128Y-89148400D01*
X132743360Y-89148400D01*
X132729775Y-89134815D01*
X132569610Y-89027796D01*
X132445712Y-88976476D01*
X131125636Y-87656400D01*
X131624328Y-87656400D01*
X131636588Y-87780882D01*
X131672898Y-87900580D01*
X131731863Y-88010894D01*
X131811215Y-88107585D01*
X131907906Y-88186937D01*
X132018220Y-88245902D01*
X132137918Y-88282212D01*
X132262400Y-88294472D01*
X132836650Y-88291400D01*
X132995400Y-88132650D01*
X132995400Y-87113400D01*
X133249400Y-87113400D01*
X133249400Y-88132650D01*
X133408150Y-88291400D01*
X133982400Y-88294472D01*
X134106882Y-88282212D01*
X134226580Y-88245902D01*
X134336894Y-88186937D01*
X134433585Y-88107585D01*
X134512937Y-88010894D01*
X134539499Y-87961200D01*
X141885928Y-87961200D01*
X141898188Y-88085682D01*
X141934498Y-88205380D01*
X141993463Y-88315694D01*
X142072815Y-88412385D01*
X142169506Y-88491737D01*
X142279820Y-88550702D01*
X142399518Y-88587012D01*
X142524000Y-88599272D01*
X143098250Y-88596200D01*
X143257000Y-88437450D01*
X143257000Y-87418200D01*
X143511000Y-87418200D01*
X143511000Y-88437450D01*
X143669750Y-88596200D01*
X144244000Y-88599272D01*
X144368482Y-88587012D01*
X144488180Y-88550702D01*
X144598494Y-88491737D01*
X144695185Y-88412385D01*
X144774537Y-88315694D01*
X144833502Y-88205380D01*
X144841686Y-88178400D01*
X147291128Y-88178400D01*
X147294200Y-88377650D01*
X147452950Y-88536400D01*
X148667200Y-88536400D01*
X148667200Y-87702150D01*
X148921200Y-87702150D01*
X148921200Y-88536400D01*
X150135450Y-88536400D01*
X150294200Y-88377650D01*
X150297272Y-88178400D01*
X150285012Y-88053918D01*
X150248702Y-87934220D01*
X150189737Y-87823906D01*
X150110385Y-87727215D01*
X150013694Y-87647863D01*
X149903380Y-87588898D01*
X149783682Y-87552588D01*
X149659200Y-87540328D01*
X149079950Y-87543400D01*
X148921200Y-87702150D01*
X148667200Y-87702150D01*
X148508450Y-87543400D01*
X147929200Y-87540328D01*
X147804718Y-87552588D01*
X147685020Y-87588898D01*
X147574706Y-87647863D01*
X147478015Y-87727215D01*
X147398663Y-87823906D01*
X147339698Y-87934220D01*
X147303388Y-88053918D01*
X147291128Y-88178400D01*
X144841686Y-88178400D01*
X144869812Y-88085682D01*
X144882072Y-87961200D01*
X144879000Y-87576950D01*
X144720250Y-87418200D01*
X143511000Y-87418200D01*
X143257000Y-87418200D01*
X142047750Y-87418200D01*
X141889000Y-87576950D01*
X141885928Y-87961200D01*
X134539499Y-87961200D01*
X134571902Y-87900580D01*
X134608212Y-87780882D01*
X134620472Y-87656400D01*
X134617400Y-87272150D01*
X134458650Y-87113400D01*
X133249400Y-87113400D01*
X132995400Y-87113400D01*
X131786150Y-87113400D01*
X131627400Y-87272150D01*
X131624328Y-87656400D01*
X131125636Y-87656400D01*
X130886299Y-87417064D01*
X130858459Y-87383141D01*
X130723091Y-87272047D01*
X130568651Y-87189497D01*
X130401074Y-87138664D01*
X130270467Y-87125800D01*
X130270460Y-87125800D01*
X130226800Y-87121500D01*
X130183140Y-87125800D01*
X128580241Y-87125800D01*
X128563502Y-87070620D01*
X128504537Y-86960306D01*
X128425185Y-86863615D01*
X128328494Y-86784263D01*
X128218180Y-86725298D01*
X128098482Y-86688988D01*
X127974000Y-86676728D01*
X127763000Y-86676728D01*
X127763000Y-86316400D01*
X131624328Y-86316400D01*
X131627400Y-86700650D01*
X131786150Y-86859400D01*
X132995400Y-86859400D01*
X132995400Y-85840150D01*
X133249400Y-85840150D01*
X133249400Y-86859400D01*
X134458650Y-86859400D01*
X134617400Y-86700650D01*
X134618035Y-86621200D01*
X141885928Y-86621200D01*
X141889000Y-87005450D01*
X142047750Y-87164200D01*
X143257000Y-87164200D01*
X143257000Y-86144950D01*
X143511000Y-86144950D01*
X143511000Y-87164200D01*
X144720250Y-87164200D01*
X144879000Y-87005450D01*
X144882072Y-86621200D01*
X144869812Y-86496718D01*
X144833502Y-86377020D01*
X144774537Y-86266706D01*
X144695185Y-86170015D01*
X144598494Y-86090663D01*
X144488180Y-86031698D01*
X144368482Y-85995388D01*
X144244000Y-85983128D01*
X143669750Y-85986200D01*
X143511000Y-86144950D01*
X143257000Y-86144950D01*
X143098250Y-85986200D01*
X142524000Y-85983128D01*
X142399518Y-85995388D01*
X142279820Y-86031698D01*
X142169506Y-86090663D01*
X142072815Y-86170015D01*
X141993463Y-86266706D01*
X141934498Y-86377020D01*
X141898188Y-86496718D01*
X141885928Y-86621200D01*
X134618035Y-86621200D01*
X134620472Y-86316400D01*
X134608212Y-86191918D01*
X134571902Y-86072220D01*
X134512937Y-85961906D01*
X134433585Y-85865215D01*
X134336894Y-85785863D01*
X134226580Y-85726898D01*
X134106882Y-85690588D01*
X133982400Y-85678328D01*
X133408150Y-85681400D01*
X133249400Y-85840150D01*
X132995400Y-85840150D01*
X132836650Y-85681400D01*
X132262400Y-85678328D01*
X132137918Y-85690588D01*
X132018220Y-85726898D01*
X131907906Y-85785863D01*
X131811215Y-85865215D01*
X131731863Y-85961906D01*
X131672898Y-86072220D01*
X131636588Y-86191918D01*
X131624328Y-86316400D01*
X127763000Y-86316400D01*
X127763000Y-85467659D01*
X127767300Y-85423999D01*
X127763000Y-85380339D01*
X127763000Y-85380333D01*
X127750136Y-85249726D01*
X127750136Y-85249724D01*
X127699302Y-85082147D01*
X127674952Y-85036592D01*
X127616753Y-84927709D01*
X127505659Y-84792341D01*
X127471742Y-84764506D01*
X122598800Y-79891565D01*
X122598800Y-79622995D01*
X122545422Y-79354644D01*
X122440716Y-79101862D01*
X122288707Y-78874364D01*
X122098800Y-78684457D01*
X122098800Y-69282235D01*
X123250912Y-68130124D01*
X123374810Y-68078804D01*
X123534975Y-67971785D01*
X123671185Y-67835575D01*
X123778204Y-67675410D01*
X123851920Y-67497443D01*
X123889500Y-67308515D01*
X123889500Y-67115885D01*
X123851920Y-66926957D01*
X123778204Y-66748990D01*
X123671185Y-66588825D01*
X123534975Y-66452615D01*
X123374810Y-66345596D01*
X123196843Y-66271880D01*
X123007915Y-66234300D01*
X122815285Y-66234300D01*
X122626357Y-66271880D01*
X122482266Y-66331564D01*
X123684430Y-65129400D01*
X124254728Y-65129400D01*
X124254728Y-65993000D01*
X124266988Y-66117482D01*
X124303298Y-66237180D01*
X124362263Y-66347494D01*
X124441615Y-66444185D01*
X124538306Y-66523537D01*
X124648620Y-66582502D01*
X124768318Y-66618812D01*
X124892800Y-66631072D01*
X127493293Y-66631072D01*
X123080290Y-71044075D01*
X122956390Y-71095396D01*
X122796225Y-71202415D01*
X122660015Y-71338625D01*
X122552996Y-71498790D01*
X122479280Y-71676757D01*
X122441700Y-71865685D01*
X122441700Y-72058315D01*
X122479280Y-72247243D01*
X122552996Y-72425210D01*
X122660015Y-72585375D01*
X122796225Y-72721585D01*
X122956390Y-72828604D01*
X123134357Y-72902320D01*
X123323285Y-72939900D01*
X123515915Y-72939900D01*
X123704843Y-72902320D01*
X123882810Y-72828604D01*
X124042975Y-72721585D01*
X124179185Y-72585375D01*
X124248792Y-72481200D01*
X127320328Y-72481200D01*
X127320328Y-73881200D01*
X127332588Y-74005682D01*
X127368898Y-74125380D01*
X127427863Y-74235694D01*
X127507215Y-74332385D01*
X127603906Y-74411737D01*
X127714220Y-74470702D01*
X127833918Y-74507012D01*
X127958400Y-74519272D01*
X128296400Y-74519272D01*
X128296401Y-77004567D01*
X128292714Y-77042000D01*
X128307427Y-77191378D01*
X128350999Y-77335015D01*
X128421755Y-77467392D01*
X128458444Y-77512097D01*
X128516979Y-77583422D01*
X128546049Y-77607279D01*
X129704962Y-78766193D01*
X129676000Y-78911795D01*
X129676000Y-79185405D01*
X129729378Y-79453756D01*
X129834084Y-79706538D01*
X129986093Y-79934036D01*
X130179564Y-80127507D01*
X130407062Y-80279516D01*
X130659844Y-80384222D01*
X130928195Y-80437600D01*
X131201805Y-80437600D01*
X131470156Y-80384222D01*
X131722938Y-80279516D01*
X131950436Y-80127507D01*
X132143907Y-79934036D01*
X132295916Y-79706538D01*
X132335000Y-79612181D01*
X132374084Y-79706538D01*
X132526093Y-79934036D01*
X132719564Y-80127507D01*
X132843000Y-80209984D01*
X132843001Y-82998328D01*
X132262400Y-82998328D01*
X132137918Y-83010588D01*
X132018220Y-83046898D01*
X131907906Y-83105863D01*
X131811215Y-83185215D01*
X131731863Y-83281906D01*
X131672898Y-83392220D01*
X131636588Y-83511918D01*
X131624328Y-83636400D01*
X131624328Y-84976400D01*
X131636588Y-85100882D01*
X131672898Y-85220580D01*
X131731863Y-85330894D01*
X131811215Y-85427585D01*
X131907906Y-85506937D01*
X132018220Y-85565902D01*
X132137918Y-85602212D01*
X132262400Y-85614472D01*
X133982400Y-85614472D01*
X134106882Y-85602212D01*
X134226580Y-85565902D01*
X134336894Y-85506937D01*
X134433585Y-85427585D01*
X134512937Y-85330894D01*
X134571902Y-85220580D01*
X134608212Y-85100882D01*
X134620472Y-84976400D01*
X134620472Y-83636400D01*
X134608212Y-83511918D01*
X134571902Y-83392220D01*
X134512937Y-83281906D01*
X134433585Y-83185215D01*
X134367000Y-83130570D01*
X134367000Y-80209984D01*
X134490436Y-80127507D01*
X134683907Y-79934036D01*
X134835916Y-79706538D01*
X134940622Y-79453756D01*
X134994000Y-79185405D01*
X134994000Y-78911795D01*
X134940622Y-78643444D01*
X134835916Y-78390662D01*
X134683907Y-78163164D01*
X134490436Y-77969693D01*
X134262938Y-77817684D01*
X134010156Y-77712978D01*
X133741805Y-77659600D01*
X133468195Y-77659600D01*
X133199844Y-77712978D01*
X132947062Y-77817684D01*
X132719564Y-77969693D01*
X132526093Y-78163164D01*
X132374084Y-78390662D01*
X132335000Y-78485019D01*
X132295916Y-78390662D01*
X132143907Y-78163164D01*
X131950436Y-77969693D01*
X131722938Y-77817684D01*
X131470156Y-77712978D01*
X131201805Y-77659600D01*
X130928195Y-77659600D01*
X130782593Y-77688562D01*
X129820400Y-76726370D01*
X129820400Y-74519272D01*
X130158400Y-74519272D01*
X130282882Y-74507012D01*
X130402580Y-74470702D01*
X130512894Y-74411737D01*
X130609585Y-74332385D01*
X130688937Y-74235694D01*
X130747902Y-74125380D01*
X130784212Y-74005682D01*
X130796472Y-73881200D01*
X130796472Y-72481200D01*
X130784212Y-72356718D01*
X130747902Y-72237020D01*
X130688937Y-72126706D01*
X130609585Y-72030015D01*
X130512894Y-71950663D01*
X130402580Y-71891698D01*
X130282882Y-71855388D01*
X130158400Y-71843128D01*
X129896600Y-71843128D01*
X129896600Y-70981561D01*
X130001204Y-70825010D01*
X130074920Y-70647043D01*
X130112500Y-70458115D01*
X130112500Y-70265485D01*
X130074920Y-70076557D01*
X130001204Y-69898590D01*
X129894185Y-69738425D01*
X129757975Y-69602215D01*
X129597810Y-69495196D01*
X129419843Y-69421480D01*
X129230915Y-69383900D01*
X129038285Y-69383900D01*
X128849357Y-69421480D01*
X128671390Y-69495196D01*
X128511225Y-69602215D01*
X128375015Y-69738425D01*
X128267996Y-69898590D01*
X128194280Y-70076557D01*
X128156700Y-70265485D01*
X128156700Y-70458115D01*
X128194280Y-70647043D01*
X128267996Y-70825010D01*
X128372600Y-70981561D01*
X128372601Y-71843128D01*
X127958400Y-71843128D01*
X127833918Y-71855388D01*
X127714220Y-71891698D01*
X127603906Y-71950663D01*
X127507215Y-72030015D01*
X127427863Y-72126706D01*
X127368898Y-72237020D01*
X127332588Y-72356718D01*
X127320328Y-72481200D01*
X124248792Y-72481200D01*
X124286204Y-72425210D01*
X124337525Y-72301310D01*
X131382435Y-65256400D01*
X132814528Y-65256400D01*
X132814528Y-65993000D01*
X132826788Y-66117482D01*
X132863098Y-66237180D01*
X132922063Y-66347494D01*
X133001415Y-66444185D01*
X133098106Y-66523537D01*
X133208420Y-66582502D01*
X133328118Y-66618812D01*
X133452600Y-66631072D01*
X136373600Y-66631072D01*
X136498082Y-66618812D01*
X136617780Y-66582502D01*
X136728094Y-66523537D01*
X136824785Y-66444185D01*
X136904137Y-66347494D01*
X136963102Y-66237180D01*
X136999412Y-66117482D01*
X137011672Y-65993000D01*
X137011672Y-65256400D01*
X137965739Y-65256400D01*
X138928139Y-66218800D01*
X138805990Y-66269396D01*
X138645825Y-66376415D01*
X138509615Y-66512625D01*
X138402596Y-66672790D01*
X138328880Y-66850757D01*
X138291300Y-67039685D01*
X138291300Y-67232315D01*
X138328880Y-67421243D01*
X138402596Y-67599210D01*
X138509615Y-67759375D01*
X138645825Y-67895585D01*
X138805990Y-68002604D01*
X138889610Y-68037241D01*
X139497801Y-68645432D01*
X139497800Y-71030328D01*
X139159800Y-71030328D01*
X139035318Y-71042588D01*
X138915620Y-71078898D01*
X138805306Y-71137863D01*
X138708615Y-71217215D01*
X138629263Y-71313906D01*
X138570298Y-71424220D01*
X138533988Y-71543918D01*
X138521728Y-71668400D01*
X138521728Y-73068400D01*
X138533988Y-73192882D01*
X138570298Y-73312580D01*
X138629263Y-73422894D01*
X138708615Y-73519585D01*
X138805306Y-73598937D01*
X138915620Y-73657902D01*
X139035318Y-73694212D01*
X139159800Y-73706472D01*
X139853401Y-73706472D01*
X139853400Y-77658616D01*
X139729964Y-77741093D01*
X139536493Y-77934564D01*
X139384484Y-78162062D01*
X139279778Y-78414844D01*
X139226400Y-78683195D01*
X139226400Y-78956805D01*
X139279778Y-79225156D01*
X139384484Y-79477938D01*
X139536493Y-79705436D01*
X139729964Y-79898907D01*
X139957462Y-80050916D01*
X140210244Y-80155622D01*
X140478595Y-80209000D01*
X140752205Y-80209000D01*
X141020556Y-80155622D01*
X141273338Y-80050916D01*
X141500836Y-79898907D01*
X141694307Y-79705436D01*
X141765743Y-79598524D01*
X141775588Y-79698482D01*
X141811898Y-79818180D01*
X141870863Y-79928494D01*
X141950215Y-80025185D01*
X142046906Y-80104537D01*
X142157220Y-80163502D01*
X142276918Y-80199812D01*
X142393400Y-80211284D01*
X142393401Y-83317244D01*
X142279820Y-83351698D01*
X142169506Y-83410663D01*
X142072815Y-83490015D01*
X141993463Y-83586706D01*
X141934498Y-83697020D01*
X141898188Y-83816718D01*
X141885928Y-83941200D01*
X141885928Y-85281200D01*
X141898188Y-85405682D01*
X141934498Y-85525380D01*
X141993463Y-85635694D01*
X142072815Y-85732385D01*
X142169506Y-85811737D01*
X142279820Y-85870702D01*
X142399518Y-85907012D01*
X142524000Y-85919272D01*
X144244000Y-85919272D01*
X144368482Y-85907012D01*
X144488180Y-85870702D01*
X144598494Y-85811737D01*
X144695185Y-85732385D01*
X144774537Y-85635694D01*
X144833502Y-85525380D01*
X144869812Y-85405682D01*
X144882072Y-85281200D01*
X144882072Y-85218400D01*
X147291128Y-85218400D01*
X147291128Y-86188400D01*
X147303388Y-86312882D01*
X147339698Y-86432580D01*
X147398663Y-86542894D01*
X147478015Y-86639585D01*
X147574706Y-86718937D01*
X147685020Y-86777902D01*
X147804718Y-86814212D01*
X147929200Y-86826472D01*
X149659200Y-86826472D01*
X149783682Y-86814212D01*
X149903380Y-86777902D01*
X150013694Y-86718937D01*
X150110385Y-86639585D01*
X150189737Y-86542894D01*
X150248702Y-86432580D01*
X150285012Y-86312882D01*
X150297272Y-86188400D01*
X150297272Y-85277959D01*
X150525752Y-85049479D01*
X150554822Y-85025622D01*
X150650045Y-84909592D01*
X150720802Y-84777215D01*
X150764374Y-84633578D01*
X150775400Y-84521626D01*
X150775400Y-84521624D01*
X150779086Y-84484201D01*
X150775400Y-84446778D01*
X150775400Y-81455884D01*
X150891882Y-81444412D01*
X151011580Y-81408102D01*
X151121894Y-81349137D01*
X151218585Y-81269785D01*
X151297937Y-81173094D01*
X151356902Y-81062780D01*
X151393212Y-80943082D01*
X151403057Y-80843124D01*
X151474493Y-80950036D01*
X151667964Y-81143507D01*
X151895462Y-81295516D01*
X152148244Y-81400222D01*
X152416595Y-81453600D01*
X152690205Y-81453600D01*
X152958556Y-81400222D01*
X153211338Y-81295516D01*
X153438836Y-81143507D01*
X153632307Y-80950036D01*
X153714784Y-80826600D01*
X157470128Y-80826600D01*
X157470128Y-81323400D01*
X157482388Y-81447882D01*
X157518698Y-81567580D01*
X157577663Y-81677894D01*
X157657015Y-81774585D01*
X157753706Y-81853937D01*
X157864020Y-81912902D01*
X157983718Y-81949212D01*
X158108200Y-81961472D01*
X160308200Y-81961472D01*
X160432682Y-81949212D01*
X160552380Y-81912902D01*
X160662694Y-81853937D01*
X160759385Y-81774585D01*
X160838737Y-81677894D01*
X160897702Y-81567580D01*
X160934012Y-81447882D01*
X160946272Y-81323400D01*
X160946272Y-79923400D01*
X160934012Y-79798918D01*
X160897702Y-79679220D01*
X160838737Y-79568906D01*
X160759385Y-79472215D01*
X160662694Y-79392863D01*
X160552380Y-79333898D01*
X160432682Y-79297588D01*
X160308200Y-79285328D01*
X158108200Y-79285328D01*
X157983718Y-79297588D01*
X157967196Y-79302600D01*
X153714784Y-79302600D01*
X153632307Y-79179164D01*
X153438836Y-78985693D01*
X153211338Y-78833684D01*
X152958556Y-78728978D01*
X152690205Y-78675600D01*
X152416595Y-78675600D01*
X152148244Y-78728978D01*
X151895462Y-78833684D01*
X151667964Y-78985693D01*
X151474493Y-79179164D01*
X151403057Y-79286076D01*
X151393212Y-79186118D01*
X151356902Y-79066420D01*
X151297937Y-78956106D01*
X151218585Y-78859415D01*
X151121894Y-78780063D01*
X151011580Y-78721098D01*
X150891882Y-78684788D01*
X150767400Y-78672528D01*
X149259400Y-78672528D01*
X149134918Y-78684788D01*
X149015220Y-78721098D01*
X148904906Y-78780063D01*
X148808215Y-78859415D01*
X148728863Y-78956106D01*
X148669898Y-79066420D01*
X148633588Y-79186118D01*
X148621328Y-79310600D01*
X148621328Y-80818600D01*
X148633588Y-80943082D01*
X148669898Y-81062780D01*
X148728863Y-81173094D01*
X148808215Y-81269785D01*
X148904906Y-81349137D01*
X149015220Y-81408102D01*
X149134918Y-81444412D01*
X149251400Y-81455884D01*
X149251401Y-84168568D01*
X148839642Y-84580328D01*
X147929200Y-84580328D01*
X147804718Y-84592588D01*
X147685020Y-84628898D01*
X147574706Y-84687863D01*
X147478015Y-84767215D01*
X147398663Y-84863906D01*
X147339698Y-84974220D01*
X147303388Y-85093918D01*
X147291128Y-85218400D01*
X144882072Y-85218400D01*
X144882072Y-83941200D01*
X144869812Y-83816718D01*
X144833502Y-83697020D01*
X144774537Y-83586706D01*
X144695185Y-83490015D01*
X144598494Y-83410663D01*
X144488180Y-83351698D01*
X144368482Y-83315388D01*
X144244000Y-83303128D01*
X143917400Y-83303128D01*
X143917400Y-80211284D01*
X144033882Y-80199812D01*
X144153580Y-80163502D01*
X144263894Y-80104537D01*
X144360585Y-80025185D01*
X144439937Y-79928494D01*
X144498902Y-79818180D01*
X144535212Y-79698482D01*
X144547472Y-79574000D01*
X144547472Y-78066000D01*
X144535212Y-77941518D01*
X144498902Y-77821820D01*
X144439937Y-77711506D01*
X144360585Y-77614815D01*
X144263894Y-77535463D01*
X144153580Y-77476498D01*
X144033882Y-77440188D01*
X143909400Y-77427928D01*
X142401400Y-77427928D01*
X142276918Y-77440188D01*
X142157220Y-77476498D01*
X142046906Y-77535463D01*
X141950215Y-77614815D01*
X141870863Y-77711506D01*
X141811898Y-77821820D01*
X141775588Y-77941518D01*
X141765743Y-78041476D01*
X141694307Y-77934564D01*
X141500836Y-77741093D01*
X141377400Y-77658616D01*
X141377400Y-73704739D01*
X141484282Y-73694212D01*
X141603980Y-73657902D01*
X141714294Y-73598937D01*
X141810985Y-73519585D01*
X141890337Y-73422894D01*
X141949302Y-73312580D01*
X141985612Y-73192882D01*
X141997872Y-73068400D01*
X141997872Y-71668400D01*
X141985612Y-71543918D01*
X141949302Y-71424220D01*
X141890337Y-71313906D01*
X141810985Y-71217215D01*
X141714294Y-71137863D01*
X141603980Y-71078898D01*
X141484282Y-71042588D01*
X141359800Y-71030328D01*
X141021800Y-71030328D01*
X141021800Y-68367223D01*
X141025486Y-68329800D01*
X141023994Y-68314656D01*
X144557880Y-71848542D01*
X144585715Y-71882459D01*
X144659928Y-71943364D01*
X144659928Y-72135800D01*
X144672188Y-72260282D01*
X144708498Y-72379980D01*
X144767463Y-72490294D01*
X144846815Y-72586985D01*
X144943506Y-72666337D01*
X145053820Y-72725302D01*
X145173518Y-72761612D01*
X145298000Y-72773872D01*
X146528000Y-72773872D01*
X146652482Y-72761612D01*
X146772180Y-72725302D01*
X146882494Y-72666337D01*
X146979185Y-72586985D01*
X147058537Y-72490294D01*
X147117502Y-72379980D01*
X147153812Y-72260282D01*
X147166072Y-72135800D01*
X147166072Y-70365800D01*
X147153812Y-70241318D01*
X147117502Y-70121620D01*
X147058537Y-70011306D01*
X146979185Y-69914615D01*
X146882494Y-69835263D01*
X146772180Y-69776298D01*
X146652482Y-69739988D01*
X146528000Y-69727728D01*
X145298000Y-69727728D01*
X145173518Y-69739988D01*
X145053820Y-69776298D01*
X145018817Y-69795008D01*
X144688609Y-69464800D01*
X151542328Y-69464800D01*
X151554588Y-69589282D01*
X151590898Y-69708980D01*
X151649863Y-69819294D01*
X151729215Y-69915985D01*
X151825906Y-69995337D01*
X151936220Y-70054302D01*
X152055918Y-70090612D01*
X152180400Y-70102872D01*
X152648650Y-70099800D01*
X152807400Y-69941050D01*
X152807400Y-68837800D01*
X151704150Y-68837800D01*
X151545400Y-68996550D01*
X151542328Y-69464800D01*
X144688609Y-69464800D01*
X143180609Y-67956800D01*
X151542328Y-67956800D01*
X151545400Y-68425050D01*
X151704150Y-68583800D01*
X152807400Y-68583800D01*
X152807400Y-67480550D01*
X152648650Y-67321800D01*
X152180400Y-67318728D01*
X152055918Y-67330988D01*
X151936220Y-67367298D01*
X151825906Y-67426263D01*
X151729215Y-67505615D01*
X151649863Y-67602306D01*
X151590898Y-67712620D01*
X151554588Y-67832318D01*
X151542328Y-67956800D01*
X143180609Y-67956800D01*
X140164210Y-64940401D01*
X153499973Y-64940401D01*
X155973777Y-67414206D01*
X155879556Y-67375178D01*
X155611205Y-67321800D01*
X155337595Y-67321800D01*
X155069244Y-67375178D01*
X154816462Y-67479884D01*
X154588964Y-67631893D01*
X154395493Y-67825364D01*
X154324057Y-67932276D01*
X154314212Y-67832318D01*
X154277902Y-67712620D01*
X154218937Y-67602306D01*
X154139585Y-67505615D01*
X154042894Y-67426263D01*
X153932580Y-67367298D01*
X153812882Y-67330988D01*
X153688400Y-67318728D01*
X153220150Y-67321800D01*
X153061400Y-67480550D01*
X153061400Y-68583800D01*
X153081400Y-68583800D01*
X153081400Y-68837800D01*
X153061400Y-68837800D01*
X153061400Y-69941050D01*
X153113960Y-69993610D01*
X152618770Y-70488800D01*
X150098072Y-70488800D01*
X150098072Y-70365800D01*
X150085812Y-70241318D01*
X150049502Y-70121620D01*
X149990537Y-70011306D01*
X149911185Y-69914615D01*
X149814494Y-69835263D01*
X149704180Y-69776298D01*
X149584482Y-69739988D01*
X149460000Y-69727728D01*
X148230000Y-69727728D01*
X148105518Y-69739988D01*
X147985820Y-69776298D01*
X147875506Y-69835263D01*
X147778815Y-69914615D01*
X147699463Y-70011306D01*
X147640498Y-70121620D01*
X147604188Y-70241318D01*
X147591928Y-70365800D01*
X147591928Y-72135800D01*
X147604188Y-72260282D01*
X147640498Y-72379980D01*
X147699463Y-72490294D01*
X147778815Y-72586985D01*
X147875506Y-72666337D01*
X147985820Y-72725302D01*
X148105518Y-72761612D01*
X148230000Y-72773872D01*
X149460000Y-72773872D01*
X149584482Y-72761612D01*
X149704180Y-72725302D01*
X149814494Y-72666337D01*
X149911185Y-72586985D01*
X149990537Y-72490294D01*
X150049502Y-72379980D01*
X150085812Y-72260282D01*
X150098072Y-72135800D01*
X150098072Y-72012800D01*
X152896977Y-72012800D01*
X152934400Y-72016486D01*
X152971823Y-72012800D01*
X152971826Y-72012800D01*
X153083778Y-72001774D01*
X153227415Y-71958202D01*
X153359792Y-71887445D01*
X153475822Y-71792222D01*
X153499684Y-71763146D01*
X155191993Y-70070838D01*
X155337595Y-70099800D01*
X155611205Y-70099800D01*
X155879556Y-70046422D01*
X156132338Y-69941716D01*
X156359836Y-69789707D01*
X156553307Y-69596236D01*
X156705316Y-69368738D01*
X156810022Y-69115956D01*
X156863400Y-68847605D01*
X156863400Y-68573995D01*
X156810022Y-68305644D01*
X156770994Y-68211423D01*
X158764600Y-70205029D01*
X158764599Y-73182776D01*
X158760913Y-73220199D01*
X158764599Y-73257622D01*
X158764599Y-73257624D01*
X158775625Y-73369576D01*
X158819197Y-73513213D01*
X158831805Y-73536800D01*
X158889954Y-73645591D01*
X158921406Y-73683915D01*
X158985177Y-73761621D01*
X159014253Y-73785483D01*
X159315921Y-74087151D01*
X159272600Y-74304940D01*
X159272600Y-74597460D01*
X159329668Y-74884358D01*
X159441610Y-75154611D01*
X159604125Y-75397832D01*
X159775093Y-75568800D01*
X146416761Y-75568800D01*
X146260210Y-75464196D01*
X146082243Y-75390480D01*
X145893315Y-75352900D01*
X145700685Y-75352900D01*
X145511757Y-75390480D01*
X145333790Y-75464196D01*
X145173625Y-75571215D01*
X145037415Y-75707425D01*
X144930396Y-75867590D01*
X144856680Y-76045557D01*
X144819100Y-76234485D01*
X144819100Y-76427115D01*
X144856680Y-76616043D01*
X144930396Y-76794010D01*
X145037415Y-76954175D01*
X145173625Y-77090385D01*
X145333790Y-77197404D01*
X145511757Y-77271120D01*
X145700685Y-77308700D01*
X145893315Y-77308700D01*
X146082243Y-77271120D01*
X146260210Y-77197404D01*
X146416761Y-77092800D01*
X160662459Y-77092800D01*
X160699882Y-77096486D01*
X160737305Y-77092800D01*
X160737308Y-77092800D01*
X160849260Y-77081774D01*
X160992897Y-77038202D01*
X161125274Y-76967445D01*
X161241304Y-76872222D01*
X161265166Y-76843146D01*
X162500954Y-75607359D01*
X162530023Y-75583503D01*
X162557373Y-75550177D01*
X162625246Y-75467474D01*
X162679698Y-75365600D01*
X162696003Y-75335096D01*
X162739575Y-75191459D01*
X162750601Y-75079507D01*
X162750601Y-75079504D01*
X162754287Y-75042081D01*
X162750601Y-75004658D01*
X162750601Y-73179623D01*
X162754287Y-73142200D01*
X162750601Y-73104775D01*
X162739575Y-72992823D01*
X162696003Y-72849186D01*
X162625246Y-72716809D01*
X162530023Y-72600779D01*
X162500953Y-72576922D01*
X162199279Y-72275248D01*
X162242600Y-72057460D01*
X162242600Y-71764940D01*
X162185532Y-71478042D01*
X162073590Y-71207789D01*
X161911075Y-70964568D01*
X161704232Y-70757725D01*
X161529840Y-70641200D01*
X161704232Y-70524675D01*
X161911075Y-70317832D01*
X162073590Y-70074611D01*
X162185532Y-69804358D01*
X162242600Y-69517460D01*
X162242600Y-69224940D01*
X162185532Y-68938042D01*
X162073590Y-68667789D01*
X161911075Y-68424568D01*
X161704232Y-68217725D01*
X161529840Y-68101200D01*
X161704232Y-67984675D01*
X161911075Y-67777832D01*
X162073590Y-67534611D01*
X162185532Y-67264358D01*
X162242600Y-66977460D01*
X162242600Y-66684940D01*
X162185532Y-66398042D01*
X162073590Y-66127789D01*
X161911075Y-65884568D01*
X161704232Y-65677725D01*
X161529840Y-65561200D01*
X161704232Y-65444675D01*
X161911075Y-65237832D01*
X162073590Y-64994611D01*
X162185532Y-64724358D01*
X162242600Y-64437460D01*
X162242600Y-64144940D01*
X162185532Y-63858042D01*
X162073590Y-63587789D01*
X161911075Y-63344568D01*
X161704232Y-63137725D01*
X161529840Y-63021200D01*
X161704232Y-62904675D01*
X161911075Y-62697832D01*
X162073590Y-62454611D01*
X162185532Y-62184358D01*
X162242600Y-61897460D01*
X162242600Y-61604940D01*
X162185532Y-61318042D01*
X162073590Y-61047789D01*
X161911075Y-60804568D01*
X161704232Y-60597725D01*
X161529840Y-60481200D01*
X161704232Y-60364675D01*
X161911075Y-60157832D01*
X162073590Y-59914611D01*
X162185532Y-59644358D01*
X162242600Y-59357460D01*
X162242600Y-59064940D01*
X162185532Y-58778042D01*
X162073590Y-58507789D01*
X161911075Y-58264568D01*
X161779220Y-58132713D01*
X161851780Y-58110702D01*
X161962094Y-58051737D01*
X162058785Y-57972385D01*
X162138137Y-57875694D01*
X162197102Y-57765380D01*
X162233412Y-57645682D01*
X162245672Y-57521200D01*
X162242600Y-56956950D01*
X162083850Y-56798200D01*
X160884600Y-56798200D01*
X160884600Y-56818200D01*
X160630600Y-56818200D01*
X160630600Y-56798200D01*
X160610600Y-56798200D01*
X160610600Y-56544200D01*
X160630600Y-56544200D01*
X160630600Y-55344950D01*
X160884600Y-55344950D01*
X160884600Y-56544200D01*
X162083850Y-56544200D01*
X162242600Y-56385450D01*
X162245672Y-55821200D01*
X162233412Y-55696718D01*
X162197102Y-55577020D01*
X162138137Y-55466706D01*
X162058785Y-55370015D01*
X161962094Y-55290663D01*
X161851780Y-55231698D01*
X161732082Y-55195388D01*
X161607600Y-55183128D01*
X161043350Y-55186200D01*
X160884600Y-55344950D01*
X160630600Y-55344950D01*
X160471850Y-55186200D01*
X159970689Y-55183471D01*
X160018585Y-55135575D01*
X160125604Y-54975410D01*
X160199320Y-54797443D01*
X160236900Y-54608515D01*
X160236900Y-54415885D01*
X160199320Y-54226957D01*
X160125604Y-54048990D01*
X160021000Y-53892439D01*
X160021000Y-47945623D01*
X160024686Y-47908200D01*
X160020471Y-47865402D01*
X160009974Y-47758822D01*
X159966402Y-47615185D01*
X159933465Y-47553564D01*
X159895645Y-47482807D01*
X159852809Y-47430612D01*
X159800422Y-47366778D01*
X159771347Y-47342917D01*
X158046284Y-45617854D01*
X158022422Y-45588778D01*
X157906392Y-45493555D01*
X157774015Y-45422798D01*
X157630378Y-45379226D01*
X157518426Y-45368200D01*
X157518423Y-45368200D01*
X157481000Y-45364514D01*
X157443577Y-45368200D01*
X135135472Y-45368200D01*
X135135472Y-45270200D01*
X135123212Y-45145718D01*
X135086902Y-45026020D01*
X135027937Y-44915706D01*
X134948585Y-44819015D01*
X134851894Y-44739663D01*
X134741580Y-44680698D01*
X134621882Y-44644388D01*
X134497400Y-44632128D01*
X133157400Y-44632128D01*
X133032918Y-44644388D01*
X132913220Y-44680698D01*
X132802906Y-44739663D01*
X132706215Y-44819015D01*
X132626863Y-44915706D01*
X132567898Y-45026020D01*
X132531588Y-45145718D01*
X132519328Y-45270200D01*
X132519328Y-46990200D01*
X132531588Y-47114682D01*
X132567898Y-47234380D01*
X132626863Y-47344694D01*
X132706215Y-47441385D01*
X132802906Y-47520737D01*
X132913220Y-47579702D01*
X133032918Y-47616012D01*
X133157400Y-47628272D01*
X134497400Y-47628272D01*
X134621882Y-47616012D01*
X134741580Y-47579702D01*
X134851894Y-47520737D01*
X134948585Y-47441385D01*
X135027937Y-47344694D01*
X135086902Y-47234380D01*
X135123212Y-47114682D01*
X135135472Y-46990200D01*
X135135472Y-46892200D01*
X157165370Y-46892200D01*
X158497000Y-48223830D01*
X158497001Y-53892438D01*
X158392396Y-54048990D01*
X158318680Y-54226957D01*
X158281100Y-54415885D01*
X158281100Y-54608515D01*
X158318680Y-54797443D01*
X158392396Y-54975410D01*
X158499415Y-55135575D01*
X158635625Y-55271785D01*
X158795790Y-55378804D01*
X158973757Y-55452520D01*
X159162685Y-55490100D01*
X159355315Y-55490100D01*
X159365658Y-55488043D01*
X159318098Y-55577020D01*
X159281788Y-55696718D01*
X159269528Y-55821200D01*
X159272600Y-56385450D01*
X159431348Y-56544198D01*
X159347833Y-56544198D01*
X157962699Y-55159064D01*
X157934859Y-55125141D01*
X157799491Y-55014047D01*
X157645051Y-54931497D01*
X157477474Y-54880664D01*
X157346867Y-54867800D01*
X157346860Y-54867800D01*
X157303200Y-54863500D01*
X157259540Y-54867800D01*
X142247459Y-54867800D01*
X142203799Y-54863500D01*
X142160139Y-54867800D01*
X142160133Y-54867800D01*
X142062724Y-54877394D01*
X142029524Y-54880664D01*
X141927858Y-54911504D01*
X141861949Y-54931497D01*
X141707509Y-55014047D01*
X141572141Y-55125141D01*
X141544305Y-55159059D01*
X140779659Y-55923706D01*
X140745742Y-55951541D01*
X140717907Y-55985458D01*
X140717905Y-55985460D01*
X140634648Y-56086909D01*
X140574665Y-56199128D01*
X140527400Y-56199128D01*
X140402918Y-56211388D01*
X140283220Y-56247698D01*
X140172906Y-56306663D01*
X140076215Y-56386015D01*
X139996863Y-56482706D01*
X139937898Y-56593020D01*
X139901588Y-56712718D01*
X139893169Y-56798200D01*
X139459636Y-56798200D01*
X138023699Y-55362264D01*
X137995859Y-55328341D01*
X137860491Y-55217247D01*
X137706051Y-55134697D01*
X137538474Y-55083864D01*
X137407867Y-55071000D01*
X137407860Y-55071000D01*
X137364200Y-55066700D01*
X137320540Y-55071000D01*
X129828461Y-55071000D01*
X129464800Y-54707339D01*
X129464800Y-54205583D01*
X129522432Y-54167075D01*
X129729275Y-53960232D01*
X129845800Y-53785840D01*
X129962325Y-53960232D01*
X130169168Y-54167075D01*
X130412389Y-54329590D01*
X130682642Y-54441532D01*
X130969540Y-54498600D01*
X131262060Y-54498600D01*
X131548958Y-54441532D01*
X131819211Y-54329590D01*
X132062432Y-54167075D01*
X132269275Y-53960232D01*
X132385800Y-53785840D01*
X132502325Y-53960232D01*
X132709168Y-54167075D01*
X132952389Y-54329590D01*
X133222642Y-54441532D01*
X133509540Y-54498600D01*
X133802060Y-54498600D01*
X134088958Y-54441532D01*
X134359211Y-54329590D01*
X134602432Y-54167075D01*
X134809275Y-53960232D01*
X134925800Y-53785840D01*
X135042325Y-53960232D01*
X135249168Y-54167075D01*
X135492389Y-54329590D01*
X135762642Y-54441532D01*
X136049540Y-54498600D01*
X136342060Y-54498600D01*
X136628958Y-54441532D01*
X136899211Y-54329590D01*
X137142432Y-54167075D01*
X137349275Y-53960232D01*
X137470995Y-53778066D01*
X137540622Y-53894955D01*
X137735531Y-54111188D01*
X137968880Y-54285241D01*
X138231701Y-54410425D01*
X138378910Y-54455076D01*
X138608800Y-54333755D01*
X138608800Y-53140600D01*
X138588800Y-53140600D01*
X138588800Y-52886600D01*
X138608800Y-52886600D01*
X138608800Y-52866600D01*
X138862800Y-52866600D01*
X138862800Y-52886600D01*
X138882800Y-52886600D01*
X138882800Y-53140600D01*
X138862800Y-53140600D01*
X138862800Y-54333755D01*
X139092690Y-54455076D01*
X139239899Y-54410425D01*
X139502720Y-54285241D01*
X139736069Y-54111188D01*
X139930978Y-53894955D01*
X140000605Y-53778066D01*
X140122325Y-53960232D01*
X140329168Y-54167075D01*
X140572389Y-54329590D01*
X140842642Y-54441532D01*
X141129540Y-54498600D01*
X141422060Y-54498600D01*
X141708958Y-54441532D01*
X141979211Y-54329590D01*
X142222432Y-54167075D01*
X142429275Y-53960232D01*
X142545800Y-53785840D01*
X142662325Y-53960232D01*
X142869168Y-54167075D01*
X143112389Y-54329590D01*
X143382642Y-54441532D01*
X143669540Y-54498600D01*
X143962060Y-54498600D01*
X144248958Y-54441532D01*
X144519211Y-54329590D01*
X144762432Y-54167075D01*
X144969275Y-53960232D01*
X145085800Y-53785840D01*
X145202325Y-53960232D01*
X145409168Y-54167075D01*
X145652389Y-54329590D01*
X145922642Y-54441532D01*
X146209540Y-54498600D01*
X146502060Y-54498600D01*
X146788958Y-54441532D01*
X147059211Y-54329590D01*
X147302432Y-54167075D01*
X147509275Y-53960232D01*
X147625800Y-53785840D01*
X147742325Y-53960232D01*
X147949168Y-54167075D01*
X148192389Y-54329590D01*
X148462642Y-54441532D01*
X148749540Y-54498600D01*
X149042060Y-54498600D01*
X149328958Y-54441532D01*
X149599211Y-54329590D01*
X149842432Y-54167075D01*
X150049275Y-53960232D01*
X150165800Y-53785840D01*
X150282325Y-53960232D01*
X150489168Y-54167075D01*
X150732389Y-54329590D01*
X151002642Y-54441532D01*
X151289540Y-54498600D01*
X151582060Y-54498600D01*
X151868958Y-54441532D01*
X152139211Y-54329590D01*
X152382432Y-54167075D01*
X152589275Y-53960232D01*
X152705800Y-53785840D01*
X152822325Y-53960232D01*
X153029168Y-54167075D01*
X153272389Y-54329590D01*
X153542642Y-54441532D01*
X153829540Y-54498600D01*
X154122060Y-54498600D01*
X154408958Y-54441532D01*
X154679211Y-54329590D01*
X154922432Y-54167075D01*
X155129275Y-53960232D01*
X155250995Y-53778066D01*
X155320622Y-53894955D01*
X155515531Y-54111188D01*
X155748880Y-54285241D01*
X156011701Y-54410425D01*
X156158910Y-54455076D01*
X156388800Y-54333755D01*
X156388800Y-53140600D01*
X156642800Y-53140600D01*
X156642800Y-54333755D01*
X156872690Y-54455076D01*
X157019899Y-54410425D01*
X157282720Y-54285241D01*
X157516069Y-54111188D01*
X157710978Y-53894955D01*
X157859957Y-53644852D01*
X157957281Y-53370491D01*
X157836614Y-53140600D01*
X156642800Y-53140600D01*
X156388800Y-53140600D01*
X156368800Y-53140600D01*
X156368800Y-52886600D01*
X156388800Y-52886600D01*
X156388800Y-52866600D01*
X156642800Y-52866600D01*
X156642800Y-52886600D01*
X157836614Y-52886600D01*
X157957281Y-52656709D01*
X157859957Y-52382348D01*
X157710978Y-52132245D01*
X157516069Y-51916012D01*
X157286394Y-51744700D01*
X157462432Y-51627075D01*
X157669275Y-51420232D01*
X157831790Y-51177011D01*
X157943732Y-50906758D01*
X158000800Y-50619860D01*
X158000800Y-50327340D01*
X157943732Y-50040442D01*
X157831790Y-49770189D01*
X157669275Y-49526968D01*
X157462432Y-49320125D01*
X157219211Y-49157610D01*
X156948958Y-49045668D01*
X156662060Y-48988600D01*
X156369540Y-48988600D01*
X156082642Y-49045668D01*
X155812389Y-49157610D01*
X155569168Y-49320125D01*
X155362325Y-49526968D01*
X155245800Y-49701360D01*
X155129275Y-49526968D01*
X154922432Y-49320125D01*
X154679211Y-49157610D01*
X154408958Y-49045668D01*
X154122060Y-48988600D01*
X153829540Y-48988600D01*
X153542642Y-49045668D01*
X153272389Y-49157610D01*
X153029168Y-49320125D01*
X152822325Y-49526968D01*
X152705800Y-49701360D01*
X152589275Y-49526968D01*
X152382432Y-49320125D01*
X152139211Y-49157610D01*
X151868958Y-49045668D01*
X151582060Y-48988600D01*
X151289540Y-48988600D01*
X151002642Y-49045668D01*
X150732389Y-49157610D01*
X150489168Y-49320125D01*
X150282325Y-49526968D01*
X150160605Y-49709134D01*
X150090978Y-49592245D01*
X149896069Y-49376012D01*
X149662720Y-49201959D01*
X149399899Y-49076775D01*
X149252690Y-49032124D01*
X149022800Y-49153445D01*
X149022800Y-50346600D01*
X149042800Y-50346600D01*
X149042800Y-50600600D01*
X149022800Y-50600600D01*
X149022800Y-50620600D01*
X148768800Y-50620600D01*
X148768800Y-50600600D01*
X148748800Y-50600600D01*
X148748800Y-50346600D01*
X148768800Y-50346600D01*
X148768800Y-49153445D01*
X148538910Y-49032124D01*
X148391701Y-49076775D01*
X148128880Y-49201959D01*
X147895531Y-49376012D01*
X147700622Y-49592245D01*
X147630995Y-49709134D01*
X147509275Y-49526968D01*
X147302432Y-49320125D01*
X147059211Y-49157610D01*
X146788958Y-49045668D01*
X146502060Y-48988600D01*
X146209540Y-48988600D01*
X145922642Y-49045668D01*
X145652389Y-49157610D01*
X145409168Y-49320125D01*
X145202325Y-49526968D01*
X145080605Y-49709134D01*
X145010978Y-49592245D01*
X144816069Y-49376012D01*
X144582720Y-49201959D01*
X144319899Y-49076775D01*
X144172690Y-49032124D01*
X143942800Y-49153445D01*
X143942800Y-50346600D01*
X143962800Y-50346600D01*
X143962800Y-50600600D01*
X143942800Y-50600600D01*
X143942800Y-50620600D01*
X143688800Y-50620600D01*
X143688800Y-50600600D01*
X143668800Y-50600600D01*
X143668800Y-50346600D01*
X143688800Y-50346600D01*
X143688800Y-49153445D01*
X143458910Y-49032124D01*
X143311701Y-49076775D01*
X143048880Y-49201959D01*
X142815531Y-49376012D01*
X142620622Y-49592245D01*
X142550995Y-49709134D01*
X142429275Y-49526968D01*
X142222432Y-49320125D01*
X141979211Y-49157610D01*
X141708958Y-49045668D01*
X141422060Y-48988600D01*
X141129540Y-48988600D01*
X140842642Y-49045668D01*
X140572389Y-49157610D01*
X140329168Y-49320125D01*
X140122325Y-49526968D01*
X140005800Y-49701360D01*
X139889275Y-49526968D01*
X139682432Y-49320125D01*
X139439211Y-49157610D01*
X139168958Y-49045668D01*
X138882060Y-48988600D01*
X138589540Y-48988600D01*
X138302642Y-49045668D01*
X138032389Y-49157610D01*
X137789168Y-49320125D01*
X137582325Y-49526968D01*
X137465800Y-49701360D01*
X137349275Y-49526968D01*
X137142432Y-49320125D01*
X136899211Y-49157610D01*
X136628958Y-49045668D01*
X136342060Y-48988600D01*
X136049540Y-48988600D01*
X135762642Y-49045668D01*
X135492389Y-49157610D01*
X135249168Y-49320125D01*
X135042325Y-49526968D01*
X134925800Y-49701360D01*
X134809275Y-49526968D01*
X134602432Y-49320125D01*
X134359211Y-49157610D01*
X134088958Y-49045668D01*
X133802060Y-48988600D01*
X133509540Y-48988600D01*
X133222642Y-49045668D01*
X132952389Y-49157610D01*
X132709168Y-49320125D01*
X132502325Y-49526968D01*
X132380605Y-49709134D01*
X132310978Y-49592245D01*
X132116069Y-49376012D01*
X131882720Y-49201959D01*
X131619899Y-49076775D01*
X131472690Y-49032124D01*
X131242800Y-49153445D01*
X131242800Y-50346600D01*
X131262800Y-50346600D01*
X131262800Y-50600600D01*
X131242800Y-50600600D01*
X131242800Y-50620600D01*
X130988800Y-50620600D01*
X130988800Y-50600600D01*
X130968800Y-50600600D01*
X130968800Y-50346600D01*
X130988800Y-50346600D01*
X130988800Y-49153445D01*
X130758910Y-49032124D01*
X130611701Y-49076775D01*
X130348880Y-49201959D01*
X130115531Y-49376012D01*
X129920622Y-49592245D01*
X129850995Y-49709134D01*
X129729275Y-49526968D01*
X129522432Y-49320125D01*
X129279211Y-49157610D01*
X129008958Y-49045668D01*
X128722060Y-48988600D01*
X128429540Y-48988600D01*
X128142642Y-49045668D01*
X128106799Y-49060515D01*
X128106799Y-47473631D01*
X128688231Y-46892200D01*
X129839328Y-46892200D01*
X129839328Y-46990200D01*
X129851588Y-47114682D01*
X129887898Y-47234380D01*
X129946863Y-47344694D01*
X130026215Y-47441385D01*
X130122906Y-47520737D01*
X130233220Y-47579702D01*
X130352918Y-47616012D01*
X130477400Y-47628272D01*
X131817400Y-47628272D01*
X131941882Y-47616012D01*
X132061580Y-47579702D01*
X132171894Y-47520737D01*
X132268585Y-47441385D01*
X132347937Y-47344694D01*
X132406902Y-47234380D01*
X132443212Y-47114682D01*
X132455472Y-46990200D01*
X132455472Y-45270200D01*
X132443212Y-45145718D01*
X132406902Y-45026020D01*
X132347937Y-44915706D01*
X132268585Y-44819015D01*
X132171894Y-44739663D01*
X132061580Y-44680698D01*
X131941882Y-44644388D01*
X131817400Y-44632128D01*
X130477400Y-44632128D01*
X130352918Y-44644388D01*
X130233220Y-44680698D01*
X130122906Y-44739663D01*
X130026215Y-44819015D01*
X129946863Y-44915706D01*
X129887898Y-45026020D01*
X129851588Y-45145718D01*
X129839328Y-45270200D01*
X129839328Y-45368200D01*
X128410022Y-45368200D01*
X128372599Y-45364514D01*
X128335176Y-45368200D01*
X128335174Y-45368200D01*
X128223222Y-45379226D01*
X128079585Y-45422798D01*
X127947208Y-45493555D01*
X127831178Y-45588778D01*
X127807321Y-45617849D01*
X126832448Y-46592722D01*
X126803378Y-46616579D01*
X126779521Y-46645649D01*
X126779520Y-46645650D01*
X126708154Y-46732609D01*
X126637398Y-46864986D01*
X126593826Y-47008623D01*
X126579113Y-47158001D01*
X126582800Y-47195434D01*
X126582800Y-49092823D01*
X126468958Y-49045668D01*
X126182060Y-48988600D01*
X125889540Y-48988600D01*
X125602642Y-49045668D01*
X125332389Y-49157610D01*
X125089168Y-49320125D01*
X124882325Y-49526968D01*
X124760605Y-49709134D01*
X124690978Y-49592245D01*
X124496069Y-49376012D01*
X124262720Y-49201959D01*
X123999899Y-49076775D01*
X123852690Y-49032124D01*
X123622800Y-49153445D01*
X123622800Y-50346600D01*
X123642800Y-50346600D01*
X123642800Y-50600600D01*
X123622800Y-50600600D01*
X123622800Y-50620600D01*
X123368800Y-50620600D01*
X123368800Y-50600600D01*
X123348800Y-50600600D01*
X123348800Y-50346600D01*
X123368800Y-50346600D01*
X123368800Y-49153445D01*
X123138910Y-49032124D01*
X122991701Y-49076775D01*
X122728880Y-49201959D01*
X122495531Y-49376012D01*
X122300622Y-49592245D01*
X122230995Y-49709134D01*
X122109275Y-49526968D01*
X121902432Y-49320125D01*
X121659211Y-49157610D01*
X121388958Y-49045668D01*
X121102060Y-48988600D01*
X120809540Y-48988600D01*
X120522642Y-49045668D01*
X120252389Y-49157610D01*
X120009168Y-49320125D01*
X119802325Y-49526968D01*
X119685800Y-49701360D01*
X119569275Y-49526968D01*
X119362432Y-49320125D01*
X119119211Y-49157610D01*
X118848958Y-49045668D01*
X118562060Y-48988600D01*
X118269540Y-48988600D01*
X117982642Y-49045668D01*
X117712389Y-49157610D01*
X117469168Y-49320125D01*
X117262325Y-49526968D01*
X117145800Y-49701360D01*
X117029275Y-49526968D01*
X116822432Y-49320125D01*
X116579211Y-49157610D01*
X116308958Y-49045668D01*
X116022060Y-48988600D01*
X115729540Y-48988600D01*
X115442642Y-49045668D01*
X115172389Y-49157610D01*
X114929168Y-49320125D01*
X114722325Y-49526968D01*
X114600605Y-49709134D01*
X114530978Y-49592245D01*
X114336069Y-49376012D01*
X114102720Y-49201959D01*
X113839899Y-49076775D01*
X113692690Y-49032124D01*
X113462800Y-49153445D01*
X113462800Y-50346600D01*
X113482800Y-50346600D01*
X113482800Y-50600600D01*
X113462800Y-50600600D01*
X113462800Y-50620600D01*
X113208800Y-50620600D01*
X113208800Y-50600600D01*
X113188800Y-50600600D01*
X113188800Y-50346600D01*
X113208800Y-50346600D01*
X113208800Y-49153445D01*
X112978910Y-49032124D01*
X112831701Y-49076775D01*
X112568880Y-49201959D01*
X112335531Y-49376012D01*
X112140622Y-49592245D01*
X112070995Y-49709134D01*
X111949275Y-49526968D01*
X111742432Y-49320125D01*
X111499211Y-49157610D01*
X111228958Y-49045668D01*
X110942060Y-48988600D01*
X110649540Y-48988600D01*
X110362642Y-49045668D01*
X110092389Y-49157610D01*
X109849168Y-49320125D01*
X109642325Y-49526968D01*
X109525800Y-49701360D01*
X109409275Y-49526968D01*
X109202432Y-49320125D01*
X108959211Y-49157610D01*
X108688958Y-49045668D01*
X108402060Y-48988600D01*
X108109540Y-48988600D01*
X107822642Y-49045668D01*
X107552389Y-49157610D01*
X107309168Y-49320125D01*
X107102325Y-49526968D01*
X107011200Y-49663346D01*
X107011200Y-48352635D01*
X108370036Y-46993800D01*
X115998359Y-46993800D01*
X116015098Y-47048980D01*
X116074063Y-47159294D01*
X116153415Y-47255985D01*
X116250106Y-47335337D01*
X116360420Y-47394302D01*
X116480118Y-47430612D01*
X116604600Y-47442872D01*
X118804600Y-47442872D01*
X118929082Y-47430612D01*
X119048780Y-47394302D01*
X119159094Y-47335337D01*
X119255785Y-47255985D01*
X119335137Y-47159294D01*
X119394102Y-47048980D01*
X119430412Y-46929282D01*
X119442672Y-46804800D01*
X119442672Y-45404800D01*
X119430412Y-45280318D01*
X119394102Y-45160620D01*
X119335137Y-45050306D01*
X119255785Y-44953615D01*
X119159094Y-44874263D01*
X119048780Y-44815298D01*
X118929082Y-44778988D01*
X118804600Y-44766728D01*
X116604600Y-44766728D01*
X116480118Y-44778988D01*
X116360420Y-44815298D01*
X116250106Y-44874263D01*
X116153415Y-44953615D01*
X116074063Y-45050306D01*
X116015098Y-45160620D01*
X115998359Y-45215800D01*
X108045460Y-45215800D01*
X108001800Y-45211500D01*
X107958140Y-45215800D01*
X107958133Y-45215800D01*
X107844125Y-45227029D01*
X107827525Y-45228664D01*
X107766367Y-45247216D01*
X107659949Y-45279497D01*
X107505509Y-45362047D01*
X107370141Y-45473141D01*
X107342306Y-45507058D01*
X105524459Y-47324906D01*
X105490542Y-47352741D01*
X105462707Y-47386658D01*
X105462705Y-47386660D01*
X105379448Y-47488109D01*
X105296898Y-47642548D01*
X105246064Y-47810126D01*
X105228900Y-47984400D01*
X105233201Y-48028070D01*
X105233200Y-50595117D01*
X105220664Y-50636444D01*
X105207800Y-50767051D01*
X105207800Y-50767058D01*
X105203500Y-50810718D01*
X105205661Y-50832659D01*
X105203500Y-50854600D01*
X105207800Y-50898260D01*
X105207800Y-50898266D01*
X105220664Y-51028873D01*
X105271497Y-51196450D01*
X105354047Y-51350890D01*
X105465141Y-51486259D01*
X105499064Y-51514099D01*
X106767728Y-52782764D01*
X106767728Y-53863600D01*
X106779988Y-53988082D01*
X106816298Y-54107780D01*
X106875263Y-54218094D01*
X106954615Y-54314785D01*
X107051306Y-54394137D01*
X107161620Y-54453102D01*
X107281318Y-54489412D01*
X107405800Y-54501672D01*
X109105800Y-54501672D01*
X109230282Y-54489412D01*
X109349980Y-54453102D01*
X109460294Y-54394137D01*
X109556985Y-54314785D01*
X109636337Y-54218094D01*
X109695302Y-54107780D01*
X109717313Y-54035220D01*
X109849168Y-54167075D01*
X110092389Y-54329590D01*
X110362642Y-54441532D01*
X110649540Y-54498600D01*
X110942060Y-54498600D01*
X111159848Y-54455279D01*
X111471401Y-54766832D01*
X111471401Y-54857557D01*
X106738150Y-54860400D01*
X106579400Y-55019150D01*
X106579400Y-60573400D01*
X106599400Y-60573400D01*
X106599400Y-60827400D01*
X106579400Y-60827400D01*
X106579400Y-66381650D01*
X106738150Y-66540400D01*
X111471402Y-66543243D01*
X111471402Y-70669768D01*
X111467715Y-70707201D01*
X111482428Y-70856579D01*
X111526000Y-71000216D01*
X111596756Y-71132593D01*
X111666204Y-71217215D01*
X111691980Y-71248623D01*
X111699316Y-71254643D01*
X111735080Y-71434443D01*
X111808796Y-71612410D01*
X111906611Y-71758800D01*
X110984053Y-71758800D01*
X111015212Y-71656082D01*
X111027472Y-71531600D01*
X111024400Y-70317350D01*
X110865650Y-70158600D01*
X109983000Y-70158600D01*
X109983000Y-72007850D01*
X110029957Y-72054807D01*
X109386165Y-72698600D01*
X109043200Y-72698600D01*
X109043200Y-72102276D01*
X109078420Y-72121102D01*
X109198118Y-72157412D01*
X109322600Y-72169672D01*
X109570250Y-72166600D01*
X109729000Y-72007850D01*
X109729000Y-70158600D01*
X109709000Y-70158600D01*
X109709000Y-69904600D01*
X109729000Y-69904600D01*
X109729000Y-68055350D01*
X109983000Y-68055350D01*
X109983000Y-69904600D01*
X110865650Y-69904600D01*
X111024400Y-69745850D01*
X111027472Y-68531600D01*
X111015212Y-68407118D01*
X110978902Y-68287420D01*
X110919937Y-68177106D01*
X110840585Y-68080415D01*
X110743894Y-68001063D01*
X110633580Y-67942098D01*
X110513882Y-67905788D01*
X110389400Y-67893528D01*
X110141750Y-67896600D01*
X109983000Y-68055350D01*
X109729000Y-68055350D01*
X109570250Y-67896600D01*
X109322600Y-67893528D01*
X109198118Y-67905788D01*
X109078420Y-67942098D01*
X109005100Y-67981289D01*
X108931780Y-67942098D01*
X108812082Y-67905788D01*
X108687600Y-67893528D01*
X107620800Y-67893528D01*
X107496318Y-67905788D01*
X107376620Y-67942098D01*
X107303300Y-67981289D01*
X107229980Y-67942098D01*
X107110282Y-67905788D01*
X106985800Y-67893528D01*
X106738150Y-67896600D01*
X106579400Y-68055350D01*
X106579400Y-69904600D01*
X106599400Y-69904600D01*
X106599400Y-70158600D01*
X106579400Y-70158600D01*
X106579400Y-72007850D01*
X106738150Y-72166600D01*
X106985800Y-72169672D01*
X107110282Y-72157412D01*
X107229980Y-72121102D01*
X107265201Y-72102276D01*
X107265201Y-73222570D01*
X106187940Y-72145310D01*
X106325400Y-72007850D01*
X106325400Y-70158600D01*
X106305400Y-70158600D01*
X106305400Y-69904600D01*
X106325400Y-69904600D01*
X106325400Y-68055350D01*
X106166650Y-67896600D01*
X105919000Y-67893528D01*
X105794518Y-67905788D01*
X105674820Y-67942098D01*
X105601500Y-67981289D01*
X105528180Y-67942098D01*
X105408482Y-67905788D01*
X105284000Y-67893528D01*
X104217200Y-67893528D01*
X104092718Y-67905788D01*
X103973020Y-67942098D01*
X103899700Y-67981289D01*
X103826380Y-67942098D01*
X103706682Y-67905788D01*
X103582200Y-67893528D01*
X102515400Y-67893528D01*
X102390918Y-67905788D01*
X102271220Y-67942098D01*
X102160906Y-68001063D01*
X102064215Y-68080415D01*
X101984863Y-68177106D01*
X101925898Y-68287420D01*
X101889588Y-68407118D01*
X101877328Y-68531600D01*
X101877328Y-71531600D01*
X101889588Y-71656082D01*
X101925898Y-71775780D01*
X101984863Y-71886094D01*
X102064215Y-71982785D01*
X102159800Y-72061230D01*
X102159801Y-77659728D01*
X101948800Y-77659728D01*
X101824318Y-77671988D01*
X101704620Y-77708298D01*
X101594306Y-77767263D01*
X101497615Y-77846615D01*
X101418263Y-77943306D01*
X101359298Y-78053620D01*
X101322988Y-78173318D01*
X101310728Y-78297800D01*
X100526347Y-78297800D01*
X100493814Y-66207419D01*
X100521863Y-66259894D01*
X100601215Y-66356585D01*
X100697906Y-66435937D01*
X100808220Y-66494902D01*
X100927918Y-66531212D01*
X101052400Y-66543472D01*
X106166650Y-66540400D01*
X106325400Y-66381650D01*
X106325400Y-60827400D01*
X106305400Y-60827400D01*
X106305400Y-60573400D01*
X106325400Y-60573400D01*
X106325400Y-55019150D01*
X106166650Y-54860400D01*
X101052400Y-54857328D01*
X100927918Y-54869588D01*
X100808220Y-54905898D01*
X100697906Y-54964863D01*
X100601215Y-55044215D01*
X100521863Y-55140906D01*
X100464326Y-55248548D01*
X100437693Y-45350274D01*
X100484553Y-44872366D01*
X100613538Y-44445145D01*
X100823046Y-44051116D01*
X101105099Y-43705286D01*
X101448951Y-43420827D01*
X101841510Y-43208571D01*
X102267813Y-43076608D01*
X102744564Y-43026500D01*
X161692879Y-43026500D01*
X162171734Y-43073453D01*
G37*
G04 #@! TD.AperFunction*
D33*
X114001521Y-54756952D02*
X114025379Y-54786023D01*
X114141409Y-54881246D01*
X114273786Y-54952003D01*
X114417423Y-54995575D01*
X114529375Y-55006601D01*
X114529377Y-55006601D01*
X114566800Y-55010287D01*
X114604223Y-55006601D01*
X116683374Y-55006601D01*
X122924333Y-61247561D01*
X122948191Y-61276632D01*
X123064221Y-61371855D01*
X123196598Y-61442612D01*
X123340235Y-61486184D01*
X123452187Y-61497210D01*
X123452189Y-61497210D01*
X123489612Y-61500896D01*
X123527035Y-61497210D01*
X135800214Y-61497210D01*
X136410351Y-62107348D01*
X136373600Y-62103728D01*
X133452600Y-62103728D01*
X133328118Y-62115988D01*
X133208420Y-62152298D01*
X133098106Y-62211263D01*
X133001415Y-62290615D01*
X132922063Y-62387306D01*
X132863098Y-62497620D01*
X132826788Y-62617318D01*
X132814528Y-62741800D01*
X132814528Y-63478400D01*
X131057859Y-63478400D01*
X131014199Y-63474100D01*
X130970539Y-63478400D01*
X130970533Y-63478400D01*
X130873124Y-63487994D01*
X130839924Y-63491264D01*
X130738258Y-63522104D01*
X130672349Y-63542097D01*
X130517909Y-63624647D01*
X130382541Y-63735741D01*
X130354701Y-63769664D01*
X128451872Y-65672493D01*
X128451872Y-62741800D01*
X128439612Y-62617318D01*
X128403302Y-62497620D01*
X128344337Y-62387306D01*
X128264985Y-62290615D01*
X128168294Y-62211263D01*
X128057980Y-62152298D01*
X127938282Y-62115988D01*
X127813800Y-62103728D01*
X124892800Y-62103728D01*
X124768318Y-62115988D01*
X124648620Y-62152298D01*
X124538306Y-62211263D01*
X124441615Y-62290615D01*
X124362263Y-62387306D01*
X124303298Y-62497620D01*
X124266988Y-62617318D01*
X124254728Y-62741800D01*
X124254728Y-63605400D01*
X123406223Y-63605400D01*
X123368800Y-63601714D01*
X123331377Y-63605400D01*
X123331374Y-63605400D01*
X123219422Y-63616426D01*
X123075785Y-63659998D01*
X123014164Y-63692935D01*
X122943407Y-63730755D01*
X122916291Y-63753009D01*
X122827378Y-63825978D01*
X122803516Y-63855054D01*
X121119770Y-65538800D01*
X119069072Y-65538800D01*
X119069072Y-65210600D01*
X119056812Y-65086118D01*
X119020502Y-64966420D01*
X118961537Y-64856106D01*
X118882185Y-64759415D01*
X118785494Y-64680063D01*
X118675180Y-64621098D01*
X118555482Y-64584788D01*
X118431000Y-64572528D01*
X115251000Y-64572528D01*
X115126518Y-64584788D01*
X115006820Y-64621098D01*
X114896506Y-64680063D01*
X114799815Y-64759415D01*
X114720463Y-64856106D01*
X114661498Y-64966420D01*
X114625188Y-65086118D01*
X114612928Y-65210600D01*
X114612928Y-67391000D01*
X114618329Y-67445841D01*
X113737849Y-68326321D01*
X113708779Y-68350178D01*
X113684922Y-68379248D01*
X113684921Y-68379249D01*
X113613555Y-68466208D01*
X113550702Y-68583800D01*
X113542799Y-68598585D01*
X113499227Y-68742222D01*
X113497950Y-68755192D01*
X113484514Y-68891600D01*
X113488200Y-68929023D01*
X113488200Y-69157839D01*
X113383596Y-69314390D01*
X113309880Y-69492357D01*
X113272300Y-69681285D01*
X113272300Y-69873915D01*
X113309880Y-70062843D01*
X113383596Y-70240810D01*
X113490615Y-70400975D01*
X113626825Y-70537185D01*
X113786990Y-70644204D01*
X113964957Y-70717920D01*
X114153885Y-70755500D01*
X114346515Y-70755500D01*
X114535443Y-70717920D01*
X114713410Y-70644204D01*
X114873575Y-70537185D01*
X115009785Y-70400975D01*
X115116804Y-70240810D01*
X115190520Y-70062843D01*
X115228100Y-69873915D01*
X115228100Y-69681285D01*
X115190520Y-69492357D01*
X115116804Y-69314390D01*
X115031983Y-69187447D01*
X116190359Y-68029072D01*
X118431000Y-68029072D01*
X118555482Y-68016812D01*
X118675180Y-67980502D01*
X118785494Y-67921537D01*
X118882185Y-67842185D01*
X118961537Y-67745494D01*
X119020502Y-67635180D01*
X119056812Y-67515482D01*
X119069072Y-67391000D01*
X119069072Y-67062800D01*
X121397977Y-67062800D01*
X121435400Y-67066486D01*
X121472823Y-67062800D01*
X121472826Y-67062800D01*
X121584778Y-67051774D01*
X121728415Y-67008202D01*
X121860792Y-66937445D01*
X121976822Y-66842222D01*
X122000684Y-66813146D01*
X122030964Y-66782866D01*
X121993676Y-66872888D01*
X120612059Y-68254506D01*
X120578142Y-68282341D01*
X120550307Y-68316258D01*
X120550305Y-68316260D01*
X120467048Y-68417709D01*
X120384498Y-68572148D01*
X120333664Y-68739726D01*
X120316500Y-68914000D01*
X120320801Y-68957670D01*
X120320801Y-72752623D01*
X120304512Y-72745876D01*
X119608699Y-72050064D01*
X119580859Y-72016141D01*
X119445491Y-71905047D01*
X119291051Y-71822497D01*
X119123474Y-71771664D01*
X118992867Y-71758800D01*
X118992860Y-71758800D01*
X118949200Y-71754500D01*
X118905540Y-71758800D01*
X118674241Y-71758800D01*
X118657502Y-71703620D01*
X118598537Y-71593306D01*
X118519185Y-71496615D01*
X118422494Y-71417263D01*
X118312180Y-71358298D01*
X118192482Y-71321988D01*
X118068000Y-71309728D01*
X115868000Y-71309728D01*
X115743518Y-71321988D01*
X115623820Y-71358298D01*
X115513506Y-71417263D01*
X115416815Y-71496615D01*
X115337463Y-71593306D01*
X115278498Y-71703620D01*
X115261759Y-71758800D01*
X113444189Y-71758800D01*
X113542004Y-71612410D01*
X113615720Y-71434443D01*
X113653300Y-71245515D01*
X113653300Y-71052885D01*
X113615720Y-70863957D01*
X113542004Y-70685990D01*
X113434985Y-70525825D01*
X113298775Y-70389615D01*
X113138610Y-70282596D01*
X112995401Y-70223277D01*
X112995401Y-61136600D01*
X114612928Y-61136600D01*
X114625188Y-61261082D01*
X114661498Y-61380780D01*
X114720463Y-61491094D01*
X114799815Y-61587785D01*
X114896506Y-61667137D01*
X115006820Y-61726102D01*
X115126518Y-61762412D01*
X115251000Y-61774672D01*
X116555250Y-61771600D01*
X116714000Y-61612850D01*
X116714000Y-60173400D01*
X116968000Y-60173400D01*
X116968000Y-61612850D01*
X117126750Y-61771600D01*
X118431000Y-61774672D01*
X118555482Y-61762412D01*
X118675180Y-61726102D01*
X118785494Y-61667137D01*
X118882185Y-61587785D01*
X118961537Y-61491094D01*
X119020502Y-61380780D01*
X119056812Y-61261082D01*
X119069072Y-61136600D01*
X119066000Y-60332150D01*
X118907250Y-60173400D01*
X116968000Y-60173400D01*
X116714000Y-60173400D01*
X114774750Y-60173400D01*
X114616000Y-60332150D01*
X114612928Y-61136600D01*
X112995401Y-61136600D01*
X112995401Y-58956200D01*
X114612928Y-58956200D01*
X114616000Y-59760650D01*
X114774750Y-59919400D01*
X116714000Y-59919400D01*
X116714000Y-58479950D01*
X116968000Y-58479950D01*
X116968000Y-59919400D01*
X118907250Y-59919400D01*
X119066000Y-59760650D01*
X119069072Y-58956200D01*
X119056812Y-58831718D01*
X119020502Y-58712020D01*
X118961537Y-58601706D01*
X118882185Y-58505015D01*
X118785494Y-58425663D01*
X118675180Y-58366698D01*
X118555482Y-58330388D01*
X118431000Y-58318128D01*
X117126750Y-58321200D01*
X116968000Y-58479950D01*
X116714000Y-58479950D01*
X116555250Y-58321200D01*
X115251000Y-58318128D01*
X115126518Y-58330388D01*
X115006820Y-58366698D01*
X114896506Y-58425663D01*
X114799815Y-58505015D01*
X114720463Y-58601706D01*
X114661498Y-58712020D01*
X114625188Y-58831718D01*
X114612928Y-58956200D01*
X112995401Y-58956200D01*
X112995401Y-54488624D01*
X112998168Y-54460533D01*
X113189540Y-54498600D01*
X113482060Y-54498600D01*
X113699848Y-54455279D01*
X114001521Y-54756952D01*
G04 #@! TA.AperFunction,Conductor*
D35*
G36*
X114001521Y-54756952D02*
G01*
X114025379Y-54786023D01*
X114141409Y-54881246D01*
X114273786Y-54952003D01*
X114417423Y-54995575D01*
X114529375Y-55006601D01*
X114529377Y-55006601D01*
X114566800Y-55010287D01*
X114604223Y-55006601D01*
X116683374Y-55006601D01*
X122924333Y-61247561D01*
X122948191Y-61276632D01*
X123064221Y-61371855D01*
X123196598Y-61442612D01*
X123340235Y-61486184D01*
X123452187Y-61497210D01*
X123452189Y-61497210D01*
X123489612Y-61500896D01*
X123527035Y-61497210D01*
X135800214Y-61497210D01*
X136410351Y-62107348D01*
X136373600Y-62103728D01*
X133452600Y-62103728D01*
X133328118Y-62115988D01*
X133208420Y-62152298D01*
X133098106Y-62211263D01*
X133001415Y-62290615D01*
X132922063Y-62387306D01*
X132863098Y-62497620D01*
X132826788Y-62617318D01*
X132814528Y-62741800D01*
X132814528Y-63478400D01*
X131057859Y-63478400D01*
X131014199Y-63474100D01*
X130970539Y-63478400D01*
X130970533Y-63478400D01*
X130873124Y-63487994D01*
X130839924Y-63491264D01*
X130738258Y-63522104D01*
X130672349Y-63542097D01*
X130517909Y-63624647D01*
X130382541Y-63735741D01*
X130354701Y-63769664D01*
X128451872Y-65672493D01*
X128451872Y-62741800D01*
X128439612Y-62617318D01*
X128403302Y-62497620D01*
X128344337Y-62387306D01*
X128264985Y-62290615D01*
X128168294Y-62211263D01*
X128057980Y-62152298D01*
X127938282Y-62115988D01*
X127813800Y-62103728D01*
X124892800Y-62103728D01*
X124768318Y-62115988D01*
X124648620Y-62152298D01*
X124538306Y-62211263D01*
X124441615Y-62290615D01*
X124362263Y-62387306D01*
X124303298Y-62497620D01*
X124266988Y-62617318D01*
X124254728Y-62741800D01*
X124254728Y-63605400D01*
X123406223Y-63605400D01*
X123368800Y-63601714D01*
X123331377Y-63605400D01*
X123331374Y-63605400D01*
X123219422Y-63616426D01*
X123075785Y-63659998D01*
X123014164Y-63692935D01*
X122943407Y-63730755D01*
X122916291Y-63753009D01*
X122827378Y-63825978D01*
X122803516Y-63855054D01*
X121119770Y-65538800D01*
X119069072Y-65538800D01*
X119069072Y-65210600D01*
X119056812Y-65086118D01*
X119020502Y-64966420D01*
X118961537Y-64856106D01*
X118882185Y-64759415D01*
X118785494Y-64680063D01*
X118675180Y-64621098D01*
X118555482Y-64584788D01*
X118431000Y-64572528D01*
X115251000Y-64572528D01*
X115126518Y-64584788D01*
X115006820Y-64621098D01*
X114896506Y-64680063D01*
X114799815Y-64759415D01*
X114720463Y-64856106D01*
X114661498Y-64966420D01*
X114625188Y-65086118D01*
X114612928Y-65210600D01*
X114612928Y-67391000D01*
X114618329Y-67445841D01*
X113737849Y-68326321D01*
X113708779Y-68350178D01*
X113684922Y-68379248D01*
X113684921Y-68379249D01*
X113613555Y-68466208D01*
X113550702Y-68583800D01*
X113542799Y-68598585D01*
X113499227Y-68742222D01*
X113497950Y-68755192D01*
X113484514Y-68891600D01*
X113488200Y-68929023D01*
X113488200Y-69157839D01*
X113383596Y-69314390D01*
X113309880Y-69492357D01*
X113272300Y-69681285D01*
X113272300Y-69873915D01*
X113309880Y-70062843D01*
X113383596Y-70240810D01*
X113490615Y-70400975D01*
X113626825Y-70537185D01*
X113786990Y-70644204D01*
X113964957Y-70717920D01*
X114153885Y-70755500D01*
X114346515Y-70755500D01*
X114535443Y-70717920D01*
X114713410Y-70644204D01*
X114873575Y-70537185D01*
X115009785Y-70400975D01*
X115116804Y-70240810D01*
X115190520Y-70062843D01*
X115228100Y-69873915D01*
X115228100Y-69681285D01*
X115190520Y-69492357D01*
X115116804Y-69314390D01*
X115031983Y-69187447D01*
X116190359Y-68029072D01*
X118431000Y-68029072D01*
X118555482Y-68016812D01*
X118675180Y-67980502D01*
X118785494Y-67921537D01*
X118882185Y-67842185D01*
X118961537Y-67745494D01*
X119020502Y-67635180D01*
X119056812Y-67515482D01*
X119069072Y-67391000D01*
X119069072Y-67062800D01*
X121397977Y-67062800D01*
X121435400Y-67066486D01*
X121472823Y-67062800D01*
X121472826Y-67062800D01*
X121584778Y-67051774D01*
X121728415Y-67008202D01*
X121860792Y-66937445D01*
X121976822Y-66842222D01*
X122000684Y-66813146D01*
X122030964Y-66782866D01*
X121993676Y-66872888D01*
X120612059Y-68254506D01*
X120578142Y-68282341D01*
X120550307Y-68316258D01*
X120550305Y-68316260D01*
X120467048Y-68417709D01*
X120384498Y-68572148D01*
X120333664Y-68739726D01*
X120316500Y-68914000D01*
X120320801Y-68957670D01*
X120320801Y-72752623D01*
X120304512Y-72745876D01*
X119608699Y-72050064D01*
X119580859Y-72016141D01*
X119445491Y-71905047D01*
X119291051Y-71822497D01*
X119123474Y-71771664D01*
X118992867Y-71758800D01*
X118992860Y-71758800D01*
X118949200Y-71754500D01*
X118905540Y-71758800D01*
X118674241Y-71758800D01*
X118657502Y-71703620D01*
X118598537Y-71593306D01*
X118519185Y-71496615D01*
X118422494Y-71417263D01*
X118312180Y-71358298D01*
X118192482Y-71321988D01*
X118068000Y-71309728D01*
X115868000Y-71309728D01*
X115743518Y-71321988D01*
X115623820Y-71358298D01*
X115513506Y-71417263D01*
X115416815Y-71496615D01*
X115337463Y-71593306D01*
X115278498Y-71703620D01*
X115261759Y-71758800D01*
X113444189Y-71758800D01*
X113542004Y-71612410D01*
X113615720Y-71434443D01*
X113653300Y-71245515D01*
X113653300Y-71052885D01*
X113615720Y-70863957D01*
X113542004Y-70685990D01*
X113434985Y-70525825D01*
X113298775Y-70389615D01*
X113138610Y-70282596D01*
X112995401Y-70223277D01*
X112995401Y-61136600D01*
X114612928Y-61136600D01*
X114625188Y-61261082D01*
X114661498Y-61380780D01*
X114720463Y-61491094D01*
X114799815Y-61587785D01*
X114896506Y-61667137D01*
X115006820Y-61726102D01*
X115126518Y-61762412D01*
X115251000Y-61774672D01*
X116555250Y-61771600D01*
X116714000Y-61612850D01*
X116714000Y-60173400D01*
X116968000Y-60173400D01*
X116968000Y-61612850D01*
X117126750Y-61771600D01*
X118431000Y-61774672D01*
X118555482Y-61762412D01*
X118675180Y-61726102D01*
X118785494Y-61667137D01*
X118882185Y-61587785D01*
X118961537Y-61491094D01*
X119020502Y-61380780D01*
X119056812Y-61261082D01*
X119069072Y-61136600D01*
X119066000Y-60332150D01*
X118907250Y-60173400D01*
X116968000Y-60173400D01*
X116714000Y-60173400D01*
X114774750Y-60173400D01*
X114616000Y-60332150D01*
X114612928Y-61136600D01*
X112995401Y-61136600D01*
X112995401Y-58956200D01*
X114612928Y-58956200D01*
X114616000Y-59760650D01*
X114774750Y-59919400D01*
X116714000Y-59919400D01*
X116714000Y-58479950D01*
X116968000Y-58479950D01*
X116968000Y-59919400D01*
X118907250Y-59919400D01*
X119066000Y-59760650D01*
X119069072Y-58956200D01*
X119056812Y-58831718D01*
X119020502Y-58712020D01*
X118961537Y-58601706D01*
X118882185Y-58505015D01*
X118785494Y-58425663D01*
X118675180Y-58366698D01*
X118555482Y-58330388D01*
X118431000Y-58318128D01*
X117126750Y-58321200D01*
X116968000Y-58479950D01*
X116714000Y-58479950D01*
X116555250Y-58321200D01*
X115251000Y-58318128D01*
X115126518Y-58330388D01*
X115006820Y-58366698D01*
X114896506Y-58425663D01*
X114799815Y-58505015D01*
X114720463Y-58601706D01*
X114661498Y-58712020D01*
X114625188Y-58831718D01*
X114612928Y-58956200D01*
X112995401Y-58956200D01*
X112995401Y-54488624D01*
X112998168Y-54460533D01*
X113189540Y-54498600D01*
X113482060Y-54498600D01*
X113699848Y-54455279D01*
X114001521Y-54756952D01*
G37*
G04 #@! TD.AperFunction*
D33*
X145055928Y-56680600D02*
X145059000Y-56879850D01*
X145217750Y-57038600D01*
X146432000Y-57038600D01*
X146432000Y-57018600D01*
X146686000Y-57018600D01*
X146686000Y-57038600D01*
X147900250Y-57038600D01*
X148059000Y-56879850D01*
X148062072Y-56680600D01*
X148058645Y-56645800D01*
X156934965Y-56645800D01*
X159286123Y-58996958D01*
X159272600Y-59064940D01*
X159272600Y-59357460D01*
X159329668Y-59644358D01*
X159441610Y-59914611D01*
X159604125Y-60157832D01*
X159810968Y-60364675D01*
X159985360Y-60481200D01*
X159810968Y-60597725D01*
X159604125Y-60804568D01*
X159441610Y-61047789D01*
X159329668Y-61318042D01*
X159272600Y-61604940D01*
X159272600Y-61897460D01*
X159329668Y-62184358D01*
X159441610Y-62454611D01*
X159604125Y-62697832D01*
X159810968Y-62904675D01*
X159985360Y-63021200D01*
X159810968Y-63137725D01*
X159604125Y-63344568D01*
X159441610Y-63587789D01*
X159329668Y-63858042D01*
X159272600Y-64144940D01*
X159272600Y-64437460D01*
X159329668Y-64724358D01*
X159441610Y-64994611D01*
X159604125Y-65237832D01*
X159810968Y-65444675D01*
X159985360Y-65561200D01*
X159810968Y-65677725D01*
X159604125Y-65884568D01*
X159441610Y-66127789D01*
X159329668Y-66398042D01*
X159272600Y-66684940D01*
X159272600Y-66977460D01*
X159329668Y-67264358D01*
X159441610Y-67534611D01*
X159604125Y-67777832D01*
X159810968Y-67984675D01*
X159985360Y-68101200D01*
X159810968Y-68217725D01*
X159604125Y-68424568D01*
X159441610Y-68667789D01*
X159424333Y-68709500D01*
X154380887Y-63666055D01*
X154357025Y-63636979D01*
X154240995Y-63541756D01*
X154108618Y-63470999D01*
X153964981Y-63427427D01*
X153853029Y-63416401D01*
X153853026Y-63416401D01*
X153815603Y-63412715D01*
X153778180Y-63416401D01*
X152270629Y-63416401D01*
X154226394Y-61460637D01*
X154282516Y-61471800D01*
X154532684Y-61471800D01*
X154778045Y-61422995D01*
X155009171Y-61327259D01*
X155217178Y-61188273D01*
X155394073Y-61011378D01*
X155533059Y-60803371D01*
X155628795Y-60572245D01*
X155677600Y-60326884D01*
X155677600Y-60076716D01*
X155628795Y-59831355D01*
X155533059Y-59600229D01*
X155394073Y-59392222D01*
X155217178Y-59215327D01*
X155009171Y-59076341D01*
X154778045Y-58980605D01*
X154532684Y-58931800D01*
X154282516Y-58931800D01*
X154037155Y-58980605D01*
X153806029Y-59076341D01*
X153598022Y-59215327D01*
X153421127Y-59392222D01*
X153282141Y-59600229D01*
X153186405Y-59831355D01*
X153137600Y-60076716D01*
X153088795Y-59831355D01*
X152993059Y-59600229D01*
X152854073Y-59392222D01*
X152677178Y-59215327D01*
X152469171Y-59076341D01*
X152238045Y-58980605D01*
X151992684Y-58931800D01*
X151742516Y-58931800D01*
X151497155Y-58980605D01*
X151266029Y-59076341D01*
X151058022Y-59215327D01*
X150909749Y-59363600D01*
X147995959Y-59363600D01*
X147954537Y-59286106D01*
X147875185Y-59189415D01*
X147778494Y-59110063D01*
X147668180Y-59051098D01*
X147548482Y-59014788D01*
X147424000Y-59002528D01*
X145694000Y-59002528D01*
X145569518Y-59014788D01*
X145449820Y-59051098D01*
X145339506Y-59110063D01*
X145242815Y-59189415D01*
X145163463Y-59286106D01*
X145104498Y-59396420D01*
X145068188Y-59516118D01*
X145055928Y-59640600D01*
X145055928Y-60610600D01*
X145068188Y-60735082D01*
X145104498Y-60854780D01*
X145163463Y-60965094D01*
X145242815Y-61061785D01*
X145339506Y-61141137D01*
X145449820Y-61200102D01*
X145569518Y-61236412D01*
X145694000Y-61248672D01*
X147424000Y-61248672D01*
X147548482Y-61236412D01*
X147668180Y-61200102D01*
X147778494Y-61141137D01*
X147875185Y-61061785D01*
X147954537Y-60965094D01*
X147995959Y-60887600D01*
X150798421Y-60887600D01*
X150881127Y-61011378D01*
X151058022Y-61188273D01*
X151266029Y-61327259D01*
X151497155Y-61422995D01*
X151742516Y-61471800D01*
X151992684Y-61471800D01*
X152076677Y-61455093D01*
X151196370Y-62335400D01*
X148036966Y-62335400D01*
X148030812Y-62272918D01*
X147994502Y-62153220D01*
X147935537Y-62042906D01*
X147856185Y-61946215D01*
X147759494Y-61866863D01*
X147649180Y-61807898D01*
X147529482Y-61771588D01*
X147405000Y-61759328D01*
X145205000Y-61759328D01*
X145080518Y-61771588D01*
X144960820Y-61807898D01*
X144850506Y-61866863D01*
X144753815Y-61946215D01*
X144674463Y-62042906D01*
X144615498Y-62153220D01*
X144579188Y-62272918D01*
X144566928Y-62397400D01*
X144566928Y-63416401D01*
X142705112Y-63416401D01*
X142774225Y-63271299D01*
X142818876Y-63124090D01*
X142697555Y-62894200D01*
X141504400Y-62894200D01*
X141504400Y-62914200D01*
X141250400Y-62914200D01*
X141250400Y-62894200D01*
X140057245Y-62894200D01*
X139935924Y-63124090D01*
X139980575Y-63271299D01*
X140049688Y-63416401D01*
X139874666Y-63416401D01*
X137447464Y-60989200D01*
X140100558Y-60989200D01*
X140223925Y-61173832D01*
X140430768Y-61380675D01*
X140612934Y-61502395D01*
X140496045Y-61572022D01*
X140279812Y-61766931D01*
X140105759Y-62000280D01*
X139980575Y-62263101D01*
X139935924Y-62410310D01*
X140057245Y-62640200D01*
X141250400Y-62640200D01*
X141250400Y-62620200D01*
X141504400Y-62620200D01*
X141504400Y-62640200D01*
X142697555Y-62640200D01*
X142818876Y-62410310D01*
X142774225Y-62263101D01*
X142649041Y-62000280D01*
X142474988Y-61766931D01*
X142258755Y-61572022D01*
X142141866Y-61502395D01*
X142324032Y-61380675D01*
X142530875Y-61173832D01*
X142693390Y-60930611D01*
X142805332Y-60660358D01*
X142862400Y-60373460D01*
X142862400Y-60080940D01*
X142805332Y-59794042D01*
X142693390Y-59523789D01*
X142530875Y-59280568D01*
X142399020Y-59148713D01*
X142471580Y-59126702D01*
X142581894Y-59067737D01*
X142678585Y-58988385D01*
X142757937Y-58891694D01*
X142816902Y-58781380D01*
X142853212Y-58661682D01*
X142865472Y-58537200D01*
X142865472Y-57650600D01*
X145055928Y-57650600D01*
X145068188Y-57775082D01*
X145104498Y-57894780D01*
X145163463Y-58005094D01*
X145242815Y-58101785D01*
X145339506Y-58181137D01*
X145449820Y-58240102D01*
X145569518Y-58276412D01*
X145694000Y-58288672D01*
X146273250Y-58285600D01*
X146432000Y-58126850D01*
X146432000Y-57292600D01*
X146686000Y-57292600D01*
X146686000Y-58126850D01*
X146844750Y-58285600D01*
X147424000Y-58288672D01*
X147548482Y-58276412D01*
X147668180Y-58240102D01*
X147778494Y-58181137D01*
X147875185Y-58101785D01*
X147954537Y-58005094D01*
X148013502Y-57894780D01*
X148049812Y-57775082D01*
X148062072Y-57650600D01*
X148059000Y-57451350D01*
X147900250Y-57292600D01*
X146686000Y-57292600D01*
X146432000Y-57292600D01*
X145217750Y-57292600D01*
X145059000Y-57451350D01*
X145055928Y-57650600D01*
X142865472Y-57650600D01*
X142865472Y-56837200D01*
X142853212Y-56712718D01*
X142832913Y-56645800D01*
X145059355Y-56645800D01*
X145055928Y-56680600D01*
G04 #@! TA.AperFunction,Conductor*
D35*
G36*
X145055928Y-56680600D02*
G01*
X145059000Y-56879850D01*
X145217750Y-57038600D01*
X146432000Y-57038600D01*
X146432000Y-57018600D01*
X146686000Y-57018600D01*
X146686000Y-57038600D01*
X147900250Y-57038600D01*
X148059000Y-56879850D01*
X148062072Y-56680600D01*
X148058645Y-56645800D01*
X156934965Y-56645800D01*
X159286123Y-58996958D01*
X159272600Y-59064940D01*
X159272600Y-59357460D01*
X159329668Y-59644358D01*
X159441610Y-59914611D01*
X159604125Y-60157832D01*
X159810968Y-60364675D01*
X159985360Y-60481200D01*
X159810968Y-60597725D01*
X159604125Y-60804568D01*
X159441610Y-61047789D01*
X159329668Y-61318042D01*
X159272600Y-61604940D01*
X159272600Y-61897460D01*
X159329668Y-62184358D01*
X159441610Y-62454611D01*
X159604125Y-62697832D01*
X159810968Y-62904675D01*
X159985360Y-63021200D01*
X159810968Y-63137725D01*
X159604125Y-63344568D01*
X159441610Y-63587789D01*
X159329668Y-63858042D01*
X159272600Y-64144940D01*
X159272600Y-64437460D01*
X159329668Y-64724358D01*
X159441610Y-64994611D01*
X159604125Y-65237832D01*
X159810968Y-65444675D01*
X159985360Y-65561200D01*
X159810968Y-65677725D01*
X159604125Y-65884568D01*
X159441610Y-66127789D01*
X159329668Y-66398042D01*
X159272600Y-66684940D01*
X159272600Y-66977460D01*
X159329668Y-67264358D01*
X159441610Y-67534611D01*
X159604125Y-67777832D01*
X159810968Y-67984675D01*
X159985360Y-68101200D01*
X159810968Y-68217725D01*
X159604125Y-68424568D01*
X159441610Y-68667789D01*
X159424333Y-68709500D01*
X154380887Y-63666055D01*
X154357025Y-63636979D01*
X154240995Y-63541756D01*
X154108618Y-63470999D01*
X153964981Y-63427427D01*
X153853029Y-63416401D01*
X153853026Y-63416401D01*
X153815603Y-63412715D01*
X153778180Y-63416401D01*
X152270629Y-63416401D01*
X154226394Y-61460637D01*
X154282516Y-61471800D01*
X154532684Y-61471800D01*
X154778045Y-61422995D01*
X155009171Y-61327259D01*
X155217178Y-61188273D01*
X155394073Y-61011378D01*
X155533059Y-60803371D01*
X155628795Y-60572245D01*
X155677600Y-60326884D01*
X155677600Y-60076716D01*
X155628795Y-59831355D01*
X155533059Y-59600229D01*
X155394073Y-59392222D01*
X155217178Y-59215327D01*
X155009171Y-59076341D01*
X154778045Y-58980605D01*
X154532684Y-58931800D01*
X154282516Y-58931800D01*
X154037155Y-58980605D01*
X153806029Y-59076341D01*
X153598022Y-59215327D01*
X153421127Y-59392222D01*
X153282141Y-59600229D01*
X153186405Y-59831355D01*
X153137600Y-60076716D01*
X153088795Y-59831355D01*
X152993059Y-59600229D01*
X152854073Y-59392222D01*
X152677178Y-59215327D01*
X152469171Y-59076341D01*
X152238045Y-58980605D01*
X151992684Y-58931800D01*
X151742516Y-58931800D01*
X151497155Y-58980605D01*
X151266029Y-59076341D01*
X151058022Y-59215327D01*
X150909749Y-59363600D01*
X147995959Y-59363600D01*
X147954537Y-59286106D01*
X147875185Y-59189415D01*
X147778494Y-59110063D01*
X147668180Y-59051098D01*
X147548482Y-59014788D01*
X147424000Y-59002528D01*
X145694000Y-59002528D01*
X145569518Y-59014788D01*
X145449820Y-59051098D01*
X145339506Y-59110063D01*
X145242815Y-59189415D01*
X145163463Y-59286106D01*
X145104498Y-59396420D01*
X145068188Y-59516118D01*
X145055928Y-59640600D01*
X145055928Y-60610600D01*
X145068188Y-60735082D01*
X145104498Y-60854780D01*
X145163463Y-60965094D01*
X145242815Y-61061785D01*
X145339506Y-61141137D01*
X145449820Y-61200102D01*
X145569518Y-61236412D01*
X145694000Y-61248672D01*
X147424000Y-61248672D01*
X147548482Y-61236412D01*
X147668180Y-61200102D01*
X147778494Y-61141137D01*
X147875185Y-61061785D01*
X147954537Y-60965094D01*
X147995959Y-60887600D01*
X150798421Y-60887600D01*
X150881127Y-61011378D01*
X151058022Y-61188273D01*
X151266029Y-61327259D01*
X151497155Y-61422995D01*
X151742516Y-61471800D01*
X151992684Y-61471800D01*
X152076677Y-61455093D01*
X151196370Y-62335400D01*
X148036966Y-62335400D01*
X148030812Y-62272918D01*
X147994502Y-62153220D01*
X147935537Y-62042906D01*
X147856185Y-61946215D01*
X147759494Y-61866863D01*
X147649180Y-61807898D01*
X147529482Y-61771588D01*
X147405000Y-61759328D01*
X145205000Y-61759328D01*
X145080518Y-61771588D01*
X144960820Y-61807898D01*
X144850506Y-61866863D01*
X144753815Y-61946215D01*
X144674463Y-62042906D01*
X144615498Y-62153220D01*
X144579188Y-62272918D01*
X144566928Y-62397400D01*
X144566928Y-63416401D01*
X142705112Y-63416401D01*
X142774225Y-63271299D01*
X142818876Y-63124090D01*
X142697555Y-62894200D01*
X141504400Y-62894200D01*
X141504400Y-62914200D01*
X141250400Y-62914200D01*
X141250400Y-62894200D01*
X140057245Y-62894200D01*
X139935924Y-63124090D01*
X139980575Y-63271299D01*
X140049688Y-63416401D01*
X139874666Y-63416401D01*
X137447464Y-60989200D01*
X140100558Y-60989200D01*
X140223925Y-61173832D01*
X140430768Y-61380675D01*
X140612934Y-61502395D01*
X140496045Y-61572022D01*
X140279812Y-61766931D01*
X140105759Y-62000280D01*
X139980575Y-62263101D01*
X139935924Y-62410310D01*
X140057245Y-62640200D01*
X141250400Y-62640200D01*
X141250400Y-62620200D01*
X141504400Y-62620200D01*
X141504400Y-62640200D01*
X142697555Y-62640200D01*
X142818876Y-62410310D01*
X142774225Y-62263101D01*
X142649041Y-62000280D01*
X142474988Y-61766931D01*
X142258755Y-61572022D01*
X142141866Y-61502395D01*
X142324032Y-61380675D01*
X142530875Y-61173832D01*
X142693390Y-60930611D01*
X142805332Y-60660358D01*
X142862400Y-60373460D01*
X142862400Y-60080940D01*
X142805332Y-59794042D01*
X142693390Y-59523789D01*
X142530875Y-59280568D01*
X142399020Y-59148713D01*
X142471580Y-59126702D01*
X142581894Y-59067737D01*
X142678585Y-58988385D01*
X142757937Y-58891694D01*
X142816902Y-58781380D01*
X142853212Y-58661682D01*
X142865472Y-58537200D01*
X142865472Y-57650600D01*
X145055928Y-57650600D01*
X145068188Y-57775082D01*
X145104498Y-57894780D01*
X145163463Y-58005094D01*
X145242815Y-58101785D01*
X145339506Y-58181137D01*
X145449820Y-58240102D01*
X145569518Y-58276412D01*
X145694000Y-58288672D01*
X146273250Y-58285600D01*
X146432000Y-58126850D01*
X146432000Y-57292600D01*
X146686000Y-57292600D01*
X146686000Y-58126850D01*
X146844750Y-58285600D01*
X147424000Y-58288672D01*
X147548482Y-58276412D01*
X147668180Y-58240102D01*
X147778494Y-58181137D01*
X147875185Y-58101785D01*
X147954537Y-58005094D01*
X148013502Y-57894780D01*
X148049812Y-57775082D01*
X148062072Y-57650600D01*
X148059000Y-57451350D01*
X147900250Y-57292600D01*
X146686000Y-57292600D01*
X146432000Y-57292600D01*
X145217750Y-57292600D01*
X145059000Y-57451350D01*
X145055928Y-57650600D01*
X142865472Y-57650600D01*
X142865472Y-56837200D01*
X142853212Y-56712718D01*
X142832913Y-56645800D01*
X145059355Y-56645800D01*
X145055928Y-56680600D01*
G37*
G04 #@! TD.AperFunction*
D33*
X118542800Y-52886600D02*
X118562800Y-52886600D01*
X118562800Y-53140600D01*
X118542800Y-53140600D01*
X118542800Y-54333755D01*
X118772690Y-54455076D01*
X118919899Y-54410425D01*
X119182720Y-54285241D01*
X119416069Y-54111188D01*
X119610978Y-53894955D01*
X119680605Y-53778066D01*
X119802325Y-53960232D01*
X120009168Y-54167075D01*
X120252389Y-54329590D01*
X120522642Y-54441532D01*
X120809540Y-54498600D01*
X121102060Y-54498600D01*
X121388958Y-54441532D01*
X121659211Y-54329590D01*
X121902432Y-54167075D01*
X122109275Y-53960232D01*
X122225800Y-53785840D01*
X122342325Y-53960232D01*
X122549168Y-54167075D01*
X122733800Y-54290442D01*
X122733801Y-58564167D01*
X122730114Y-58601600D01*
X122744827Y-58750978D01*
X122788399Y-58894615D01*
X122859155Y-59026992D01*
X122859746Y-59027712D01*
X118208281Y-54376248D01*
X118288800Y-54333755D01*
X118288800Y-53140600D01*
X118268800Y-53140600D01*
X118268800Y-52886600D01*
X118288800Y-52886600D01*
X118288800Y-52866600D01*
X118542800Y-52866600D01*
X118542800Y-52886600D01*
G04 #@! TA.AperFunction,Conductor*
D35*
G36*
X118542800Y-52886600D02*
G01*
X118562800Y-52886600D01*
X118562800Y-53140600D01*
X118542800Y-53140600D01*
X118542800Y-54333755D01*
X118772690Y-54455076D01*
X118919899Y-54410425D01*
X119182720Y-54285241D01*
X119416069Y-54111188D01*
X119610978Y-53894955D01*
X119680605Y-53778066D01*
X119802325Y-53960232D01*
X120009168Y-54167075D01*
X120252389Y-54329590D01*
X120522642Y-54441532D01*
X120809540Y-54498600D01*
X121102060Y-54498600D01*
X121388958Y-54441532D01*
X121659211Y-54329590D01*
X121902432Y-54167075D01*
X122109275Y-53960232D01*
X122225800Y-53785840D01*
X122342325Y-53960232D01*
X122549168Y-54167075D01*
X122733800Y-54290442D01*
X122733801Y-58564167D01*
X122730114Y-58601600D01*
X122744827Y-58750978D01*
X122788399Y-58894615D01*
X122859155Y-59026992D01*
X122859746Y-59027712D01*
X118208281Y-54376248D01*
X118288800Y-54333755D01*
X118288800Y-53140600D01*
X118268800Y-53140600D01*
X118268800Y-52886600D01*
X118288800Y-52886600D01*
X118288800Y-52866600D01*
X118542800Y-52866600D01*
X118542800Y-52886600D01*
G37*
G04 #@! TD.AperFunction*
D33*
X112140622Y-51354955D02*
X112335531Y-51571188D01*
X112565206Y-51742500D01*
X112389168Y-51860125D01*
X112182325Y-52066968D01*
X112065800Y-52241360D01*
X111949275Y-52066968D01*
X111742432Y-51860125D01*
X111568040Y-51743600D01*
X111742432Y-51627075D01*
X111949275Y-51420232D01*
X112070995Y-51238066D01*
X112140622Y-51354955D01*
G04 #@! TA.AperFunction,Conductor*
D35*
G36*
X112140622Y-51354955D02*
G01*
X112335531Y-51571188D01*
X112565206Y-51742500D01*
X112389168Y-51860125D01*
X112182325Y-52066968D01*
X112065800Y-52241360D01*
X111949275Y-52066968D01*
X111742432Y-51860125D01*
X111568040Y-51743600D01*
X111742432Y-51627075D01*
X111949275Y-51420232D01*
X112070995Y-51238066D01*
X112140622Y-51354955D01*
G37*
G04 #@! TD.AperFunction*
D33*
X106579400Y-66381650D02*
X106738150Y-66540400D01*
X110821200Y-66542853D01*
X110821200Y-67642812D01*
X102894536Y-67568961D01*
X102879214Y-66542375D01*
X106166650Y-66540400D01*
X106325400Y-66381650D01*
X106325400Y-66120000D01*
X106579400Y-66120000D01*
X106579400Y-66381650D01*
G04 #@! TA.AperFunction,Conductor*
D35*
G36*
X106579400Y-66381650D02*
G01*
X106738150Y-66540400D01*
X110821200Y-66542853D01*
X110821200Y-67642812D01*
X102894536Y-67568961D01*
X102879214Y-66542375D01*
X106166650Y-66540400D01*
X106325400Y-66381650D01*
X106325400Y-66120000D01*
X106579400Y-66120000D01*
X106579400Y-66381650D01*
G37*
G04 #@! TD.AperFunction*
M02*
