M48
; DRILL file {KiCad (5.1.10-1-10_14)} date Wednesday, November 10, 2021 at 07:43:52 PM
; FORMAT={-:-/ absolute / metric / decimal}
; #@! TF.CreationDate,2021-11-10T19:43:52-05:00
; #@! TF.GenerationSoftware,Kicad,Pcbnew,(5.1.10-1-10_14)
; #@! TF.FileFunction,Plated,1,2,PTH
FMAT,2
METRIC
T1C0.330
T2C0.760
T3C0.762
T4C0.850
T5C0.864
T6C0.889
T7C1.000
T8C1.397
%
G90
G05
T1
X104.141Y-67.161
X105.843Y-67.187
X107.341Y-67.187
X108.18Y-72.8
X108.611Y-67.161
X110.212Y-67.136
X111.736Y-74.223
X112.675Y-71.149
X115.342Y-68.787
X119.0Y-74.146
X122.912Y-67.212
X126.341Y-57.484
X129.846Y-67.263
X131.573Y-57.001
X133.707Y-57.535
X138.075Y-65.18
X139.269Y-67.136
X143.079Y-74.019
X145.797Y-76.331
T3
X152.655Y-58.017
X155.195Y-58.017
T4
X119.345Y-97.591
X124.345Y-97.591
T5
X105.665Y-96.6
X110.665Y-96.6
T6
X134.596Y-95.686
X138.583Y-95.686
X142.571Y-95.686
T7
X108.256Y-50.474
X108.256Y-53.014
X108.332Y-79.658
X110.796Y-50.474
X110.796Y-53.014
X110.872Y-79.658
X113.336Y-50.474
X113.336Y-53.014
X115.876Y-50.474
X115.876Y-53.014
X118.416Y-50.474
X118.416Y-53.014
X118.67Y-79.76
X120.956Y-50.474
X120.956Y-53.014
X121.21Y-79.76
X123.496Y-50.474
X123.496Y-53.014
X126.036Y-50.474
X126.036Y-53.014
X128.576Y-50.474
X128.576Y-53.014
X131.065Y-79.049
X131.116Y-50.474
X131.116Y-53.014
X133.605Y-79.049
X133.656Y-50.474
X133.656Y-53.014
X136.196Y-50.474
X136.196Y-53.014
X138.736Y-50.474
X138.736Y-53.014
X140.615Y-78.82
X141.276Y-50.474
X141.276Y-53.014
X141.377Y-57.687
X141.377Y-60.227
X141.377Y-62.767
X143.155Y-78.82
X143.816Y-50.474
X143.816Y-53.014
X146.356Y-50.474
X146.356Y-53.014
X148.896Y-50.474
X148.896Y-53.014
X150.013Y-80.065
X151.436Y-50.474
X151.436Y-53.014
X152.553Y-80.065
X152.934Y-68.711
X153.976Y-50.474
X153.976Y-53.014
X155.474Y-68.711
X156.516Y-50.474
X156.516Y-53.014
X160.758Y-56.671
X160.758Y-59.211
X160.758Y-61.751
X160.758Y-64.291
X160.758Y-66.831
X160.758Y-69.371
X160.758Y-71.911
X160.758Y-74.451
T8
X131.09Y-93.679
X146.076Y-99.877
T2
X155.701Y-89.425G85X157.991Y-89.425
G05
X155.701Y-95.355G85X157.991Y-95.355
G05
X161.496Y-90.96G85X161.496Y-93.25
G05
T0
M30
