M48
; DRILL file {KiCad (5.1.10)-1} date 11/10/21 20:45:37
; FORMAT={-:-/ absolute / inch / decimal}
; #@! TF.CreationDate,2021-11-10T20:45:37-05:00
; #@! TF.GenerationSoftware,Kicad,Pcbnew,(5.1.10)-1
; #@! TF.FileFunction,Plated,1,2,PTH
FMAT,2
INCH
T1C0.0130
T2C0.0299
T3C0.0300
T4C0.0335
T5C0.0340
T6C0.0350
T7C0.0394
T8C0.0550
%
G90
G05
T1
X4.1Y-2.6441
X4.167Y-2.6451
X4.226Y-2.6451
X4.259Y-2.8661
X4.276Y-2.6441
X4.339Y-2.6431
X4.399Y-2.9221
X4.436Y-2.8011
X4.541Y-2.7081
X4.685Y-2.9191
X4.839Y-2.6461
X4.974Y-2.2631
X5.112Y-2.6481
X5.18Y-2.2441
X5.264Y-2.2651
X5.436Y-2.5661
X5.483Y-2.6431
X5.633Y-2.9141
X5.74Y-3.0051
T3
X6.01Y-2.2841
X6.11Y-2.2841
T4
X4.6986Y-3.8421
X4.8955Y-3.8421
T5
X4.16Y-3.8031
X4.3569Y-3.8031
T6
X5.299Y-3.7671
X5.456Y-3.7671
X5.613Y-3.7671
T7
X4.262Y-1.9871
X4.262Y-2.0871
X4.265Y-3.1361
X4.362Y-1.9871
X4.362Y-2.0871
X4.365Y-3.1361
X4.462Y-1.9871
X4.462Y-2.0871
X4.562Y-1.9871
X4.562Y-2.0871
X4.662Y-1.9871
X4.662Y-2.0871
X4.672Y-3.1401
X4.762Y-1.9871
X4.762Y-2.0871
X4.772Y-3.1401
X4.862Y-1.9871
X4.862Y-2.0871
X4.962Y-1.9871
X4.962Y-2.0871
X5.062Y-1.9871
X5.062Y-2.0871
X5.16Y-3.1121
X5.162Y-1.9871
X5.162Y-2.0871
X5.26Y-3.1121
X5.262Y-1.9871
X5.262Y-2.0871
X5.362Y-1.9871
X5.362Y-2.0871
X5.462Y-1.9871
X5.462Y-2.0871
X5.536Y-3.1031
X5.562Y-1.9871
X5.562Y-2.0871
X5.566Y-2.2711
X5.566Y-2.3711
X5.566Y-2.4711
X5.636Y-3.1031
X5.662Y-1.9871
X5.662Y-2.0871
X5.762Y-1.9871
X5.762Y-2.0871
X5.862Y-1.9871
X5.862Y-2.0871
X5.906Y-3.1521
X5.962Y-1.9871
X5.962Y-2.0871
X6.006Y-3.1521
X6.021Y-2.7051
X6.062Y-1.9871
X6.062Y-2.0871
X6.121Y-2.7051
X6.162Y-1.9871
X6.162Y-2.0871
X6.329Y-2.2311
X6.329Y-2.3311
X6.329Y-2.4311
X6.329Y-2.5311
X6.329Y-2.6311
X6.329Y-2.7311
X6.329Y-2.8311
X6.329Y-2.9311
T8
X5.161Y-3.6881
X5.751Y-3.9321
T2
G00X6.13Y-3.5207
M15
G01X6.2201Y-3.5207
M16
G05
G00X6.13Y-3.7541
M15
G01X6.2201Y-3.7541
M16
G05
G00X6.3581Y-3.5811
M15
G01X6.3581Y-3.6713
M16
G05
T0
M30
