G04 #@! TF.GenerationSoftware,KiCad,Pcbnew,(5.1.10)-1*
G04 #@! TF.CreationDate,2021-11-10T20:49:48-05:00*
G04 #@! TF.ProjectId,tool_circuit,746f6f6c-5f63-4697-9263-7569742e6b69,1.0*
G04 #@! TF.SameCoordinates,Original*
G04 #@! TF.FileFunction,Legend,Top*
G04 #@! TF.FilePolarity,Positive*
%FSLAX46Y46*%
G04 Gerber Fmt 4.6, Leading zero omitted, Abs format (unit mm)*
G04 Created by KiCad (PCBNEW (5.1.10)-1) date 2021-11-10 20:49:48*
%MOMM*%
%LPD*%
G01*
G04 APERTURE LIST*
%ADD10C,0.150000*%
%ADD11C,0.120000*%
%ADD12C,0.200000*%
%ADD13C,0.127000*%
%ADD14C,0.100000*%
%ADD15C,0.010000*%
%ADD16C,0.098425*%
%ADD17C,0.006350*%
%ADD18C,1.371600*%
%ADD19C,1.473200*%
%ADD20C,1.301600*%
%ADD21C,1.609600*%
%ADD22C,2.006600*%
%ADD23C,1.498600*%
%ADD24O,1.801600X1.801600*%
%ADD25O,2.001600X3.901600*%
%ADD26O,3.901600X2.001600*%
G04 APERTURE END LIST*
D10*
X104177580Y-51695933D02*
X104891866Y-51695933D01*
X105034723Y-51743552D01*
X105129961Y-51838790D01*
X105177580Y-51981647D01*
X105177580Y-52076885D01*
X104510914Y-50791171D02*
X105177580Y-50791171D01*
X104129961Y-51029266D02*
X104844247Y-51267361D01*
X104844247Y-50648314D01*
D11*
X151588200Y-58017400D02*
X150318200Y-58017400D01*
X150572200Y-57382400D02*
X150572200Y-58652400D01*
X150572200Y-58017400D02*
X151334200Y-57382400D01*
X150572200Y-58017400D02*
X151334200Y-57509400D01*
X150572200Y-58017400D02*
X151334200Y-57636400D01*
X150572200Y-58017400D02*
X151334200Y-57763400D01*
X150572200Y-58017400D02*
X151334200Y-57890400D01*
X150572200Y-58017400D02*
X151334200Y-58652400D01*
X150572200Y-58017400D02*
X151334200Y-58525400D01*
X150572200Y-58017400D02*
X151334200Y-58398400D01*
X150572200Y-58017400D02*
X151334200Y-58271400D01*
X150572200Y-58017400D02*
X151334200Y-58144400D01*
X151334200Y-57382400D02*
X151334200Y-58652400D01*
X151950813Y-57353592D02*
G75*
G02*
X155899187Y-57353592I1974187J-663808D01*
G01*
X155899187Y-58681208D02*
G75*
G02*
X151950813Y-58681208I-1974187J663808D01*
G01*
X114540400Y-96600000D02*
G75*
G03*
X114540400Y-96600000I-6375400J0D01*
G01*
X101027600Y-95965000D02*
X101027600Y-97235000D01*
X100392600Y-96600000D02*
X101662600Y-96600000D01*
D12*
X127694800Y-97590600D02*
G75*
G03*
X127694800Y-97590600I-100000J0D01*
G01*
D13*
X126844800Y-97590600D02*
G75*
G03*
X126844800Y-97590600I-5000000J0D01*
G01*
D14*
X151431400Y-67110800D02*
G75*
G03*
X151431400Y-67110800I-127000J0D01*
G01*
D13*
X156704400Y-68710800D02*
G75*
G03*
X156704400Y-68710800I-2500000J0D01*
G01*
X157154400Y-68710800D02*
G75*
G03*
X157154400Y-68710800I-2950000J0D01*
G01*
X111738400Y-87137600D02*
X112978400Y-87137600D01*
X111738400Y-85437600D02*
X112978400Y-85437600D01*
D14*
X112629000Y-81258200D02*
G75*
G03*
X112629000Y-81258200I-127000J0D01*
G01*
D13*
X112102000Y-79658200D02*
G75*
G03*
X112102000Y-79658200I-2500000J0D01*
G01*
X112552000Y-79658200D02*
G75*
G03*
X112552000Y-79658200I-2950000J0D01*
G01*
D11*
X129058400Y-95685600D02*
G75*
G03*
X129058400Y-95685600I-381000J0D01*
G01*
X130455400Y-94796415D02*
X130455400Y-100257600D01*
X146711400Y-93298000D02*
X132317869Y-93298000D01*
X146711400Y-98759185D02*
X146711400Y-93298000D01*
X130455400Y-100257600D02*
X144848931Y-100257600D01*
X137059400Y-64342000D02*
G75*
G03*
X137059400Y-64342000I-76200J0D01*
G01*
X124410200Y-66300340D02*
X124410200Y-69612500D01*
X135840200Y-62383660D02*
X135840200Y-59071500D01*
X135840200Y-69612500D02*
X135840200Y-66300340D01*
X124410200Y-69612500D02*
X135840200Y-69612500D01*
X124410200Y-59071500D02*
X124410200Y-62383660D01*
X135840200Y-59071500D02*
X124410200Y-59071500D01*
D14*
X148510400Y-78464600D02*
G75*
G03*
X148510400Y-78464600I-127000J0D01*
G01*
D13*
X153783400Y-80064600D02*
G75*
G03*
X153783400Y-80064600I-2500000J0D01*
G01*
X154233400Y-80064600D02*
G75*
G03*
X154233400Y-80064600I-2950000J0D01*
G01*
X102007400Y-70590400D02*
G75*
G03*
X102007400Y-70590400I-127000J0D01*
G01*
D15*
G36*
X109017800Y-68359380D02*
G01*
X109017800Y-67390000D01*
X110700430Y-67390000D01*
X110700430Y-68359380D01*
X109017800Y-68359380D01*
G37*
X109017800Y-68359380D02*
X109017800Y-67390000D01*
X110700430Y-67390000D01*
X110700430Y-68359380D01*
X109017800Y-68359380D01*
G36*
X107316000Y-68356510D02*
G01*
X107316000Y-67390000D01*
X108993570Y-67390000D01*
X108993570Y-68356510D01*
X107316000Y-68356510D01*
G37*
X107316000Y-68356510D02*
X107316000Y-67390000D01*
X108993570Y-67390000D01*
X108993570Y-68356510D01*
X107316000Y-68356510D01*
G36*
X105614200Y-68355590D02*
G01*
X105614200Y-67390000D01*
X107290715Y-67390000D01*
X107290715Y-68355590D01*
X105614200Y-68355590D01*
G37*
X105614200Y-68355590D02*
X105614200Y-67390000D01*
X107290715Y-67390000D01*
X107290715Y-68355590D01*
X105614200Y-68355590D01*
G36*
X103912400Y-68355830D02*
G01*
X103912400Y-67390000D01*
X105588609Y-67390000D01*
X105588609Y-68355830D01*
X103912400Y-68355830D01*
G37*
X103912400Y-68355830D02*
X103912400Y-67390000D01*
X105588609Y-67390000D01*
X105588609Y-68355830D01*
X103912400Y-68355830D01*
G36*
X102210600Y-68359840D02*
G01*
X102210600Y-67390000D01*
X103882820Y-67390000D01*
X103882820Y-68359840D01*
X102210600Y-68359840D01*
G37*
X102210600Y-68359840D02*
X102210600Y-67390000D01*
X103882820Y-67390000D01*
X103882820Y-68359840D01*
X102210600Y-68359840D01*
D13*
X147944200Y-86513400D02*
X147944200Y-87853400D01*
X149644200Y-86513400D02*
X149644200Y-87853400D01*
X146849000Y-72130800D02*
X147909000Y-72130800D01*
X146849000Y-70370800D02*
X147909000Y-70370800D01*
D11*
X141354750Y-87290900D02*
X142212850Y-87290900D01*
X142212850Y-85335100D02*
X141354750Y-85335100D01*
X134582900Y-87859650D02*
X134582900Y-87001550D01*
X132627100Y-87001550D02*
X132627100Y-87859650D01*
X121628900Y-88545450D02*
X121628900Y-87687350D01*
X119673100Y-87687350D02*
X119673100Y-88545450D01*
D13*
X147409000Y-59315600D02*
X147409000Y-57975600D01*
X145709000Y-59315600D02*
X145709000Y-57975600D01*
X149061800Y-93894000D02*
X149061800Y-94594000D01*
X150761800Y-93894000D02*
X150761800Y-94594000D01*
D14*
X144912400Y-80420000D02*
G75*
G03*
X144912400Y-80420000I-127000J0D01*
G01*
D13*
X144385400Y-78820000D02*
G75*
G03*
X144385400Y-78820000I-2500000J0D01*
G01*
X144835400Y-78820000D02*
G75*
G03*
X144835400Y-78820000I-2950000J0D01*
G01*
X134535000Y-77048600D02*
X134535000Y-81048600D01*
X132135000Y-77373600D02*
X131635000Y-77373600D01*
X132135000Y-76873600D02*
X132635000Y-77373600D01*
X132135000Y-77373600D02*
X132135000Y-76873600D01*
X132135000Y-77873600D02*
X132135000Y-77373600D01*
X132635000Y-77373600D02*
X132135000Y-77873600D01*
X132635000Y-77373600D02*
X132635000Y-76873600D01*
X132635000Y-77373600D02*
X132635000Y-77873600D01*
X133135000Y-77373600D02*
X132635000Y-77373600D01*
X134535000Y-77048599D02*
G75*
G03*
X134535000Y-81048600I-2200015J-2000001D01*
G01*
X134535000Y-77048599D02*
G75*
G03*
X134535000Y-81048600I-2200015J-2000001D01*
G01*
D11*
X116518459Y-57987999D02*
X115204201Y-57987999D01*
X120363941Y-66372001D02*
X121678199Y-66372001D01*
X115204201Y-66372001D02*
X116518459Y-66372001D01*
X115204201Y-57987999D02*
X115204201Y-66372001D01*
X121678199Y-57987999D02*
X120363941Y-57987999D01*
X121678199Y-66372001D02*
X121678199Y-57987999D01*
X117806200Y-67007001D02*
X119076200Y-67007001D01*
X118441200Y-67769001D02*
X118568200Y-67007001D01*
X118441200Y-67769001D02*
X118695200Y-67007001D01*
X118441200Y-67769001D02*
X118822200Y-67007001D01*
X118441200Y-67769001D02*
X118949200Y-67007001D01*
X118441200Y-67769001D02*
X119076200Y-67007001D01*
X118441200Y-67769001D02*
X118314200Y-67007001D01*
X118441200Y-67769001D02*
X118187200Y-67007001D01*
X118441200Y-67769001D02*
X118060200Y-67007001D01*
X118441200Y-67769001D02*
X117933200Y-67007001D01*
X118441200Y-67769001D02*
X117806200Y-67007001D01*
X117806200Y-67769001D02*
X119076200Y-67769001D01*
X118441200Y-66753001D02*
X118441200Y-68023001D01*
X140047400Y-64097200D02*
X142707400Y-64097200D01*
X140047400Y-58957200D02*
X140047400Y-64097200D01*
X142707400Y-58957200D02*
X142707400Y-64097200D01*
X140047400Y-58957200D02*
X142707400Y-58957200D01*
X140047400Y-57687200D02*
X140047400Y-56357200D01*
X140047400Y-56357200D02*
X141377400Y-56357200D01*
X159427600Y-55341200D02*
X160757600Y-55341200D01*
X159427600Y-56671200D02*
X159427600Y-55341200D01*
X159427600Y-57941200D02*
X162087600Y-57941200D01*
X162087600Y-57941200D02*
X162087600Y-75781200D01*
X159427600Y-57941200D02*
X159427600Y-75781200D01*
X159427600Y-75781200D02*
X162087600Y-75781200D01*
D13*
X154626000Y-88655400D02*
X152346000Y-88655400D01*
X152346000Y-88655400D02*
X152346000Y-102845400D01*
X152346000Y-102845400D02*
X161346000Y-102845400D01*
X161346000Y-102845400D02*
X161346000Y-94325400D01*
X159066000Y-88655400D02*
X161346000Y-88655400D01*
X161346000Y-88655400D02*
X161346000Y-89885400D01*
D12*
X156946000Y-87955400D02*
G75*
G03*
X156946000Y-87955400I-100000J0D01*
G01*
X105038800Y-79042800D02*
G75*
G03*
X105038800Y-79042800I-100000J0D01*
G01*
D13*
X104048800Y-79977800D02*
X102048800Y-79977800D01*
X102048800Y-78017800D02*
X104048800Y-78017800D01*
X115968000Y-71667800D02*
X117968000Y-71667800D01*
X117968000Y-73627800D02*
X115968000Y-73627800D01*
D12*
X118958000Y-72692800D02*
G75*
G03*
X118958000Y-72692800I-100000J0D01*
G01*
X148295000Y-63142400D02*
G75*
G03*
X148295000Y-63142400I-100000J0D01*
G01*
D13*
X147305000Y-64077400D02*
X145305000Y-64077400D01*
X145305000Y-62117400D02*
X147305000Y-62117400D01*
X127874000Y-88994800D02*
X125874000Y-88994800D01*
X125874000Y-87034800D02*
X127874000Y-87034800D01*
D12*
X125084000Y-87969800D02*
G75*
G03*
X125084000Y-87969800I-100000J0D01*
G01*
D13*
X116704600Y-45124800D02*
X118704600Y-45124800D01*
X118704600Y-47084800D02*
X116704600Y-47084800D01*
D12*
X119694600Y-46149800D02*
G75*
G03*
X119694600Y-46149800I-100000J0D01*
G01*
X127873400Y-74572400D02*
G75*
G03*
X127873400Y-74572400I-100000J0D01*
G01*
D13*
X126883400Y-75507400D02*
X124883400Y-75507400D01*
X124883400Y-73547400D02*
X126883400Y-73547400D01*
X139259800Y-71388400D02*
X141259800Y-71388400D01*
X141259800Y-73348400D02*
X139259800Y-73348400D01*
D12*
X142249800Y-72413400D02*
G75*
G03*
X142249800Y-72413400I-100000J0D01*
G01*
X161198200Y-80668400D02*
G75*
G03*
X161198200Y-80668400I-100000J0D01*
G01*
D13*
X160208200Y-81603400D02*
X158208200Y-81603400D01*
X158208200Y-79643400D02*
X160208200Y-79643400D01*
D14*
X117166800Y-78159800D02*
G75*
G03*
X117166800Y-78159800I-127000J0D01*
G01*
D13*
X122439800Y-79759800D02*
G75*
G03*
X122439800Y-79759800I-2500000J0D01*
G01*
X122889800Y-79759800D02*
G75*
G03*
X122889800Y-79759800I-2950000J0D01*
G01*
D10*
X152805952Y-58469780D02*
X152329761Y-58469780D01*
X152329761Y-57469780D01*
X153139285Y-57945971D02*
X153472619Y-57945971D01*
X153615476Y-58469780D02*
X153139285Y-58469780D01*
X153139285Y-57469780D01*
X153615476Y-57469780D01*
X154044047Y-58469780D02*
X154044047Y-57469780D01*
X154282142Y-57469780D01*
X154425000Y-57517400D01*
X154520238Y-57612638D01*
X154567857Y-57707876D01*
X154615476Y-57898352D01*
X154615476Y-58041209D01*
X154567857Y-58231685D01*
X154520238Y-58326923D01*
X154425000Y-58422161D01*
X154282142Y-58469780D01*
X154044047Y-58469780D01*
X155567857Y-58469780D02*
X154996428Y-58469780D01*
X155282142Y-58469780D02*
X155282142Y-57469780D01*
X155186904Y-57612638D01*
X155091666Y-57707876D01*
X154996428Y-57755495D01*
X148723295Y-60670180D02*
X149294723Y-60670180D01*
X149009009Y-61670180D02*
X149009009Y-60670180D01*
X149770914Y-61670180D02*
X149675676Y-61622561D01*
X149628057Y-61574942D01*
X149580438Y-61479704D01*
X149580438Y-61193990D01*
X149628057Y-61098752D01*
X149675676Y-61051133D01*
X149770914Y-61003514D01*
X149913771Y-61003514D01*
X150009009Y-61051133D01*
X150056628Y-61098752D01*
X150104247Y-61193990D01*
X150104247Y-61479704D01*
X150056628Y-61574942D01*
X150009009Y-61622561D01*
X149913771Y-61670180D01*
X149770914Y-61670180D01*
X150675676Y-61670180D02*
X150580438Y-61622561D01*
X150532819Y-61574942D01*
X150485200Y-61479704D01*
X150485200Y-61193990D01*
X150532819Y-61098752D01*
X150580438Y-61051133D01*
X150675676Y-61003514D01*
X150818533Y-61003514D01*
X150913771Y-61051133D01*
X150961390Y-61098752D01*
X151009009Y-61193990D01*
X151009009Y-61479704D01*
X150961390Y-61574942D01*
X150913771Y-61622561D01*
X150818533Y-61670180D01*
X150675676Y-61670180D01*
X151580438Y-61670180D02*
X151485200Y-61622561D01*
X151437580Y-61527323D01*
X151437580Y-60670180D01*
X151723295Y-61765419D02*
X152485200Y-61765419D01*
X152723295Y-61670180D02*
X152723295Y-60670180D01*
X153199485Y-61003514D02*
X153199485Y-61670180D01*
X153199485Y-61098752D02*
X153247104Y-61051133D01*
X153342342Y-61003514D01*
X153485200Y-61003514D01*
X153580438Y-61051133D01*
X153628057Y-61146371D01*
X153628057Y-61670180D01*
X153866152Y-61765419D02*
X154628057Y-61765419D01*
X154866152Y-60670180D02*
X154866152Y-61479704D01*
X154913771Y-61574942D01*
X154961390Y-61622561D01*
X155056628Y-61670180D01*
X155247104Y-61670180D01*
X155342342Y-61622561D01*
X155389961Y-61574942D01*
X155437580Y-61479704D01*
X155437580Y-60670180D01*
X155866152Y-61622561D02*
X155961390Y-61670180D01*
X156151866Y-61670180D01*
X156247104Y-61622561D01*
X156294723Y-61527323D01*
X156294723Y-61479704D01*
X156247104Y-61384466D01*
X156151866Y-61336847D01*
X156009009Y-61336847D01*
X155913771Y-61289228D01*
X155866152Y-61193990D01*
X155866152Y-61146371D01*
X155913771Y-61051133D01*
X156009009Y-61003514D01*
X156151866Y-61003514D01*
X156247104Y-61051133D01*
X157104247Y-61622561D02*
X157009009Y-61670180D01*
X156818533Y-61670180D01*
X156723295Y-61622561D01*
X156675676Y-61527323D01*
X156675676Y-61146371D01*
X156723295Y-61051133D01*
X156818533Y-61003514D01*
X157009009Y-61003514D01*
X157104247Y-61051133D01*
X157151866Y-61146371D01*
X157151866Y-61241609D01*
X156675676Y-61336847D01*
X152655000Y-57469780D02*
X152655000Y-57707876D01*
X152416904Y-57612638D02*
X152655000Y-57707876D01*
X152893095Y-57612638D01*
X152512142Y-57898352D02*
X152655000Y-57707876D01*
X152797857Y-57898352D01*
X102399533Y-90505542D02*
X102351914Y-90553161D01*
X102209057Y-90600780D01*
X102113819Y-90600780D01*
X101970961Y-90553161D01*
X101875723Y-90457923D01*
X101828104Y-90362685D01*
X101780485Y-90172209D01*
X101780485Y-90029352D01*
X101828104Y-89838876D01*
X101875723Y-89743638D01*
X101970961Y-89648400D01*
X102113819Y-89600780D01*
X102209057Y-89600780D01*
X102351914Y-89648400D01*
X102399533Y-89696019D01*
X102780485Y-89696019D02*
X102828104Y-89648400D01*
X102923342Y-89600780D01*
X103161438Y-89600780D01*
X103256676Y-89648400D01*
X103304295Y-89696019D01*
X103351914Y-89791257D01*
X103351914Y-89886495D01*
X103304295Y-90029352D01*
X102732866Y-90600780D01*
X103351914Y-90600780D01*
X106435190Y-99846380D02*
X105863761Y-99846380D01*
X106149476Y-99846380D02*
X106149476Y-98846380D01*
X106054238Y-98989238D01*
X105959000Y-99084476D01*
X105863761Y-99132095D01*
X107054238Y-98846380D02*
X107149476Y-98846380D01*
X107244714Y-98894000D01*
X107292333Y-98941619D01*
X107339952Y-99036857D01*
X107387571Y-99227333D01*
X107387571Y-99465428D01*
X107339952Y-99655904D01*
X107292333Y-99751142D01*
X107244714Y-99798761D01*
X107149476Y-99846380D01*
X107054238Y-99846380D01*
X106959000Y-99798761D01*
X106911380Y-99751142D01*
X106863761Y-99655904D01*
X106816142Y-99465428D01*
X106816142Y-99227333D01*
X106863761Y-99036857D01*
X106911380Y-98941619D01*
X106959000Y-98894000D01*
X107054238Y-98846380D01*
X108006619Y-98846380D02*
X108101857Y-98846380D01*
X108197095Y-98894000D01*
X108244714Y-98941619D01*
X108292333Y-99036857D01*
X108339952Y-99227333D01*
X108339952Y-99465428D01*
X108292333Y-99655904D01*
X108244714Y-99751142D01*
X108197095Y-99798761D01*
X108101857Y-99846380D01*
X108006619Y-99846380D01*
X107911380Y-99798761D01*
X107863761Y-99751142D01*
X107816142Y-99655904D01*
X107768523Y-99465428D01*
X107768523Y-99227333D01*
X107816142Y-99036857D01*
X107863761Y-98941619D01*
X107911380Y-98894000D01*
X108006619Y-98846380D01*
X108959000Y-98846380D02*
X109054238Y-98846380D01*
X109149476Y-98894000D01*
X109197095Y-98941619D01*
X109244714Y-99036857D01*
X109292333Y-99227333D01*
X109292333Y-99465428D01*
X109244714Y-99655904D01*
X109197095Y-99751142D01*
X109149476Y-99798761D01*
X109054238Y-99846380D01*
X108959000Y-99846380D01*
X108863761Y-99798761D01*
X108816142Y-99751142D01*
X108768523Y-99655904D01*
X108720904Y-99465428D01*
X108720904Y-99227333D01*
X108768523Y-99036857D01*
X108816142Y-98941619D01*
X108863761Y-98894000D01*
X108959000Y-98846380D01*
X110149476Y-99179714D02*
X110149476Y-99846380D01*
X109720904Y-99179714D02*
X109720904Y-99703523D01*
X109768523Y-99798761D01*
X109863761Y-99846380D01*
X110006619Y-99846380D01*
X110101857Y-99798761D01*
X110149476Y-99751142D01*
X110959000Y-99322571D02*
X110625666Y-99322571D01*
X110625666Y-99846380D02*
X110625666Y-98846380D01*
X111101857Y-98846380D01*
X105665000Y-96052380D02*
X105665000Y-96290476D01*
X105426904Y-96195238D02*
X105665000Y-96290476D01*
X105903095Y-96195238D01*
X105522142Y-96480952D02*
X105665000Y-96290476D01*
X105807857Y-96480952D01*
X117614133Y-92715342D02*
X117566514Y-92762961D01*
X117423657Y-92810580D01*
X117328419Y-92810580D01*
X117185561Y-92762961D01*
X117090323Y-92667723D01*
X117042704Y-92572485D01*
X116995085Y-92382009D01*
X116995085Y-92239152D01*
X117042704Y-92048676D01*
X117090323Y-91953438D01*
X117185561Y-91858200D01*
X117328419Y-91810580D01*
X117423657Y-91810580D01*
X117566514Y-91858200D01*
X117614133Y-91905819D01*
X118566514Y-92810580D02*
X117995085Y-92810580D01*
X118280800Y-92810580D02*
X118280800Y-91810580D01*
X118185561Y-91953438D01*
X118090323Y-92048676D01*
X117995085Y-92096295D01*
X153462722Y-64787058D02*
X153462722Y-64145936D01*
X153615371Y-64145936D01*
X153706959Y-64176466D01*
X153768019Y-64237525D01*
X153798548Y-64298584D01*
X153829078Y-64420702D01*
X153829078Y-64512291D01*
X153798548Y-64634410D01*
X153768019Y-64695469D01*
X153706959Y-64756528D01*
X153615371Y-64787058D01*
X153462722Y-64787058D01*
X154409141Y-64145936D02*
X154103844Y-64145936D01*
X154073315Y-64451232D01*
X154103844Y-64420702D01*
X154164904Y-64390173D01*
X154317552Y-64390173D01*
X154378611Y-64420702D01*
X154409141Y-64451232D01*
X154439670Y-64512291D01*
X154439670Y-64664939D01*
X154409141Y-64725999D01*
X154378611Y-64756528D01*
X154317552Y-64787058D01*
X154164904Y-64787058D01*
X154103844Y-64756528D01*
X154073315Y-64725999D01*
D16*
X111302783Y-85015702D02*
X111171549Y-84828226D01*
X111077811Y-85015702D02*
X111077811Y-84622001D01*
X111227792Y-84622001D01*
X111265287Y-84640749D01*
X111284035Y-84659497D01*
X111302783Y-84696992D01*
X111302783Y-84753235D01*
X111284035Y-84790730D01*
X111265287Y-84809478D01*
X111227792Y-84828226D01*
X111077811Y-84828226D01*
X111452764Y-84659497D02*
X111471512Y-84640749D01*
X111509007Y-84622001D01*
X111602745Y-84622001D01*
X111640241Y-84640749D01*
X111658988Y-84659497D01*
X111677736Y-84696992D01*
X111677736Y-84734487D01*
X111658988Y-84790730D01*
X111434016Y-85015702D01*
X111677736Y-85015702D01*
D10*
X109001790Y-76087431D02*
X109001790Y-75446309D01*
X109154439Y-75446309D01*
X109246027Y-75476839D01*
X109307087Y-75537898D01*
X109337616Y-75598957D01*
X109368146Y-75721075D01*
X109368146Y-75812664D01*
X109337616Y-75934783D01*
X109307087Y-75995842D01*
X109246027Y-76056901D01*
X109154439Y-76087431D01*
X109001790Y-76087431D01*
X109917679Y-75446309D02*
X109795561Y-75446309D01*
X109734501Y-75476839D01*
X109703972Y-75507368D01*
X109642912Y-75598957D01*
X109612383Y-75721075D01*
X109612383Y-75965312D01*
X109642912Y-76026372D01*
X109673442Y-76056901D01*
X109734501Y-76087431D01*
X109856620Y-76087431D01*
X109917679Y-76056901D01*
X109948209Y-76026372D01*
X109978738Y-75965312D01*
X109978738Y-75812664D01*
X109948209Y-75751605D01*
X109917679Y-75721075D01*
X109856620Y-75690546D01*
X109734501Y-75690546D01*
X109673442Y-75721075D01*
X109642912Y-75751605D01*
X109612383Y-75812664D01*
X137580266Y-102541961D02*
X137723123Y-102589580D01*
X137961219Y-102589580D01*
X138056457Y-102541961D01*
X138104076Y-102494342D01*
X138151695Y-102399104D01*
X138151695Y-102303866D01*
X138104076Y-102208628D01*
X138056457Y-102161009D01*
X137961219Y-102113390D01*
X137770742Y-102065771D01*
X137675504Y-102018152D01*
X137627885Y-101970533D01*
X137580266Y-101875295D01*
X137580266Y-101780057D01*
X137627885Y-101684819D01*
X137675504Y-101637200D01*
X137770742Y-101589580D01*
X138008838Y-101589580D01*
X138151695Y-101637200D01*
X138485028Y-101589580D02*
X138723123Y-102589580D01*
X138913600Y-101875295D01*
X139104076Y-102589580D01*
X139342171Y-101589580D01*
X140246933Y-102589580D02*
X139675504Y-102589580D01*
X139961219Y-102589580D02*
X139961219Y-101589580D01*
X139865980Y-101732438D01*
X139770742Y-101827676D01*
X139675504Y-101875295D01*
X136724714Y-99011361D02*
X136867571Y-99058980D01*
X137105666Y-99058980D01*
X137200904Y-99011361D01*
X137248523Y-98963742D01*
X137296142Y-98868504D01*
X137296142Y-98773266D01*
X137248523Y-98678028D01*
X137200904Y-98630409D01*
X137105666Y-98582790D01*
X136915190Y-98535171D01*
X136819952Y-98487552D01*
X136772333Y-98439933D01*
X136724714Y-98344695D01*
X136724714Y-98249457D01*
X136772333Y-98154219D01*
X136819952Y-98106600D01*
X136915190Y-98058980D01*
X137153285Y-98058980D01*
X137296142Y-98106600D01*
X137629476Y-98392314D02*
X137819952Y-99058980D01*
X138010428Y-98582790D01*
X138200904Y-99058980D01*
X138391380Y-98392314D01*
X138772333Y-99058980D02*
X138772333Y-98392314D01*
X138772333Y-98058980D02*
X138724714Y-98106600D01*
X138772333Y-98154219D01*
X138819952Y-98106600D01*
X138772333Y-98058980D01*
X138772333Y-98154219D01*
X139105666Y-98392314D02*
X139486619Y-98392314D01*
X139248523Y-98058980D02*
X139248523Y-98916123D01*
X139296142Y-99011361D01*
X139391380Y-99058980D01*
X139486619Y-99058980D01*
X140248523Y-99011361D02*
X140153285Y-99058980D01*
X139962809Y-99058980D01*
X139867571Y-99011361D01*
X139819952Y-98963742D01*
X139772333Y-98868504D01*
X139772333Y-98582790D01*
X139819952Y-98487552D01*
X139867571Y-98439933D01*
X139962809Y-98392314D01*
X140153285Y-98392314D01*
X140248523Y-98439933D01*
X140677095Y-99058980D02*
X140677095Y-98058980D01*
X141105666Y-99058980D02*
X141105666Y-98535171D01*
X141058047Y-98439933D01*
X140962809Y-98392314D01*
X140819952Y-98392314D01*
X140724714Y-98439933D01*
X140677095Y-98487552D01*
X134595600Y-95137980D02*
X134595600Y-95376076D01*
X134357504Y-95280838D02*
X134595600Y-95376076D01*
X134833695Y-95280838D01*
X134452742Y-95566552D02*
X134595600Y-95376076D01*
X134738457Y-95566552D01*
X129958533Y-58266580D02*
X129482342Y-58266580D01*
X129482342Y-57266580D01*
X130815676Y-58266580D02*
X130244247Y-58266580D01*
X130529961Y-58266580D02*
X130529961Y-57266580D01*
X130434723Y-57409438D01*
X130339485Y-57504676D01*
X130244247Y-57552295D01*
D17*
X130073795Y-64353490D02*
X130059280Y-64353490D01*
X130066538Y-64353490D02*
X130066538Y-64328090D01*
X130064119Y-64331719D01*
X130061700Y-64334138D01*
X130059280Y-64335347D01*
X130089519Y-64328090D02*
X130091938Y-64328090D01*
X130094357Y-64329300D01*
X130095566Y-64330509D01*
X130096776Y-64332928D01*
X130097985Y-64337766D01*
X130097985Y-64343814D01*
X130096776Y-64348652D01*
X130095566Y-64351071D01*
X130094357Y-64352280D01*
X130091938Y-64353490D01*
X130089519Y-64353490D01*
X130087100Y-64352280D01*
X130085890Y-64351071D01*
X130084680Y-64348652D01*
X130083471Y-64343814D01*
X130083471Y-64337766D01*
X130084680Y-64332928D01*
X130085890Y-64330509D01*
X130087100Y-64329300D01*
X130089519Y-64328090D01*
X130113709Y-64328090D02*
X130116128Y-64328090D01*
X130118547Y-64329300D01*
X130119757Y-64330509D01*
X130120966Y-64332928D01*
X130122176Y-64337766D01*
X130122176Y-64343814D01*
X130120966Y-64348652D01*
X130119757Y-64351071D01*
X130118547Y-64352280D01*
X130116128Y-64353490D01*
X130113709Y-64353490D01*
X130111290Y-64352280D01*
X130110080Y-64351071D01*
X130108871Y-64348652D01*
X130107661Y-64343814D01*
X130107661Y-64337766D01*
X130108871Y-64332928D01*
X130110080Y-64330509D01*
X130111290Y-64329300D01*
X130113709Y-64328090D01*
X130163300Y-64336557D02*
X130163300Y-64353490D01*
X130152414Y-64336557D02*
X130152414Y-64349861D01*
X130153623Y-64352280D01*
X130156042Y-64353490D01*
X130159671Y-64353490D01*
X130162090Y-64352280D01*
X130163300Y-64351071D01*
X130175395Y-64353490D02*
X130175395Y-64328090D01*
X130175395Y-64340185D02*
X130189909Y-64340185D01*
X130189909Y-64353490D02*
X130189909Y-64328090D01*
D10*
X130125200Y-63794380D02*
X130125200Y-64032476D01*
X129887104Y-63937238D02*
X130125200Y-64032476D01*
X130363295Y-63937238D01*
X129982342Y-64222952D02*
X130125200Y-64032476D01*
X130268057Y-64222952D01*
X150606527Y-76341715D02*
X150606527Y-75699965D01*
X150759325Y-75699965D01*
X150851003Y-75730525D01*
X150912122Y-75791644D01*
X150942682Y-75852763D01*
X150973241Y-75975001D01*
X150973241Y-76066679D01*
X150942682Y-76188917D01*
X150912122Y-76250036D01*
X150851003Y-76311155D01*
X150759325Y-76341715D01*
X150606527Y-76341715D01*
X151523313Y-75913882D02*
X151523313Y-76341715D01*
X151370515Y-75669405D02*
X151217717Y-76127798D01*
X151614991Y-76127798D01*
X101295263Y-53481239D02*
X101295263Y-54291859D01*
X101342947Y-54387226D01*
X101390630Y-54434909D01*
X101485997Y-54482593D01*
X101676731Y-54482593D01*
X101772098Y-54434909D01*
X101819782Y-54387226D01*
X101867465Y-54291859D01*
X101867465Y-53481239D01*
X102868819Y-54482593D02*
X102296617Y-54482593D01*
X102582718Y-54482593D02*
X102582718Y-53481239D01*
X102487351Y-53624290D01*
X102391984Y-53719657D01*
X102296617Y-53767340D01*
X147272619Y-87320533D02*
X146788809Y-87659200D01*
X147272619Y-87901104D02*
X146256619Y-87901104D01*
X146256619Y-87514057D01*
X146305000Y-87417295D01*
X146353380Y-87368914D01*
X146450142Y-87320533D01*
X146595285Y-87320533D01*
X146692047Y-87368914D01*
X146740428Y-87417295D01*
X146788809Y-87514057D01*
X146788809Y-87901104D01*
X147272619Y-86836723D02*
X147272619Y-86643200D01*
X147224238Y-86546438D01*
X147175857Y-86498057D01*
X147030714Y-86401295D01*
X146837190Y-86352914D01*
X146450142Y-86352914D01*
X146353380Y-86401295D01*
X146305000Y-86449676D01*
X146256619Y-86546438D01*
X146256619Y-86739961D01*
X146305000Y-86836723D01*
X146353380Y-86885104D01*
X146450142Y-86933485D01*
X146692047Y-86933485D01*
X146788809Y-86885104D01*
X146837190Y-86836723D01*
X146885571Y-86739961D01*
X146885571Y-86546438D01*
X146837190Y-86449676D01*
X146788809Y-86401295D01*
X146692047Y-86352914D01*
X147050066Y-69373619D02*
X146711400Y-68889809D01*
X146469495Y-69373619D02*
X146469495Y-68357619D01*
X146856542Y-68357619D01*
X146953304Y-68406000D01*
X147001685Y-68454380D01*
X147050066Y-68551142D01*
X147050066Y-68696285D01*
X147001685Y-68793047D01*
X146953304Y-68841428D01*
X146856542Y-68889809D01*
X146469495Y-68889809D01*
X147630638Y-68793047D02*
X147533876Y-68744666D01*
X147485495Y-68696285D01*
X147437114Y-68599523D01*
X147437114Y-68551142D01*
X147485495Y-68454380D01*
X147533876Y-68406000D01*
X147630638Y-68357619D01*
X147824161Y-68357619D01*
X147920923Y-68406000D01*
X147969304Y-68454380D01*
X148017685Y-68551142D01*
X148017685Y-68599523D01*
X147969304Y-68696285D01*
X147920923Y-68744666D01*
X147824161Y-68793047D01*
X147630638Y-68793047D01*
X147533876Y-68841428D01*
X147485495Y-68889809D01*
X147437114Y-68986571D01*
X147437114Y-69180095D01*
X147485495Y-69276857D01*
X147533876Y-69325238D01*
X147630638Y-69373619D01*
X147824161Y-69373619D01*
X147920923Y-69325238D01*
X147969304Y-69276857D01*
X148017685Y-69180095D01*
X148017685Y-68986571D01*
X147969304Y-68889809D01*
X147920923Y-68841428D01*
X147824161Y-68793047D01*
X141744133Y-84733380D02*
X141410800Y-84257190D01*
X141172704Y-84733380D02*
X141172704Y-83733380D01*
X141553657Y-83733380D01*
X141648895Y-83781000D01*
X141696514Y-83828619D01*
X141744133Y-83923857D01*
X141744133Y-84066714D01*
X141696514Y-84161952D01*
X141648895Y-84209571D01*
X141553657Y-84257190D01*
X141172704Y-84257190D01*
X142077466Y-83733380D02*
X142744133Y-83733380D01*
X142315561Y-84733380D01*
X141066333Y-86765380D02*
X140494904Y-86765380D01*
X140780619Y-86765380D02*
X140780619Y-85765380D01*
X140685380Y-85908238D01*
X140590142Y-86003476D01*
X140494904Y-86051095D01*
X141685380Y-85765380D02*
X141780619Y-85765380D01*
X141875857Y-85813000D01*
X141923476Y-85860619D01*
X141971095Y-85955857D01*
X142018714Y-86146333D01*
X142018714Y-86384428D01*
X141971095Y-86574904D01*
X141923476Y-86670142D01*
X141875857Y-86717761D01*
X141780619Y-86765380D01*
X141685380Y-86765380D01*
X141590142Y-86717761D01*
X141542523Y-86670142D01*
X141494904Y-86574904D01*
X141447285Y-86384428D01*
X141447285Y-86146333D01*
X141494904Y-85955857D01*
X141542523Y-85860619D01*
X141590142Y-85813000D01*
X141685380Y-85765380D01*
X142637761Y-85765380D02*
X142733000Y-85765380D01*
X142828238Y-85813000D01*
X142875857Y-85860619D01*
X142923476Y-85955857D01*
X142971095Y-86146333D01*
X142971095Y-86384428D01*
X142923476Y-86574904D01*
X142875857Y-86670142D01*
X142828238Y-86717761D01*
X142733000Y-86765380D01*
X142637761Y-86765380D01*
X142542523Y-86717761D01*
X142494904Y-86670142D01*
X142447285Y-86574904D01*
X142399666Y-86384428D01*
X142399666Y-86146333D01*
X142447285Y-85955857D01*
X142494904Y-85860619D01*
X142542523Y-85813000D01*
X142637761Y-85765380D01*
X132126980Y-87597266D02*
X131650790Y-87930600D01*
X132126980Y-88168695D02*
X131126980Y-88168695D01*
X131126980Y-87787742D01*
X131174600Y-87692504D01*
X131222219Y-87644885D01*
X131317457Y-87597266D01*
X131460314Y-87597266D01*
X131555552Y-87644885D01*
X131603171Y-87692504D01*
X131650790Y-87787742D01*
X131650790Y-88168695D01*
X131126980Y-86740123D02*
X131126980Y-86930600D01*
X131174600Y-87025838D01*
X131222219Y-87073457D01*
X131365076Y-87168695D01*
X131555552Y-87216314D01*
X131936504Y-87216314D01*
X132031742Y-87168695D01*
X132079361Y-87121076D01*
X132126980Y-87025838D01*
X132126980Y-86835361D01*
X132079361Y-86740123D01*
X132031742Y-86692504D01*
X131936504Y-86644885D01*
X131698409Y-86644885D01*
X131603171Y-86692504D01*
X131555552Y-86740123D01*
X131507933Y-86835361D01*
X131507933Y-87025838D01*
X131555552Y-87121076D01*
X131603171Y-87168695D01*
X131698409Y-87216314D01*
X134057380Y-88071866D02*
X134057380Y-88643295D01*
X134057380Y-88357580D02*
X133057380Y-88357580D01*
X133200238Y-88452819D01*
X133295476Y-88548057D01*
X133343095Y-88643295D01*
X133057380Y-87452819D02*
X133057380Y-87357580D01*
X133105000Y-87262342D01*
X133152619Y-87214723D01*
X133247857Y-87167104D01*
X133438333Y-87119485D01*
X133676428Y-87119485D01*
X133866904Y-87167104D01*
X133962142Y-87214723D01*
X134009761Y-87262342D01*
X134057380Y-87357580D01*
X134057380Y-87452819D01*
X134009761Y-87548057D01*
X133962142Y-87595676D01*
X133866904Y-87643295D01*
X133676428Y-87690914D01*
X133438333Y-87690914D01*
X133247857Y-87643295D01*
X133152619Y-87595676D01*
X133105000Y-87548057D01*
X133057380Y-87452819D01*
X133057380Y-86500438D02*
X133057380Y-86405200D01*
X133105000Y-86309961D01*
X133152619Y-86262342D01*
X133247857Y-86214723D01*
X133438333Y-86167104D01*
X133676428Y-86167104D01*
X133866904Y-86214723D01*
X133962142Y-86262342D01*
X134009761Y-86309961D01*
X134057380Y-86405200D01*
X134057380Y-86500438D01*
X134009761Y-86595676D01*
X133962142Y-86643295D01*
X133866904Y-86690914D01*
X133676428Y-86738533D01*
X133438333Y-86738533D01*
X133247857Y-86690914D01*
X133152619Y-86643295D01*
X133105000Y-86595676D01*
X133057380Y-86500438D01*
X133057380Y-87430600D02*
X133295476Y-87430600D01*
X133200238Y-87668695D02*
X133295476Y-87430600D01*
X133200238Y-87192504D01*
X133485952Y-87573457D02*
X133295476Y-87430600D01*
X133485952Y-87287742D01*
X119198380Y-88206866D02*
X118722190Y-88540200D01*
X119198380Y-88778295D02*
X118198380Y-88778295D01*
X118198380Y-88397342D01*
X118246000Y-88302104D01*
X118293619Y-88254485D01*
X118388857Y-88206866D01*
X118531714Y-88206866D01*
X118626952Y-88254485D01*
X118674571Y-88302104D01*
X118722190Y-88397342D01*
X118722190Y-88778295D01*
X118198380Y-87302104D02*
X118198380Y-87778295D01*
X118674571Y-87825914D01*
X118626952Y-87778295D01*
X118579333Y-87683057D01*
X118579333Y-87444961D01*
X118626952Y-87349723D01*
X118674571Y-87302104D01*
X118769809Y-87254485D01*
X119007904Y-87254485D01*
X119103142Y-87302104D01*
X119150761Y-87349723D01*
X119198380Y-87444961D01*
X119198380Y-87683057D01*
X119150761Y-87778295D01*
X119103142Y-87825914D01*
X121128780Y-88808466D02*
X121128780Y-89379895D01*
X121128780Y-89094180D02*
X120128780Y-89094180D01*
X120271638Y-89189419D01*
X120366876Y-89284657D01*
X120414495Y-89379895D01*
X120128780Y-88189419D02*
X120128780Y-88094180D01*
X120176400Y-87998942D01*
X120224019Y-87951323D01*
X120319257Y-87903704D01*
X120509733Y-87856085D01*
X120747828Y-87856085D01*
X120938304Y-87903704D01*
X121033542Y-87951323D01*
X121081161Y-87998942D01*
X121128780Y-88094180D01*
X121128780Y-88189419D01*
X121081161Y-88284657D01*
X121033542Y-88332276D01*
X120938304Y-88379895D01*
X120747828Y-88427514D01*
X120509733Y-88427514D01*
X120319257Y-88379895D01*
X120224019Y-88332276D01*
X120176400Y-88284657D01*
X120128780Y-88189419D01*
X120128780Y-87237038D02*
X120128780Y-87141800D01*
X120176400Y-87046561D01*
X120224019Y-86998942D01*
X120319257Y-86951323D01*
X120509733Y-86903704D01*
X120747828Y-86903704D01*
X120938304Y-86951323D01*
X121033542Y-86998942D01*
X121081161Y-87046561D01*
X121128780Y-87141800D01*
X121128780Y-87237038D01*
X121081161Y-87332276D01*
X121033542Y-87379895D01*
X120938304Y-87427514D01*
X120747828Y-87475133D01*
X120509733Y-87475133D01*
X120319257Y-87427514D01*
X120224019Y-87379895D01*
X120176400Y-87332276D01*
X120128780Y-87237038D01*
X120103380Y-88116400D02*
X120341476Y-88116400D01*
X120246238Y-88354495D02*
X120341476Y-88116400D01*
X120246238Y-87878304D01*
X120531952Y-88259257D02*
X120341476Y-88116400D01*
X120531952Y-87973542D01*
X144986619Y-58745533D02*
X144502809Y-59084200D01*
X144986619Y-59326104D02*
X143970619Y-59326104D01*
X143970619Y-58939057D01*
X144019000Y-58842295D01*
X144067380Y-58793914D01*
X144164142Y-58745533D01*
X144309285Y-58745533D01*
X144406047Y-58793914D01*
X144454428Y-58842295D01*
X144502809Y-58939057D01*
X144502809Y-59326104D01*
X144309285Y-57874676D02*
X144986619Y-57874676D01*
X143922238Y-58116580D02*
X144647952Y-58358485D01*
X144647952Y-57729533D01*
X148339419Y-94330933D02*
X147855609Y-94669600D01*
X148339419Y-94911504D02*
X147323419Y-94911504D01*
X147323419Y-94524457D01*
X147371800Y-94427695D01*
X147420180Y-94379314D01*
X147516942Y-94330933D01*
X147662085Y-94330933D01*
X147758847Y-94379314D01*
X147807228Y-94427695D01*
X147855609Y-94524457D01*
X147855609Y-94911504D01*
X147323419Y-93992266D02*
X147323419Y-93363314D01*
X147710466Y-93701980D01*
X147710466Y-93556838D01*
X147758847Y-93460076D01*
X147807228Y-93411695D01*
X147903990Y-93363314D01*
X148145895Y-93363314D01*
X148242657Y-93411695D01*
X148291038Y-93460076D01*
X148339419Y-93556838D01*
X148339419Y-93847123D01*
X148291038Y-93943885D01*
X148242657Y-93992266D01*
X141437590Y-75223831D02*
X141437590Y-74582709D01*
X141590239Y-74582709D01*
X141681827Y-74613239D01*
X141742887Y-74674298D01*
X141773416Y-74735357D01*
X141803946Y-74857475D01*
X141803946Y-74949064D01*
X141773416Y-75071183D01*
X141742887Y-75132242D01*
X141681827Y-75193301D01*
X141590239Y-75223831D01*
X141437590Y-75223831D01*
X142017653Y-74582709D02*
X142414538Y-74582709D01*
X142200831Y-74826946D01*
X142292420Y-74826946D01*
X142353479Y-74857475D01*
X142384009Y-74888005D01*
X142414538Y-74949064D01*
X142414538Y-75101712D01*
X142384009Y-75162772D01*
X142353479Y-75193301D01*
X142292420Y-75223831D01*
X142109242Y-75223831D01*
X142048183Y-75193301D01*
X142017653Y-75162772D01*
X131854619Y-75221723D02*
X131854619Y-74581723D01*
X132007000Y-74581723D01*
X132098428Y-74612200D01*
X132159380Y-74673152D01*
X132189857Y-74734104D01*
X132220333Y-74856009D01*
X132220333Y-74947438D01*
X132189857Y-75069342D01*
X132159380Y-75130295D01*
X132098428Y-75191247D01*
X132007000Y-75221723D01*
X131854619Y-75221723D01*
X132464142Y-74642676D02*
X132494619Y-74612200D01*
X132555571Y-74581723D01*
X132707952Y-74581723D01*
X132768904Y-74612200D01*
X132799380Y-74642676D01*
X132829857Y-74703628D01*
X132829857Y-74764580D01*
X132799380Y-74856009D01*
X132433666Y-75221723D01*
X132829857Y-75221723D01*
X133064523Y-81705742D02*
X133016904Y-81753361D01*
X132874047Y-81800980D01*
X132778809Y-81800980D01*
X132635952Y-81753361D01*
X132540714Y-81658123D01*
X132493095Y-81562885D01*
X132445476Y-81372409D01*
X132445476Y-81229552D01*
X132493095Y-81039076D01*
X132540714Y-80943838D01*
X132635952Y-80848600D01*
X132778809Y-80800980D01*
X132874047Y-80800980D01*
X133016904Y-80848600D01*
X133064523Y-80896219D01*
X114289842Y-63052866D02*
X114337461Y-63100485D01*
X114385080Y-63243342D01*
X114385080Y-63338580D01*
X114337461Y-63481438D01*
X114242223Y-63576676D01*
X114146985Y-63624295D01*
X113956509Y-63671914D01*
X113813652Y-63671914D01*
X113623176Y-63624295D01*
X113527938Y-63576676D01*
X113432700Y-63481438D01*
X113385080Y-63338580D01*
X113385080Y-63243342D01*
X113432700Y-63100485D01*
X113480319Y-63052866D01*
X114385080Y-62052866D02*
X113908890Y-62386200D01*
X114385080Y-62624295D02*
X113385080Y-62624295D01*
X113385080Y-62243342D01*
X113432700Y-62148104D01*
X113480319Y-62100485D01*
X113575557Y-62052866D01*
X113718414Y-62052866D01*
X113813652Y-62100485D01*
X113861271Y-62148104D01*
X113908890Y-62243342D01*
X113908890Y-62624295D01*
X114385080Y-61100485D02*
X114385080Y-61671914D01*
X114385080Y-61386200D02*
X113385080Y-61386200D01*
X113527938Y-61481438D01*
X113623176Y-61576676D01*
X113670795Y-61671914D01*
D17*
X116153385Y-61598195D02*
X116154595Y-61594566D01*
X116155804Y-61593357D01*
X116158223Y-61592147D01*
X116161852Y-61592147D01*
X116164271Y-61593357D01*
X116165480Y-61594566D01*
X116166690Y-61596985D01*
X116166690Y-61606661D01*
X116141290Y-61606661D01*
X116141290Y-61598195D01*
X116142500Y-61595776D01*
X116143709Y-61594566D01*
X116146128Y-61593357D01*
X116148547Y-61593357D01*
X116150966Y-61594566D01*
X116152176Y-61595776D01*
X116153385Y-61598195D01*
X116153385Y-61606661D01*
X116141290Y-61583680D02*
X116141290Y-61567957D01*
X116150966Y-61576423D01*
X116150966Y-61572795D01*
X116152176Y-61570376D01*
X116153385Y-61569166D01*
X116155804Y-61567957D01*
X116161852Y-61567957D01*
X116164271Y-61569166D01*
X116165480Y-61570376D01*
X116166690Y-61572795D01*
X116166690Y-61580052D01*
X116165480Y-61582471D01*
X116164271Y-61583680D01*
X116152176Y-61553442D02*
X116150966Y-61555861D01*
X116149757Y-61557071D01*
X116147338Y-61558280D01*
X116146128Y-61558280D01*
X116143709Y-61557071D01*
X116142500Y-61555861D01*
X116141290Y-61553442D01*
X116141290Y-61548604D01*
X116142500Y-61546185D01*
X116143709Y-61544976D01*
X116146128Y-61543766D01*
X116147338Y-61543766D01*
X116149757Y-61544976D01*
X116150966Y-61546185D01*
X116152176Y-61548604D01*
X116152176Y-61553442D01*
X116153385Y-61555861D01*
X116154595Y-61557071D01*
X116157014Y-61558280D01*
X116161852Y-61558280D01*
X116164271Y-61557071D01*
X116165480Y-61555861D01*
X116166690Y-61553442D01*
X116166690Y-61548604D01*
X116165480Y-61546185D01*
X116164271Y-61544976D01*
X116161852Y-61543766D01*
X116157014Y-61543766D01*
X116154595Y-61544976D01*
X116153385Y-61546185D01*
X116152176Y-61548604D01*
X116141290Y-61528042D02*
X116141290Y-61525623D01*
X116142500Y-61523204D01*
X116143709Y-61521995D01*
X116146128Y-61520785D01*
X116150966Y-61519576D01*
X116157014Y-61519576D01*
X116161852Y-61520785D01*
X116164271Y-61521995D01*
X116165480Y-61523204D01*
X116166690Y-61525623D01*
X116166690Y-61528042D01*
X116165480Y-61530461D01*
X116164271Y-61531671D01*
X116161852Y-61532880D01*
X116157014Y-61534090D01*
X116150966Y-61534090D01*
X116146128Y-61532880D01*
X116143709Y-61531671D01*
X116142500Y-61530461D01*
X116141290Y-61528042D01*
X116157014Y-61508690D02*
X116157014Y-61489338D01*
X116166690Y-61463938D02*
X116166690Y-61478452D01*
X116166690Y-61471195D02*
X116141290Y-61471195D01*
X116144919Y-61473614D01*
X116147338Y-61476033D01*
X116148547Y-61478452D01*
X116141290Y-61455471D02*
X116141290Y-61439747D01*
X116150966Y-61448214D01*
X116150966Y-61444585D01*
X116152176Y-61442166D01*
X116153385Y-61440957D01*
X116155804Y-61439747D01*
X116161852Y-61439747D01*
X116164271Y-61440957D01*
X116165480Y-61442166D01*
X116166690Y-61444585D01*
X116166690Y-61451842D01*
X116165480Y-61454261D01*
X116164271Y-61455471D01*
X116157014Y-61428861D02*
X116157014Y-61409509D01*
X116153385Y-61388947D02*
X116153385Y-61397414D01*
X116166690Y-61397414D02*
X116141290Y-61397414D01*
X116141290Y-61385319D01*
D10*
X117893580Y-62180000D02*
X118131676Y-62180000D01*
X118036438Y-62418095D02*
X118131676Y-62180000D01*
X118036438Y-61941904D01*
X118322152Y-62322857D02*
X118131676Y-62180000D01*
X118322152Y-62037142D01*
X140993266Y-64784980D02*
X140993266Y-65499266D01*
X140945647Y-65642123D01*
X140850409Y-65737361D01*
X140707552Y-65784980D01*
X140612314Y-65784980D01*
X141421838Y-64880219D02*
X141469457Y-64832600D01*
X141564695Y-64784980D01*
X141802790Y-64784980D01*
X141898028Y-64832600D01*
X141945647Y-64880219D01*
X141993266Y-64975457D01*
X141993266Y-65070695D01*
X141945647Y-65213552D01*
X141374219Y-65784980D01*
X141993266Y-65784980D01*
X159930580Y-53880333D02*
X160644866Y-53880333D01*
X160787723Y-53927952D01*
X160882961Y-54023190D01*
X160930580Y-54166047D01*
X160930580Y-54261285D01*
X159930580Y-53499380D02*
X159930580Y-52880333D01*
X160311533Y-53213666D01*
X160311533Y-53070809D01*
X160359152Y-52975571D01*
X160406771Y-52927952D01*
X160502009Y-52880333D01*
X160740104Y-52880333D01*
X160835342Y-52927952D01*
X160882961Y-52975571D01*
X160930580Y-53070809D01*
X160930580Y-53356523D01*
X160882961Y-53451761D01*
X160835342Y-53499380D01*
X153585333Y-86079733D02*
X153585333Y-87079733D01*
X153518666Y-87279733D01*
X153385333Y-87413066D01*
X153185333Y-87479733D01*
X153052000Y-87479733D01*
X154985333Y-87479733D02*
X154185333Y-87479733D01*
X154585333Y-87479733D02*
X154585333Y-86079733D01*
X154452000Y-86279733D01*
X154318666Y-86413066D01*
X154185333Y-86479733D01*
X101599276Y-80367704D02*
X102056419Y-80367704D01*
X101827847Y-81167704D02*
X101827847Y-80367704D01*
X102323085Y-81167704D02*
X102323085Y-80367704D01*
X102627847Y-80367704D01*
X102704038Y-80405800D01*
X102742133Y-80443895D01*
X102780228Y-80520085D01*
X102780228Y-80634371D01*
X102742133Y-80710561D01*
X102704038Y-80748657D01*
X102627847Y-80786752D01*
X102323085Y-80786752D01*
X103542133Y-81167704D02*
X103084990Y-81167704D01*
X103313561Y-81167704D02*
X103313561Y-80367704D01*
X103237371Y-80481990D01*
X103161180Y-80558180D01*
X103084990Y-80596276D01*
X115983876Y-70101504D02*
X116441019Y-70101504D01*
X116212447Y-70901504D02*
X116212447Y-70101504D01*
X116707685Y-70901504D02*
X116707685Y-70101504D01*
X117012447Y-70101504D01*
X117088638Y-70139600D01*
X117126733Y-70177695D01*
X117164828Y-70253885D01*
X117164828Y-70368171D01*
X117126733Y-70444361D01*
X117088638Y-70482457D01*
X117012447Y-70520552D01*
X116707685Y-70520552D01*
X117469590Y-70177695D02*
X117507685Y-70139600D01*
X117583876Y-70101504D01*
X117774352Y-70101504D01*
X117850542Y-70139600D01*
X117888638Y-70177695D01*
X117926733Y-70253885D01*
X117926733Y-70330076D01*
X117888638Y-70444361D01*
X117431495Y-70901504D01*
X117926733Y-70901504D01*
X144855476Y-64467304D02*
X145312619Y-64467304D01*
X145084047Y-65267304D02*
X145084047Y-64467304D01*
X145579285Y-65267304D02*
X145579285Y-64467304D01*
X145884047Y-64467304D01*
X145960238Y-64505400D01*
X145998333Y-64543495D01*
X146036428Y-64619685D01*
X146036428Y-64733971D01*
X145998333Y-64810161D01*
X145960238Y-64848257D01*
X145884047Y-64886352D01*
X145579285Y-64886352D01*
X146303095Y-64467304D02*
X146798333Y-64467304D01*
X146531666Y-64772066D01*
X146645952Y-64772066D01*
X146722142Y-64810161D01*
X146760238Y-64848257D01*
X146798333Y-64924447D01*
X146798333Y-65114923D01*
X146760238Y-65191114D01*
X146722142Y-65229209D01*
X146645952Y-65267304D01*
X146417380Y-65267304D01*
X146341190Y-65229209D01*
X146303095Y-65191114D01*
X126093076Y-85671704D02*
X126550219Y-85671704D01*
X126321647Y-86471704D02*
X126321647Y-85671704D01*
X126816885Y-86471704D02*
X126816885Y-85671704D01*
X127121647Y-85671704D01*
X127197838Y-85709800D01*
X127235933Y-85747895D01*
X127274028Y-85824085D01*
X127274028Y-85938371D01*
X127235933Y-86014561D01*
X127197838Y-86052657D01*
X127121647Y-86090752D01*
X126816885Y-86090752D01*
X127959742Y-85938371D02*
X127959742Y-86471704D01*
X127769266Y-85633609D02*
X127578790Y-86205038D01*
X128074028Y-86205038D01*
X116669676Y-47597104D02*
X117126819Y-47597104D01*
X116898247Y-48397104D02*
X116898247Y-47597104D01*
X117393485Y-48397104D02*
X117393485Y-47597104D01*
X117698247Y-47597104D01*
X117774438Y-47635200D01*
X117812533Y-47673295D01*
X117850628Y-47749485D01*
X117850628Y-47863771D01*
X117812533Y-47939961D01*
X117774438Y-47978057D01*
X117698247Y-48016152D01*
X117393485Y-48016152D01*
X118574438Y-47597104D02*
X118193485Y-47597104D01*
X118155390Y-47978057D01*
X118193485Y-47939961D01*
X118269676Y-47901866D01*
X118460152Y-47901866D01*
X118536342Y-47939961D01*
X118574438Y-47978057D01*
X118612533Y-48054247D01*
X118612533Y-48244723D01*
X118574438Y-48320914D01*
X118536342Y-48359009D01*
X118460152Y-48397104D01*
X118269676Y-48397104D01*
X118193485Y-48359009D01*
X118155390Y-48320914D01*
X124433876Y-75897304D02*
X124891019Y-75897304D01*
X124662447Y-76697304D02*
X124662447Y-75897304D01*
X125157685Y-76697304D02*
X125157685Y-75897304D01*
X125462447Y-75897304D01*
X125538638Y-75935400D01*
X125576733Y-75973495D01*
X125614828Y-76049685D01*
X125614828Y-76163971D01*
X125576733Y-76240161D01*
X125538638Y-76278257D01*
X125462447Y-76316352D01*
X125157685Y-76316352D01*
X126300542Y-75897304D02*
X126148161Y-75897304D01*
X126071971Y-75935400D01*
X126033876Y-75973495D01*
X125957685Y-76087780D01*
X125919590Y-76240161D01*
X125919590Y-76544923D01*
X125957685Y-76621114D01*
X125995780Y-76659209D01*
X126071971Y-76697304D01*
X126224352Y-76697304D01*
X126300542Y-76659209D01*
X126338638Y-76621114D01*
X126376733Y-76544923D01*
X126376733Y-76354447D01*
X126338638Y-76278257D01*
X126300542Y-76240161D01*
X126224352Y-76202066D01*
X126071971Y-76202066D01*
X125995780Y-76240161D01*
X125957685Y-76278257D01*
X125919590Y-76354447D01*
X139275676Y-70152304D02*
X139732819Y-70152304D01*
X139504247Y-70952304D02*
X139504247Y-70152304D01*
X139999485Y-70952304D02*
X139999485Y-70152304D01*
X140304247Y-70152304D01*
X140380438Y-70190400D01*
X140418533Y-70228495D01*
X140456628Y-70304685D01*
X140456628Y-70418971D01*
X140418533Y-70495161D01*
X140380438Y-70533257D01*
X140304247Y-70571352D01*
X139999485Y-70571352D01*
X140723295Y-70152304D02*
X141256628Y-70152304D01*
X140913771Y-70952304D01*
X157758676Y-81993304D02*
X158215819Y-81993304D01*
X157987247Y-82793304D02*
X157987247Y-81993304D01*
X158482485Y-82793304D02*
X158482485Y-81993304D01*
X158787247Y-81993304D01*
X158863438Y-82031400D01*
X158901533Y-82069495D01*
X158939628Y-82145685D01*
X158939628Y-82259971D01*
X158901533Y-82336161D01*
X158863438Y-82374257D01*
X158787247Y-82412352D01*
X158482485Y-82412352D01*
X159396771Y-82336161D02*
X159320580Y-82298066D01*
X159282485Y-82259971D01*
X159244390Y-82183780D01*
X159244390Y-82145685D01*
X159282485Y-82069495D01*
X159320580Y-82031400D01*
X159396771Y-81993304D01*
X159549152Y-81993304D01*
X159625342Y-82031400D01*
X159663438Y-82069495D01*
X159701533Y-82145685D01*
X159701533Y-82183780D01*
X159663438Y-82259971D01*
X159625342Y-82298066D01*
X159549152Y-82336161D01*
X159396771Y-82336161D01*
X159320580Y-82374257D01*
X159282485Y-82412352D01*
X159244390Y-82488542D01*
X159244390Y-82640923D01*
X159282485Y-82717114D01*
X159320580Y-82755209D01*
X159396771Y-82793304D01*
X159549152Y-82793304D01*
X159625342Y-82755209D01*
X159663438Y-82717114D01*
X159701533Y-82640923D01*
X159701533Y-82488542D01*
X159663438Y-82412352D01*
X159625342Y-82374257D01*
X159549152Y-82336161D01*
X119466590Y-76316031D02*
X119466590Y-75674909D01*
X119619239Y-75674909D01*
X119710827Y-75705439D01*
X119771887Y-75766498D01*
X119802416Y-75827557D01*
X119832946Y-75949675D01*
X119832946Y-76041264D01*
X119802416Y-76163383D01*
X119771887Y-76224442D01*
X119710827Y-76285501D01*
X119619239Y-76316031D01*
X119466590Y-76316031D01*
X120443538Y-76316031D02*
X120077183Y-76316031D01*
X120260361Y-76316031D02*
X120260361Y-75674909D01*
X120199301Y-75766498D01*
X120138242Y-75827557D01*
X120077183Y-75858087D01*
%LPC*%
D18*
X152655000Y-58017400D03*
X155195000Y-58017400D03*
D19*
X110665000Y-96600000D03*
X105665000Y-96600000D03*
D20*
X119344800Y-97590600D03*
G36*
G01*
X124995600Y-96990600D02*
X124995600Y-98190600D01*
G75*
G02*
X124944800Y-98241400I-50800J0D01*
G01*
X123744800Y-98241400D01*
G75*
G02*
X123694000Y-98190600I0J50800D01*
G01*
X123694000Y-96990600D01*
G75*
G02*
X123744800Y-96939800I50800J0D01*
G01*
X124944800Y-96939800D01*
G75*
G02*
X124995600Y-96990600I0J-50800D01*
G01*
G37*
G36*
G01*
X152129600Y-69464800D02*
X152129600Y-67956800D01*
G75*
G02*
X152180400Y-67906000I50800J0D01*
G01*
X153688400Y-67906000D01*
G75*
G02*
X153739200Y-67956800I0J-50800D01*
G01*
X153739200Y-69464800D01*
G75*
G02*
X153688400Y-69515600I-50800J0D01*
G01*
X152180400Y-69515600D01*
G75*
G02*
X152129600Y-69464800I0J50800D01*
G01*
G37*
D21*
X155474400Y-68710800D03*
G36*
G01*
X113242600Y-87147600D02*
X113242600Y-85427600D01*
G75*
G02*
X113293400Y-85376800I50800J0D01*
G01*
X114343400Y-85376800D01*
G75*
G02*
X114394200Y-85427600I0J-50800D01*
G01*
X114394200Y-87147600D01*
G75*
G02*
X114343400Y-87198400I-50800J0D01*
G01*
X113293400Y-87198400D01*
G75*
G02*
X113242600Y-87147600I0J50800D01*
G01*
G37*
G36*
G01*
X110322600Y-87147600D02*
X110322600Y-85427600D01*
G75*
G02*
X110373400Y-85376800I50800J0D01*
G01*
X111423400Y-85376800D01*
G75*
G02*
X111474200Y-85427600I0J-50800D01*
G01*
X111474200Y-87147600D01*
G75*
G02*
X111423400Y-87198400I-50800J0D01*
G01*
X110373400Y-87198400D01*
G75*
G02*
X110322600Y-87147600I0J50800D01*
G01*
G37*
G36*
G01*
X111676800Y-78904200D02*
X111676800Y-80412200D01*
G75*
G02*
X111626000Y-80463000I-50800J0D01*
G01*
X110118000Y-80463000D01*
G75*
G02*
X110067200Y-80412200I0J50800D01*
G01*
X110067200Y-78904200D01*
G75*
G02*
X110118000Y-78853400I50800J0D01*
G01*
X111626000Y-78853400D01*
G75*
G02*
X111676800Y-78904200I0J-50800D01*
G01*
G37*
X108332000Y-79658200D03*
D22*
X146076400Y-99876600D03*
X131090400Y-93679000D03*
D23*
X142571200Y-95685600D03*
X138583400Y-95685600D03*
X134595600Y-95685600D03*
G36*
G01*
X124384800Y-62665600D02*
X127305800Y-62665600D01*
G75*
G02*
X127356600Y-62716400I0J-50800D01*
G01*
X127356600Y-65967600D01*
G75*
G02*
X127305800Y-66018400I-50800J0D01*
G01*
X124384800Y-66018400D01*
G75*
G02*
X124334000Y-65967600I0J50800D01*
G01*
X124334000Y-62716400D01*
G75*
G02*
X124384800Y-62665600I50800J0D01*
G01*
G37*
G36*
G01*
X132944600Y-62665600D02*
X135865600Y-62665600D01*
G75*
G02*
X135916400Y-62716400I0J-50800D01*
G01*
X135916400Y-65967600D01*
G75*
G02*
X135865600Y-66018400I-50800J0D01*
G01*
X132944600Y-66018400D01*
G75*
G02*
X132893800Y-65967600I0J50800D01*
G01*
X132893800Y-62716400D01*
G75*
G02*
X132944600Y-62665600I50800J0D01*
G01*
G37*
G36*
G01*
X149208600Y-80818600D02*
X149208600Y-79310600D01*
G75*
G02*
X149259400Y-79259800I50800J0D01*
G01*
X150767400Y-79259800D01*
G75*
G02*
X150818200Y-79310600I0J-50800D01*
G01*
X150818200Y-80818600D01*
G75*
G02*
X150767400Y-80869400I-50800J0D01*
G01*
X149259400Y-80869400D01*
G75*
G02*
X149208600Y-80818600I0J50800D01*
G01*
G37*
D21*
X152553400Y-80064600D03*
G36*
G01*
X110389400Y-71582400D02*
X109322600Y-71582400D01*
G75*
G02*
X109271800Y-71531600I0J50800D01*
G01*
X109271800Y-68531600D01*
G75*
G02*
X109322600Y-68480800I50800J0D01*
G01*
X110389400Y-68480800D01*
G75*
G02*
X110440200Y-68531600I0J-50800D01*
G01*
X110440200Y-71531600D01*
G75*
G02*
X110389400Y-71582400I-50800J0D01*
G01*
G37*
G36*
G01*
X108687600Y-71582400D02*
X107620800Y-71582400D01*
G75*
G02*
X107570000Y-71531600I0J50800D01*
G01*
X107570000Y-68531600D01*
G75*
G02*
X107620800Y-68480800I50800J0D01*
G01*
X108687600Y-68480800D01*
G75*
G02*
X108738400Y-68531600I0J-50800D01*
G01*
X108738400Y-71531600D01*
G75*
G02*
X108687600Y-71582400I-50800J0D01*
G01*
G37*
G36*
G01*
X106985800Y-71582400D02*
X105919000Y-71582400D01*
G75*
G02*
X105868200Y-71531600I0J50800D01*
G01*
X105868200Y-68531600D01*
G75*
G02*
X105919000Y-68480800I50800J0D01*
G01*
X106985800Y-68480800D01*
G75*
G02*
X107036600Y-68531600I0J-50800D01*
G01*
X107036600Y-71531600D01*
G75*
G02*
X106985800Y-71582400I-50800J0D01*
G01*
G37*
G36*
G01*
X105284000Y-71582400D02*
X104217200Y-71582400D01*
G75*
G02*
X104166400Y-71531600I0J50800D01*
G01*
X104166400Y-68531600D01*
G75*
G02*
X104217200Y-68480800I50800J0D01*
G01*
X105284000Y-68480800D01*
G75*
G02*
X105334800Y-68531600I0J-50800D01*
G01*
X105334800Y-71531600D01*
G75*
G02*
X105284000Y-71582400I-50800J0D01*
G01*
G37*
G36*
G01*
X103582200Y-71582400D02*
X102515400Y-71582400D01*
G75*
G02*
X102464600Y-71531600I0J50800D01*
G01*
X102464600Y-68531600D01*
G75*
G02*
X102515400Y-68480800I50800J0D01*
G01*
X103582200Y-68480800D01*
G75*
G02*
X103633000Y-68531600I0J-50800D01*
G01*
X103633000Y-71531600D01*
G75*
G02*
X103582200Y-71582400I-50800J0D01*
G01*
G37*
G36*
G01*
X111852400Y-65956200D02*
X101052400Y-65956200D01*
G75*
G02*
X101001600Y-65905400I0J50800D01*
G01*
X101001600Y-55495400D01*
G75*
G02*
X101052400Y-55444600I50800J0D01*
G01*
X111852400Y-55444600D01*
G75*
G02*
X111903200Y-55495400I0J-50800D01*
G01*
X111903200Y-65905400D01*
G75*
G02*
X111852400Y-65956200I-50800J0D01*
G01*
G37*
G36*
G01*
X147929200Y-88127600D02*
X149659200Y-88127600D01*
G75*
G02*
X149710000Y-88178400I0J-50800D01*
G01*
X149710000Y-89148400D01*
G75*
G02*
X149659200Y-89199200I-50800J0D01*
G01*
X147929200Y-89199200D01*
G75*
G02*
X147878400Y-89148400I0J50800D01*
G01*
X147878400Y-88178400D01*
G75*
G02*
X147929200Y-88127600I50800J0D01*
G01*
G37*
G36*
G01*
X147929200Y-85167600D02*
X149659200Y-85167600D01*
G75*
G02*
X149710000Y-85218400I0J-50800D01*
G01*
X149710000Y-86188400D01*
G75*
G02*
X149659200Y-86239200I-50800J0D01*
G01*
X147929200Y-86239200D01*
G75*
G02*
X147878400Y-86188400I0J50800D01*
G01*
X147878400Y-85218400D01*
G75*
G02*
X147929200Y-85167600I50800J0D01*
G01*
G37*
G36*
G01*
X148179200Y-72135800D02*
X148179200Y-70365800D01*
G75*
G02*
X148230000Y-70315000I50800J0D01*
G01*
X149460000Y-70315000D01*
G75*
G02*
X149510800Y-70365800I0J-50800D01*
G01*
X149510800Y-72135800D01*
G75*
G02*
X149460000Y-72186600I-50800J0D01*
G01*
X148230000Y-72186600D01*
G75*
G02*
X148179200Y-72135800I0J50800D01*
G01*
G37*
G36*
G01*
X145247200Y-72135800D02*
X145247200Y-70365800D01*
G75*
G02*
X145298000Y-70315000I50800J0D01*
G01*
X146528000Y-70315000D01*
G75*
G02*
X146578800Y-70365800I0J-50800D01*
G01*
X146578800Y-72135800D01*
G75*
G02*
X146528000Y-72186600I-50800J0D01*
G01*
X145298000Y-72186600D01*
G75*
G02*
X145247200Y-72135800I0J50800D01*
G01*
G37*
G36*
G01*
X141098000Y-85462100D02*
X141098000Y-87163900D01*
G75*
G02*
X141047200Y-87214700I-50800J0D01*
G01*
X139929600Y-87214700D01*
G75*
G02*
X139878800Y-87163900I0J50800D01*
G01*
X139878800Y-85462100D01*
G75*
G02*
X139929600Y-85411300I50800J0D01*
G01*
X141047200Y-85411300D01*
G75*
G02*
X141098000Y-85462100I0J-50800D01*
G01*
G37*
G36*
G01*
X143688800Y-85462100D02*
X143688800Y-87163900D01*
G75*
G02*
X143638000Y-87214700I-50800J0D01*
G01*
X142520400Y-87214700D01*
G75*
G02*
X142469600Y-87163900I0J50800D01*
G01*
X142469600Y-85462100D01*
G75*
G02*
X142520400Y-85411300I50800J0D01*
G01*
X143638000Y-85411300D01*
G75*
G02*
X143688800Y-85462100I0J-50800D01*
G01*
G37*
G36*
G01*
X132754100Y-88116400D02*
X134455900Y-88116400D01*
G75*
G02*
X134506700Y-88167200I0J-50800D01*
G01*
X134506700Y-89284800D01*
G75*
G02*
X134455900Y-89335600I-50800J0D01*
G01*
X132754100Y-89335600D01*
G75*
G02*
X132703300Y-89284800I0J50800D01*
G01*
X132703300Y-88167200D01*
G75*
G02*
X132754100Y-88116400I50800J0D01*
G01*
G37*
G36*
G01*
X132754100Y-85525600D02*
X134455900Y-85525600D01*
G75*
G02*
X134506700Y-85576400I0J-50800D01*
G01*
X134506700Y-86694000D01*
G75*
G02*
X134455900Y-86744800I-50800J0D01*
G01*
X132754100Y-86744800D01*
G75*
G02*
X132703300Y-86694000I0J50800D01*
G01*
X132703300Y-85576400D01*
G75*
G02*
X132754100Y-85525600I50800J0D01*
G01*
G37*
G36*
G01*
X119800100Y-88802200D02*
X121501900Y-88802200D01*
G75*
G02*
X121552700Y-88853000I0J-50800D01*
G01*
X121552700Y-89970600D01*
G75*
G02*
X121501900Y-90021400I-50800J0D01*
G01*
X119800100Y-90021400D01*
G75*
G02*
X119749300Y-89970600I0J50800D01*
G01*
X119749300Y-88853000D01*
G75*
G02*
X119800100Y-88802200I50800J0D01*
G01*
G37*
G36*
G01*
X119800100Y-86211400D02*
X121501900Y-86211400D01*
G75*
G02*
X121552700Y-86262200I0J-50800D01*
G01*
X121552700Y-87379800D01*
G75*
G02*
X121501900Y-87430600I-50800J0D01*
G01*
X119800100Y-87430600D01*
G75*
G02*
X119749300Y-87379800I0J50800D01*
G01*
X119749300Y-86262200D01*
G75*
G02*
X119800100Y-86211400I50800J0D01*
G01*
G37*
G36*
G01*
X147424000Y-57701400D02*
X145694000Y-57701400D01*
G75*
G02*
X145643200Y-57650600I0J50800D01*
G01*
X145643200Y-56680600D01*
G75*
G02*
X145694000Y-56629800I50800J0D01*
G01*
X147424000Y-56629800D01*
G75*
G02*
X147474800Y-56680600I0J-50800D01*
G01*
X147474800Y-57650600D01*
G75*
G02*
X147424000Y-57701400I-50800J0D01*
G01*
G37*
G36*
G01*
X147424000Y-60661400D02*
X145694000Y-60661400D01*
G75*
G02*
X145643200Y-60610600I0J50800D01*
G01*
X145643200Y-59640600D01*
G75*
G02*
X145694000Y-59589800I50800J0D01*
G01*
X147424000Y-59589800D01*
G75*
G02*
X147474800Y-59640600I0J-50800D01*
G01*
X147474800Y-60610600D01*
G75*
G02*
X147424000Y-60661400I-50800J0D01*
G01*
G37*
G36*
G01*
X149051800Y-94863200D02*
X150771800Y-94863200D01*
G75*
G02*
X150822600Y-94914000I0J-50800D01*
G01*
X150822600Y-96254000D01*
G75*
G02*
X150771800Y-96304800I-50800J0D01*
G01*
X149051800Y-96304800D01*
G75*
G02*
X149001000Y-96254000I0J50800D01*
G01*
X149001000Y-94914000D01*
G75*
G02*
X149051800Y-94863200I50800J0D01*
G01*
G37*
G36*
G01*
X149051800Y-92183200D02*
X150771800Y-92183200D01*
G75*
G02*
X150822600Y-92234000I0J-50800D01*
G01*
X150822600Y-93574000D01*
G75*
G02*
X150771800Y-93624800I-50800J0D01*
G01*
X149051800Y-93624800D01*
G75*
G02*
X149001000Y-93574000I0J50800D01*
G01*
X149001000Y-92234000D01*
G75*
G02*
X149051800Y-92183200I50800J0D01*
G01*
G37*
G36*
G01*
X143960200Y-78066000D02*
X143960200Y-79574000D01*
G75*
G02*
X143909400Y-79624800I-50800J0D01*
G01*
X142401400Y-79624800D01*
G75*
G02*
X142350600Y-79574000I0J50800D01*
G01*
X142350600Y-78066000D01*
G75*
G02*
X142401400Y-78015200I50800J0D01*
G01*
X143909400Y-78015200D01*
G75*
G02*
X143960200Y-78066000I0J-50800D01*
G01*
G37*
X140615400Y-78820000D03*
X133605000Y-79048600D03*
X131065000Y-79048600D03*
G36*
G01*
X120082000Y-57962600D02*
X120082000Y-60143000D01*
G75*
G02*
X120031200Y-60193800I-50800J0D01*
G01*
X116851200Y-60193800D01*
G75*
G02*
X116800400Y-60143000I0J50800D01*
G01*
X116800400Y-57962600D01*
G75*
G02*
X116851200Y-57911800I50800J0D01*
G01*
X120031200Y-57911800D01*
G75*
G02*
X120082000Y-57962600I0J-50800D01*
G01*
G37*
G36*
G01*
X120082000Y-64217000D02*
X120082000Y-66397400D01*
G75*
G02*
X120031200Y-66448200I-50800J0D01*
G01*
X116851200Y-66448200D01*
G75*
G02*
X116800400Y-66397400I0J50800D01*
G01*
X116800400Y-64217000D01*
G75*
G02*
X116851200Y-64166200I50800J0D01*
G01*
X120031200Y-64166200D01*
G75*
G02*
X120082000Y-64217000I0J-50800D01*
G01*
G37*
G36*
G01*
X140476600Y-58537200D02*
X140476600Y-56837200D01*
G75*
G02*
X140527400Y-56786400I50800J0D01*
G01*
X142227400Y-56786400D01*
G75*
G02*
X142278200Y-56837200I0J-50800D01*
G01*
X142278200Y-58537200D01*
G75*
G02*
X142227400Y-58588000I-50800J0D01*
G01*
X140527400Y-58588000D01*
G75*
G02*
X140476600Y-58537200I0J50800D01*
G01*
G37*
D24*
X141377400Y-60227200D03*
X141377400Y-62767200D03*
G36*
G01*
X159856800Y-57521200D02*
X159856800Y-55821200D01*
G75*
G02*
X159907600Y-55770400I50800J0D01*
G01*
X161607600Y-55770400D01*
G75*
G02*
X161658400Y-55821200I0J-50800D01*
G01*
X161658400Y-57521200D01*
G75*
G02*
X161607600Y-57572000I-50800J0D01*
G01*
X159907600Y-57572000D01*
G75*
G02*
X159856800Y-57521200I0J50800D01*
G01*
G37*
X160757600Y-59211200D03*
X160757600Y-61751200D03*
X160757600Y-64291200D03*
X160757600Y-66831200D03*
X160757600Y-69371200D03*
X160757600Y-71911200D03*
X160757600Y-74451200D03*
D25*
X161496000Y-92105400D03*
D26*
X156846000Y-95355400D03*
X156846000Y-89425400D03*
G36*
G01*
X104199600Y-78297800D02*
X104199600Y-79697800D01*
G75*
G02*
X104148800Y-79748600I-50800J0D01*
G01*
X101948800Y-79748600D01*
G75*
G02*
X101898000Y-79697800I0J50800D01*
G01*
X101898000Y-78297800D01*
G75*
G02*
X101948800Y-78247000I50800J0D01*
G01*
X104148800Y-78247000D01*
G75*
G02*
X104199600Y-78297800I0J-50800D01*
G01*
G37*
G36*
G01*
X118118800Y-71947800D02*
X118118800Y-73347800D01*
G75*
G02*
X118068000Y-73398600I-50800J0D01*
G01*
X115868000Y-73398600D01*
G75*
G02*
X115817200Y-73347800I0J50800D01*
G01*
X115817200Y-71947800D01*
G75*
G02*
X115868000Y-71897000I50800J0D01*
G01*
X118068000Y-71897000D01*
G75*
G02*
X118118800Y-71947800I0J-50800D01*
G01*
G37*
G36*
G01*
X147455800Y-62397400D02*
X147455800Y-63797400D01*
G75*
G02*
X147405000Y-63848200I-50800J0D01*
G01*
X145205000Y-63848200D01*
G75*
G02*
X145154200Y-63797400I0J50800D01*
G01*
X145154200Y-62397400D01*
G75*
G02*
X145205000Y-62346600I50800J0D01*
G01*
X147405000Y-62346600D01*
G75*
G02*
X147455800Y-62397400I0J-50800D01*
G01*
G37*
G36*
G01*
X125723200Y-88714800D02*
X125723200Y-87314800D01*
G75*
G02*
X125774000Y-87264000I50800J0D01*
G01*
X127974000Y-87264000D01*
G75*
G02*
X128024800Y-87314800I0J-50800D01*
G01*
X128024800Y-88714800D01*
G75*
G02*
X127974000Y-88765600I-50800J0D01*
G01*
X125774000Y-88765600D01*
G75*
G02*
X125723200Y-88714800I0J50800D01*
G01*
G37*
G36*
G01*
X118855400Y-45404800D02*
X118855400Y-46804800D01*
G75*
G02*
X118804600Y-46855600I-50800J0D01*
G01*
X116604600Y-46855600D01*
G75*
G02*
X116553800Y-46804800I0J50800D01*
G01*
X116553800Y-45404800D01*
G75*
G02*
X116604600Y-45354000I50800J0D01*
G01*
X118804600Y-45354000D01*
G75*
G02*
X118855400Y-45404800I0J-50800D01*
G01*
G37*
G36*
G01*
X127034200Y-73827400D02*
X127034200Y-75227400D01*
G75*
G02*
X126983400Y-75278200I-50800J0D01*
G01*
X124783400Y-75278200D01*
G75*
G02*
X124732600Y-75227400I0J50800D01*
G01*
X124732600Y-73827400D01*
G75*
G02*
X124783400Y-73776600I50800J0D01*
G01*
X126983400Y-73776600D01*
G75*
G02*
X127034200Y-73827400I0J-50800D01*
G01*
G37*
G36*
G01*
X141410600Y-71668400D02*
X141410600Y-73068400D01*
G75*
G02*
X141359800Y-73119200I-50800J0D01*
G01*
X139159800Y-73119200D01*
G75*
G02*
X139109000Y-73068400I0J50800D01*
G01*
X139109000Y-71668400D01*
G75*
G02*
X139159800Y-71617600I50800J0D01*
G01*
X141359800Y-71617600D01*
G75*
G02*
X141410600Y-71668400I0J-50800D01*
G01*
G37*
G36*
G01*
X160359000Y-79923400D02*
X160359000Y-81323400D01*
G75*
G02*
X160308200Y-81374200I-50800J0D01*
G01*
X158108200Y-81374200D01*
G75*
G02*
X158057400Y-81323400I0J50800D01*
G01*
X158057400Y-79923400D01*
G75*
G02*
X158108200Y-79872600I50800J0D01*
G01*
X160308200Y-79872600D01*
G75*
G02*
X160359000Y-79923400I0J-50800D01*
G01*
G37*
G36*
G01*
X117865000Y-80513800D02*
X117865000Y-79005800D01*
G75*
G02*
X117915800Y-78955000I50800J0D01*
G01*
X119423800Y-78955000D01*
G75*
G02*
X119474600Y-79005800I0J-50800D01*
G01*
X119474600Y-80513800D01*
G75*
G02*
X119423800Y-80564600I-50800J0D01*
G01*
X117915800Y-80564600D01*
G75*
G02*
X117865000Y-80513800I0J50800D01*
G01*
G37*
D21*
X121209800Y-79759800D03*
G36*
G01*
X107405800Y-52112800D02*
X109105800Y-52112800D01*
G75*
G02*
X109156600Y-52163600I0J-50800D01*
G01*
X109156600Y-53863600D01*
G75*
G02*
X109105800Y-53914400I-50800J0D01*
G01*
X107405800Y-53914400D01*
G75*
G02*
X107355000Y-53863600I0J50800D01*
G01*
X107355000Y-52163600D01*
G75*
G02*
X107405800Y-52112800I50800J0D01*
G01*
G37*
D24*
X108255800Y-50473600D03*
X110795800Y-53013600D03*
X110795800Y-50473600D03*
X113335800Y-53013600D03*
X113335800Y-50473600D03*
X115875800Y-53013600D03*
X115875800Y-50473600D03*
X118415800Y-53013600D03*
X118415800Y-50473600D03*
X120955800Y-53013600D03*
X120955800Y-50473600D03*
X123495800Y-53013600D03*
X123495800Y-50473600D03*
X126035800Y-53013600D03*
X126035800Y-50473600D03*
X128575800Y-53013600D03*
X128575800Y-50473600D03*
X131115800Y-53013600D03*
X131115800Y-50473600D03*
X133655800Y-53013600D03*
X133655800Y-50473600D03*
X136195800Y-53013600D03*
X136195800Y-50473600D03*
X138735800Y-53013600D03*
X138735800Y-50473600D03*
X141275800Y-53013600D03*
X141275800Y-50473600D03*
X143815800Y-53013600D03*
X143815800Y-50473600D03*
X146355800Y-53013600D03*
X146355800Y-50473600D03*
X148895800Y-53013600D03*
X148895800Y-50473600D03*
X151435800Y-53013600D03*
X151435800Y-50473600D03*
X153975800Y-53013600D03*
X153975800Y-50473600D03*
X156515800Y-53013600D03*
X156515800Y-50473600D03*
M02*
